<svg id="Слой_1" data-name="Слой 1" xmlns="http://www.w3.org/2000/svg" viewBox="0 0 2000 1861"><defs><style>.cls-1{fill:#fefefe;}.cls-2{fill:#033536;}.cls-3{fill:#e7f0ef;}.cls-4{fill:#411e00;}.cls-5{fill:#5d5d5d;}.cls-6{fill:#0f677b;}.cls-7{fill:#714d3d;}.cls-8{fill:#dde1e2;}.cls-9{fill:#bebebe;}.cls-10{fill:#aeaeae;}.cls-11{fill:#724e3e;}.cls-12{fill:#ef472a;}.cls-13{fill:#437e39;}.cls-14{fill:#f5b496;}.cls-15{fill:#d6dadb;}.cls-16{fill:#f5b497;}.cls-17{fill:#0f667a;}.cls-18{fill:#714d3e;}.cls-19{fill:#2a5124;}.cls-20{fill:#704e3e;}.cls-21{fill:#bdbfc0;}.cls-22{fill:#f7b69a;}.cls-23{fill:#5b5c5c;}.cls-24{fill:#265023;}.cls-25{fill:#265121;}.cls-26{fill:#255122;}.cls-27{fill:#ef482b;}.cls-28{fill:#10677b;}.cls-29{fill:#011513;}.cls-30{fill:#bfbfbf;}.cls-31{fill:#e8f1f2;}.cls-32{fill:#714e3e;}.cls-33{fill:#bebebf;}.cls-34{fill:#051410;}.cls-35{fill:#04130f;}.cls-36{fill:#0c4f58;}.cls-37{fill:#f59676;}.cls-38{fill:#f2b598;}.cls-39{fill:#f5b597;}.cls-40{fill:#16b5c5;}.cls-41{fill:#6e4c3c;}.cls-42{fill:#fbfbfa;}.cls-43{fill:#1cb3c2;}.cls-44{fill:#edb79c;}.cls-45{fill:#0d4f57;}.cls-46{fill:#86a7ac;}.cls-47{fill:#ee472a;}</style></defs><path class="cls-1" d="M1487.78,1059.89c-4.36,6-9.81,9.69-17.46,9.61a34.27,34.27,0,0,0-6.94.2l-57.49.26c-1.58,2.72-4.28,2.13-6.68,2.14-16.9.05-33.81.12-50.71,0-3.85,0-7.66,1.19-11.51.59a9.59,9.59,0,0,1-1.27-.27h0c-3.5-.32-7-.21-10.49-.21h-254.7c-3.49,0-7,0-10.48-.26h0c-3.32.25-6.64.26-10,.26H406.56c-3.66,0-7.32-.09-11-.37h-.12a16.74,16.74,0,0,1-7.37-.31h0a10.39,10.39,0,0,1-1.36-.54,10,10,0,0,1-1.65-1,9.22,9.22,0,0,1-2.76-3.49c-6.12-11.64-16.39-16.17-28.85-16.3-23.66-.23-47.33,0-71-.1-14.52-.07-26.31-8.85-30.72-22.65-2.51-7.84-.66-10.56,7.54-10.57q76-.12,152,0,51.49,0,103,0c5.32,0,10.63.17,16,.35h0c7.5.25,15,.52,22.5.34a39.24,39.24,0,0,0,10.21-1.26h0l.61-.19c8.6-2.53,12.41-8,11.27-16.1-1-6.8-7.08-11.69-15-11.9-8.91-.23-17.86.36-26.76-.44h0c-.81-.06-1.61-.14-2.42-.25l-.64-.07c-2-.73-2.86-1.79-.9-3.51a7.58,7.58,0,0,1,3.14-1.51,52.66,52.66,0,0,0,27.32-17.51c3.73-4.4,8.09-5.34,13.4-4.52,5,.78,10.08,1.82,15.26,1-3.41-1.74-7.15-1.8-10.78-2.23a28.72,28.72,0,0,1-5.91-.9c-1.73-.59-3.79-1-3.78-3.33,0-2.55,1.79-3.82,4-4.46,2.61-.75,5.3-.38,8-.46s5.62.18,8.45-.89c-2.95-1.33-6.14-.77-9.22-1s-7.27.71-7.41-3.74c-.13-4.13,3.73-5,7.21-5.32a66.16,66.16,0,0,0,9.54-1.86c-3.28-1.31-6.47.13-9.69,0-5-.25-6.49-1.24-6.53-6.09a60.09,60.09,0,0,0-4.9-23.29,21.18,21.18,0,0,1-1.2-8.36c0-11.16,0-22.33,0-33.49,0-1.81.32-3.67-.62-5.79-4.6,1.67-8,5.16-11.69,8-3.44,2.61-6.95,5.16-10.29,7.91a12.8,12.8,0,0,1-12.13,2.6,52.63,52.63,0,0,0-26.67.08,11.35,11.35,0,0,1-10.33-2.1q-11-8.25-21.94-16.47c-1.85,1.07-1.13,2.74-1.14,4.07-.08,8.33,0,16.67-.06,25,0,2.51,0,5.05-2.26,6.85a8.8,8.8,0,0,1-1.17.55c-2.25.84-4.54.54-6.84.26h0a20.73,20.73,0,0,0-4.3-.24c-2.32.31-4.21-.86-6.07-1.93-18.26-10.53-37.84-17.24-58.82-19.11-14.07-1.26-28.22-1-42.19,2-3.07.67-6.44,2.4-9.5-.32-4.73-18.39-7.91-37.1-11.71-55.68q-19.35-94.65-38.4-189.36-18.35-90.51-36.69-181C250,435.68,259.24,421.6,274,418.93h0c1.77-.72,3.62-.36,5.43-.36q269,0,537.93,0c10.29,0,14.62,3.29,16.72,13.35,6.48,30.93,12.6,61.93,19,92.89q9.42,45.94,18.68,91.92c7.65,37.82,15.1,75.68,22.86,113.47,6.39,31.12,12.62,62.27,19.07,93.37,3.35,16.12,6.39,32.3,10.09,48.35,2.06,9-.86,16.91-7,20.8-1.13.71-2.44.49-3.48,1.16L913,894c-3.35,1.18-6.85,1.19-10.34,1.19q-52.14,0-104.27,0c-1.65,0-3.3.2-5,.3h0c-1.39,1.49-3.22,1.56-5,1.56-9.77,0-19.55.35-29.31-.26l-1.15,0c-16.07.65-32.14.16-48.22.26-14,.09-27.93.06-41.9,0-2.46,0-5,.34-7.31-1l0,0c-2.58-2.07-2.42-4.85-2-7.72,3.76-24.64,8.11-49.2,12.1-73.8,2.29-14.11,4.79-28.18,7.07-42.29,1.71-10.61-4.42-21.41-14.16-24.89-4.79-1.71-6.47-.82-7.29,4.12C652.4,774.34,648.6,797.13,645,820c-3.63,23.14-7.5,46.25-11.29,69.37-4.22,25.75-8.35,51.51-12.65,77.24-1.26,7.54-2.35,15.11-3.59,22.65-1.57,9.57,1.18,17.41,8.9,23.43,3.65,2.86,7.88,3.25,12.28,3.25q57.24,0,114.46,0c2.82,0,5.67-.25,8.45.54l.33.05c.47.07.93.13,1.4.18h0c4.06.4,8.16,0,12.22.31s5.66-1.38,6.36-5.17c3.07-16.66,12.9-27.69,28.62-33.67a34.2,34.2,0,0,1,12.19-2.24c6.67,0,13.33.31,20-.1.61,0,1.21-.07,1.82-.13s1.09-.09,1.64-.15a53.21,53.21,0,0,0,8,.31q89.13,0,178.26,0a9.68,9.68,0,0,0,2.41.46l-1.66,1.46,14,.18c-.06-.41-.13-.81-.2-1.22a7.21,7.21,0,0,1,3.79,4.09q11,23.7,35.41,32.83a9.13,9.13,0,0,1,1.19.55c.53.28,1.05.6,1.58.92q.57.34,1.17.66c3.17,1.47,6.55,1.07,9.85,1.07q76.63,0,153.26,0a59.29,59.29,0,0,1,8.43.27h0l1.35,0c21.69-.34,43.4-.05,65.1-.16,6.57,0,6.7-.18,6.76-6.73,0-1.83.09-3.67,0-5.5-.17-4.29,1.67-7.26,5.48-9.27a192.6,192.6,0,0,0,51.83-40.23,196.28,196.28,0,0,0,15.5-19.56c1.31-1.85,2.39-4.15,5.31-3.8,6.16,26,7.32,52.32,5.15,78.86-.64,7.93-.67,7.9,7.26,7.94q23.23.11,46.46.3C1491.68,1020.68,1497.83,1045.94,1487.78,1059.89Z"/><path class="cls-2" d="M981.66,1307.18c-8.85,25.12-17.78,50.22-26.54,75.37q-43.54,125-86.86,250.16c-1.56,4.53-3.23,5.84-7.59,4a48.22,48.22,0,0,0-6.72-1.84c-2.27,1.19-4.52.59-6.76-.08-18.1-5.45-36.24-10.75-54.28-16.37-9-2.4-17.93-5.11-26.78-8-6.48-2.14-7.83-4.47-5.61-10.82q13.07-37.5,26.08-75c9.46-27.38,19.07-54.72,28.57-82.09,19.32-55.68,38.86-111.28,58.14-167q13.49-38.92,27.07-77.82c2.21-6.32,2.09-6.37-4.41-6.64-2.29-.09-4.77.23-6.21-2.25,1.38-3.57,4.56-2.72,7.23-2.81,7.47-.25,7.62-.14,9.94-7,4.19-12.45,7.9-25.08,15.29-36.15,14.95-22.4,34.44-39,60.49-47.17a56.61,56.61,0,0,1,16-2.11c-5.37-.35-11.46,1.58-17.68,1.58-35.27,0-70.54.06-105.82-.07-2.6,0-6.24,1.36-7.25-3,2-2.76,5.09-2.12,7.82-2.13,21.77-.09,43.54,0,65.31,0,29.92-.06,59.84.16,89.75-.13,4.59,1.66,9.22,0,13.83.12,5.15.14,10.3-.12,15.44.29,2.83-.23,5.65-.28,8.48-.28q129.27,0,258.55,0c3,0,6-.3,8.93.56a10.79,10.79,0,0,1,1.82.53,4.62,4.62,0,0,1,2.3,5.51c-.77,3.27-.65,6.56-.82,9.85-.24,1.66-.93,3.24-.91,5-.87,4.59-2.27,9.06-3.3,13.62-13.69,37-40.48,58.17-79,65a37.94,37.94,0,0,1-6.49.22c-12.15,0-24.31.13-36.46,0-59.59-.71-119.17,1.45-178.76.91-8.62-.08-12.22,4.6-14.5,11.64-3.61,9.58-6.66,19.35-10.09,29q-5.89,16.58-11.64,33.23c-4.73,11.78-7.8,24.14-12.48,35.94C984.81,1303.16,984.66,1306.1,981.66,1307.18Z"/><path class="cls-3" d="M524.2,1618c-.14-6.31-2.14-12.3-3.58-18.34-13.72-58-27.08-116-40.61-174q-22-94.31-44-188.61-14.87-64.2-29.89-128.34c-.75-3.2-1.13-6.64-4.19-8.77l-.25-.07c-6.37-2-12.87-.72-19.33-.85h-.27c-.26,0-.52,0-.77,0-4.34.41-6.84,4-10,6.31-4.79,3.58-8.49,3.33-12.46-1.14-1.28-1.44-2.19-3.27-3.89-4.25a4.37,4.37,0,0,0-.87-.42h0l-.11,0c-5.57-.56-11.25-2.17-16.48,1.43-.28,1-.62,1.89-.85,2.86Q315.33,1195.4,294,1287q-9.93,42.51-20,85h0c-3,2-3.24,5.24-3.94,8.26-4.5,19.48-9.12,38.93-13.65,58.41h0c-.18.74-.36,1.5-.53,2.24h0l-.27,1.16a46,46,0,0,0-1.17,5.33c-.75,3.1-2.52,4.4-5.65,4.41-10.95,0-21.9,0-32.85,0-3.41,0-4.74-1.64-4.73-4.9,0-4.15.06-8.3,0-12.44-.06-2.15.07-4.4-2.16-5.74-1.51,1.33-.84,3.11-.86,4.67-.08,7.12,0,14.25-.06,21.37,1.16,2.1,3.19,2.14,5.2,2.21,2.65.1,5.31.06,8,.06,8.3,0,16.61,0,24.91,0,5.32,0,5.7.58,4.66,5.86-.13.65-.4,1.27-.54,1.91-3.17,14.24-6.81,28.37-9.82,42.65-.07.36-.14.72-.22,1.08-.11.57-.23,1.13-.34,1.69-1.35,6.13-3.17,12.15-4.2,18.35-.08.4-.14.8-.2,1.2a.5.5,0,0,1,0,.12c-.18,1.62-1.07,3-1.43,4.61q-5.31,23-10.64,46.07c-5.47,23.6-11.38,47.1-16.35,70.8-3.47,16.54,4.18,27.4,20.59,30.46l8.88,0c13-.52,19.1-8.43,21.83-20.1,3.25-13.9,6.42-27.82,9.67-41.73,1.82-7.8,1.73-7.93,9.81-7.93q45.17,0,90.33,0c2.81,0,5.7.31,8.11-1.67q45.93-.12,91.87-.29c2.81,0,3.65,1.25,4.18,3.73,1.51,7.16,3.09,14.32,5,21.38,3.14,11.7,4.32,23.93,9.36,35.12,2.76-.86,2.86-3.44,3.45-5.59a68.31,68.31,0,0,1,29.21-40.11c2.08-1.37,4.22-2.72,4.89-5.37C524.22,1618.83,524.22,1618.42,524.2,1618Zm-68-48.88-80-.2-.3-39.07.18-20.89a28.68,28.68,0,0,1,5.46-.21c5.14.74,6.46-1.38,6.37-6.38-.28-15.45,0-30.9,0-46.35,2-1,2.17-2.73,2.14-4.64,0-2.83-.42-5.72,0-8.46,1.89-11.23-2.14-19.56-10.89-26.71-5.31-4.33-9.41-9.92-17.4-7.71-.5.14-1.2-.42-1.8-.66,4.22-3.11,2.66-7.72,3.29-11.86,2-13.12-2.12-23.16-12.64-31.63-4.91-3.95-9.17-6.18-15.41-5.86-8.67.46-8.67.14-6.74-8.1,5.74-24.48,11.38-49,17.21-73.44,2.91-12.21,12.23-19.26,24.67-19.06,11.45.18,20.46,7.27,23.26,19,6.55,27.36,12.88,54.79,19.26,82.19q23.81,102.18,47.58,204.36C461.87,1569.16,461.9,1569.15,456.23,1569.13Z"/><path class="cls-3" d="M1767.24,1651.27q-23.48-101-47-202-31.29-134.31-62.58-268.62c-6.21-26.59-12.54-53.16-18.82-79.74-1.95-2.44-4.73-2.1-7.35-2.11-16.78-.06-33.56,0-50.34,0-2.15,0-4.34-.13-6.27,1.12-2.32,9.36-4.75,18.7-6.94,28.1q-41.42,177.62-82.76,355.24-19.56,83.94-39.09,167.87c-3.32,14.3,4.13,26.9,17.56,30s25.86-4.93,29.18-19c3.73-15.89,7.49-31.77,11.06-47.7.69-3.09,1.8-4.4,5.22-4.4q97.5.17,195,0c3.32,0,4.59,1.05,5.3,4.26,3.57,15.92,7.36,31.8,11.14,47.68,3.43,14.43,15.7,22.3,29.55,19C1763.22,1678,1770.53,1665.39,1767.24,1651.27Zm-74.35-82.12h-86.46c-28.82,0-57.64-.13-86.46.11-5,0-5.23-1.37-4.23-5.63q26.91-114.76,53.58-229.58c4.46-19.14,8.76-38.31,13.45-57.38a24.53,24.53,0,0,1,37.18-15.13c6.72,4.15,9.77,10.58,11.47,18q10,43.32,20.12,86.6l45.87,197C1698.81,1569.16,1698.8,1569.15,1692.89,1569.15Z"/><path class="cls-4" d="M982,399.25c-31.31-3.56-55.54-19-72.58-45.07C878.93,307.56,892.28,245.11,938.46,215c3.25-2.11,4.56-2,6.84,1.42,8.08,12,19.63,18.43,34.14,18.46,59.81.14,119.62.24,179.42-.06,15.15-.08,30.32-.52,45.47-.29,26.31.39,45.68,12.51,58.12,35.65a9.32,9.32,0,0,0,5.21,4.86c43.1,16.34,55.91,69.06,25.24,103.58-.66.74-1.26,1.55-1.88,2.32-1.5,4.11-4.52,6.77-8.13,9.08-11.05,7.08-22.85,11.57-36.18,11.08-3.5-.13-6.9,1.39-10.43.48-.58,0-1.16-.06-1.75-.05a109,109,0,0,0-30-.14c-2.83-.23-5.66-.15-8.49-.15H1001.85c-2.83,0-5.66.08-8.49-.1C989.52,400.82,985.45,401.9,982,399.25Z"/><path class="cls-5" d="M381,1099.64c-2.21,2-4.45,3.94-6.6,6-7.89,7.47-15.72,5.61-19.35-4.62-2.66-3.31-1.05-6.28.9-9.08,1.61-2.32,3.81-4.15,5.77-6.18,2.34-2.42,3.81-5.15,2.6-8.54s-4.06-5.82-7.46-5.75c-7.32.14-14.31-2.18-21.64-2.07-18.76.28-37.53.1-56.29.1-25.75.64-45.86-21.22-48.76-44.3-.28-2.21-1-4.66,1.07-6.57.79-23.74,5.56-46.49,16.9-67.59q28.64-53.28,86.2-71.87c1.88-.62,3.75-1.28,5.63-1.92,15.51-3.5,31.16-5.29,47.09-4.27,25,1.6,47.85,9.49,69.1,22.46,2.51.64,5.1,1.11,7.14,2.88,2.28,2,3.89,2.2,4.31-1.42.07-.64.61-1.13.93-1.69V854.34c9.78,7.44,18.67,14.07,27.37,20.92a7.85,7.85,0,0,0,8.06,1.56,51.31,51.31,0,0,1,29.56.08,6.52,6.52,0,0,0,6.73-1.21c8.85-7,17.9-13.73,27.72-21.2V871c0,5,0,10,0,15,0,9.77-.57,19.48,3.94,28.79,2.53,5.22,2.62,11.33,2.3,17.19-.14,2.56.35,3.66,3.2,3.17,3.44-.6,7-.78,10.42-1.23,2.34-.3,4.76-.24,4.92,2.64s-2.28,3.21-4.58,3.42c-4,.38-7.94,1-11.92,1.28-2.12.17-3.68,1-3.63,3.17.06,2.74,2.37,1.46,3.65,1.52,4,.17,8,.09,12,0,2.39,0,4.66.42,4.59,3.26-.07,2.53-2.21,2.88-4.42,2.85-5.16-.07-10.34.13-15.49-.07-2.78-.11-3.89,1.08-4.2,3.91,6.5.74,12.94,1.44,19.38,2.21,2.16.27,4.87.57,4.65,3.42-.26,3.19-3,2.92-5.41,2.62-6.45-.78-12.91-1.5-19.36-2.24-1.67-.19-3.17-.28-4.41,1.4a54.53,54.53,0,0,1-33.62,21.69c-.16,0-.41,0-.47.13-.49.79.52.58.66,1,11.78,5.12,15.45,16.73,8.46,26.7-1.38,2-3,3.61-5.47,3.86,9.56-1.37,19.16-.73,28.74-.59a3.66,3.66,0,0,1,3.29,1.95c-2.12,1.47-4.53.84-6.8.84q-149.94-.09-299.88-.23c-6.83,0-6.83,0-5.17,6.5,3.52,13.79,15.67,23.06,30.67,23.12,23.33.09,46.65.13,70,0,15.31-.08,26.1,6.55,32.18,20.67,5.82,6.15,4.4,13.2,2.15,20.11C386.93,1093.2,386,1097.93,381,1099.64Z"/><path class="cls-6" d="M1414.42,929.19c-.51.85-.92,1.75-1.38,2.64-17.54,26.28-39.51,48-67.48,62.9-7,3.76-9.23,7.79-8.68,15.23.64,8.59.16,8.61-8.4,8.63l-65.35.17a4.07,4.07,0,0,1-1.48-1.66,10.32,10.32,0,0,1-.76-3.6c-2-19-9.54-35.33-23.42-48.63a82.08,82.08,0,0,0-9.77-7.65c-2-1.42-4.21-2.71-5-5.29,0-.12,0-.24-.06-.36,0-.38-.13-.75-.21-1.13-.48-2.18-1.2-4.34-.17-6.61a5.31,5.31,0,0,1,.59-.78,5.38,5.38,0,0,1,.94-.86c1.7-1.2,3.85-1.21,6-1.23,8.65-.06,17.31.16,26-.06a107.29,107.29,0,0,0,61.85-20.71c6.5-4.72,12.88-9.41,17.87-15.77.51-.4,1-.81,1.47-1.25s1.17-1.09,1.72-1.67c3.25-3.4,5.75-7.44,8.26-11.36A112.37,112.37,0,0,0,1365,830.86c.07-.74.12-1.47.15-2.2.57.68,1.12,1.37,1.68,2.05.37-29.17-10.35-54-28.58-75.89l-1.4.37v28.88l.24.17-.23.07c-6.28,2-12.46,0-18.41-1.35a77.26,77.26,0,0,1-44.15-27.45c-8.73-10.92-15.39-23-16.94-37.16-.07-.54-.12-1.08-.16-1.63s-.07-.92-.1-1.38c1.17-4,4.4-6.58,6.89-9.62a180.16,180.16,0,0,0,23.3-35.75,18.07,18.07,0,0,0,1.64-8.17c0-16.44,0-32.88,0-49.32,0-2.45-.41-5,1.41-7.15l.18-.17h0a1.2,1.2,0,0,1,.32-.16.93.93,0,0,1,.94.31c0,10.65.26,21.32-.14,32-.2,5.09,1.36,7.05,6.42,8.37,62.7,16.37,107.39,54.38,131.25,114.51C1452.44,818.41,1446.49,875.22,1414.42,929.19Z"/><path class="cls-7" d="M1291,605.26c.06,16.29-.46,32.61.39,48.87.57,11-3.14,19.92-8.59,28.88A232.63,232.63,0,0,1,1258,716c-.26,2.89-2.15,4.77-4.08,6.64-17.09,16.55-37,28.64-59.13,37.17A172.52,172.52,0,0,1,1140,771.33c-27.94,1.27-55.85.52-83.79.54-6,.56-11.9.23-17.85.24A6.44,6.44,0,0,1,1033,770H984.3c1-2.82,2.86-3.46,4.17-4.59,17.31-15,21.17-40.22,7.14-58-10.83-13.75-14.18-28.59-12.63-45.29,2.78-1.05,4.28,1.08,6,2.5,11.15,9.22,23.72,14.71,38.4,14.39,19.31-.42,33.9-9.46,44.74-25.05,1.71-2.45,3-5.16,4.53-7.76,2.58-4.52,5-4.65,7.46,0a69.1,69.1,0,0,0,14.75,19.35c11.86,10.63,25.93,15.27,41.49,13.12,24.86-3.43,41-18.34,50.39-41.12,2-5,1.41-6-3.83-7.29-28.12-6.93-56.07-14.47-84.17-21.46a14.72,14.72,0,0,1-5.53-2.21c-1.64-1.25-2.17-2.56,0-3.87,3.61-1.5,7.24-.06,10.85-.07q58.56-.09,117.12,0c3,0,5.9-.85,8.82-1.42,15.7-1.54,26.77-13.61,26.85-29.42.07-12.15.35-24.32-.08-36.46-.41-11.49,1.66-22.89.78-34.38a5.22,5.22,0,0,1,2.63-5.06c5.47-1.14,10.93-2,16.23.73,2.14,2.55,1.69,5.65,1.7,8.61q.08,43.24,0,86.48c0,1.84,0,3.67,0,5.5,0,3.24,1,5.54,4.67,5.81C1288.53,603.08,1290.13,603.53,1291,605.26Z"/><path class="cls-3" d="M1337.06,1111a6.5,6.5,0,0,1,.79-4.25c1.33-5.06,2.07-10.1.77-15.35-.61-2.48,0-5.15-.16-7.22-.31,2.24.6,5-.48,7.76l-1-.09c-.73-.68-1.68-1.39-1.69-2.35,0-6.56-2.39-13.33,1.7-19.52,2.28,2.57,4.55-.15,6.85-.11,20.2.32,40.41.35,60.61.45a5.85,5.85,0,0,0,1.44-.36,243,243,0,0,1-33.64,66.07,20.61,20.61,0,0,0-5.14,7,242.89,242.89,0,0,1-45.28,47c-2.61,6.55-9.25,8.63-14.11,12.69-.86.72-2.1,1-2.89,1.87-16.59,11.8-34.88,20.31-53.76,27.68-5.49,1.59-10.64,4.94-16.76,3.33-56.21,16.29-111.73,14.35-166.54-6.25-2.87,1.41-5.46.27-8-1-2.8-1.36-5.76-2.4-8.46-4a226.14,226.14,0,0,1-29.76-15.84,8.4,8.4,0,0,1-4-4.85c.44-1.43.82-2.88,1.31-4.29,2.84-8.07,6.68-10.85,15.19-10.86,68.23-.07,136.48-.71,204.7,0,46.72.5,82.34-28.43,94.43-64.2a3,3,0,0,1,.6-.77A22.23,22.23,0,0,0,1337.06,1111Z"/><path class="cls-8" d="M913,894c7.68-5.23,10.48-13.27,8.5-22.11-4-17.83-7.68-35.72-11.36-53.62-3-14.32-5.64-28.69-8.55-43Q889.83,717.39,878,659.54q-9.71-47.61-19.39-95.23-13.32-65.68-26.55-131.38c-2-9.8-6.82-13.9-16.81-13.9H277.45c-1.17,0-2.33-.07-3.5-.11,3.16-1.62,6.55-.86,9.83-.86Q546.39,418,809,418c12.49,0,25-.2,37.48-.08s17.5,4.41,20,16.45L935.24,771c6,29.51,12,59.05,18.17,88.54a18.75,18.75,0,0,1-4.1,16.78C939.87,887.67,927.05,892.16,913,894Z"/><path class="cls-9" d="M1304.16,1202.78a172.38,172.38,0,0,0,17.67-12.69Q1323,1253,1324.14,1316q1.5,77.68,3.1,155.37,1.41,68.7,2.92,137.38.67,31.23,1.44,62.44c.14,6-2.74,10-7.6,10.61-5.07.64-8.8-2.79-9.91-9q-15.42-85.74-30.87-171.47-15.81-88-31.53-175.93-7.71-43-15.55-86c-.26-1.42-.09-3.09-1.84-3.81l16.43-4.83c2.5,1.08,3,3.35,3.42,5.69,3.7,20.1,7,40.26,10.75,60.36,5,27.29,9.59,54.66,14.58,82,1.52,8.33,2.84,16.71,4.64,25,1.57,7.22,5.63,10.38,12.7,9.9,6.29-.42,10.24-4.6,10.93-11.49.53-5.19-.89-10.28-.8-15.41.49-29.3-1-58.57-1.34-87.86-.2-18.29,0-36.63-1-54.88C1303.89,1230.29,1303.9,1216.55,1304.16,1202.78Z"/><path class="cls-9" d="M1051.79,1223.09l16,6.32c-2.71,4.5-2.09,9.69-2.77,14.55-5.64,40.4-11.07,80.82-16.52,121.24q-7.8,57.91-15.53,115.83c-5.2,38.43-10.52,76.84-15.73,115.27q-5.18,38.09-10.19,76.2c-.79,6-4.16,9.48-9.08,9.29s-8.32-3.72-8.49-9.85c-.39-14-.46-28-.73-42q-1-50.22-2-100.44-1.49-71.46-3-142.92-.78-36.72-1.66-73.45c0-2-.26-4-.39-6l14.88-43.52c2.4,1.13,2.32,3.36,2.55,5.53,1.33,12.28,1,24.6,1,36.91.07,23.15,1.13,46.27,1.25,69.41,0,9.78.52,19.61.81,29.42.14,4.64,1.14,9,5.87,11.33,7.74,3.78,15.22-.21,16.61-9,1.21-7.72,2.14-15.48,3.18-23.22,3.24-24,6.54-48.07,9.73-72.11,2.89-21.74,5.81-43.48,8.51-65.25.77-6.25,1.48-12.53,2.66-18.74C1049.13,1225.86,1049.6,1223.94,1051.79,1223.09Z"/><path class="cls-10" d="M1463.38,1069.7c4.3-1,8.88-.27,13-2.52,9.33-5.06,14.3-12.94,14.19-23.35s-5.16-18.28-14.72-22.94l-4-2q44-.1,87.91-.24c5.65,0,11.33.56,16.93-.69,1.4-2.16,3.65-2.09,5.81-2.1q21.46-.17,42.93,0c2.15,0,4.4-.07,5.8,2.1,2.38,1.12,4.92.68,7.39.68,26.48,0,53-.06,79.45.06,12.07.06,21.7,8.07,24.34,19.76a25.71,25.71,0,0,1-13.08,28.27c-4.54,2.39-9.45,3.06-14.51,3.06q-38.48,0-77,0c-2,0-4,.13-6,.2-1.56,1.81-3.66,2-5.86,2.06q-19.8.11-39.61,0c-1.82,0-3.66,0-5.11-1.41-1.95-1.38-4.18-.82-6.3-.82q-54.36,0-108.73.08C1465.35,1070,1464.37,1069.79,1463.38,1069.7Z"/><path class="cls-6" d="M1059.1,893.73c0,3.48-.21,5.13-1.49,6.16a7.71,7.71,0,0,1-2.79,1.21c-.65.18-1.39.36-2.25.55a12.82,12.82,0,0,0-5.06,2c-1.73,2-1.35,4.36-1.34,6.64.1,18.68-.35,37.37.29,56.05a25,25,0,0,1-1.53,2.58c-.14-.38-.29-.76-.45-1.13l-9.66,8.47-1.66,1.46c-1.66.09-3.32.25-5,.25q-89.24,0-178.45,0c-1.62,0-3.33.48-4.86-.54-.69-.6-1.44-1.1-2.17-1.65A9.48,9.48,0,0,1,840.8,974c-6.75-9.08-15.43-15.9-25.39-21.17a23.84,23.84,0,0,1-2.23-1.33h0a15.51,15.51,0,0,1-1.31-1c-.31-.26-.61-.53-.9-.82-.53-1-.79-1.89.28-2.68,1.63,1.61,3.72,1.17,5.67,1.17,33.63,0,67.25-.11,100.87,0,55.35.24,105.74-42,114-99.88A110.5,110.5,0,0,0,1033,831.9c-.12-20.64,0-41.28,0-61.92l24,0a5.2,5.2,0,0,1,1.44,1.92,10.9,10.9,0,0,1,.67,4.48Q1059.21,835,1059.1,893.73Z"/><path class="cls-2" d="M1631.29,1018q-27.27.71-54.55,0c-13-4.09-22.15-11.92-25.07-25.75a39.51,39.51,0,0,1-.63-7.92c0-28.62.06-57.24-.12-85.86,0-4.07.93-5.79,5.2-5.31a60.66,60.66,0,0,0,8-.1,22.47,22.47,0,0,1,10.6-2.25q29.2.09,58.41,0a21.13,21.13,0,0,1,10.58,2.26c.34,0,.67.1,1,.11,12.12.36,12.12.36,12.12,12.36q0,38.49,0,77c0,18.26-7.11,28.43-24.2,34.76A10.51,10.51,0,0,0,1631.29,1018Z"/><path class="cls-11" d="M849.79,1646.67c6.12.81,11.88,6.95,13.56,14.66,1.3,5.92,2.19,12.67.09,17.73-2.77,6.71-10.46,2.7-15.76,2.73-74.21.31-148.42.25-222.63.26-2,0-4-.18-6-.28a4.51,4.51,0,0,1-1.73-3.94c1.14-16.32,6.41-30.95,17.79-43,.36-.36.73-.7,1.1-1,6.47-7.83,14.88-13.07,23.68-17.82,9-4.38,18.59-5.91,28.44-6.08,15.92-.27,31.84.29,47.75-.31,5.61.71,11.25.2,16.88.37,3.77.11,6.53,1.45,7,5.55,1,9.41,7.1,15,14.47,19.62a69.87,69.87,0,0,0,10.14,5.23c18.75,5.93,38.08,4.32,57.27,4.53C844.6,1644.85,847.57,1644.24,849.79,1646.67Z"/><path class="cls-12" d="M1311.12,493.2c-1.77-6.79-7.41-11-15.59-11.43q-1.38-.37-2.76-.66c-9.68-2-19.56-.87-29.32-1.42l-.66,0-1.11.08c-3.29.21-6.58.14-9.88.14q-70.23,0-140.46,0c-7.69,0-9.33,1.47-9.45,8.28-.23,13.2,1.74,12.77-13.88,12.68-3.93,0-6-1.57-5.82-5.62,0-1.33,0-2.67,0-4-.09-10.51-.9-11.31-11.47-11.37h-2c-25.06-.15-50.11.3-75.17-.23l-1.23,0h-.07c-4,0-7.85.93-11.78,1.56h0l-1.29.18h0l-.23,0a28.06,28.06,0,0,1-5.2.29,258.23,258.23,0,0,0-27.26.1h0a1.34,1.34,0,0,0-.74.47c-.18,17.8-.25,35.61,0,53.41v.09c.46,2.11.83,4.24,1.4,6.32a45.35,45.35,0,0,0,34.51,32.18h0c3.08,2.75,6.89,2.94,10.7,3.13h.12l1.09,0c15.61-.55,31.22-.08,46.83-.25,7.83-.08,13.49-2.87,17-10.54,6.43-14.24,13.58-28.16,20.06-42.39,1.45-3.19,3.45-5.09,6.45-5.38a8.23,8.23,0,0,1,1.57,0,7,7,0,0,1,1,.11c3.12.46,6.26.18,9.39.26,5.67.13,6.1.51,6.14,6.35,0,5,0,9.9,1.17,14.74l.21.53c.24.6.47,1.2.7,1.8.54,1.39,1.06,2.8,1.54,4.21a45.24,45.24,0,0,0,42.17,30.32q24.48.12,48.94,0c20.8-.12,39.25-15.43,43.41-35.88,2.15-10.56.81-21.24,1-31.86.22-11-.41-10.1,10.46-10.27,3.52,0,7.24.85,10.52-.91a8.16,8.16,0,0,0,1.49-1l16.42,0c.45.23.89.44,1.34.63a18.28,18.28,0,0,0,16.43-.6h0c3.48-.09,6.93-.33,10.4-.21C1311.15,497.13,1311.88,496.12,1311.12,493.2Zm-349.6,35.45q.12-13.44-.1-26.88c0-2.93.77-4.2,3.93-4,5.79.29,11.6.25,17.4.34,0,18.23,0,36.46,0,54.69,0,1.7,1.11,4.26-2.15,4.59C968.14,551.82,961.41,542.54,961.52,528.65Z"/><path class="cls-4" d="M1095.91,604.26c14.32,4.94,29.18,7.87,43.79,11.72,16.55,4.37,33.18,8.49,49.75,12.79,6,1.57,6.14,1.73,3.87,7.7-9.3,24.47-26.27,40-52.54,44.27-22.19,3.59-46.5-10-57.37-31.76-.88-1.75-1.73-3.52-2.92-6-3.77,7.25-7,13.92-12.26,19.37-23,24.06-57.93,25-82.19,2.24-1-.91-2-1.7-3.06-2.54-7.25-8.3-13-17.42-16.34-28.05-.92-3-.36-4.11,2.65-4.74,4.52-1,9-2.32,13.43-3.5a11.91,11.91,0,0,1,6.73-3.84q28.66-7.25,57.29-14.69c7-1.84,14.24-3,21.19-5.2,7.29-.32,14.58-.2,21.86-.12C1092.07,602,1094.54,601.74,1095.91,604.26Z"/><path class="cls-4" d="M636.51,1634.75c-3.82,6.15-8.33,11.85-11.29,18.55a76.73,76.73,0,0,0-6.13,28.47q-36.71.09-73.42.17c-18,0-36-.21-53.94.13-5.21.1-6.44-1.75-5.63-6.31.32-1.79.38-3.63.56-5.45q6.85-33.51,36.51-50.56a7.84,7.84,0,0,1,4.61-4.24,64.72,64.72,0,0,1,24.6-5.58c21.76-.28,43.53-.14,65.29-.07,6.29,0,8,1.35,9.35,7.34a22.81,22.81,0,0,0,6.07,11.22C634.83,1630.19,636.76,1631.9,636.51,1634.75Z"/><path class="cls-11" d="M236.52,1681.82c11.7-3.16,17.86-11,20.25-22.71,3.07-15.13,6.92-30.1,10.33-45.17.58-2.56,1.36-3.91,4.47-3.9,34.41.14,68.81.1,103.22.12a9.59,9.59,0,0,1,1.48.21c0,21.82-.06,43.64.19,65.46.05,4.65-1,6.3-6,6.28-43-.19-86-.11-128.94-.11C239.85,1682,238.18,1681.88,236.52,1681.82Z"/><path class="cls-13" d="M1629.77,852.92v10.53c3.68-1.61,5.44-4.48,7.8-6.58,1.71-1.51,3.51-3,5.59-.94s.43,3.9-1.12,5.5a30,30,0,0,1-3.54,3.5c-7.09,5.13-10.1,11.9-8.61,20.59-1.68,1.81-3.92,1.59-6.05,1.6q-19.92.09-39.84,0c-2.14,0-4.37.14-6-1.64,1.83-9.57-2.21-16.49-9.51-22.29-2-1.56-6.25-3.69-3.12-7,3.4-3.62,5.3,1,7.58,2.7,1.43,1,2.14,3,4.49,3.59.78-5.7,1.64-11-3.8-15.22-2.87-2.22-5.2-5.14-7.79-7.73-1.46-1.46-2.27-3.07-.51-4.74a3.23,3.23,0,0,1,4.9.22c2.15,2.22,4.11,4.62,7,7.91,1.28-7.88,1.29-13.43-4.46-17.64-2.66-1.94-4.77-4.63-7.11-7-1.52-1.53-1.83-3.24-.21-4.82s3.34-1.22,4.77.38a47.73,47.73,0,0,0,6.69,6.64c1.28-6.15,2.07-11.66-3.64-15.85-2.78-2-5-4.88-7.42-7.38-1.42-1.45-2.2-3.15-.51-4.8s3.58-1.26,5.18.5c2,2.2,4,4.35,7,7.56.28-4.86.47-8.23.67-11.6,1.1-.81,2.58-.34,3.87-1.08,0-3.05-4.3-4.34-3.14-7.76,4.66-8.62,11-15.11,21.23-16.59a46.81,46.81,0,0,1,4.89-.19c1.07,2.27-.2,4.21-.91,6.21-2.25,6.36-.77,11.7,4.07,16.34s10.19,5.14,16.18,3.12c1.82-.62,3.52-2.09,5.64-.9V800.7c3.23-3.06,5.46-5.17,7.68-7.29,1.62-1.55,3.35-3.24,5.5-1s.36,4-1.15,5.55a105.34,105.34,0,0,1-8.09,8.14c-5.26,4.4-4.73,9.68-3,15.31.65,4-3.93,5.27-4.71,8.51,1.08,1.23,2.69.18,3.69,1.16.5,3.79-.94,7.74,1,11.4.51,2.32-1,3.78-2.46,5C1625.3,850.29,1626.21,851.86,1629.77,852.92Z"/><path class="cls-14" d="M1279.91,497.2l17.78,0c14.2,3.38,26.51,9.84,35.18,22,17.31,24.3,12.75,55.73-10.74,74.55-2.29.39-3.65-1.22-5.27-2.36-7.75-5.44-17.35-1.35-18.85,8-.3,1.93-.06,4.08-2.22,5.22l-4,.65-.4-.09-.4,0c-3.52-.91-8.29,1.5-10.45-1.18s-.66-7.37-.67-11.16Q1279.83,545.07,1279.91,497.2Z"/><path class="cls-11" d="M1295.53,481.77c-10.69-.17-21.41.82-32.07-.67-2.81-1.13-2.47-3.66-2.51-5.92-.11-6.33-.32-12.67,0-19,.27-4.8-1.14-7.87-5.33-10.69-11.88-8-18.87-19.51-21.27-33.61-.66-3.92-1.9-8.26,1.53-11.81,6.58-.48,13.21-.62,19.73-1.52,13.71-1.9,25.23-8.43,35.36-17.64q.12,31.21.24,62.43c0,11.16.15,22.32-.11,33.47C1291.08,480.3,1292.33,481.66,1295.53,481.77Z"/><path class="cls-8" d="M97.42,1648.89c-3.16-10,2.35-16.12,8.76-22.88s13.14-9.27,22.49-9.43c10-.16,16.84,2.74,23.87,9.76,6.8,6.79,9.61,13.42,9.45,23-.15,9.42-2.52,16.26-9.41,23.07s-13.55,9.8-23.35,9.76-16.54-2.82-23.36-9.77S94.53,1658.8,97.42,1648.89Z"/><path class="cls-11" d="M237.07,1529.93q-6.75,29.65-13.52,59.31c-4.48,19.44-9.09,38.85-13.56,58.3-4.3,18.63.22,27.34,17.65,34.33-8.14,0-16.29,0-24.43.16-3.23.08-4.35-1.08-4.34-4.33q.25-74.29.33-148.59c1.51-1.3,3.37-1.28,5.19-1.29,9,0,17.92-.08,26.88,0C233.43,1527.87,235.65,1527.81,237.07,1529.93Z"/><path class="cls-11" d="M208.07,1454.78c14.28.07,28.55.1,42.82.23,1.59,0,4.33-1.27,3.35,2.68-4.15,16.73-8.09,33.51-12.11,50.26-1.25,2.33-3.3,3.06-5.81,3.09q-16,.15-31.91,0A6.78,6.78,0,0,1,199,1509c-3.54-1.27-8.56,1.8-10.63-1.7-1.63-2.73-.57-7.1-.58-10.74,0-11.8.28-23.61-.17-35.39-.2-5.31,1.62-6.6,6.49-6.23C198.75,1455.27,203.42,1454.86,208.07,1454.78Z"/><path class="cls-4" d="M811.24,947c.23.74.47,1.48.71,2.23,3.32,4.56,1.12,8.68-1.49,12.34-8.14,11.46-25.34,9.87-31.66-2.86a63.92,63.92,0,0,1-5.34-15c-5.25-13.39-9.47-27.14-14.38-40.65-.88-2.42-2.19-4.94-.56-7.6,11.63-.33,23.26-.51,34.89.09Q802.34,921.25,811.24,947Z"/><path class="cls-6" d="M1536.72,151.13c-5.69,0-12.47-4.41-15.11-11-3.15-7.86-1.77-15.69,4.54-20.91,3.81-3.15,3.79-5,.18-8.3-7.11-6.53-13.66-13.67-20.62-20.38-2.19-2.12-2.32-3.45,0-5.57,5.53-5.06,10.74-10.45,16.23-15.56a15.87,15.87,0,0,1,19.41-1.51c2.4,1.59,2.84,2.82.56,4.93-3.78,3.52-7.4,7.21-11,10.92-5.05,5.21-5,9.6,0,14.68,7,7.09,14.13,14.15,21.16,21.25,5.84,5.88,6.91,12.94,3.73,20.24S1546.94,151.44,1536.72,151.13Z"/><path class="cls-1" d="M231.2,1018.62c1.07,14.48,6.14,27.14,17.11,37A52.16,52.16,0,0,0,278,1069.07l.21.62h-7.41c-13.88-.44-27.76-.06-41.64-.21-2,0-4,.26-5.93-.24-13.71-2.65-22.29-13.9-21.08-27.63,1.17-13.25,11.76-22.77,25.54-23C228.87,1018.61,230,1018.62,231.2,1018.62Z"/><path class="cls-15" d="M1581.37,1070.69c2-1,4.22-.7,6.35-.7q22.11,0,44.23,0,3.43,15.46,6.88,30.92-28.83,0-57.67,0c-2.16,0-4.32.07-6.29-1Q1578.11,1085.33,1581.37,1070.69Z"/><path class="cls-1" d="M257,1442.12c1,3.46-.79,6.49-1.55,9.65-.47,1.94-2.26,2.18-4,2.18-12.81,0-25.62-.06-38.44,0-3.15,0-4-1.43-3.95-4.27.07-7,0-14-.07-21,6.3-6.4,12.58-12.83,18.91-19.2,3.2-3.22,7.34-.83,10.94-1.68,2.94,1.89,2.38,5,2.17,7.59a13.48,13.48,0,0,0,5,12.16c3,2.55,5.64,5.52,8.39,8.36C256.12,1437.7,257.25,1439.62,257,1442.12Z"/><path class="cls-9" d="M257,1442.12c-4.38-4.54-8.57-9.29-13.21-13.56-3.57-3.27-5.55-6.74-4.95-11.72.36-2.95,0-6,0-9-2-10.92,2.24-19.15,11-25.46a1.45,1.45,0,0,0,.35-.35C256,1373.8,263.87,1370.2,274,1372q-7.59,33.06-15.2,66.09C258.46,1439.49,258.23,1441,257,1442.12Z"/><path class="cls-12" d="M1625.1,743.72c-6.48-11.77,1.67-22.2,10.84-23.15,4.67-.49,8.31,3.47,12.12,3.13s7.3-3.62,11.74-3a14.52,14.52,0,0,1,11.28,21.3c-1.32,2.53-1.86,4.26-.19,7,3.46,5.74,2.36,12.3-2.09,17-4.63,4.94-10.73,5.7-18.88,2.36a7.54,7.54,0,0,0-3.69,1.23c-6.55,4-15.67,3-20.77-2.07s-5.93-14.15-1.7-20.7A5.89,5.89,0,0,0,1625.1,743.72Z"/><path class="cls-16" d="M849.79,1646.67c-18.52-.18-37.11,1.67-55.52-1.76a47.39,47.39,0,0,1-10.91-3.31c-1.13-5.24,5.17-22.07,9.41-25.14L854,1634.83Q851.88,1640.76,849.79,1646.67Z"/><path class="cls-17" d="M1453.05,204.32c0,3.83.08,7.66,0,11.48-.21,8.77-6.35,14.59-15.06,14.38-8.39-.21-14.24-6.37-14.11-14.88s6.6-14.73,15.26-14.14c3.95.27,4.84-.88,4.72-4.52-.24-7,.1-14-.15-21-.13-3.8,1.33-4.94,5-4.77,5.15.25,10.32,0,15.48.12a12.53,12.53,0,0,1,11.43,8.26c.93,2.84.7,4.94-3.17,4.8-3.65-.13-7.32-.06-11,0-5.61.09-8.15,2.57-8.32,8.26-.11,4,0,8,0,12Z"/><path class="cls-18" d="M1067,604.16l-84.31,21.63q0-23.46.1-46.91c0-1.67.11-3.34-1.25-4.62l10.71,1.54c1.9,1.58,1.8,3.79,1.84,6,.09,4.64,0,9.29.07,13.93.12,5.33.81,6.1,6.09,6.15,13.6.12,27.2,0,40.8.06,4.64,0,9.29-.18,13.93.13C1059,602.74,1063.62,600.14,1067,604.16Z"/><path class="cls-19" d="M1625.1,743.72c2.21,1.33.93,2.64.1,4.13-3.74,6.71-3,13.53,1.75,18.35s11.88,5.7,18.29,2c1.74-1,3.19-1.91,4.69.16l-20,19.66c-8.62,5.62-16.59,5.55-22.76-.19-7.61-7.08-8.24-14-2.22-24.58Z"/><path class="cls-4" d="M199,1509l36.77-.15c2.16,0,4.32.1,6.34-.87a162,162,0,0,1-5.06,22q-15.73,0-31.48-.08c-2.16,0-4.35.23-6.39-.75Z"/><path class="cls-20" d="M992.28,481.23c-8.51,1.32-17.09.77-25.64.82-6.76.05-13.52-.16-20.27-.26,10.61-1,21.24-.25,31.86-.37,3.4,0,4.65-1,4.63-4.51-.12-24.62-.06-49.23-.05-73.84a6.07,6.07,0,0,0-.82-3.82l11.17,0c1.25,2,1,4.16,1,6.3q0,34.13,0,68.26C994.12,476.37,994.62,479.17,992.28,481.23Z"/><path class="cls-21" d="M278.23,1069.69a.57.57,0,0,1-.21-.62c26.06,0,52.12-.12,78.17-.08,4.76,0,8.21,2.54,10.07,6.86s.45,8.06-2.76,11.29c-3.92,3.94-8.92,7.25-8.49,13.87l-17.5-.06c2-8.76,3.76-17.56,6-26.25,1-4-.11-4.87-3.94-4.84-18.8.15-37.6.08-56.4.07C281.54,1069.93,279.88,1069.78,278.23,1069.69Z"/><path class="cls-22" d="M1578,885.49a376.7,376.7,0,0,1,51.94,0c5,1.79,10.13,3.33,13.79,7.55h-79.59C1567.82,888.9,1572.89,887.2,1578,885.49Z"/><path class="cls-23" d="M1322.13,593.78c-2.86-3.93-6.41-6.69-11.49-6.94-9.59-.47-15.08,6.11-14.85,17.82,2.44,5.4,6,9.42,12.28,10.22C1318.75,616.24,1327.73,605.07,1322.13,593.78ZM1312,606.64c-3.48,1.37-6.54.27-8-3.62l11.23-4.5C1317,602.35,1315.51,605.25,1312,606.64Z"/><path class="cls-24" d="M1578.88,780.07c1.09,1.21,2.15,2.43,3.27,3.61,1.66,1.77,4.13,3.58,2,6.17s-4.07-.07-6-.94c-3.76-3.93-7.54-7.84-11.28-11.79-1.56-1.64-3.88-3.36-1.55-5.81,2.61-2.74,4.37-.16,6.12,1.51C1573.94,775.21,1576.4,777.65,1578.88,780.07Z"/><path class="cls-25" d="M1629.77,852.92c-2.12,1.18-4.52,2.22-6.12-.29s1.13-3.74,2.45-5.23c1.52-1.73,3.21-3.3,4.83-4.94,2-2,4-4,6-6,1.78-1.77,3.75-4.13,6.23-1.57,2.27,2.33,0,4.17-1.63,5.84Z"/><path class="cls-26" d="M1629.91,831.06c-1.77,1.82-3.93,3.14-6,.94-2.19-2.35.48-3.78,1.82-5.27,1.65-1.84,3.44-3.56,5.17-5.34,2.46-2.44,4.9-4.92,7.41-7.33,1.45-1.4,3.17-2,4.8-.38s.87,3.32-.57,4.76Z"/><path class="cls-20" d="M945.63,482.26q0,26.76,0,53.51c-1.27-9.91-.47-19.85-.5-29.77C945.14,498.09,944.41,490.15,945.63,482.26Z"/><path class="cls-21" d="M223.25,1069.23c15.86,0,31.73-.81,47.58.45C255,1069.88,239.1,1070.66,223.25,1069.23Z"/><path class="cls-1" d="M1367.11,1143.05c0-3.62,2.43-5.41,5.14-7A27.54,27.54,0,0,1,1367.11,1143.05Z"/><path class="cls-8" d="M761.86,1018.05c-40.81,0-81.64-.61-122.43.31-14.72.33-27-13.07-24.24-29.27,6.41-37.79,12.48-75.64,18.68-113.47,3.33-20.3,6.69-40.6,10-60.92,3.48-21.63,6.86-43.27,10.29-64.91.93-5.84,2.65-6.87,8.46-5.07,12.22,3.76,19.34,15.87,17.21,28.51-6,36-11.91,72-17.87,108-.76,4.58-2.13,9.07-1.82,13.79,2.07,5.56-.54,10.81-1.31,16.11-1.63,11.17-3.7,22.29-5.39,33.46a27,27,0,0,0,26.32,31.27c5.82.1,11.64.06,17.46-.2,9.46.5,18.91,0,28.37.23,14.73.37,26.12,6.68,33.84,19.32a33.87,33.87,0,0,1,4.65,17.59C764.06,1014.85,763.92,1016.87,761.86,1018.05Z"/><path class="cls-14" d="M1223.86,952.11c9.81,6.41,18.76,13.73,25.5,23.51,9,13,13.07,27.52,13.77,43.14-21.83.07-43.65.17-65.47.19q-51.73,0-103.47,0c-2.54,0-5.09.23-6.31-2.73-1.07-2.77-.51-5.5-.12-8.34,5.7-40.84,42.55-69.74,82.1-66.7,11.22,0,22.54-1.91,33.54,1.86C1210.88,944.56,1218.66,945.42,1223.86,952.11Z"/><path class="cls-27" d="M1223.86,952.11l-1.26-.54c-6.11-2.63-12.2-5.29-18.68-6.93h0a18.25,18.25,0,0,1-2.68-2.25c-2.21-2.2-4-4.81-6.28-7a25.45,25.45,0,0,0-17.89-7.36c-5.61,0-5.78.29-6.08,5.79-.13,2.42.74,5.19-.63,7.34a5.15,5.15,0,0,1-1.77,1.64c-23-.34-42.77,7.17-58.75,23.88-12,12.59-18.6,27.76-20.54,45-.13,1.09.13,2.34-.34,3.36a2.51,2.51,0,0,1-1.06,1.15q-28-9.12-39.52-36.19a20.25,20.25,0,0,0-1.19-2.13c-.06-.41-.13-.81-.2-1.22a41.43,41.43,0,0,0-2-7.76c-.14-.38-.29-.76-.45-1.13-.93-22.22-.59-44.46-.3-66.69l.1-.09a1,1,0,0,1,.2-.16l.11,0a70,70,0,0,0,13-.94,84.36,84.36,0,0,1,12.1-1.09c29.83.21,59.66.1,89.48.07,4.93,0,9.65-.12,12.49,5.2,1.25,2.32,4.14,1.71,6.43,1.79,21,.75,35.15,11.58,44.12,30,1,2,2,4.12,1.52,6.37a5.41,5.41,0,0,1-.64,1.72C1223.22,946.66,1224.57,949.29,1223.86,952.11Z"/><path class="cls-8" d="M592.37,711c-26.35,0-48.6-17.43-53.79-43.22-6.31-31.37,13.56-60.4,46.32-65.65,4-.64,6.72-.64,7.52,5.28,3.47,25.91,20.08,43.25,45,48.21a2,2,0,0,1,.48.13c2.86,1.29,7.43-1.92,8.77,2.32.87,2.75-.13,6.25-.79,9.31-3.49,16-12.23,28.3-26.43,36.35C608.69,709.85,603,711,592.37,711Z"/><path class="cls-28" d="M1060,1076.77c0-2.26,0-4.52,0-6.78,1.82-.09,3.64-.27,5.47-.27q133.53,0,267.07,0c1.49,0,3,.17,4.47.26q0,10.93,0,21.87c-1.17.05-2.33.15-3.49.15l-273.39-.06C1056.44,1086.91,1057.12,1081.85,1060,1076.77Z"/><path class="cls-16" d="M696.93,977.27c13.45-20.64,32.76-31.61,57-34,6.93-.68,14-.33,21-.45,1.38,3.71,2.81,7.41,4.14,11.15,3.56,10,9.91,14.55,18.72,13.28s13.69-7.6,14.18-18.07c12.84,5.2,23,13.78,31.32,24.73.77,1,1.81,2,1.61,3.52-6.43,1.22-13,.74-19.39.48-21.14-.85-40,15.7-41.92,36.71-.35,3.79-1.76,4.43-4.88,4.18-5.6-.45-11.28.81-16.83-.76,1.23-23.81-14-39.91-37.73-39.95H702.24C700.44,978.09,698.57,978.36,696.93,977.27Z"/><path class="cls-29" d="M565.14,1018.06H528.26c6.8-2.67,10.18-6.73,11.39-12.4s-.58-10.73-4.58-15.06c-1.53-1.66-4.44-1.73-5-4.46,10.13,0,20.25-.1,30.37,0,8.73.06,15.4,5.53,16.65,13.43C578.51,1008.27,574.06,1015.14,565.14,1018.06Z"/><path class="cls-30" d="M395.06,1070q3.45,15.48,6.89,31c-5.31,0-10.62,0-15.93,0-1.76,0-3.72.49-5.06-1.27,6.29-9.46,8.93-19.53,5.16-30.69C389,1070.6,392.1,1069.47,395.06,1070Z"/><path class="cls-29" d="M644.24,1613.65c-6.18-1.93-12.32-4.06-18.57-5.71-3.46-.91-3.91-2.15-2.74-5.5q34.85-99.69,69.42-199.46c27.28-78.44,54.35-157,81.95-235.29,14.56-41.32,44-66,87-74.26,2.11-.41,4.29-.42,6.44-.62,9.49,0,19,.12,28.46.12q48.69,0,97.39,0h9.89c-11.61.47-21.94,5-32.32,9.4a91.82,91.82,0,0,0-24.67,15.71c-15.48,13.48-27.15,29.69-33.55,49.31-1.65,5-3.57,10-4.89,15.13-1.14,4.44-3.49,5.73-7.84,5.49-3.38-.19-7-1-10.26.86,0,.16,0,.4-.09.48-9.55,8.31-11.12,20.55-15,31.48q-21.6,61.5-42.9,123.1-33.46,96.25-66.9,192.53c-7.42,21.4-15,42.74-22.37,64.16-1.31,3.8-1.74,8.3-6,10.54-1.79,1.23-3.84.82-5.8.83-12.94,0-25.87.08-38.81,0-10.39-.07-20.49,1.22-30.11,5.38a13.11,13.11,0,0,1-2.89.58C653.51,1618.91,648.38,1618,644.24,1613.65Z"/><path class="cls-31" d="M1060,1076.77q0,7.59.1,15.17l-29.07,0Z"/><path class="cls-1" d="M1338,1091.94v-10.36c.65,8.59,3.41,17.1,1,25.73-.12.4-.29.78-.43,1.17-.23-.57-.45-1.15-.68-1.73C1337.53,1101.81,1339.36,1096.89,1338,1091.94Z"/><path class="cls-1" d="M1337.06,1111c1.27,4.84.56,9.17-3.27,12.69Z"/><path class="cls-11" d="M388,1502.38c.09,5-1.23,7.12-6.37,6.38a28.68,28.68,0,0,0-5.46.21,5.49,5.49,0,0,1-1.59,1.27,10,10,0,0,1-4.8.83q-35.43.09-70.85,0c-2.65,0-5.46.11-6.74-3,3.83-16.85,7.73-33.69,11.44-50.57.65-3,2.56-2.45,4.48-2.45q27.21,0,54.42,0c1.82,0,3.64-.17,5.47-.25,5.86-3.47,12.08-1.86,18.21-1.21a2.09,2.09,0,0,1,1.26.59A2,2,0,0,1,388,1456C387.93,1471.48,387.69,1486.93,388,1502.38Z"/><path class="cls-32" d="M376.26,1568.93l-84.29.21c-3.82,0-7.65-.11-11.47,0-2.37.09-2.83-.76-2.29-2.94,3-12.08,5.9-24.19,8.84-36.29,1.68-2,4-2.12,6.36-2.13q38.08-.11,76.16,0a11.37,11.37,0,0,1,4.5.6,5,5,0,0,1,1.89,1.45Z"/><path class="cls-4" d="M376.14,1509l-.18,20.89h-1.8l-87.11.08a168.23,168.23,0,0,1,5.11-21.94c2,1,4.21.8,6.35.8l76.71.17Z"/><path class="cls-33" d="M390.14,1442.93c-.46,2.74-.08,5.63,0,8.46,0,1.91-.15,3.67-2.14,4.64a7.28,7.28,0,0,0-1-.5c-3.4-1.41-7.05-.22-10.55-.53-2.8-.26-5.62-.2-8.43-.28-1.49-6.56-.67-13.21-.65-19.8,0-3.76-.78-6.76-3.79-9.14a52.35,52.35,0,0,1-4.24-4.19c-7.19-7.2-7.19-7.2.76-13.74.6.24,1.3.8,1.8.66,8-2.21,12.09,3.38,17.4,7.71C388,1423.37,392,1431.7,390.14,1442.93Z"/><path class="cls-14" d="M992.28,481.23q0-38.64,0-77.28c0-1.62-.47-3.36.88-4.74l211.62,0c8.6.7,17.22.08,25.83.33,1.78.05,3.65-.53,5.34.53l0,0c-1,19.75,7.09,34.84,23.55,45.46,2.84,1.83,4.11,3.51,4,7.06-.3,9.48,0,19,0,28.48-1.87,1-3.91.64-5.88.64-49.15,0-98.3.1-147.45-.1-5.12,0-6.59,1.36-6.36,6.4.22,4.88,2.34,11.27-1,14.36-3,2.8-9.25.78-14.06.77-9.85,0-8.5,1.32-8.52-8.34,0-13.08,0-13.08-13-13.08q-34.74,0-69.47,0C995.9,481.71,994.09,481.4,992.28,481.23Z"/><path class="cls-11" d="M1236,400.11c-8.42-.09-16.85-.15-25.28-.3-2,0-3.93-.37-5.89-.56q14.29-.13,28.61-.26A2.6,2.6,0,0,1,1236,400.11Z"/><path class="cls-34" d="M516.25,941a14.08,14.08,0,0,1-13.84-11.37c-.39-2.06-.58-4.32,1.9-5,2.68-.71,3.22,1.43,3.62,3.54.85,4.5,3.5,7,8.21,7.08s7.3-2.66,8.45-6.94c.52-1.93.62-4.48,3.42-3.77s2.22,3.4,1.84,5.46A13.75,13.75,0,0,1,516.25,941Z"/><path class="cls-35" d="M553.69,941c-6.79-.08-13.12-5.74-13.62-12.16-.15-1.94,0-3.89,2.3-4.3s2.69,1.41,3,3.12c.83,4.69,3.63,7.82,8.3,7.83s8-2.8,8.63-7.94c.22-1.84,1.17-3.36,3.19-3,2.24.39,2.57,2.29,2.39,4.28C567.25,935.53,560.78,941.1,553.69,941Z"/><path class="cls-36" d="M1339.14,895a24.88,24.88,0,0,1-.52,6.48,9.61,9.61,0,0,1-1.72,3.52c-3.05,6.21-8.51,10.21-13.83,14.06-8.42,6.1-17.16,11.72-27,15.62a111,111,0,0,1-36.68,8.22c-10,.39-20,.08-30,.08-2.15,0-4.34-.18-6.35.91-.09-.29-.19-.58-.3-.86-6.08-17.81-17.86-29.69-36.5-34.36-4.55-1.14-9.24-1.11-13.9-1.13-2.18,0-4.11-.26-3.78-3.2.35-3.17-1.61-3.41-4.06-3.4q-54.87.1-109.75.14h-10.64l.1-.09a1,1,0,0,1,.2-.16c1.93-1.55,4.28-.94,6.36-.74,4.71.44,6.31-1.14,6.26-6.07-.23-25.25-.11-50.5-.1-75.75q0-23.22,0-46.43V770c21.47,0,42.94-.27,64.4,0,31.26.35,61.13-5.09,89.18-19.46a181.72,181.72,0,0,0,41.13-28.73c1.8-1.68,3.62-3.34,5.44-5l.79-.73c2.09,6.24,3.37,12.74,6.09,18.78,9.88,22,25.93,37,49,44.63,7.82,2.59,16,2.35,23.75,4.67l.24.17-.23.07.36,14h0l1.62,1.49c-.29,2.64.37,5.28.36,7.92Q1339.07,851.35,1339.14,895Z"/><path class="cls-3" d="M1366.8,830.71c-.24,27.9-9.87,52.24-27.89,73.38-.51.6-1,1.44-2,.93v-1.85q0-50,.08-99.93c0-1.65.14-3.3.22-5l1.62,1.49c9.56,8.91,18,18.79,26.3,28.89C1365.69,829.34,1366.24,830,1366.8,830.71Z"/><path class="cls-14" d="M1105,540.07c5.36,18.06,16.69,30,35.38,34.2a39.41,39.41,0,0,0,8.41.84c15.64.08,31.29.12,46.93,0a43.22,43.22,0,0,0,43.2-43.22c.12-10,.17-20,0-29.95-.08-3.58.76-5.14,4.68-4.95,6.64.31,13.3.13,20,.16-.08,25,0,50-.27,74.94a31.42,31.42,0,0,1-28.07,31.14,14.24,14.24,0,0,1-4.46.27H1109c-6.27,0-7-.61-7.09-6.67q-.21-25.44,0-50.88C1101.93,543.62,1101.51,540.78,1105,540.07Z"/><path class="cls-37" d="M1105,540.07c-1.44,1.54-1,3.46-1,5.24,0,17.31.14,34.62-.11,51.93-.06,4.6,1.33,6,5.93,5.93,39.61-.16,79.23-.09,118.84-.08,2.16,0,4.33.1,6.49.16-2.22,1.07-4.59.64-6.89.65q-63.69.08-127.37.11c-1.66,0-3.32.16-5,.25l-28.88-.1-12-.34c-1.86-3-.68-5.88.32-8.64,5.61-15.49,11.39-30.92,16.81-46.48,2.79-8,5.91-15.9,8.63-23.93,1-3,2-6,5.17-7.6,4.79-.06,9.58,0,14.37-.2,2.82-.1,3.79,1.1,3.7,3.84A101.75,101.75,0,0,0,1105,540.07Z"/><path class="cls-38" d="M644.24,1613.65l15,4.25a194.29,194.29,0,0,0-22.48,16.54Z"/><path class="cls-14" d="M1171.6,497.82c15.5,0,31,.11,46.48-.08,3.74,0,4.94,1.06,4.85,4.81-.23,10,0,20-.13,30-.27,15.69-12,27.46-27.66,27.6q-22.74.21-45.49,0c-16.88-.18-29.46-13-29.6-30-.08-9,.25-18-.16-27-.21-4.69,1.58-5.49,5.73-5.43C1140.94,497.94,1156.27,497.82,1171.6,497.82Z"/><path class="cls-39" d="M992.31,498q34.17-.09,68.33-.21c2.62,0,3.48,1,3.46,3.55-.11,11,.27,22-.21,32.93-.57,13.07-12.35,24.45-25.65,24.73-15.29.32-30.59,0-45.89,0-2.09-1.32-2.44-3.39-2.46-5.63q-.15-24.84,0-49.67C989.91,501.46,990.29,499.4,992.31,498Z"/><path class="cls-14" d="M1085.94,517.17c-7.26,19.94-14.62,39.84-21.74,59.83-3.17,8.9-7.16,17.53-9.19,26.82-19.82,0-39.64,0-59.47.11-2.81,0-3.32-1.25-3.3-3.63.08-8.16,0-16.33,0-24.5,4.57-1.3,9.24-.52,13.85-.59,10.14-.14,20.27,0,30.4-.06a74.45,74.45,0,0,0,7.46-.43c5.32-.56,8.74-3,11.08-8.32,6.4-14.59,13.77-28.75,20.29-43.29C1077.63,518,1080.54,515.83,1085.94,517.17Z"/><path class="cls-40" d="M985.07,551.39c0,2.9.2,6.4-4.5,6,3.26-.33,2.15-2.89,2.15-4.59.07-18.23,0-36.46,0-54.69,2.18,1.53,2.36,3.82,2.37,6.19C985.19,520,985.25,535.68,985.07,551.39Z"/><path class="cls-41" d="M992.35,559a25.73,25.73,0,0,1-11.78-1.66c3.26-.33,2.15-2.89,2.15-4.59.07-18.23,0-36.46,0-54.69l9.56,0Q992.33,528.53,992.35,559Z"/><path class="cls-42" d="M1647.62,730.08a15.14,15.14,0,0,1,15.62,15.25,15.31,15.31,0,0,1-15.57,15.85,15.55,15.55,0,0,1-.05-31.1Z"/><path class="cls-43" d="M1315.23,598.52,1304,603C1306.64,598.77,1310.53,597.63,1315.23,598.52Z"/><path class="cls-44" d="M1315.23,598.52,1304,603c-1.44-3.59,0-6.31,3.16-7.72C1310.61,593.79,1313.62,594.75,1315.23,598.52Z"/><path class="cls-45" d="M1168.57,942.83c0-4.64.06-9.28.06-13.93,0-1.79.21-3,2.54-3.36,13.37-2,28,6.39,32.74,19.1C1192.24,942,1180.35,943.39,1168.57,942.83Z"/><path class="cls-18" d="M1029.86,453.12c-9.31,0-18.61-.13-27.91.07-3.45.07-3.87-1.14-3.11-4.12a15.21,15.21,0,0,1,14.33-11.78q16.44-.35,32.89,0c6.83.15,12.22,5,14,11.51.89,3.2.36,4.47-3.31,4.38C1047.81,453,1038.83,453.12,1029.86,453.12Z"/><path class="cls-18" d="M1163.89,453.12c-9,0-18-.12-27,.06-3.48.07-4.4-.92-3.44-4.32,1.88-6.65,7.43-11.48,14.54-11.6q16.23-.28,32.47,0a15.38,15.38,0,0,1,14.23,11.39c.82,3,.45,4.62-3.36,4.53C1182.21,453,1173.05,453.12,1163.89,453.12Z"/><path class="cls-46" d="M1204.9,779.67q28.49,0,57,0c4.76,0,8.09,2,9.45,6.57,1.19,4-.39,7.17-3.6,9.62-2.31,1.76-5,1.5-7.69,1.5h-71a35.34,35.34,0,0,0-4.49.13c-2.45.3-4.09,1.72-4.07,4.25s1.74,4,4.14,4.17c2.82.23,5.66.07,8.5.14,6,.15,9.85,3.72,9.77,9s-4.07,8.8-10,8.84c-9.33.08-18.66.05-28,0-3,0-5.6.9-5.57,4.25s2.69,4.2,5.67,4.09c1.17,0,2.34,0,3.5,0h55a34.06,34.06,0,0,1,3.5,0c5.11.5,8.83,4.47,8.7,9.23s-3.85,8.51-9.16,8.59c-8.33.12-16.67,0-25,0q-29,0-58,0c-7.13,0-11.36-3.43-11.25-9.08.09-5.41,4.33-8.78,11.12-8.83,1.5,0,3,0,4.5,0,2.87,0,5.07-1.08,5-4.25s-2.35-4.09-5.2-4.08q-12,0-24,0a12.31,12.31,0,0,1-4.9-.67,9.11,9.11,0,0,1-5.63-10.06c.84-4.27,4.5-7.15,9.53-7.17,14.33,0,28.66,0,43,0,3.52,0,8.36,1,8.21-4.5-.14-5.05-4.78-4.05-8.15-4.1-6.16-.08-12.33.06-18.5-.06-5.75-.12-9.35-3.65-9.31-8.87s3.67-8.69,9.46-8.72c19.17-.08,38.33,0,57.5,0Z"/><path class="cls-46" d="M1140,888.91c-3.15,0-6.3.11-9.45,0-5.19-.22-8.56-3.47-8.81-8.27-.28-5.1,2.91-9.19,8.12-9.45,6.78-.32,13.6-.29,20.38,0a8.74,8.74,0,0,1,8.26,9,8.91,8.91,0,0,1-8.55,8.72c-3.3.21-6.63,0-10,0Z"/><path class="cls-4" d="M1142.68,526.33c-.06-12.84,9.22-23.09,21.06-23.27,12-.18,22,10.25,22,23,0,12.59-9.65,22.93-21.46,23C1152.28,549.14,1142.74,539.08,1142.68,526.33Z"/><path class="cls-4" d="M1051,526.35c0,12.59-9.79,22.82-21.66,22.72s-21.46-10.39-21.4-23,9.61-22.95,21.43-23C1041.44,503,1051.05,513.36,1051,526.35Z"/><path class="cls-47" d="M1647.89,737.32a8.29,8.29,0,1,1-.48,16.57,8.29,8.29,0,0,1,.48-16.57Z"/></svg>