<svg id="Слой_1" data-name="Слой 1" xmlns="http://www.w3.org/2000/svg" viewBox="0 0 947.19 260.59"><defs><style>.cls-1{fill:#222021;}.cls-2{fill:#211f20;}.cls-3{fill:#ea2226;}.cls-4{fill:#232122;}.cls-5{fill:none;}</style></defs><path class="cls-1" d="M707.59,117.94c-1.11-15-4.34-29.6-11.23-43.08-10.24-20-26.44-30.68-49.32-30-8.66.24-17.31.78-25.95,1.33-5.87.38-6,.61-6,6.62q0,42.24,0,84.49h0q0,42.49,0,85c0,4.92.38,5.26,5.19,6,9.42,1.44,18.91,1.61,28.4,1.71,15.2.16,27.22-6.27,36.63-18,6.74-8.41,11.29-18,14.8-28.07C707.52,162.47,709.24,140.38,707.59,117.94ZM685.23,162c-2,13.06-5.36,25.65-12.42,37.05-5.61,9.07-13.4,14.14-24.19,14.1-4,0-8-.34-12-.43-2.14,0-2.95-1-2.82-3.12.12-1.83,0-3.67,0-5.5q0-68.24,0-136.47V62.93c20-6,35.46,1.07,43.79,19.53,5.28,11.69,7.54,24.1,8.68,36.71A179.08,179.08,0,0,1,685.23,162Z"/><path class="cls-2" d="M378.42,50.05c0-2.95-.64-4.3-3.87-4s-6.33,0-9.5,0c-5.42,0-5.42,0-5.43,5.69q0,25.25,0,50.48c0,1.43.49,3-.56,4.47-1.37-.42-2.78-.82-4.18-1.26-14.38-4.49-27.61-.49-37.07,11.18a49.33,49.33,0,0,0-8.14,14.75c-5.88,16.58-7.15,33.74-5.77,51.13.89,11.16,3.4,21.93,9.23,31.72,7.87,13.2,21.53,19.29,35.11,15.5,5.24-1.46,9.46-4.71,14.46-8.55,1.88,6.34,6.35,6.74,11.49,6.58,3.27-.1,4.26-.92,4.26-4.26Q378.28,136.77,378.42,50.05ZM359.62,167.6c0,13.16-.11,26.32.09,39.47.05,3.19-1,4.77-3.89,5.92-11.39,4.6-20.76,1.2-26.3-9.75-3.75-7.41-4.87-15.47-5.58-23.59-1.33-15.21-.54-30.27,4.68-44.76,2.37-6.59,5.6-12.89,13.13-15.24,6.37-2,11.68.74,16.84,3.91,1.78,1.09,1,3,1,4.57C359.65,141.29,359.62,154.45,359.62,167.6Z"/><path class="cls-1" d="M909.18,106.05c-6.6,12-12.63,23.09-18.68,34.12-3.11,5.66-6.08,11.4-9.41,16.93-1.67,2.77-1.61,4.89-.08,7.76,10.51,19.6,20.82,39.3,31.12,59,.49.93,1.39,1.88.86,3.66a152.83,152.83,0,0,1-18.65-.11c-3.08-.24-4.31-2.85-5.47-5.25q-12.72-26.24-25.38-52.47c-.48-1-.68-2.23-2-2.75-1.37,1-.49,2.45-.49,3.62-.06,17.5-.12,35,0,52.48,0,3.44-.89,4.91-4.5,4.67a91.58,91.58,0,0,0-11,0c-2.92.15-3.92-1.14-3.7-3.84.06-.83,0-1.66,0-2.5q0-84.46,0-168.94c0-2-.37-4,.83-6.24,5-.67,10.33-.12,15.58-.29,1.87-.06,2.75.89,2.73,2.74,0,1.66,0,3.33,0,5q0,50.74,0,101.47c0,1.58-.38,3.26.67,5.09,2.86-3.54,4-7.54,5.82-11.19,5.92-12.07,11.74-24.19,17.37-36.39,2.14-4.63,5-7.09,10.39-6.61C899.5,106.36,903.82,106.05,909.18,106.05Z"/><path class="cls-3" d="M78,226.81c-1-2.25-.64-4.27-.65-6.22,0-17.16-.34-34.32.11-51.47.2-7.57-1.77-14.32-4.47-21.13Q53.83,99.65,34.79,51.23c-1.58-4-.77-5.17,3.43-5.26s8.33,0,12.5-.06c2.87,0,4.38,1.08,5.38,4C65.47,77,76.08,103.66,84.66,131c.68,2.16,1.59,4.25,2.78,7.42,2.91-9.07,5.26-17.08,8-25,9.25-26.26,18.69-52.45,27.93-78.72,1.3-3.71,3.22-5.39,7.28-5,3.46.35,7,0,10.49.05,4.59.07,5.1.79,3.46,4.95-2.67,6.78-5.45,13.51-8.11,20.28-13.15,33.48-26.46,66.9-39.1,100.58A25.58,25.58,0,0,0,96,164.91q0,28.49,0,57c0,5.24,0,5.31-5.24,5.26C86.48,227.1,82.17,227.46,78,226.81Z"/><path class="cls-1" d="M219.1,227.64c-1.47-2-1-3.94-1-5.73q0-55,0-109.95c0-5.61,0-5.6,5.83-5.55a73.4,73.4,0,0,0,8,0c3.6-.36,5.52.63,4.86,4.6a11.88,11.88,0,0,0,.12,2.26c3.88-1.89,7.46-3.85,11.21-5.41,8-3.32,16.07-3.83,24.27-.82s11.95,9.06,13,17.26a41.65,41.65,0,0,1,.25,5.48q0,46.23,0,92.46c0,5.44,0,5.44-5.5,5.43h-8.5c-4.85,0-4.89,0-4.89-5.08,0-28.48-.47-57,.17-85.45.33-14.35-8.85-17.57-20.17-15.81-.81.13-1.59.5-2.39.71-7.45,2-7.57,2.11-7.57,9.61q0,45.22,0,90.46c0,5.55,0,5.56-5.51,5.58C227.11,227.65,223,227.64,219.1,227.64Z"/><path class="cls-1" d="M195.64,146.36a70.5,70.5,0,0,0-3.45-22.61c-3.74-10.76-11-17.77-22.39-19.67s-22,1.64-32.4,5.86c-2.36,1-2.26,3-1.27,5.08,1.45,3,2.87,6,4.38,8.91,1.84,3.6,2.58,3.82,6.08,1.59a57.17,57.17,0,0,1,9.21-4.89c8.75-3.53,15.46-.68,18.49,8.25A59.18,59.18,0,0,1,177,151c-2.34-.83-4-1.48-5.73-2-14-4.43-26.93-.74-34.91,9.89-11.66,15.56-12.28,42.73-1.34,58.87,10.28,15.16,28.24,17.15,41.67,4.66,1-1,1.61-2.62,3.38-2.69,4,8.45,4,8.34,12.18,8,2.86-.11,3.64-1.16,3.63-3.92C195.77,198,195.9,172.17,195.64,146.36ZM177.16,188h0v14c0,7.54-4.14,11.87-11.77,12.68-7.81.84-12.51-2.28-15.53-10.32a44,44,0,0,1-.2-30.72c4.2-11.86,15.67-15,25.63-7.33a4.71,4.71,0,0,1,1.89,4.27C177.1,176.38,177.16,182.2,177.16,188Z"/><path class="cls-1" d="M466.69,171.27c.06-10.72.45-20.7-1.34-30.59-1.64-9-4.15-17.72-9.54-25.37-6.9-9.78-17.35-13.65-28.75-10.7-10.81,2.8-17,10.57-21.48,20-7.28,15.34-9.13,31.74-9.1,48.52,0,12.64,1.83,24.84,7.61,36.2,6,11.85,15.28,19.54,28.83,21.08,8.6,1,16.8-.83,24.75-4.22,8.6-3.66,8.56-3.52,6.64-12.26-.61-2.78-1.95-3.62-4.55-3s-5.45,1.48-8.22,1.93c-10.43,1.69-20.24.41-27-8.66-7.35-9.95-8.41-21.59-7.61-33.73C433.69,171.83,450,171,466.69,171.27ZM424.28,125c2-3.79,5-6.41,9.38-6.26s6.86,3.13,8.6,6.7c4.59,9.38,4.65,19.54,5.2,30.33-10.33.39-20.12-.44-30.46,1.49C418.35,145.77,419,134.91,424.28,125Z"/><path class="cls-1" d="M515,147.59c4.71-12.39,9.52-24.69,14-37.11,1.11-3.07,2.63-4.29,5.79-4.07,2.82.2,5.66,0,8.49,0,5,.05,5.41.68,3.44,5.08q-6.51,14.53-13.1,29c-3.35,7.4-6.65,14.81-10.13,22.15a6.58,6.58,0,0,0,.07,6.06c7.73,18,15.32,36,22.94,54,1.76,4.17,1.35,4.76-3.32,4.83-2.66.05-5.33,0-8,0-6.29,0-6.27,0-8.47-6.06-4.83-13.22-9.68-26.43-14.7-40.14-2.5,4.73-3.69,9.52-5.08,14.15-2.9,9.7-6.91,19-10.15,28.54-.84,2.51-2.32,3.5-4.73,3.52-3.5,0-7,.08-10.49,0-3.89-.12-4.45-1-3-4.55,4.56-11,9.22-22,13.81-33.06,3.19-7.64,6.17-15.38,9.58-22.92a7.72,7.72,0,0,0-.1-7c-7-15.93-13.83-31.92-20.72-47.9-2.26-5.25-2-5.67,3.66-5.71,3,0,6,.23,9-.07,3.62-.36,5.47,1.15,6.67,4.47,4,11.06,8.18,22.06,12.31,33.08C513.29,145.28,513.34,146.92,515,147.59Z"/><path class="cls-4" d="M773.39,205.67c5.73,4.72,11.64,8,18.72,9.4,9.21,1.76,18.26-3.9,14.66-17.46-1.62-6.1-6-10.64-9.92-15.37-8.15-9.86-16.94-19.2-24.46-29.58-5-6.9-8-14.43-7.62-23.18a26,26,0,0,1,17.46-23.74c13.11-4.61,25.52-1.73,37.65,3.75,2.57,1.16,2.94,2.86,1.48,5.17-1.94,3.09-3.92,6.16-5.73,9.32-1.68,2.93-3.46,3-6,.91a27.81,27.81,0,0,0-12-5.87c-4.79-1.09-9.31-.64-12.66,3.57s-2.62,8.62-.25,13a40.18,40.18,0,0,0,4.74,7q13.62,15.91,27.24,31.86c8.18,9.58,10.32,20.9,7.92,32.77-2.49,12.31-11.29,19.34-23.1,22.13-12.13,2.87-23.7.53-34.6-5.58-3.35-1.87-3.74-3.74-1.61-6.66C768,213.51,769.66,209.26,773.39,205.67Z"/><path class="cls-1" d="M728.1,227.27c-1-1.82-.62-3.51-.62-5.13q0-55.2,0-110.4c0-5.57,0-5.57,5.83-5.55,3.33,0,6.66,0,10,0,2.12,0,3.1.86,2.94,3-.05.66,0,1.33,0,2l0,110.4c0,6.11,0,6.17-6.39,6.06C735.87,227.53,731.89,228,728.1,227.27Z"/><path class="cls-2" d="M748.83,74.63c0,9.45-5.49,15.06-13.86,14.1a10.76,10.76,0,0,1-2-.29c-6.27-1.92-9.89-10.62-7.72-18.47,1.92-6.92,8.18-10.7,14.93-9C745.27,62.21,748.82,67.84,748.83,74.63Z"/><rect class="cls-5" width="947.19" height="260.59"/></svg>