<svg id="Слой_1" data-name="Слой 1" xmlns="http://www.w3.org/2000/svg" viewBox="0 0 1024 1024"><defs><style>.cls-1{fill:#324c5a;}.cls-2{fill:#778992;}.cls-3{fill:#93a1a8;}.cls-4{fill:#8d9ba3;}.cls-5{fill:#9fabb2;}.cls-6{fill:#9ba8af;}.cls-7{fill:#8b9aa1;}.cls-8{fill:#909fa6;}.cls-9{fill:#919fa6;}.cls-10{fill:#f3efd2;}.cls-11{fill:#26a5d0;}.cls-12{fill:#f16b4f;}.cls-13{fill:#eec65e;}.cls-14{fill:#eec65d;}.cls-15{fill:#d9d2ae;}.cls-16{fill:#5a707b;}.cls-17{fill:#ddb857;}.cls-18{fill:#1794be;}.cls-19{fill:#1482a7;}.cls-20{fill:#f16c4f;}.cls-21{fill:#324d5b;}.cls-22{fill:#8a9faa;}</style></defs><path class="cls-1" d="M525,1023.89H497c-4-1.13-8.12-.2-12.18-.5-17-.45-34-.48-50.88-3.2-1.8-.29-3.62-.49-5-1.83-3.66-5-2.26-11-2.78-16.41A413.52,413.52,0,0,0,412,927.62c-13.79-48.06-36.12-91.84-66.15-131.7-7.9-10.48-16.53-20.38-25.39-30.11-21.86-24-46.64-44.5-73.58-62.44a391.27,391.27,0,0,0-92.05-45.09A386.53,386.53,0,0,0,73.72,640c-17.2-1.92-34.41-3.27-51.73-2.88-2.83.06-5.68,0-8.12-1.8-2-2-2.3-4.77-2.9-7.32a365.55,365.55,0,0,1-8.13-44.64A422.13,422.13,0,0,1,.61,539.12c-.3-4,.63-8.12-.5-12.12V497c1-4.09.26-8.26.5-12.38-.63-40.62,7-80,18.28-118.76A503.6,503.6,0,0,1,58.17,270a521.16,521.16,0,0,1,59.05-87.54,11.47,11.47,0,0,1,5.52-4.12c2.89-.45,4.64,1.45,6.39,3.21,11,11,17.55,24.51,21.9,39.18,1.59,5.38,3.54,10.8,2.81,14.38,2.7-43.47,40.11-78.94,81.59-81.18a91.38,91.38,0,0,1-53.81-24.66c-1.81-1.69-3.68-3.48-3.35-6.36,1.42-4.73,5.71-6.83,9.12-9.6A511.81,511.81,0,0,1,422.52,5.65C443.41,2,464.4,1,485.5.61c3.83-.29,7.72.61,11.51-.5h30c4.14,1,8.35.26,12.52.5a383.14,383.14,0,0,1,91.31,11,517.74,517.74,0,0,1,120.27,45c10.61,5.55,21,11.46,31.12,17.92,1.54,1,3.26,1.73,4.08,3.54,1,4-2.07,5.26-4.68,6.62-14.46,7.54-28.67,15.51-42.5,24.18a599.18,599.18,0,0,0-58.28,41.93c-12.68,10.26-24.46,21.52-36.63,32.35-15.73,14-29.44,29.86-44.16,44.77-8.26,8.38-16.23,17.13-23.77,26.23-2.28,2.75-4.53,5.91-8.68,6.23-10.62-.38-21.1-2.39-31.8-2.21-40.25.71-76.08,13.32-106.74,39.53-18.35,15.7-34.38,33.86-51.69,50.67-5,4.88-9.72,10-13.26,16.13-5.84,10.13-3.26,17.35,7.83,21.51,11.63,4.35,23.82,6,36,7.84,19.39,2.87,38.86,5.17,58.14,8.78a13.13,13.13,0,0,1,6.65,3.1c1.18,1.65.72,3.5.57,5.29A69.6,69.6,0,0,0,484,455c1.45,2.28,3.5,4.56,2.72,7.72-1,2.18-3,2.78-5,3.58a107.85,107.85,0,0,0-11.15,5c-15.69,9.13-25.52,23.53-34.4,38.68-11.45,19.53-19.75,40.32-23.38,62.75-1.63,10.06-1.68,20.16,1.71,30,3,8.86,9.21,14.43,17.93,17.36,9.55,3.2,19.28,3.06,29.07,1.35C493,616,520.89,602.42,546,583c6.87-5.3,12.07-12.33,16.7-19.69a82.21,82.21,0,0,0,6.2-15.38c.52-1.93,1.29-3.7,3.21-4.68,2.51-.81,4.52.57,6.62,1.51,10.85,4.9,22.11,7.13,34,5.35a7.42,7.42,0,0,1,5.3.81c2.72,2.37,3.22,5.75,3.76,9,3.11,18.84,5.58,37.78,8.36,56.67,1.67,11.33,3.1,22.74,7.13,33.58.41,1.09.73,2.22,1.19,3.29,4.17,9.73,11.5,12.15,20.54,6.62a74.45,74.45,0,0,0,14.16-11c15.72-15.82,31.92-31.18,47.2-47.4,23.9-25.38,38.56-55.43,43.52-90.14a166.92,166.92,0,0,0,0-48.64c-.36-2.46-.06-5-.31-7.46.48-2.67,2.44-4.35,4.31-5.95,16.66-14.32,32.32-29.71,48.38-44.68,13-12.14,25-25.35,37-38.52a596.75,596.75,0,0,0,39.93-49.14,513.16,513.16,0,0,0,38.5-60.62c2.68-5,5.4-9.94,8-15,1.23-2.36,2.67-4.81,6.13-3.8,4.89,4.05,7.25,9.89,10.31,15.14A502.93,502.93,0,0,1,1006.29,370c6.83,24.18,12.42,48.64,15.25,73.61a369.47,369.47,0,0,1,1.87,40.77c.29,3.88-.61,7.8.5,11.64v30c-1.13,4.07-.2,8.22-.5,12.32.65,42-7.22,82.62-19.2,122.64a510.43,510.43,0,0,1-90.94,172.42C903,846.05,892,858.06,880.8,869.88c-34.1,35.83-73,65.46-115.81,89.91-46.61,26.61-96.42,45-148.94,55.93-20.52,4.28-41.22,7.16-62.26,7.28-5.13,0-10.29.34-15.45.39C533.9,1023.67,529.42,1022.81,525,1023.89Z"/><path class="cls-2" d="M539.15,1023a1.49,1.49,0,0,0-.15.88H525C529.63,1022.14,534.4,1022.74,539.15,1023Z"/><path class="cls-3" d="M.11,484a1.23,1.23,0,0,1,.86-.12c.27,4.41.64,8.82-.86,13.11Z"/><path class="cls-4" d="M1023.91,539l-.39.26-.45-.1c-.33-4.43-.65-8.85.84-13.15Z"/><path class="cls-5" d="M540,.11a4.52,4.52,0,0,1,.13.82c-4.41.31-8.82.51-13.12-.82Z"/><path class="cls-6" d="M1023.05,483.9a1,1,0,0,1,.86.11v12C1022.35,492.06,1022.85,488,1023.05,483.9Z"/><path class="cls-7" d="M.93,539.16l-.46.17L.11,539V527C1.73,531,1.22,535.07.93,539.16Z"/><path class="cls-8" d="M484.86.92A2,2,0,0,1,485,.11h12C493.05,1.66,489,1.22,484.86.92Z"/><path class="cls-9" d="M485,1023.89a3.82,3.82,0,0,1-.15-.82c4.09-.3,8.19-.72,12.15.82Z"/><path class="cls-10" d="M960.91,198c-3.74,12.11-9.67,23.31-14.44,35-.68,1.68-1.11,3.45-1.66,5.18-1.82.37-2,2.09-2.67,3.35-29,58.06-68,108.72-113.85,154.39-20.52,20.45-41.83,40.06-63.36,59.45-2,6.61-8,9.6-12.69,13.57-19.77,16.73-40,32.86-61.34,47.63a24.75,24.75,0,0,1-6.95,3.84c-7.28,1.53-13.38,5.82-20.11,8.63-19.14,8-38.35,8.59-57.72,1.05-10.8-4.21-20.24-10.72-29.26-17.83-2.44-1.93-5-4-5.24-7.54,0-2.4,1.38-4,3-5.47,12.76-11.19,25.05-22.91,36.64-35.28,18-19.17,35.47-38.73,49.42-61.15,5.37-8.64,10.2-17.51,12.34-27.62,2.24-10.55-2.63-15.83-13.11-14.16-10.8,1.73-20,7.2-29,12.82-16.39,10.22-31.11,22.65-45.7,35.3-8.93,7.75-17.27,16.13-25.6,24.42-7.5,7.47-15.35,14.73-22,23.1-2.11,2.66-4.29,5.61-8,6.51a6.29,6.29,0,0,1-5.32-2.26c-15.59-16.61-30.05-33.93-33.79-57.46-3-18.77,1.05-36.35,10-52.86,5.32-9.76,11.4-19.09,17.33-28.49a21.49,21.49,0,0,0,2.87-6.32c4.43-8.45,11-15.31,16.82-22.77,7.51-9.71,15.53-19,23.42-28.42,2-2.45,4.23-4.7,7.49-5.5,16.11-17.53,32.11-35.15,48.64-52.3,38.18-39.63,79.82-75,126.9-103.69,12.35-7.54,25-14.52,37.94-21.06,1.41-.71,3.3-.91,3.83-2.86,6.3-1.08,11.56-4.72,17.36-7l29.83-12a10.52,10.52,0,0,1,3.13,5.51c7.43,27.07,20.75,50.89,39,72.2,16.13,18.83,35.3,33.68,56.84,45.61a157.63,157.63,0,0,0,23.76,10.34C958,194.62,960.21,195.38,960.91,198Z"/><path class="cls-11" d="M429.18,1016.88c-14.59-1.31-28.75-4.87-42.88-8.45-77.66-19.72-146.85-55.86-207.77-107.86A499.25,499.25,0,0,1,131,854.14c-1.1-1.23-2-2.62-3-3.93-.65-3.42,2.13-3.76,4.2-4.28a69.88,69.88,0,0,0,28.41-14.7c4-3.35,6.92-7.51,10.12-11.5,5.12-4.83,6.68-11.5,8.58-17.78,11.63-38.4-14-77.88-53.83-82.54-20.15-2.36-37.81,3.78-52.37,18.19-3.44,3.4-6.87,6.78-9.39,11-1,1.6-2.26,2.95-4.48,2.35-14.51-26.4-25.81-54.18-35-82.81-3.49-10.86-7.1-21.71-9-33a399,399,0,0,1,185.3,39.42,394.79,394.79,0,0,1,115.32,83.09c59.07,61.46,95.71,134.28,109.23,218.56C427.26,989.66,429,1003.19,429.18,1016.88Z"/><path class="cls-12" d="M684.17,518.07c18.27-11.65,35.19-25.14,52-38.72,9.71-7.84,19.17-16,28.74-24a162,162,0,0,1,1.58,54.6c-5.33,40.16-23.68,73.66-52.39,101.84-13,12.71-25.68,25.64-38.58,38.39-5.23,5.16-10.86,9.85-17.54,13.06-9.33,4.48-16,2.32-20.66-7-4.9-9.8-6.59-20.55-8.22-31.23-3.72-24.32-6.5-48.78-11.18-73,.51-2.38,2.48-2.92,4.42-3.46,14.2-4,27-10.76,39.57-18.41C669.12,525.88,676.78,522.18,684.17,518.07Z"/><path class="cls-12" d="M568.54,259.11c-13.46,16.29-27.28,32.28-40,49.16-1.9,2.52-3.7,5.11-5.55,7.67-7.32,11.42-15.68,22.19-22,34.21-5,9.55-11.51,18.2-16.44,27.82a136.36,136.36,0,0,0-9.22,23c-.62,2.06-.93,4.29-3.44,5-29-6-58.62-8.05-87.63-14-6.19-1.27-12.3-3-17.84-6.13-7.7-4.4-9.68-10.32-6.28-18.56a46.86,46.86,0,0,1,10-14.81c19-19.55,37.33-39.94,58.34-57.38,38.41-31.89,82.86-43.8,132.27-37.53C563.34,258,566.06,257.93,568.54,259.11Z"/><path class="cls-13" d="M564.21,564.3c-5.27,10.8-13.79,18.71-23.36,25.49-23.49,16.66-49.12,28.58-77.65,33.65a74.76,74.76,0,0,1-24.35.61c-16.64-2.5-27.1-13.4-28.87-30.22-1.48-14,.91-27.56,5-40.85,7.23-23.59,18-45.45,33.3-64.89,5.92-7.5,12.73-14,21.46-18.29,3.52-.06,3.21,2.66,3.44,4.87a127.8,127.8,0,0,0,4.08,22.41c3.35,11.62,9.43,21.8,16.12,31.69,1.69,5.61,4.27,10.39,10.82,11.45,8.38,4.67,16.13,10.42,25.16,14a101.62,101.62,0,0,0,29.5,6.6C561.17,561,564.13,560.49,564.21,564.3Z"/><path class="cls-14" d="M123.16,179c-10.79-10.79-24.2-16.8-38.58-20.87-6.52-1.85-13.25-3-21-4.71,53.23-6.87,82.85-36.46,89.84-90.2,1.44,7,2.35,12.53,3.77,18,4.08,15.61,10.19,30.22,21.81,41.93C190.43,136.61,205.46,144.06,222,149a189.78,189.78,0,0,0,21,4.65Q164.25,164.34,153.7,243c-2.34-14.42-5.76-28.22-12.57-41C136.48,193.35,131,185.25,123.16,179Z"/><path class="cls-13" d="M806.92,829.13c-47.1,12.4-62.58,27.86-69.65,68.7-3.25-17.56-8.6-34.11-21.7-47.08S686,832.34,668.13,829.34c40.15-5.5,63.21-28.17,69.13-68.49C743.14,801.19,766.2,823.71,806.92,829.13Z"/><path class="cls-15" d="M471.85,406.05c2.59-13.54,8.21-25.88,15.35-37.53,10.59-17.26,21.43-34.35,33.75-50.45a25.46,25.46,0,0,1,2-2.13c-2.42,6.83-7.09,12.36-10.91,18.36-8.57,13.45-15.71,27.53-18.84,43.24-3.88,19.51.11,37.68,10.79,54.41a177.92,177.92,0,0,0,22.06,27.64c1,1.08,2,2.22,3.68,2.41,1.49,2,0,3.44-1.06,4.81-5.23,6.46-10.58,12.82-15.39,19.6-1.28,1.81-2.76,3.35-5.21,3.4-5.34-1.41-7.08-6.73-10.7-10s-6.6-7.43-9.61-11.4c-1.25-1.64-2.23-3.32-1.8-5.49-4.27-7.28-8.83-14.41-11.64-22.46C470.43,429.18,470,417.7,471.85,406.05Z"/><path class="cls-15" d="M684.17,518.07c-19.83,13.54-39.4,27.56-63.4,33.1-1,.23-1.89.63-2.83,1-10.8,1.39-21.48,1.3-32-2.06a130.32,130.32,0,0,1-13.78-5.67,5,5,0,0,1-4.77-.35,110.5,110.5,0,0,1-20.68-15.29,4.71,4.71,0,0,1-1.51-3.56c.75-3.91,4.23-5.21,6.92-7.3,5.19-4.06,10.18-8.36,15.48-12.29,1.56-1.15,3-2.69,5.31-1.62,1.27,4.17,5,6.06,8.07,8.47,11.91,9.24,24.69,16.79,39.8,19.53,17.5,3.17,33.91-.71,49.84-7.79C675.15,522.18,679.18,519.07,684.17,518.07Z"/><path class="cls-16" d="M864.6,512c27.23-5.17,42.45-21.36,46.72-48.48,4.34,27.1,19.53,43.53,47.11,48.45-27.09,5-42.48,20.79-47.07,47.75C906.74,533.11,891.6,517.05,864.6,512Z"/><path class="cls-16" d="M433.4,778.22c27.55-4.53,43.21-20.49,47.91-48,4.39,27.86,20.67,43.42,48.09,48-5.94,1.52-11.8,2.58-17.24,5.12a56.63,56.63,0,0,0-15.29,10.16c-4.56,4.36-7.63,9.61-10.27,15.2s-4,11.58-5.2,18C476.85,799.09,461.41,782.59,433.4,778.22Z"/><path class="cls-16" d="M194.58,443.46c3.8,21.86,16.88,34,38.25,37.94-21.51,3.68-34.36,15.73-38.18,37.51-4.08-21.39-16.44-33.86-38.09-37.51C177.78,477.29,191.12,465.41,194.58,443.46Z"/><path class="cls-17" d="M546,525.09c7.78,7.71,16.75,13.81,26.16,19.3-2,6.91-3.51,14-7.95,19.91-4.37-2.77-9.4-1.26-14.08-2-15.61-2.52-29.81-7.95-42.18-17.87-1.52-1.22-3.45-1.15-4.95-2.21.6-1.67,2-2.16,3.54-2.24,12.44-.61,22.57-6.93,32.73-13.19C541.32,525.51,543.23,523.53,546,525.09Z"/><path class="cls-17" d="M486,462.88,508.16,489c1.66,2,.55,3.84-.48,5.51-6.31,10.25-12.15,20.69-13.77,32.91a3,3,0,0,1-2.07,2.6c-9-12-15.79-25-18.73-39.79-1-5-1.46-10.17-2.06-15.27-.22-1.8.14-3.7-1.33-5.16C474.58,466.18,480.17,464.27,486,462.88Z"/><path class="cls-18" d="M172.08,820.94c-6.79,11.62-17.4,18.51-29.27,24-4.81,2.22-10.41,2-14.8,5.27-12-12.47-22.39-26.33-32.51-40.35A462.37,462.37,0,0,1,61.27,755c1.93-5.1,6.68-7.38,10.79-9.9,24-14.79,54.89-13.44,76.78,3.65,19.65,15.32,28.81,35.6,27.3,60.53C175.89,813.43,174,817.23,172.08,820.94Z"/><path class="cls-19" d="M172.08,820.94c4-17.2,2.54-33.9-6.28-49.27-11-19.1-27.29-30.88-49.58-33.77C97.54,735.48,81.08,740.42,66.4,752a42,42,0,0,1-5.13,3l-2-4.06A115.61,115.61,0,0,1,72.89,734.5c24.3-23.67,66.41-23.61,90.56.3,21,20.79,26.59,48,15.39,75.22C177.2,814,175.3,817.9,172.08,820.94Z"/><path class="cls-12" d="M960.91,198c-52.39-17.87-90.58-52-115.48-101.19C839.58,85.27,834.85,73.17,833,60.17c23.63-8.11,47.65-14.68,72.55-17.51,18.26-2.07,36.47-2.8,54.47,2.31,10,2.85,16.19,9.14,19,19.16,4.85,17.16,4.41,34.58,2.54,52-3,27.76-10.34,54.49-19.92,80.64A7,7,0,0,1,960.91,198Z"/><path class="cls-20" d="M491.84,530c-.11-13.67,6.8-24.7,13.42-35.84,1-1.7,1.93-3.45,2.9-5.18l21.6-27c21.38-23.83,43.84-46.55,68.54-67,14.65-12.11,29.75-23.59,47.14-31.64a55.18,55.18,0,0,1,15.16-4.82c10.53-1.56,16.77,4.63,15,15.25S668.85,394,663.19,403c-17.48,28-39.74,52.11-63.05,75.26-8.85,8.79-18.14,17.14-27.23,25.7L546,525.09c-7.94,5.08-15.8,10.26-24.61,13.84A43.41,43.41,0,0,1,503,542.19C496.26,540.9,492.82,536.59,491.84,530Z"/><path class="cls-21" d="M767.59,194.55A61.35,61.35,0,1,1,706.27,256C706.06,222.39,733.79,194.62,767.59,194.55Z"/><path class="cls-18" d="M328,886.84c-9.11,9.86-20.26,14.61-33.79,14.11-23.78-.86-42.92-26-37.11-49.08,5-9.42,14-12.58,23.49-13.88,27.84-3.83,46.81,16.65,49.47,39.3C330.47,880.83,328.53,883.63,328,886.84Z"/><path class="cls-19" d="M328,886.84c-1.24-3.65.11-7.35-.59-11.17-6-32.9-39.34-46.48-66.32-26.77-1.34,1-2.66,2-4,3,2.93-15.56,12.54-25.53,27-30.65s27.84-2.34,39.21,7.62C341.39,844.7,343,868.12,328,886.84Z"/><path class="cls-22" d="M721.87,255.66A45.57,45.57,0,0,1,767.68,210a46,46,0,1,1-.1,92C742.07,302,721.84,281.45,721.87,255.66Z"/></svg>