<svg id="Слой_1" data-name="Слой 1" xmlns="http://www.w3.org/2000/svg" viewBox="0 0 1024 1024"><defs><style>.cls-1{fill:#e0e3e5;}.cls-2{fill:#f5b64d;}.cls-3{fill:#afb6bb;}.cls-4{fill:#c8cfd6;}.cls-5{fill:#fdfcfc;}</style></defs><path class="cls-1" d="M909.93,1023.9H242.05c-.13-1.81-1.59-1.76-2.85-2.16a71.06,71.06,0,0,1-20.08-9.76c-16.23-11.65-25.89-27.5-26.8-47.26-1-22.9-.2-45.9-.18-68.85,1.5,0,3,0,4.5,0H545.41c85.28,0,170.56.11,255.84-.1,16.45,0,28.93-13.45,30.47-28.29,1.07-10.21.1-20.63,0-30.95.06-2.5.17-5,.17-7.5q0-158,0-315.92c0-19.26-13.87-33.16-33-33.16Q558.44,480,318,480q-63,0-126-.14,0-204.69,0-409.37c0-5.81-.23-11.61,1-17.39q8.5-39.81,47.59-51c1.23-.36,2.23-.59,2.4-2H705A6.49,6.49,0,0,1,705,1c-1.77,1.83-1,4.11-1,6.19q-.07,92.32,0,184.67a62,62,0,0,0,18.71,45.27c12.91,12.94,28.83,19.22,47.19,19.08,1.7,3.66,4.64,6.31,7.45,9.08,5.66,5.56,11.35,11.12,16.94,16.75,7.56,7.61,15,15.35,22.57,22.92,9,9,18.31,17.7,27.16,26.84,7.46,7.71,15.28,15.05,22.61,22.89,8.58,9.16,18.07,17.45,26.8,26.48,7.57,7.83,15.31,15.5,23,23.25,9.62,9.76,19.26,19.53,29.12,29,4.72,4.55,8.56,10.15,14.4,13.53,0,.83,0,1.67,0,2.5q0,255.83.05,511.65a47.53,47.53,0,0,1-1,9.38c-5.16,25.78-20.17,42.73-45.27,50.72C912.2,1021.67,910.14,1021.6,909.93,1023.9Z"/><path class="cls-2" d="M192,864.09q-46.49-.08-93-.15c-21.6,0-35-13.26-35-34.78q0-157.7,0-315.41c0-14.6,6.43-25.19,19.85-31.26A32.56,32.56,0,0,1,97.57,480q43.25.06,86.48,0c2.66,0,5.33-.1,8-.15q63,.07,126,.14,240.45,0,480.89,0c19.17,0,33,13.9,33,33.16q0,158,0,315.92c0,2.5-.11,5-.17,7.5-1.73,5.37-3.31,10.75-7.07,15.23-7.43,8.85-17,12.15-28.3,12.15q-256.95-.08-513.9,0Q237.26,863.94,192,864.09Zm289.17-95.7c12.62-.19,22.93-12.34,16.19-25.58-24.17-47.47-47.95-95.14-71.85-142.74-3.16-6.3-7.92-10.32-15.17-10.46-7.56-.15-13,3.62-16.56,10.11-2.16,3.94-4.1,8-6.14,12l-66,128.94c-5.86,11.44-3.44,22.13,6.05,26.74,9.05,4.4,19.76-.5,25.15-11.52,2.55-5.24,5.18-10.44,7.55-15.76,1.11-2.5,2.62-3.34,5.35-3.33q43.49.15,87,0c3,0,4.47,1,5.68,3.61,3.06,6.47,6.34,12.83,9.58,19.21C470.82,765.12,475.21,768.22,481.19,768.39Zm46.87-88.88q0,35.46,0,70.92a25.6,25.6,0,0,0,.49,5.94c2,8.1,9.34,12.8,18.29,11.82,9.35-1,15-7.16,15-16.69q.09-71.93,0-143.83c0-10.81-6.54-17.5-16.85-17.5s-17,7-17,17.92Q528,643.8,528.06,679.51Z"/><path class="cls-3" d="M705,1q53.21,53.13,106.42,106.25,72.08,72,144.11,144.15c1.17,1.18,2.25,2.44,3.38,3.67-1.68,1.63-3.79,1-5.71,1-17.82.06-35.64,0-53.46,0l-129.88.14c-18.36.14-34.28-6.14-47.19-19.08A62,62,0,0,1,704,191.84q0-92.34,0-184.67C704,5.09,703.24,2.81,705,1Z"/><path class="cls-4" d="M192,864.09q45.24-.08,90.48-.15,257,0,513.9,0c11.27,0,20.87-3.3,28.3-12.15,3.76-4.48,5.34-9.86,7.07-15.23.05,10.32,1,20.74,0,30.95-1.54,14.84-14,28.26-30.47,28.29-85.28.21-170.56.1-255.84.1H196.64c-1.5,0-3,0-4.5,0Z"/><path class="cls-4" d="M769.87,256.19l129.88-.14c17.82,0,35.64,0,53.46,0,1.92,0,4,.67,5.71-1,1.48,1.31,1,3.09,1,4.69q0,93.61,0,187.22c-5.84-3.38-9.68-9-14.4-13.53-9.86-9.5-19.5-19.27-29.12-29-7.64-7.75-15.38-15.42-23-23.25-8.73-9-18.22-17.32-26.8-26.48-7.33-7.84-15.15-15.18-22.61-22.89-8.85-9.14-18.15-17.85-27.16-26.84-7.59-7.57-15-15.31-22.57-22.92-5.59-5.63-11.28-11.19-16.94-16.75C774.51,262.5,771.57,259.85,769.87,256.19Z"/><path class="cls-5" d="M481.19,768.39c-6-.17-10.37-3.27-13.16-8.78-3.24-6.38-6.52-12.74-9.58-19.21-1.21-2.58-2.72-3.62-5.68-3.61q-43.47.16-87,0c-2.73,0-4.24.83-5.35,3.33-2.37,5.32-5,10.52-7.55,15.76-5.39,11-16.1,15.92-25.15,11.52-9.49-4.61-11.91-15.3-6.05-26.74l66-128.94c2-4,4-8.06,6.14-12,3.57-6.49,9-10.26,16.56-10.11,7.25.14,12,4.16,15.17,10.46,23.9,47.6,47.68,95.27,71.85,142.74C504.12,756.05,493.81,768.2,481.19,768.39ZM438.43,703c-9.73-21.26-19.12-41.8-28.87-63.14-10.22,20.51-19.9,40-29.7,59.51-1.52,3-.63,3.68,2.41,3.66,12.32-.09,24.65,0,37,0Z"/><path class="cls-5" d="M528.05,679.51q0-35.7,0-71.42c0-11,6.64-17.92,17-17.92s16.84,6.69,16.85,17.5q0,71.91,0,143.83c0,9.53-5.7,15.66-15,16.69-9,1-16.33-3.72-18.29-11.82a25.6,25.6,0,0,1-.49-5.94Q528,715,528.05,679.51Z"/><path class="cls-2" d="M438.43,703H419.25c-12.33,0-24.66-.06-37,0-3,0-3.93-.63-2.41-3.66,9.8-19.47,19.48-39,29.7-59.51C419.31,661.16,428.7,681.7,438.43,703Z"/></svg>