<svg id="Слой_1" data-name="Слой 1" xmlns="http://www.w3.org/2000/svg" viewBox="0 0 1024 1024"><defs><style>.cls-1{fill:#e0e3e5;}.cls-2{fill:#ef5542;}.cls-3{fill:#afb6bb;}.cls-4{fill:#c8cfd6;}.cls-5{fill:#fdfbfb;}</style></defs><path class="cls-1" d="M909.93,1023.9H242.05c-.13-1.81-1.59-1.76-2.85-2.16a70.87,70.87,0,0,1-20.07-9.76c-16.24-11.65-25.9-27.5-26.81-47.26-1-22.9-.2-45.9-.18-68.85,1.5,0,3,0,4.5,0H565.47c78.63,0,157.27.14,235.9-.12,16.45,0,28.56-13.18,30.31-27.9,1.23-10.34.13-21,.06-31.45.07-2.83.2-5.66.2-8.49q0-156.94,0-313.88c0-20.56-13.58-34.09-34.13-34.09Q552.9,480,308,480q-58,0-116-.16,0-204.67,0-409.36c0-5.81-.23-11.61,1-17.39q8.5-39.81,47.59-51c1.23-.36,2.23-.59,2.4-2H705A6.49,6.49,0,0,1,705,1c-1.77,1.83-1,4.11-1,6.19q-.07,92.32,0,184.67a62,62,0,0,0,18.71,45.27c12.91,12.94,28.83,19.22,47.19,19.08,1.7,3.66,4.64,6.31,7.45,9.08,5.66,5.56,11.35,11.12,16.94,16.75,7.56,7.61,15,15.35,22.57,22.92,9,9,18.31,17.7,27.16,26.84,7.46,7.71,15.28,15.05,22.61,22.89,8.58,9.16,18.07,17.45,26.8,26.48,7.57,7.83,15.31,15.5,23,23.25,9.62,9.76,19.26,19.53,29.12,29,4.72,4.55,8.56,10.15,14.4,13.53,0,.83,0,1.67,0,2.5q0,255.83.05,511.65a47.53,47.53,0,0,1-1,9.38c-5.16,25.78-20.17,42.73-45.27,50.72C912.2,1021.67,910.14,1021.6,909.93,1023.9Z"/><path class="cls-2" d="M192,864.09q-46.49-.08-93-.15c-21.62,0-35-13.24-35-34.77q0-157.71,0-315.43c0-17.44,10.56-30.46,27-33.29a60,60,0,0,1,10-.44q45.48-.12,91-.17,58,.09,116,.16,244.9,0,489.81,0c20.55,0,34.13,13.53,34.13,34.09q0,156.95,0,313.88c0,2.83-.13,5.66-.2,8.49-1.62,5.4-3.24,10.76-7,15.25-7.5,9.06-17.3,12.27-28.73,12.26q-242.56-.08-485.14,0Q251.48,863.94,192,864.09ZM232.75,751c-.07,7.8,5.11,15.45,11,17,8.43,2.29,17.55-.9,21.34-7.9,3.47-6.43,6.62-13,9.67-19.7,1.18-2.57,2.56-3.69,5.56-3.68q43.47.18,86.93,0c3,0,4.45,1.12,5.65,3.67,3.14,6.61,6.46,13.13,9.81,19.63,3.06,5.94,8,8.74,14.69,8.19,13.44-1.1,20.24-13.43,14-25.82q-35.55-70.92-71.23-141.77c-3.33-6.64-8.08-10.94-15.83-11s-13.11,4.07-16.57,10.83q-36.27,70.83-72.52,141.68C233.75,745.2,232.67,748.32,232.75,751Zm266.64-32.83c-1.37-3-2.36-5.07-3.29-7.18Q472,656.16,448,601.35c-4.67-10.61-14-14.47-23.59-10.1-9.83,4.47-13.23,14.31-8.27,24.71q33,69.38,66.21,138.69c2,4.22,4.32,8.26,8,11.33,6.76,5.64,14.84,5.32,21.13-.82a25.37,25.37,0,0,0,5.19-7.86q20.58-45.18,41.2-90.33c7.93-17.41,15.93-34.78,23.77-52.23,5-11.13.3-21.68-10.7-24.47-8.89-2.26-16.69,1.89-20.85,11.18C532.84,639.83,516.23,678.48,499.39,718.16Zm114.44-39.22c0,24.31-.06,48.61,0,72.92,0,10.68,7.47,17.33,18.08,16.45,10-.83,15.58-7,15.64-17.66.11-21.47,0-42.95,0-64.42,0-25.81,0-51.61,0-77.41,0-6.9-1.48-13-8.13-16.46-10.84-5.69-26.17.55-25.81,15.17C614.26,631.32,613.84,655.13,613.83,678.94Z"/><path class="cls-3" d="M705,1q53.21,53.13,106.42,106.25,72.08,72,144.11,144.15c1.17,1.18,2.25,2.44,3.38,3.67-1.68,1.63-3.79,1-5.71,1-17.82.06-35.64,0-53.46,0l-129.88.14c-18.36.14-34.28-6.14-47.19-19.08A62,62,0,0,1,704,191.84q0-92.34,0-184.67C704,5.09,703.24,2.81,705,1Z"/><path class="cls-4" d="M192,864.09q59.46-.08,118.9-.15,242.58,0,485.14,0c11.43,0,21.23-3.2,28.73-12.26,3.71-4.49,5.33-9.85,7-15.25.07,10.49,1.17,21.11-.06,31.45-1.75,14.72-13.86,27.85-30.31,27.9-78.63.26-157.27.12-235.9.12H196.64c-1.5,0-3,0-4.5,0Z"/><path class="cls-4" d="M769.87,256.19l129.88-.14c17.82,0,35.64,0,53.46,0,1.92,0,4,.67,5.71-1,1.48,1.31,1,3.09,1,4.69q0,93.61,0,187.22c-5.84-3.38-9.68-9-14.4-13.53-9.86-9.5-19.5-19.27-29.12-29-7.64-7.75-15.38-15.42-23-23.25-8.73-9-18.22-17.32-26.8-26.48-7.33-7.84-15.15-15.18-22.61-22.89-8.85-9.14-18.15-17.85-27.16-26.84-7.59-7.57-15-15.31-22.57-22.92-5.59-5.63-11.28-11.19-16.94-16.75C774.51,262.5,771.57,259.85,769.87,256.19Z"/><path class="cls-5" d="M232.75,751c-.08-2.67,1-5.79,2.54-8.78q36.25-70.85,72.52-141.68c3.46-6.76,8.72-10.85,16.57-10.83s12.5,4.32,15.83,11q35.57,70.92,71.23,141.77c6.22,12.39-.58,24.72-14,25.82-6.72.55-11.63-2.25-14.69-8.19-3.35-6.5-6.67-13-9.81-19.63-1.2-2.55-2.62-3.68-5.65-3.67q-43.45.19-86.93,0c-3,0-4.38,1.11-5.56,3.68-3,6.65-6.2,13.27-9.67,19.7-3.79,7-12.91,10.19-21.34,7.9C237.86,766.44,232.68,758.79,232.75,751Zm91.16-111.06c-10.32,20.71-20,40.23-29.79,59.68-1.64,3.24-.33,3.45,2.44,3.43,17.15-.08,34.31-.19,51.46,0,4.75.07,4.31-1.44,2.76-4.76-7.85-16.88-15.56-33.83-23.32-50.76C326.45,645.35,325.41,643.15,323.91,639.93Z"/><path class="cls-5" d="M499.39,718.16c16.84-39.68,33.45-78.33,50.67-116.71,4.16-9.29,12-13.44,20.85-11.18,11,2.79,15.7,13.34,10.7,24.47-7.84,17.45-15.84,34.82-23.77,52.23q-20.6,45.16-41.2,90.33a25.37,25.37,0,0,1-5.19,7.86c-6.29,6.14-14.37,6.46-21.13.82-3.68-3.07-6-7.11-8-11.33Q449.2,685.31,416.11,616c-5-10.4-1.56-20.24,8.27-24.71,9.62-4.37,18.92-.51,23.59,10.1Q472.12,656.13,496.1,711C497,713.09,498,715.17,499.39,718.16Z"/><path class="cls-5" d="M613.83,678.94c0-23.81.43-47.62-.14-71.41-.36-14.62,15-20.86,25.81-15.17,6.65,3.49,8.14,9.56,8.13,16.46,0,25.8,0,51.6,0,77.41,0,21.47.06,42.95,0,64.42-.06,10.69-5.65,16.83-15.64,17.66-10.61.88-18-5.77-18.08-16.45C613.77,727.55,613.83,703.25,613.83,678.94Z"/><path class="cls-2" d="M323.91,639.93c1.5,3.22,2.54,5.42,3.55,7.63,7.76,16.93,15.47,33.88,23.32,50.76,1.55,3.32,2,4.83-2.76,4.76-17.15-.23-34.31-.12-51.46,0-2.77,0-4.08-.19-2.44-3.43C303.92,680.16,313.59,660.64,323.91,639.93Z"/></svg>