<svg id="Слой_1" data-name="Слой 1" xmlns="http://www.w3.org/2000/svg" viewBox="0 0 1024 1024"><defs><style>.cls-1{fill:#e0e3e5;}.cls-2{fill:#f5b74e;}.cls-3{fill:#afb6bb;}.cls-4{fill:#c8cfd6;}.cls-5{fill:#fdfcfb;}</style></defs><path class="cls-1" d="M909.93,1023.9H242.05c-.13-1.81-1.59-1.76-2.85-2.16a71.06,71.06,0,0,1-20.08-9.76c-16.23-11.65-25.89-27.5-26.8-47.26-1-22.9-.2-45.9-.18-68.85,1.5,0,3,0,4.5,0H545.41c85.28,0,170.56.11,255.84-.1,16.45,0,28.93-13.45,30.47-28.29,1.07-10.21.1-20.63,0-30.95.06-2.5.17-5,.17-7.49q0-158,0-315.93c0-19.26-13.87-33.16-33-33.16Q558.46,480,318,480q-63,0-126-.14,0-204.69,0-409.37c0-5.81-.23-11.61,1-17.39q8.5-39.81,47.59-51c1.23-.36,2.23-.59,2.4-2H705A6.49,6.49,0,0,1,705,1c-1.77,1.83-1,4.11-1,6.19q-.07,92.32,0,184.67a62,62,0,0,0,18.71,45.27c12.91,12.94,28.83,19.22,47.19,19.08,1.7,3.66,4.64,6.31,7.45,9.08,5.66,5.56,11.35,11.12,16.94,16.75,7.56,7.61,15,15.35,22.57,22.92,9,9,18.31,17.7,27.16,26.84,7.46,7.71,15.28,15.05,22.61,22.89,8.58,9.16,18.07,17.45,26.8,26.48,7.57,7.83,15.31,15.5,23,23.25,9.62,9.76,19.26,19.53,29.12,29,4.72,4.55,8.56,10.15,14.4,13.53,0,.83,0,1.67,0,2.5q0,255.83.05,511.65a47.53,47.53,0,0,1-1,9.38c-5.16,25.78-20.17,42.73-45.27,50.72C912.2,1021.67,910.14,1021.6,909.93,1023.9Z"/><path class="cls-2" d="M192,864.09q-46.49-.08-93-.15c-21.59,0-35-13.25-35-34.77q0-157.71,0-315.43c0-17.31,10.22-30.13,26.53-33.19a57.7,57.7,0,0,1,10.45-.54q45.48-.12,91-.16,63,.07,126,.14,240.45,0,480.89,0c19.17,0,33,13.9,33,33.16q0,158,0,315.93c0,2.49-.11,5-.17,7.49-1.73,5.37-3.31,10.75-7.07,15.23-7.43,8.85-17,12.15-28.3,12.15q-256.95-.08-513.9,0Q237.26,863.94,192,864.09Zm25.23-185.2v70c0,13,5.9,19.07,18.77,19.08q32,0,64,0c10.32,0,20.66.2,31-.12,11.57-.36,18.46-9.29,16.08-20.26-1.79-8.3-8.78-13.24-19.23-13.27-23.82-.08-47.64-.12-71.46,0-3.94,0-5.28-1.19-5.15-5.11.31-9.32.48-18.64.28-28-.08-4.14,1.14-5.38,5.32-5.33q30,.3,60,0c9.34-.08,16-7,16.19-16.2s-6-16.23-15.34-17c-3.15-.24-6.32-.39-9.48-.38-16.81.06-33.61.08-50.42.36-4.63.07-6.5-1.29-6.24-6.23.38-7.47.26-15,0-22.46-.36-10.05-.51-10,9.27-10,21.66,0,43.32.11,65-.06,11.39-.09,18.46-9,16.38-20.09-1.54-8.23-7.74-12.93-17.58-12.95q-44.49-.11-89,0c-12.44,0-18.28,5.91-18.3,18.48Q217.21,644.17,217.25,678.89ZM381,677.82v35.47c0,11.83,0,23.66,0,35.48,0,11.5,7.22,19.24,17.74,19.17,9.88-.06,16.07-7.26,16.12-18.85.05-9.33.15-18.66-.05-28-.08-3.52,1.09-4.58,4.55-4.53,12,.18,24,.16,36,.06,17-.14,32.7-4.26,45.57-16,16.65-15.18,21.42-34.51,19.22-56.26-3.26-32.25-27-54.79-59.38-55.48-20-.44-40-.18-60-.18-13.11,0-19.77,6.82-19.78,20.13Q381,643.33,381,677.82Zm238.31,95.46c7.95.18,21.95-2.25,35-8.74,20.15-10,30.31-26.48,30.32-48.86,0-21.59-12.44-34.55-31.09-42.83-10.68-4.75-22-7.68-33.13-10.92-10.05-2.92-20.36-5.23-29.29-11.06-12.3-8-12.41-24.1-.28-32.41,5.54-3.79,11.85-5.23,18.42-5.44a73.2,73.2,0,0,1,41,10.49c6.85,4.13,13.52,3,18.53-2.5s5.23-13,.7-19.25c-2.2-3-5.22-5.12-8.34-7-17.52-10.67-36.69-13.44-56.71-11.2-14.3,1.61-27.42,6.4-38.79,15.66-21.29,17.35-24.68,58.42,4.64,75.9,10,5.95,20.81,9.58,31.82,12.88,12.25,3.67,24.91,6.21,36.32,12.27,6.83,3.63,12.86,8.49,12.58,17.15-.3,9-4.84,15.79-12.88,20-7,3.63-14.57,4.72-22.29,4.25-16.58-1-31.93-5.68-45.9-15-9.5-6.37-21.64,0-23.06,11.4-1.12,9.12,3.06,15.31,10.31,20C574.09,769,592.88,773.06,619.32,773.28Z"/><path class="cls-3" d="M705,1q53.21,53.13,106.42,106.25,72.08,72,144.11,144.15c1.17,1.18,2.25,2.44,3.38,3.67-1.68,1.63-3.79,1-5.71,1-17.82.06-35.64,0-53.46,0l-129.88.14c-18.36.14-34.28-6.14-47.19-19.08A62,62,0,0,1,704,191.84q0-92.34,0-184.67C704,5.09,703.24,2.81,705,1Z"/><path class="cls-4" d="M192,864.09q45.24-.08,90.48-.15,257,0,513.9,0c11.27,0,20.87-3.3,28.3-12.15,3.76-4.48,5.34-9.86,7.07-15.23.05,10.32,1,20.74,0,30.95-1.54,14.84-14,28.26-30.47,28.29-85.28.21-170.56.1-255.84.1H196.64c-1.5,0-3,0-4.5,0Z"/><path class="cls-4" d="M769.87,256.19l129.88-.14c17.82,0,35.64,0,53.46,0,1.92,0,4,.67,5.71-1,1.48,1.31,1,3.09,1,4.69q0,93.61,0,187.22c-5.84-3.38-9.68-9-14.4-13.53-9.86-9.5-19.5-19.27-29.12-29-7.64-7.75-15.38-15.42-23-23.25-8.73-9-18.22-17.32-26.8-26.48-7.33-7.84-15.15-15.18-22.61-22.89-8.85-9.14-18.15-17.85-27.16-26.84-7.59-7.57-15-15.31-22.57-22.92-5.59-5.63-11.28-11.19-16.94-16.75C774.51,262.5,771.57,259.85,769.87,256.19Z"/><path class="cls-5" d="M217.25,678.89q0-34.73,0-69.46c0-12.57,5.86-18.47,18.3-18.48q44.47,0,89,0c9.84,0,16,4.72,17.58,12.95,2.08,11.09-5,20-16.38,20.09-21.65.17-43.31.07-65,.06-9.78,0-9.63,0-9.27,10,.27,7.48.39,15,0,22.46-.26,4.94,1.61,6.3,6.24,6.23,16.81-.28,33.61-.3,50.42-.36,3.16,0,6.33.14,9.48.38,9.3.72,15.55,7.67,15.34,17s-6.85,16.12-16.19,16.2q-30,.25-60,0c-4.18-.05-5.4,1.19-5.32,5.33.2,9.31,0,18.63-.28,28-.13,3.92,1.21,5.13,5.15,5.11,23.82-.15,47.64-.11,71.46,0,10.45,0,17.44,5,19.23,13.27,2.38,11-4.51,19.9-16.08,20.26-10.32.32-20.66.11-31,.12q-32,0-64,0c-12.87,0-18.76-6-18.77-19.08Z"/><path class="cls-5" d="M381,677.82q0-34.49,0-69c0-13.31,6.67-20.12,19.78-20.13,20,0,40-.26,60,.18,32.35.69,56.12,23.23,59.38,55.48,2.2,21.75-2.57,41.08-19.22,56.26-12.87,11.73-28.59,15.85-45.57,16-12,.1-24,.12-36-.06-3.46-.05-4.63,1-4.55,4.53.2,9.32.1,18.65.05,28-.05,11.59-6.24,18.79-16.12,18.85C388.23,768,381,760.27,381,748.77c0-11.82,0-23.65,0-35.48ZM414.87,653h0c0,9.32,0,18.65,0,28,0,2.27.24,3.87,3.16,3.79,14.47-.41,29,1,43.41-.7,16-1.83,27.5-16.49,26.6-33.23-.89-16.41-14.38-29.72-30.43-29.87-12.66-.12-25.32.09-38-.12-3.62-.06-5,.82-4.85,4.68C415.06,634.65,414.87,643.82,414.87,653Z"/><path class="cls-5" d="M619.32,773.28c-26.44-.22-45.23-4.24-62.1-15.27-7.25-4.73-11.43-10.92-10.31-20,1.42-11.41,13.56-17.77,23.06-11.4,14,9.36,29.32,14,45.9,15,7.72.47,15.31-.62,22.29-4.25,8-4.18,12.58-11,12.88-20,.28-8.66-5.75-13.52-12.58-17.15-11.41-6.06-24.07-8.6-36.32-12.27-11-3.3-21.84-6.93-31.82-12.88-29.32-17.48-25.93-58.55-4.64-75.9,11.37-9.26,24.49-14.05,38.79-15.66,20-2.24,39.19.53,56.71,11.2,3.12,1.91,6.14,4,8.34,7,4.53,6.29,4.29,13.72-.7,19.25s-11.68,6.63-18.53,2.5a73.2,73.2,0,0,0-41-10.49c-6.57.21-12.88,1.65-18.42,5.44-12.13,8.31-12,24.39.28,32.41,8.93,5.83,19.24,8.14,29.29,11.06,11.18,3.24,22.45,6.17,33.13,10.92,18.65,8.28,31.09,21.24,31.09,42.83,0,22.38-10.17,38.87-30.32,48.86C641.27,771,627.27,773.46,619.32,773.28Z"/><path class="cls-2" d="M414.87,653c0-9.16.19-18.33-.09-27.48-.12-3.86,1.23-4.74,4.85-4.68,12.65.21,25.31,0,38,.12,16,.15,29.54,13.46,30.43,29.87.9,16.74-10.6,31.4-26.6,33.23-14.42,1.65-28.94.29-43.41.7-2.92.08-3.17-1.52-3.16-3.79.06-9.32,0-18.65,0-28Z"/></svg>