<svg id="Слой_1" data-name="Слой 1" xmlns="http://www.w3.org/2000/svg" viewBox="0 0 1024 1024"><defs><style>.cls-1{fill:#e0e3e5;}.cls-2{fill:#ef5542;}.cls-3{fill:#afb6bb;}.cls-4{fill:#c8cfd6;}</style></defs><path class="cls-1" d="M585,1024H82c-3.61-1.7-7.13-3.61-10.83-5.06C49.61,1010.5,32,985.63,32,963.2Q32,514,32,64.89A59,59,0,0,1,33.1,53C38.58,26.44,54.59,9.54,80.57,1.93,81.49,1.66,82.2.66,83,0H545a8.83,8.83,0,0,1,0,.89,39,39,0,0,0-1,6.18q-.09,92.36,0,184.71a62,62,0,0,0,18.72,45.28c12.91,12.94,28.83,19.22,47.2,19.08,2.48,3,4.78,6.23,7.49,9,5.52,5.71,11.31,11.16,16.91,16.8,7.55,7.61,15,15.35,22.57,22.92,9,9,18.2,17.81,27.19,26.82,7.58,7.58,14.92,15.42,22.51,23,8.9,8.87,18,17.5,26.92,26.38,7.7,7.7,15.13,15.67,22.79,23.42q14.46,14.63,29.11,29.05c4.7,4.61,9.69,8.93,14.54,13.39V513c-20.42,0-40.07-1.36-59.43.4-18,1.64-36,5.74-53.54,10.35-18.13,4.76-35.76,11.44-52,21.2a34.34,34.34,0,0,0-5.71-.94q-55-.09-110,0-163.19,0-326.38,0c-9.67,0-18.33,3.18-24.49,10.38-8.12,9.5-11.23,20.69-6.27,33,5.54,13.67,16,20.59,30.56,20.63,54.14.14,108.29,0,162.44.06q99,0,197.92.09A303.26,303.26,0,0,0,510,672q-158.49,0-317,.16c-5.1,0-10.37,1.76-15.25,3.56-11.78,4.34-21.16,20.69-16.68,37.19,3.39,12.47,17.46,23.21,31,23.18q147.48-.26,295-.08c-4.22,21.14-7.4,42.39-7.06,64l-76.5,0q-105.48,0-211,0c-18.33,0-32.24,13.56-32.47,31.47-.25,18.36,13.78,32.49,32.5,32.5q147.24,0,294.48,0c.62,2.07,1.35,4.11,1.85,6.21A274.38,274.38,0,0,0,521.69,949,291.86,291.86,0,0,0,581,1018.56C582.63,1020,583.67,1022.17,585,1024ZM416.48,416q-111.48,0-222.94.11A38.6,38.6,0,0,0,179,418.75c-14.57,6.16-22,21.36-17.75,37.54,3.6,13.78,14.58,23.61,30.86,23.63Q416,480.13,640,480a32.16,32.16,0,0,0,32-32.09A31.82,31.82,0,0,0,639.92,416ZM320,224c42.66,0,85.31.08,128-.05,15.42,0,26.91-9.44,30.61-22.63,6.13-21.88-9.33-41.29-32.22-41.31q-21.74,0-43.48,0-105.48,0-210.95,0c-14,0-26.58,9.13-30.31,21.71-4.35,14.72.49,28.56,12.59,36.86,6,4.16,12.72,5.42,19.83,5.42Zm-.48,128c42.64,0,85.29.08,127.94-.06,11.3,0,20.72-4.51,27-14.19,7.07-10.84,7.51-22.37,1.41-33.58-5.55-10.21-14.91-16-26.47-16.06q-128.94-.35-257.88-.09c-17.31,0-31.59,14.7-31.57,32A32.06,32.06,0,0,0,192.07,352Z"/><path class="cls-2" d="M752,1024c-4.83-.68-9.66-1.43-14.5-2A211.87,211.87,0,0,1,660,996.13q-74-41.49-103.11-121.35c-5.23-14.36-9.53-29-10.69-44.27C545,815,544,799.42,544.25,783.88c.15-9.56,2.53-19.13,4.27-28.63,4.47-24.51,13.62-47.32,26.35-68.6,28.44-47.56,68.82-80.68,121.31-98.72,19.79-6.8,40.13-10.22,61.13-11.21a223.53,223.53,0,0,1,48.77,2.67c30.92,5.35,59.86,16.35,86,34.09,41.44,28.12,70.8,65.63,87.43,112.91a188.29,188.29,0,0,1,10.51,48c.71,9.22,2.13,18.47,1.78,27.65-.64,17-2.22,34-6.53,50.68-21,81.13-72.08,134-150.56,161.08a177.93,177.93,0,0,1-48.48,9.33,15.18,15.18,0,0,0-3.22.85Zm14.49-192c21.83,0,43.66.23,65.48-.07,19-.26,32.23-14.29,31.85-32.43S850.65,768.28,832,768.13c-42.82-.36-85.65-.26-128.47-.06-19.06.09-33,17-31.46,34.41,1.36,15.72,14.76,29.4,31,29.48C724.17,832.06,745.33,832,766.49,832Z"/><path class="cls-3" d="M545,.89Q598.26,54,651.48,107.15q72.1,72.07,144.14,144.19c1.17,1.17,2.26,2.44,3.38,3.66a35.44,35.44,0,0,1-5.71.95c-17.82.08-35.64,0-53.47.05l-129.9.14c-18.37.14-34.29-6.14-47.2-19.08A62,62,0,0,1,544,191.78q0-92.35,0-184.71A39,39,0,0,1,545,.89Z"/><path class="cls-4" d="M416.48,416H639.92A31.82,31.82,0,0,1,672,447.9,32.16,32.16,0,0,1,640,480q-224,0-447.88-.07c-16.28,0-27.26-9.85-30.86-23.63-4.23-16.18,3.18-31.38,17.75-37.54a38.6,38.6,0,0,1,14.56-2.64Q305,415.89,416.48,416Z"/><path class="cls-4" d="M635,545a261.08,261.08,0,0,0-57.74,40.21c-8.12,7.56-16.1,15.26-24.15,22.9q-99,0-197.92-.09c-54.15,0-108.3.08-162.44-.06-14.57,0-25-7-30.56-20.63-5-12.27-1.85-23.46,6.27-33,6.16-7.2,14.82-10.38,24.49-10.38q163.19,0,326.38,0,55,0,110,0A34.34,34.34,0,0,1,635,545Z"/><path class="cls-4" d="M510,672c-5.83,15-11.82,29.93-17.41,45-2.3,6.17-3.74,12.66-5.57,19q-147.49,0-295,.08c-13.49,0-27.56-10.71-31-23.18-4.48-16.5,4.9-32.85,16.68-37.19,4.88-1.8,10.15-3.55,15.25-3.56Q351.52,671.85,510,672Z"/><path class="cls-4" d="M480,800a313.27,313.27,0,0,0,6.73,60.51A26.32,26.32,0,0,1,487,864q-147.24,0-294.48,0c-18.72,0-32.75-14.14-32.5-32.5.23-17.91,14.14-31.47,32.47-31.47q105.5,0,211,0Z"/><path class="cls-4" d="M320,224H194c-7.11,0-13.78-1.26-19.83-5.42-12.1-8.3-16.94-22.14-12.59-36.86,3.73-12.58,16.31-21.7,30.31-21.71q105.48-.06,211,0,21.74,0,43.48,0c22.89,0,38.35,19.43,32.22,41.31-3.7,13.19-15.19,22.59-30.61,22.63C405.31,224.08,362.66,224,320,224Z"/><path class="cls-4" d="M319.52,352H192.07A32.06,32.06,0,0,1,160,320.06c0-17.33,14.26-32,31.57-32q128.94-.11,257.88.09c11.56,0,20.92,5.85,26.47,16.06,6.1,11.21,5.66,22.74-1.41,33.58-6.32,9.68-15.74,14.15-27,14.19C404.81,352.09,362.16,352,319.52,352Z"/><path class="cls-4" d="M609.92,256.14l129.9-.14c17.83,0,35.65,0,53.47-.05A35.44,35.44,0,0,0,799,255a23,23,0,0,1,1,4.69q0,93.63,0,187.26c-4.85-4.46-9.84-8.78-14.54-13.39q-14.68-14.4-29.11-29.05c-7.66-7.75-15.09-15.72-22.79-23.42-8.89-8.88-18-17.51-26.92-26.38-7.59-7.57-14.93-15.41-22.51-23-9-9-18.18-17.82-27.19-26.82-7.59-7.57-15-15.31-22.57-22.92-5.6-5.64-11.39-11.09-16.91-16.8C614.7,262.37,612.4,259.16,609.92,256.14Z"/></svg>