<svg id="Слой_1" data-name="Слой 1" xmlns="http://www.w3.org/2000/svg" viewBox="0 0 1024 1024"><defs><style>.cls-1{fill:#e0e3e5;}.cls-2{fill:#f5b74e;}.cls-3{fill:#afb6bb;}.cls-4{fill:#c8cfd6;}.cls-5{fill:#fdfcfb;}</style></defs><path class="cls-1" d="M909.93,1023.9H242.05c-.13-1.81-1.59-1.76-2.85-2.16a71.06,71.06,0,0,1-20.08-9.76c-16.23-11.65-25.89-27.5-26.8-47.26-1-22.9-.2-45.9-.18-68.85,1.5,0,3,0,4.5,0H545.41c85.28,0,170.56.11,255.84-.1,16.45,0,28.93-13.45,30.47-28.29,1.07-10.21.1-20.63,0-30.95.06-2.5.17-5,.17-7.49q0-158,0-315.93c0-19.26-13.87-33.16-33-33.16Q558.44,480,318,480q-63,0-126-.14,0-204.69,0-409.37c0-5.81-.23-11.61,1-17.39q8.5-39.81,47.59-51c1.23-.36,2.23-.59,2.4-2H705A6.49,6.49,0,0,1,705,1c-1.77,1.83-1,4.11-1,6.19q-.07,92.32,0,184.67a62,62,0,0,0,18.71,45.27c12.91,12.94,28.83,19.22,47.19,19.08,1.7,3.66,4.64,6.31,7.45,9.08,5.66,5.56,11.35,11.12,16.94,16.75,7.56,7.61,15,15.35,22.57,22.92,9,9,18.31,17.7,27.16,26.84,7.46,7.71,15.28,15.05,22.61,22.89,8.58,9.16,18.07,17.45,26.8,26.48,7.57,7.83,15.31,15.5,23,23.25,9.62,9.76,19.26,19.53,29.12,29,4.72,4.55,8.56,10.15,14.4,13.53,0,.83,0,1.67,0,2.5q0,255.83.05,511.65a47.53,47.53,0,0,1-1,9.38c-5.16,25.78-20.17,42.73-45.27,50.72C912.2,1021.67,910.14,1021.6,909.93,1023.9Z"/><path class="cls-2" d="M192,864.09q-46.49-.08-93-.15c-21.59,0-35-13.26-35-34.77q0-157.71,0-315.42c0-17.32,10.23-30.14,26.53-33.2a56.81,56.81,0,0,1,10.45-.53q45.48-.13,91-.17,63,.07,126,.14,240.45,0,480.89,0c19.17,0,33,13.9,33,33.16q0,158,0,315.93c0,2.49-.11,5-.17,7.49-1.73,5.37-3.31,10.75-7.07,15.23-7.43,8.85-17,12.15-28.3,12.15q-256.95-.08-513.9,0Q237.26,863.94,192,864.09Zm397.82-145.9c-3.7-8.46-6.75-15.47-9.82-22.47q-20.67-47.09-41.34-94.15c-2.46-5.62-6.08-10.06-12.26-11.51-7.35-1.73-13.48.76-18.29,6.4s-5,12.09-1.88,18.67Q540,685.86,573.84,756.58a29.76,29.76,0,0,0,5.65,8.18c7.48,7.5,17.89,6.87,24.26-1.59a37.15,37.15,0,0,0,3.9-6.94q18-39.27,35.82-78.58,14.38-31.57,28.75-63.16c3.69-8.18,2.33-15.39-3.57-20.46-9.33-8-22.49-5-27.69,6.77-12.79,28.91-25.38,57.91-38,86.89C598.72,697.39,594.58,707.14,589.84,718.19ZM233.13,679.37q0,35.73,0,71.45c0,8.15,3.82,13.6,11,16C256.42,771,266.58,764,266.76,751c.19-14.82,0-29.64.08-44.46.05-9.48-1.29-8.26,8.11-8.3,19.32-.07,38.64.06,58-.14,7.92-.09,15.16-5.47,16.92-11.82s-1.77-13.76-8.47-18.34A19.19,19.19,0,0,0,330,664.87c-19.48.06-39-.06-58.46.11-3.7,0-4.89-1-4.8-4.76.24-10.32.27-20.66,0-31-.11-4.17,1.15-5.33,5.31-5.29,23,.19,46,.13,69,.07,10.23,0,18-7.67,18-17.38,0-9.3-6.95-15.65-17.55-15.68q-45.23-.09-90.44,0c-11.75,0-17.87,6.28-17.89,17.93Q233.09,644.16,233.13,679.37Zm157-.23q0,35.48,0,70.94c0,11.78,6.1,17.86,17.84,17.87h80.44a32.71,32.71,0,0,0,8.91-.84c7.46-2.07,12.34-7.74,12.63-14.89a16.37,16.37,0,0,0-11.77-16.64,31.52,31.52,0,0,0-9.85-1.31H428.38c-7.11,0-7.12,0-7.12-6.85q0-59,0-117.91c0-2.66.19-5.33-.65-7.93A15.27,15.27,0,0,0,403.5,591c-7.57,1-13.35,7.92-13.37,16.24Q390.07,643.17,390.13,679.14Z"/><path class="cls-3" d="M705,1q53.21,53.13,106.42,106.25,72.08,72,144.11,144.15c1.17,1.18,2.25,2.44,3.38,3.67-1.68,1.63-3.79,1-5.71,1-17.82.06-35.64,0-53.46,0l-129.88.14c-18.36.14-34.28-6.14-47.19-19.08A62,62,0,0,1,704,191.84q0-92.34,0-184.67C704,5.09,703.24,2.81,705,1Z"/><path class="cls-4" d="M192,864.09q45.24-.08,90.48-.15,257,0,513.9,0c11.27,0,20.87-3.3,28.3-12.15,3.76-4.48,5.34-9.86,7.07-15.23.05,10.32,1,20.74,0,30.95-1.54,14.84-14,28.26-30.47,28.29-85.28.21-170.56.1-255.84.1H196.64c-1.5,0-3,0-4.5,0Z"/><path class="cls-4" d="M769.87,256.19l129.88-.14c17.82,0,35.64,0,53.46,0,1.92,0,4,.67,5.71-1,1.48,1.31,1,3.09,1,4.69q0,93.61,0,187.22c-5.84-3.38-9.68-9-14.4-13.53-9.86-9.5-19.5-19.27-29.12-29-7.64-7.75-15.38-15.42-23-23.25-8.73-9-18.22-17.32-26.8-26.48-7.33-7.84-15.15-15.18-22.61-22.89-8.85-9.14-18.15-17.85-27.16-26.84-7.59-7.57-15-15.31-22.57-22.92-5.59-5.63-11.28-11.19-16.94-16.75C774.51,262.5,771.57,259.85,769.87,256.19Z"/><path class="cls-5" d="M589.84,718.19c4.74-11.05,8.88-20.8,13.11-30.5,12.63-29,25.22-58,38-86.89,5.2-11.75,18.36-14.8,27.69-6.77,5.9,5.07,7.26,12.28,3.57,20.46q-14.29,31.62-28.75,63.16-17.9,39.3-35.82,78.58a37.15,37.15,0,0,1-3.9,6.94c-6.37,8.46-16.78,9.09-24.26,1.59a29.76,29.76,0,0,1-5.65-8.18Q540,685.85,506.25,615.13c-3.15-6.58-3-12.94,1.88-18.67s10.94-8.13,18.29-6.4c6.18,1.45,9.8,5.89,12.26,11.51q20.64,47.08,41.34,94.15C583.09,702.72,586.14,709.73,589.84,718.19Z"/><path class="cls-5" d="M233.13,679.37q0-35.22,0-70.45c0-11.65,6.14-17.89,17.89-17.93q45.22-.15,90.44,0c10.6,0,17.56,6.38,17.55,15.68,0,9.71-7.82,17.35-18,17.38-23,.06-46,.12-69-.07-4.16,0-5.42,1.12-5.31,5.29.29,10.31.26,20.65,0,31-.09,3.78,1.1,4.79,4.8,4.76,19.49-.17,39-.05,58.46-.11a19.19,19.19,0,0,1,11.36,3.07c6.7,4.58,10.19,12.11,8.47,18.34s-9,11.73-16.92,11.82c-19.32.2-38.64.07-58,.14-9.4,0-8.06-1.18-8.11,8.3-.08,14.82.11,29.64-.08,44.46-.18,13-10.34,20-22.61,15.84-7.19-2.42-11-7.87-11-16Q233.1,715.09,233.13,679.37Z"/><path class="cls-5" d="M390.12,679.14q0-36,0-71.94c0-8.32,5.8-15.22,13.37-16.24a15.27,15.27,0,0,1,17.1,10.62c.84,2.6.65,5.27.65,7.93q0,58.95,0,117.91c0,6.88,0,6.86,7.12,6.85h59.95a31.52,31.52,0,0,1,9.85,1.31A16.37,16.37,0,0,1,510,752.22c-.29,7.15-5.17,12.82-12.63,14.89a32.71,32.71,0,0,1-8.91.84H408c-11.74,0-17.83-6.09-17.84-17.87Q390.1,714.6,390.12,679.14Z"/></svg>