<svg id="Слой_1" data-name="Слой 1" xmlns="http://www.w3.org/2000/svg" viewBox="0 0 1024 1024"><defs><style>.cls-1{fill:#e0e3e5;}.cls-2{fill:#50bce6;}.cls-3{fill:#afb6bb;}.cls-4{fill:#c8cfd6;}.cls-5{fill:#fbfcfc;}</style></defs><path class="cls-1" d="M909.93,1023.9H242.05c-.13-1.81-1.59-1.76-2.85-2.16a70.87,70.87,0,0,1-20.07-9.76c-16.24-11.65-25.9-27.5-26.81-47.26-1-22.9-.2-45.9-.18-68.85q84.21,0,168.4,0,220.38,0,440.75-.1c16.48,0,28.57-13.13,30.39-27.83,1.24-10,.09-20.28,0-30.44.09-2.83.25-5.66.25-8.49q0-158,0-315.92c0-19.26-13.87-33.14-33.06-33.14H317q-62.48,0-125-.15,0-204.69,0-409.37c0-5.81-.23-11.61,1-17.38q8.5-39.83,47.59-51c1.23-.36,2.23-.59,2.4-2H705A6.49,6.49,0,0,1,705,1c-1.77,1.83-1,4.11-1,6.19q-.07,92.32,0,184.67a62,62,0,0,0,18.71,45.27c12.91,12.94,28.83,19.22,47.19,19.08,1.7,3.66,4.64,6.31,7.45,9.08,5.66,5.56,11.35,11.12,16.94,16.75,7.56,7.61,15,15.35,22.57,22.92,9,9,18.31,17.7,27.16,26.84,7.46,7.71,15.28,15.05,22.61,22.89,8.58,9.16,18.07,17.45,26.8,26.48,7.57,7.83,15.31,15.5,23,23.25,9.62,9.76,19.26,19.53,29.12,29,4.72,4.55,8.56,10.15,14.4,13.53,0,.83,0,1.67,0,2.5q0,255.83.05,511.65a47.53,47.53,0,0,1-1,9.38c-5.16,25.78-20.17,42.73-45.27,50.72C912.2,1021.67,910.14,1021.6,909.93,1023.9Z"/><path class="cls-2" d="M192,864.08q-46.74-.08-93.47-.14c-20.87,0-34.44-13.46-34.44-34.29q0-158.21,0-316.41c0-16.88,10.35-29.63,26.51-32.69a54.07,54.07,0,0,1,10-.54q45.74-.12,91.47-.16,62.47.07,125,.15H798.87c19.19,0,33,13.88,33.06,33.14q0,158,0,315.92c0,2.83-.16,5.66-.24,8.49C825.44,858.29,811,864.11,793,864.08q-232.54-.37-465.1-.14Q259.93,863.94,192,864.08ZM647.89,665h-12c-4.16,0-8.33,0-12.49,0-10.49.07-17.48,6.66-17.42,16.37.07,9.1,6.5,14.68,17,14.7,11,0,22,.11,33,0,3.08,0,4.54.67,4.45,4.13-.21,8-.14,16-.05,24a5.77,5.77,0,0,1-2.73,5.41c-18.92,13-51.74,12.67-70.52-1-18.16-13.25-24.3-32-23.25-53.44,1.2-24.57,13.78-42.09,35.94-52.16,21.72-9.87,41.79-6.54,59.64,9.63,8,7.2,17.64,6.59,24.26-1.08,6.46-7.49,5.62-16.67-2.38-23.83-19.18-17.18-41.9-23.05-67.09-20.64-26.7,2.56-48.9,13.91-65.25,35.29C529.37,648,526.39,677,533.89,707.63c6.67,27.2,23.28,45.9,49.58,55.79a103.94,103.94,0,0,0,27.74,5.85c25.46,2.22,49-2.85,70-17.89,7-5,10.59-11.58,10.5-20.34-.17-15.66-.06-31.32,0-47,0-11.77-7-18.94-18.79-19.09C664.55,664.87,656.21,665,647.89,665Zm-285,13.52h0v36c0,12-.12,24,0,36,.14,11,8.49,18.51,19.2,17.49,9.06-.87,14.34-7.57,14.55-18.9.17-9.16.17-18.32-.05-27.47-.08-3.65,1-5,4.77-4.89,11.82.22,23.64.18,35.46.07,17.51-.17,33.76-4.36,46.74-16.82,18.87-18.13,22.08-40.81,16.58-65-6.24-27.49-29.09-45.45-57.34-46-20-.37-40-.14-59.94-.15-13.49,0-20,6.59-20,20.27Q362.83,643.76,362.84,678.47Zm-44.95-18.74c0-17.33.06-34.66,0-52-.05-10.83-6.6-17.57-16.85-17.64-10.45-.06-17,6.78-17,17.84q0,48.24,0,96.47a83.37,83.37,0,0,1-1,12.93c-2,13.27-10.5,20.86-23.87,22-14.66,1.22-26.22-4.07-35.6-15.25-6.3-7.51-14.15-8.06-21.58-2.25-7.65,6-9.45,15.55-3.88,23,8.6,11.46,19.33,20.15,33.4,24.12,12.41,3.49,25,3.54,37.64,1.92,24.15-3.08,40.14-17.24,46-40.88a100,100,0,0,0,2.69-24.25Q317.88,682.71,317.89,659.73Z"/><path class="cls-3" d="M705,1q53.21,53.13,106.42,106.25,72.08,72,144.11,144.15c1.17,1.18,2.25,2.44,3.38,3.67-1.68,1.63-3.79,1-5.71,1-17.82.06-35.64,0-53.46,0l-129.88.14c-18.36.14-34.28-6.14-47.19-19.08A62,62,0,0,1,704,191.84q0-92.34,0-184.67C704,5.09,703.24,2.81,705,1Z"/><path class="cls-4" d="M192,864.08q67.94-.08,135.87-.14,232.54,0,465.1.14c18,0,32.47-5.79,38.73-26.53.07,10.16,1.22,20.45,0,30.44-1.82,14.7-13.91,27.81-30.39,27.83q-220.38.27-440.75.1-84.19,0-168.4,0Q192.07,880,192,864.08Z"/><path class="cls-4" d="M769.87,256.19l129.88-.14c17.82,0,35.64,0,53.46,0,1.92,0,4,.67,5.71-1,1.48,1.31,1,3.09,1,4.69q0,93.61,0,187.22c-5.84-3.38-9.68-9-14.4-13.53-9.86-9.5-19.5-19.27-29.12-29-7.64-7.75-15.38-15.42-23-23.25-8.73-9-18.22-17.32-26.8-26.48-7.33-7.84-15.15-15.18-22.61-22.89-8.85-9.14-18.15-17.85-27.16-26.84-7.59-7.57-15-15.31-22.57-22.92-5.59-5.63-11.28-11.19-16.94-16.75C774.51,262.5,771.57,259.85,769.87,256.19Z"/><path class="cls-5" d="M647.89,665c8.32,0,16.66-.08,25,0,11.83.15,18.8,7.32,18.79,19.09,0,15.66-.13,31.32,0,47,.09,8.76-3.46,15.31-10.5,20.34-21,15-44.53,20.11-70,17.89a103.94,103.94,0,0,1-27.74-5.85c-26.3-9.89-42.91-28.59-49.58-55.79C526.39,677,529.37,648,549,622.25c16.35-21.38,38.55-32.73,65.25-35.29,25.19-2.41,47.91,3.46,67.09,20.64,8,7.16,8.84,16.34,2.38,23.83-6.62,7.67-16.31,8.28-24.26,1.08-17.85-16.17-37.92-19.5-59.64-9.63C577.69,633,565.11,650.47,563.91,675c-1,21.43,5.09,40.19,23.25,53.44,18.78,13.7,51.6,14.08,70.52,1a5.77,5.77,0,0,0,2.73-5.41c-.09-8-.16-16,.05-24,.09-3.46-1.37-4.17-4.45-4.13-11,.13-22,0-33,0-10.54,0-17-5.6-17-14.7-.06-9.71,6.93-16.3,17.42-16.37,4.16,0,8.33,0,12.49,0Z"/><path class="cls-5" d="M362.84,678.47q0-34.71,0-69.42c0-13.68,6.52-20.28,20-20.27,20,0,40-.22,59.94.15,28.25.52,51.1,18.48,57.34,46,5.5,24.17,2.29,46.85-16.58,65-13,12.46-29.23,16.65-46.74,16.82-11.82.11-23.64.15-35.46-.07-3.8-.07-4.85,1.24-4.77,4.89.22,9.15.22,18.31.05,27.47-.21,11.33-5.49,18-14.55,18.9-10.71,1-19.06-6.46-19.2-17.49-.15-12,0-24,0-36v-36Zm33.49-26h0c0,9.32.06,18.65,0,28,0,2.78.51,4.33,3.8,4.3,13-.13,26,.29,39-.15A31.52,31.52,0,0,0,469.93,652c-.54-17.75-14.42-31.09-32.37-31.1-12.15,0-24.31.13-36.46-.09-3.65-.06-5,.85-4.86,4.7C396.51,634.5,396.33,643.5,396.33,652.49Z"/><path class="cls-5" d="M317.89,659.73q0,23,0,46A100,100,0,0,1,315.2,730c-5.89,23.64-21.88,37.8-46,40.88-12.67,1.62-25.23,1.57-37.64-1.92-14.07-4-24.8-12.66-33.4-24.12-5.57-7.43-3.77-17,3.88-23,7.43-5.81,15.28-5.26,21.58,2.25,9.38,11.18,20.94,16.47,35.6,15.25,13.37-1.12,21.84-8.71,23.87-22a83.37,83.37,0,0,0,1-12.93q-.06-48.24,0-96.47c0-11.06,6.54-17.9,17-17.84,10.25.07,16.8,6.81,16.85,17.64C318,625.07,317.89,642.4,317.89,659.73Z"/><path class="cls-2" d="M396.33,652.49c0-9,.18-18-.09-27-.11-3.85,1.21-4.76,4.86-4.7,12.15.22,24.31.08,36.46.09,17.95,0,31.83,13.35,32.37,31.1a31.52,31.52,0,0,1-30.86,32.6c-13,.44-26,0-39,.15-3.29,0-3.83-1.52-3.8-4.3.1-9.32,0-18.65,0-28Z"/></svg>