<svg id="Слой_1" data-name="Слой 1" xmlns="http://www.w3.org/2000/svg" viewBox="0 0 1024 1024"><defs><style>.cls-1{fill:#e0e3e5;}.cls-2{fill:#50bce6;}.cls-3{fill:#afb6bb;}.cls-4{fill:#c8cfd6;}.cls-5{fill:#fbfcfd;}</style></defs><path class="cls-1" d="M909.93,1023.9H242.05c-.13-1.81-1.59-1.76-2.85-2.16a70.87,70.87,0,0,1-20.07-9.76c-16.24-11.65-25.9-27.5-26.81-47.26-1-22.9-.2-45.9-.18-68.85q84.21,0,168.4,0,220.38,0,440.75-.1c16.48,0,28.57-13.13,30.39-27.83,1.24-10,.09-20.28,0-30.44.09-2.83.25-5.66.25-8.49q0-158,0-315.92c0-19.26-13.87-33.14-33.06-33.14H317q-62.48,0-125-.15,0-204.69,0-409.37c0-5.81-.23-11.61,1-17.38q8.5-39.83,47.59-51c1.23-.36,2.23-.59,2.4-2H705A6.49,6.49,0,0,1,705,1c-1.77,1.83-1,4.11-1,6.19q-.07,92.32,0,184.67a62,62,0,0,0,18.71,45.27c12.91,12.94,28.83,19.22,47.19,19.08,1.7,3.66,4.64,6.31,7.45,9.08,5.66,5.56,11.35,11.12,16.94,16.75,7.56,7.61,15,15.35,22.57,22.92,9,9,18.31,17.7,27.16,26.84,7.46,7.71,15.28,15.05,22.61,22.89,8.58,9.16,18.07,17.45,26.8,26.48,7.57,7.83,15.31,15.5,23,23.25,9.62,9.76,19.26,19.53,29.12,29,4.72,4.55,8.56,10.15,14.4,13.53,0,.83,0,1.67,0,2.5q0,255.83.05,511.65a47.53,47.53,0,0,1-1,9.38c-5.16,25.78-20.17,42.73-45.27,50.72C912.2,1021.67,910.14,1021.6,909.93,1023.9Z"/><path class="cls-2" d="M192,864.08q-46.74-.08-93.47-.14c-20.87,0-34.44-13.46-34.44-34.29q0-158.21,0-316.41c0-16.88,10.35-29.63,26.51-32.69a54.07,54.07,0,0,1,10-.54q45.74-.12,91.47-.16,62.47.07,125,.15H798.87c19.19,0,33,13.88,33.06,33.14q0,158,0,315.92c0,2.83-.16,5.66-.24,8.49C825.44,858.29,811,864.11,793,864.08q-232.54-.37-465.1-.14Q259.93,863.94,192,864.08Zm2-206.4,1.19-.23,4,5.67c10.51,14.8,21,29.65,31.56,44.39,9.79,13.6,20.7,13.83,31.26.81.42-.52.8-1.07,1.21-1.59q18.61-23.51,37.24-47c.73-.92,1.09-2.53,3.31-2.13V663q0,42,0,84a60.33,60.33,0,0,0,.24,7,15.47,15.47,0,0,0,15,14,15.06,15.06,0,0,0,15.72-12.54,36.73,36.73,0,0,0,.4-7q0-23.49,0-47c0-31.65,0-63.31-.07-95,0-9.59-5.23-15.77-14.18-17-7.16-1-12.43,2.27-16.61,8-17.68,24-35.52,47.9-53.1,72-2.83,3.88-4,3.77-6.83,0-16.77-23-33.79-45.86-50.77-68.73a61.17,61.17,0,0,0-5.28-6c-4.9-5-10.67-7.6-17.58-4.76-7.26,3-10.67,8.83-10.69,16.53q-.1,45.5,0,91c0,17.83-.1,35.66.05,53.49,0,6.71,2.5,12.51,8.93,15.59S181.51,768,187,764.18c5.2-3.64,7-9,7-15.23q-.06-40.5,0-81ZM371.79,670c0,36.22,9,60.45,30.84,79,15.77,13.39,34.36,20.16,54.87,21.37,32.54,1.91,61.17-7,82.39-32.94,19.5-23.82,23.73-51.74,17.48-81.09C548,612.47,508,582.76,461.86,584.89,414.69,587.06,371.31,620.41,371.79,670ZM663.48,718.1c-1.07-2.31-1.8-3.79-2.46-5.3Q636.53,657,612,601.25c-4.72-10.69-14-14.45-23.57-10-9.85,4.59-13.19,14.37-8.25,24.73q33.22,69.64,66.52,139.25A30.82,30.82,0,0,0,655,766.4c6.12,4.93,13.67,4.77,19.61-.39a24.11,24.11,0,0,0,6-8.47q7.92-17.52,15.93-35Q721,668.93,745.41,615.3c1.9-4.16,3.25-8.38,2-13A16.9,16.9,0,0,0,733.19,590c-8.42-.92-14.78,2.3-18.29,10Q702.72,626.8,691,653.83C681.84,674.89,672.91,696,663.48,718.1Z"/><path class="cls-3" d="M705,1q53.21,53.13,106.42,106.25,72.08,72,144.11,144.15c1.17,1.18,2.25,2.44,3.38,3.67-1.68,1.63-3.79,1-5.71,1-17.82.06-35.64,0-53.46,0l-129.88.14c-18.36.14-34.28-6.14-47.19-19.08A62,62,0,0,1,704,191.84q0-92.34,0-184.67C704,5.09,703.24,2.81,705,1Z"/><path class="cls-4" d="M192,864.08q67.94-.08,135.87-.14,232.54,0,465.1.14c18,0,32.47-5.79,38.73-26.53.07,10.16,1.22,20.45,0,30.44-1.82,14.7-13.91,27.81-30.39,27.83q-220.38.27-440.75.1-84.19,0-168.4,0Q192.07,880,192,864.08Z"/><path class="cls-4" d="M769.87,256.19l129.88-.14c17.82,0,35.64,0,53.46,0,1.92,0,4,.67,5.71-1,1.48,1.31,1,3.09,1,4.69q0,93.61,0,187.22c-5.84-3.38-9.68-9-14.4-13.53-9.86-9.5-19.5-19.27-29.12-29-7.64-7.75-15.38-15.42-23-23.25-8.73-9-18.22-17.32-26.8-26.48-7.33-7.84-15.15-15.18-22.61-22.89-8.85-9.14-18.15-17.85-27.16-26.84-7.59-7.57-15-15.31-22.57-22.92-5.59-5.63-11.28-11.19-16.94-16.75C774.51,262.5,771.57,259.85,769.87,256.19Z"/><path class="cls-5" d="M194,657.68V668q0,40.49,0,81c0,6.19-1.8,11.59-7,15.23-5.49,3.85-11.58,5.3-17.92,2.26s-8.88-8.88-8.93-15.59c-.15-17.83-.05-35.66-.05-53.49q0-45.49,0-91c0-7.7,3.43-13.56,10.69-16.53,6.91-2.84,12.68-.28,17.58,4.76a61.17,61.17,0,0,1,5.28,6c17,22.87,34,45.71,50.77,68.73,2.79,3.82,4,3.93,6.83,0,17.58-24.08,35.42-48,53.1-72,4.18-5.69,9.45-9,16.61-8,8.95,1.26,14.15,7.44,14.18,17,.11,31.66.06,63.32.07,95q0,23.51,0,47a36.73,36.73,0,0,1-.4,7,15.06,15.06,0,0,1-15.72,12.54,15.47,15.47,0,0,1-15-14,60.33,60.33,0,0,1-.24-7q0-42,0-84V657.6c-2.22-.4-2.58,1.21-3.31,2.13q-18.66,23.46-37.24,47c-.41.52-.79,1.07-1.21,1.59-10.56,13-21.47,12.79-31.26-.81-10.6-14.74-21.05-29.59-31.56-44.39l-4-5.67Z"/><path class="cls-5" d="M371.79,670c-.48-49.63,42.9-83,90.07-85.15,46.12-2.13,86.17,27.58,95.51,71.44,6.25,29.35,2,57.27-17.48,81.09-21.22,25.92-49.85,34.85-82.39,32.94-20.51-1.21-39.1-8-54.87-21.37C380.83,730.49,371.83,706.26,371.79,670Zm33.93,8.55c.18,34.95,25.39,60.52,59.54,60.4,35.73-.12,61-25.77,60.86-61.78-.13-34.48-26.14-59.46-61.75-59.29C430.46,618.07,405.53,643.86,405.72,678.59Z"/><path class="cls-5" d="M663.48,718.1c9.43-22.06,18.36-43.21,27.5-64.27q11.74-27,23.92-53.85c3.51-7.72,9.87-10.94,18.29-10a16.9,16.9,0,0,1,14.24,12.31c1.23,4.65-.12,8.87-2,13Q721,668.93,696.55,722.55q-8,17.49-15.93,35a24.11,24.11,0,0,1-6,8.47c-5.94,5.16-13.49,5.32-19.61.39a30.82,30.82,0,0,1-8.24-11.15Q613.48,685.62,580.2,616c-4.94-10.36-1.6-20.14,8.25-24.73,9.58-4.47,18.85-.71,23.57,10Q636.62,657,661,712.8C661.68,714.31,662.41,715.79,663.48,718.1Z"/><path class="cls-2" d="M405.72,678.59c-.19-34.73,24.74-60.52,58.65-60.67,35.61-.17,61.62,24.81,61.75,59.29.14,36-25.13,61.66-60.86,61.78C431.11,739.11,405.9,713.54,405.72,678.59Z"/></svg>