<svg id="Слой_1" data-name="Слой 1" xmlns="http://www.w3.org/2000/svg" viewBox="0 0 1024 1024"><defs><style>.cls-1{fill:#e0e3e5;}.cls-2{fill:#50bce6;}.cls-3{fill:#afb6bb;}.cls-4{fill:#c8cfd6;}.cls-5{fill:#fcfcfd;}</style></defs><path class="cls-1" d="M909.93,1023.9H242.05a2.17,2.17,0,0,0-1.87-2,66.25,66.25,0,0,1-25.71-13.68c-13.58-11.43-21.4-26.15-22.15-43.51-1-22.92-.2-45.91-.18-68.86q84.21,0,168.4,0,220.38,0,440.75-.1c16.48,0,28.57-13.13,30.39-27.83,1.24-10,.09-20.28,0-30.44.09-2.83.25-5.66.25-8.49q0-158,0-315.92c0-19.26-13.87-33.14-33.06-33.14H317q-62.48,0-125-.15,0-204.69,0-409.37c0-5.81-.23-11.61,1-17.38q8.5-39.83,47.59-51c1.23-.36,2.23-.59,2.4-2H705A6.49,6.49,0,0,1,705,1c-1.77,1.83-1,4.11-1,6.19q-.07,92.32,0,184.67a62,62,0,0,0,18.71,45.27c12.91,12.94,28.83,19.22,47.19,19.08,1.7,3.66,4.64,6.31,7.45,9.08,5.66,5.56,11.35,11.12,16.94,16.75,7.56,7.61,15,15.35,22.57,22.92,9,9,18.31,17.7,27.16,26.84,7.46,7.71,15.28,15.05,22.61,22.89,8.58,9.16,18.07,17.45,26.8,26.48,7.57,7.83,15.31,15.5,23,23.25,9.62,9.76,19.26,19.53,29.12,29,4.72,4.55,8.56,10.15,14.4,13.53,0,.83,0,1.67,0,2.5q0,255.83.05,511.65a47.53,47.53,0,0,1-1,9.38c-5.16,25.78-20.17,42.73-45.27,50.72C912.2,1021.67,910.14,1021.6,909.93,1023.9Z"/><path class="cls-2" d="M192,864.08q-46.74-.08-93.47-.14c-20.88,0-34.44-13.45-34.44-34.28q0-158.2,0-316.42c0-16.88,10.35-29.63,26.51-32.69a54.07,54.07,0,0,1,10-.54q45.74-.12,91.47-.16,62.47.07,125,.15H798.87c19.19,0,33,13.88,33.06,33.14q0,158,0,315.92c0,2.83-.16,5.66-.24,8.49C825.44,858.29,811,864.11,793,864.08q-232.56-.37-465.1-.14Q259.93,863.94,192,864.08Zm42.92-206.61c1.8.67,2.39,2.32,3.31,3.61,10.92,15.33,21.74,30.74,32.72,46,10.16,14.14,21.09,14.41,31.86.86,12.44-15.64,24.78-31.36,37.2-47,1-1.31,1.76-3.12,4.08-3.53v5.79q0,43.24,0,86.48c0,7.28,2.23,13.57,9.4,16.81,11.58,5.23,22.41-2.8,22.43-16.73q.09-71,0-142c0-9.21-4-15.28-11.17-17.62-7.76-2.52-14.35-.13-19.91,7.38q-26.61,35.94-53.11,72c-2.55,3.48-3.81,3.89-6.57.11-15.2-20.87-30.63-41.57-46-62.29-3.87-5.2-7.27-10.8-12.52-14.85-9.28-7.16-21.94-3.11-25.12,8.17a27.49,27.49,0,0,0-.69,7.43q0,64.23,0,128.46c0,5.66-.23,11.35.21,17,.81,10.29,9.51,16.32,19.45,13.83,9.18-2.29,13.76-8.23,13.77-18.12q0-43.25.05-86.48C234.31,661,233.71,659.16,234.92,657.47Zm185.82,21c0,23.82-.07,47.64,0,71.46.05,10.91,7.32,18.12,17.74,18,9.56-.09,15.63-7,15.71-18.06.06-9.66.14-19.32,0-29-.06-3.32,1.1-4.29,4.33-4.25q18.24.23,36.48,0c17.54-.19,33.73-4.54,46.67-17C560,681.92,563.32,659.73,558.28,636c-5.95-28-28.88-46.54-57.5-47.08-20.15-.38-40.31-.14-60.47-.15-13,0-19.55,6.62-19.57,19.72Q420.69,643.48,420.74,678.47ZM647.59,660c9.11-8.5,17.24-16.06,25.35-23.65,5.72-5.34,11.57-10.56,17.08-16.12,5.35-5.41,7.25-12,4.17-19.23-3-7.08-8.88-10-16.39-10-25.65,0-51.31,0-77,0-9.65,0-15.88,6.39-16,16s5.89,15.75,15.9,15.89c8.33.11,16.66,0,25,0h17.74c-1.84,1.93-2.79,3-3.85,4q-18,16.65-35.95,33.25c-3.18,2.93-5.39,6.3-5.83,10.68-1.13,11.22,6,18.77,17.67,18.23,10.13-.46,20.24-2.1,30.4-1.12,8.68.83,17,2.86,21.31,11.59,5.68,11.4.62,26.86-10.56,32.92-12.67,6.87-33,4.46-43.62-5.28-2.19-2-3.91-4.56-6.1-6.58a16.88,16.88,0,0,0-22.76-.58c-6.7,5.73-7.49,13.29-2.2,21.44a52.91,52.91,0,0,0,11.26,12.62c24.39,19.57,67.56,18.31,91.92-2.6,21.35-18.33,26.48-58.15,0-79.82C674.68,663.09,662.5,659.51,647.59,660Z"/><path class="cls-3" d="M705,1q53.21,53.13,106.42,106.25,72.08,72,144.11,144.15c1.17,1.18,2.25,2.44,3.38,3.67-1.68,1.63-3.79,1-5.71,1-17.82.06-35.64,0-53.46,0l-129.88.14c-18.36.14-34.28-6.14-47.19-19.08A62,62,0,0,1,704,191.84q0-92.34,0-184.67C704,5.09,703.24,2.81,705,1Z"/><path class="cls-4" d="M192,864.08q67.94-.08,135.87-.14,232.54,0,465.1.14c18,0,32.47-5.79,38.73-26.53.07,10.16,1.22,20.45,0,30.44-1.82,14.7-13.91,27.81-30.39,27.83q-220.38.27-440.75.1-84.19,0-168.4,0Q192.07,880,192,864.08Z"/><path class="cls-4" d="M769.87,256.19l129.88-.14c17.82,0,35.64,0,53.46,0,1.92,0,4,.67,5.71-1,1.48,1.31,1,3.09,1,4.69q0,93.61,0,187.22c-5.84-3.38-9.68-9-14.4-13.53-9.86-9.5-19.5-19.27-29.12-29-7.64-7.75-15.38-15.42-23-23.25-8.73-9-18.22-17.32-26.8-26.48-7.33-7.84-15.15-15.18-22.61-22.89-8.85-9.14-18.15-17.85-27.16-26.84-7.59-7.57-15-15.31-22.57-22.92-5.59-5.63-11.28-11.19-16.94-16.75C774.51,262.5,771.57,259.85,769.87,256.19Z"/><path class="cls-5" d="M234.92,657.47c-1.21,1.69-.61,3.57-.61,5.29q-.08,43.25-.05,86.48c0,9.89-4.59,15.83-13.77,18.12-9.94,2.49-18.64-3.54-19.45-13.83-.44-5.63-.21-11.32-.21-17q0-64.23,0-128.46a27.49,27.49,0,0,1,.69-7.43c3.18-11.28,15.84-15.33,25.12-8.17,5.25,4,8.65,9.65,12.52,14.85,15.4,20.72,30.83,41.42,46,62.29,2.76,3.78,4,3.37,6.57-.11q26.4-36.09,53.11-72c5.56-7.51,12.15-9.9,19.91-7.38,7.2,2.34,11.16,8.41,11.17,17.62q0,71,0,142c0,13.93-10.85,22-22.43,16.73-7.17-3.24-9.39-9.53-9.4-16.81q-.08-43.24,0-86.48v-5.79c-2.32.41-3,2.22-4.08,3.53-12.42,15.66-24.76,31.38-37.2,47-10.77,13.55-21.7,13.28-31.86-.86-11-15.28-21.8-30.69-32.72-46C237.31,659.79,236.72,658.14,234.92,657.47Z"/><path class="cls-5" d="M420.74,678.47q0-35,0-70c0-13.1,6.61-19.72,19.57-19.72,20.16,0,40.32-.23,60.47.15,28.62.54,51.55,19.06,57.5,47.08,5,23.72,1.75,45.91-16.62,63.65-12.94,12.5-29.13,16.85-46.67,17q-18.24.18-36.48,0c-3.23,0-4.39.93-4.33,4.25.18,9.66.1,19.32,0,29-.08,11.05-6.15,18-15.71,18.06-10.42.1-17.69-7.11-17.74-18C420.67,726.11,420.74,702.29,420.74,678.47Zm33.45-26h0v10.49c0,3.49,0,7,0,10.49,0,11.28,0,11.42,11.18,11.25,12.3-.19,24.67,1.13,36.89-.74,14.88-2.28,26.63-17.48,25.53-32.35-1.29-17.31-14.18-30.42-30.35-30.62-13-.16-26,.07-39-.14-3.66-.06-4.46,1.33-4.39,4.66C454.31,634.46,454.19,643.45,454.19,652.44Z"/><path class="cls-5" d="M647.59,660c14.91-.45,27.09,3.13,37.62,11.75,26.47,21.67,21.34,61.49,0,79.82-24.36,20.91-67.53,22.17-91.92,2.6A52.91,52.91,0,0,1,582,741.51c-5.29-8.15-4.5-15.71,2.2-21.44a16.88,16.88,0,0,1,22.76.58c2.19,2,3.91,4.56,6.1,6.58,10.64,9.74,30.95,12.15,43.62,5.28,11.18-6.06,16.24-21.52,10.56-32.92-4.34-8.73-12.63-10.76-21.31-11.59-10.16-1-20.27.66-30.4,1.12-11.7.54-18.8-7-17.67-18.23.44-4.38,2.65-7.75,5.83-10.68q18-16.58,35.95-33.25c1.06-1,2-2.08,3.85-4H625.77c-8.33,0-16.66.09-25,0-10-.14-16-6.18-15.9-15.89s6.31-16,16-16c25.65-.06,51.31,0,77,0,7.51,0,13.37,2.91,16.39,10,3.08,7.24,1.18,13.82-4.17,19.23-5.51,5.56-11.36,10.78-17.08,16.12C664.83,643.9,656.7,651.46,647.59,660Z"/><path class="cls-2" d="M454.19,652.44c0-9,.12-18-.06-27-.07-3.33.73-4.72,4.39-4.66,13,.21,26,0,39,.14,16.17.2,29.06,13.31,30.35,30.62,1.1,14.87-10.65,30.07-25.53,32.35-12.22,1.87-24.59.55-36.89.74-11.17.17-11.17,0-11.18-11.25,0-3.5,0-7,0-10.49V652.44Z"/></svg>