<svg id="Слой_1" data-name="Слой 1" xmlns="http://www.w3.org/2000/svg" viewBox="0 0 1024 1024"><defs><style>.cls-1{fill:#e0e3e5;}.cls-2{fill:#576c7d;}.cls-3{fill:#afb6bb;}.cls-4{fill:#c8cfd6;}.cls-5{fill:#fbfbfc;}</style></defs><path class="cls-1" d="M909.93,1023.9H242.05c-.13-1.81-1.59-1.76-2.85-2.16a71.73,71.73,0,0,1-20.08-9.76c-16.3-11.61-25.81-27.58-26.78-47.26-1.13-22.9-.22-45.9-.2-68.85,1.83,0,3.67,0,5.5,0q300.57,0,601.14.21c16.85,0,34.4-15.42,33.22-33.59-.37-5.64,0-11.33-.07-17,0-1.61.43-3.39-1.11-4.65.39-4,1.17-7.88,1.17-11.91q-.07-157.95-.07-315.89c0-19.22-13.92-33.1-33.11-33.1H316.47q-62.22,0-124.45-.15c0-1.33,0-2.67,0-4q0-203.43,0-406.87c0-5.31-.11-10.61,1-15.88q8.5-39.83,47.59-51c1.23-.36,2.23-.59,2.4-2H705A6.49,6.49,0,0,1,705,1c-1.77,1.83-1,4.11-1,6.19q-.07,92.32,0,184.67a62,62,0,0,0,18.71,45.27c12.91,12.94,28.83,19.22,47.19,19.08,1.7,3.66,4.64,6.31,7.45,9.08,5.66,5.56,11.35,11.12,16.94,16.75,7.56,7.61,15,15.35,22.57,22.92,9,9,18.31,17.7,27.16,26.84,7.46,7.71,15.27,15.05,22.61,22.89,8.58,9.16,18.07,17.45,26.8,26.48,7.57,7.83,15.31,15.5,23,23.25,9.62,9.76,19.26,19.53,29.12,29,4.72,4.55,8.56,10.15,14.4,13.53,0,.83,0,1.67,0,2.5q0,255.83.05,511.65a47.53,47.53,0,0,1-1,9.38c-5.16,25.78-20.17,42.73-45.27,50.72C912.2,1021.67,910.14,1021.6,909.93,1023.9Z"/><path class="cls-2" d="M192,864.08q-46.49-.08-93-.14c-21.6,0-34.94-13.24-34.94-34.79q0-157.7,0-315.41c0-17.44,10.56-30.46,27-33.29a60.06,60.06,0,0,1,10-.44q45.48-.12,91-.16,62.23.07,124.45.15H798.81c19.19,0,33.11,13.88,33.11,33.1Q832,671,832,829c0,4-.78,7.94-1.17,11.91C824.59,856.3,813.31,864,796.56,864q-232.59-.08-465.17,0Q261.69,863.94,192,864.08ZM523.31,680q0-35.25,0-70.49c0-2.82.11-5.65-.92-8.39a15.87,15.87,0,0,0-17.64-10c-8.5,1.29-14.55,7.6-14.62,15.8-.14,16.83-.18,33.66,0,50.49.05,4-.81,5.4-5.13,5.36-24-.21-48-.25-72,0-5,.06-6.45-1.15-6.34-6.28.36-16.32.24-32.65.1-49-.09-10.18-6.49-16.6-16.06-16.54-11,.07-17.68,6.17-17.69,16.55q-.09,72,0,144c0,7.76,4,13.17,11,15.42,12.58,4,22.62-3.12,22.74-16.34.14-16.5.2-33-.06-49.49-.07-4.29,1.28-5.17,5.33-5.14,24.16.19,48.32.23,72.48-.05,4.81,0,5.66,1.53,5.6,5.87-.23,16-.09,32-.06,48,0,10.87,7.19,18.29,17.5,18.18,9.62-.09,15.69-7,15.71-18Q523.36,715,523.31,680Zm-317.37-1.74q0,35.24,0,70.48c0,4.08.48,8,2.8,11.45a17.73,17.73,0,0,0,18.82,7.27c7.52-2,11.83-7.62,12.1-16.85.28-9.49.29-19,0-28.49-.14-4.28.87-5.78,5.45-5.65,11.82.35,23.66.27,35.49.1C318.38,716,343,694.27,345.33,658c2.84-43.42-26.16-68.58-60.57-69.17-19.65-.34-39.32-.25-59-.22-13.1,0-19.83,7-19.84,20.14Zm353.27.22c0,23.64-.08,47.29,0,70.94,0,11.11,7.52,18.65,17.91,18.55,9.71-.09,15.83-7.17,15.88-18.46,0-9.49.16-19,0-28.47-.08-3.49,1-4.56,4.47-4.5,12.16.19,24.31.12,36.47.06,13.21-.06,25.84-2.54,37.14-9.77,21.45-13.74,28.95-34.19,27.83-58.66-1.54-33.69-25.93-58.24-59.51-59.23-20-.59-39.95-.32-59.93-.32-13.3,0-20.23,7.06-20.24,20.42Q559.18,643.73,559.21,678.45Z"/><path class="cls-3" d="M705,1q53.21,53.13,106.42,106.25,72.08,72,144.11,144.15c1.17,1.18,2.25,2.44,3.38,3.67-1.68,1.63-3.79,1-5.71,1-17.82.06-35.64,0-53.46,0l-129.88.14c-18.36.14-34.28-6.14-47.19-19.08A62,62,0,0,1,704,191.84q0-92.34,0-184.67C704,5.09,703.24,2.81,705,1Z"/><path class="cls-4" d="M192,864.08q69.7-.08,139.4-.14,232.59,0,465.17,0c16.75,0,28-7.67,34.26-23.07,1.54,1.26,1.1,3,1.11,4.65,0,5.66-.3,11.35.07,17,1.18,18.17-16.37,33.62-33.22,33.59q-300.57-.48-601.14-.21c-1.83,0-3.67,0-5.5,0Z"/><path class="cls-4" d="M769.87,256.19l129.88-.14c17.82,0,35.64,0,53.46,0,1.92,0,4,.67,5.71-1,1.48,1.31,1,3.09,1,4.69q0,93.61,0,187.22c-5.84-3.38-9.68-9-14.4-13.53-9.86-9.5-19.5-19.27-29.12-29-7.64-7.75-15.38-15.42-23-23.25-8.73-9-18.22-17.32-26.8-26.48-7.34-7.84-15.15-15.18-22.61-22.89-8.85-9.14-18.15-17.85-27.16-26.84-7.59-7.57-15-15.31-22.57-22.92-5.59-5.63-11.28-11.19-16.94-16.75C774.51,262.5,771.57,259.85,769.87,256.19Z"/><path class="cls-5" d="M523.31,680q0,35,0,70c0,11-6.09,17.9-15.71,18-10.31.11-17.48-7.31-17.5-18.18,0-16-.17-32,.06-48,.06-4.34-.79-5.92-5.6-5.87-24.16.28-48.32.24-72.48.05-4.05,0-5.4.85-5.33,5.14.26,16.49.2,33,.06,49.49-.12,13.22-10.16,20.33-22.74,16.34-7.06-2.25-11-7.66-11-15.42q0-72,0-144c0-10.38,6.67-16.48,17.69-16.55,9.57-.06,16,6.36,16.06,16.54.14,16.33.26,32.66-.1,49-.11,5.13,1.32,6.34,6.34,6.28,24-.28,48-.24,72,0,4.32,0,5.18-1.37,5.13-5.36-.21-16.83-.17-33.66,0-50.49.07-8.2,6.12-14.51,14.62-15.8a15.87,15.87,0,0,1,17.64,10c1,2.74.92,5.57.92,8.39Q523.33,644.73,523.31,680Z"/><path class="cls-5" d="M205.94,678.23V608.74c0-13.17,6.74-20.12,19.84-20.14,19.66,0,39.33-.12,59,.22,34.41.59,63.41,25.75,60.57,69.17-2.37,36.28-26.95,58-64.78,58.55-11.83.17-23.67.25-35.49-.1-4.58-.13-5.59,1.37-5.45,5.65.32,9.49.31,19,0,28.49-.27,9.23-4.58,14.89-12.1,16.85a17.73,17.73,0,0,1-18.82-7.27c-2.32-3.48-2.8-7.37-2.8-11.45Q206,713.48,205.94,678.23Zm33.79-25.79h0q0,14,0,28c0,2.26-.19,4.33,3.19,4.25,14.48-.35,29,.87,43.45-.64,15.48-1.61,27.26-16.2,26.66-32.25-.63-16.66-13.67-30.45-29.57-30.79-13.32-.28-26.66,0-40-.16-3.32-.05-3.81,1.28-3.77,4.11C239.82,634.11,239.73,643.28,239.73,652.44Z"/><path class="cls-5" d="M559.21,678.45q0-34.73,0-69.44c0-13.36,6.94-20.41,20.24-20.42,20,0,40-.27,59.93.32,33.58,1,58,25.54,59.51,59.23,1.12,24.47-6.38,44.92-27.83,58.66-11.3,7.23-23.93,9.71-37.14,9.77-12.16.06-24.31.13-36.47-.06-3.49-.06-4.55,1-4.47,4.5.21,9.48.09,19,0,28.47,0,11.29-6.17,18.37-15.88,18.46-10.39.1-17.86-7.44-17.91-18.55C559.13,725.74,559.21,702.09,559.21,678.45Zm58.65-57.55c-7,0-14,.08-21,0-2.56,0-3.91.34-3.89,3.46.14,19,.11,38,0,56.95,0,2.61.84,3.46,3.44,3.44,13-.11,26,.32,39-.16,17.73-.67,31.38-14.74,31.13-31.34-.27-18.76-13.94-32.26-32.71-32.29Z"/><path class="cls-2" d="M239.73,652.44c0-9.16.09-18.33,0-27.49,0-2.83.45-4.16,3.77-4.11,13.32.19,26.66-.12,40,.16,15.9.34,28.94,14.13,29.57,30.79.6,16.05-11.18,30.64-26.66,32.25-14.44,1.51-29,.29-43.45.64-3.38.08-3.2-2-3.19-4.25q0-14,0-28Z"/><path class="cls-2" d="M617.86,620.91h16c18.77,0,32.44,13.53,32.71,32.29.25,16.6-13.4,30.67-31.13,31.34-13,.48-26,.05-39,.16-2.6,0-3.45-.83-3.44-3.44.08-19,.11-38,0-56.95,0-3.12,1.33-3.5,3.89-3.46C603.87,621,610.86,620.9,617.86,620.91Z"/></svg>