<svg id="Слой_1" data-name="Слой 1" xmlns="http://www.w3.org/2000/svg" viewBox="0 0 1024 1024"><defs><style>.cls-1{fill:#e0e3e5;}.cls-2{fill:#ef5542;}.cls-3{fill:#afb6bb;}.cls-4{fill:#c8cfd6;}.cls-5{fill:#fdfbfb;}</style></defs><path class="cls-1" d="M909.93,1023.9H242.05c-.13-1.81-1.59-1.76-2.85-2.16a70.87,70.87,0,0,1-20.07-9.76c-16.24-11.65-25.9-27.5-26.81-47.26-1-22.9-.2-45.9-.18-68.85,1.5,0,3,0,4.5,0H565.47c78.63,0,157.27.14,235.9-.12,16.45,0,28.57-13.18,30.31-27.9,1.23-10.34.13-21,.06-31.45.07-2.83.2-5.66.2-8.49q0-156.94,0-313.88c0-20.57-13.58-34.09-34.13-34.09Q552.9,480,308,480q-58,0-116-.16,0-204.67,0-409.36c0-5.81-.23-11.61,1-17.39q8.5-39.81,47.59-51c1.23-.36,2.23-.59,2.4-2H705A6.49,6.49,0,0,1,705,1c-1.77,1.83-1,4.11-1,6.19q-.07,92.32,0,184.67a62,62,0,0,0,18.71,45.27c12.91,12.94,28.83,19.22,47.19,19.08,1.7,3.66,4.64,6.31,7.45,9.08,5.66,5.56,11.35,11.12,16.94,16.75,7.56,7.61,15,15.35,22.57,22.92,9,9,18.31,17.7,27.16,26.84,7.46,7.71,15.28,15.05,22.61,22.89,8.58,9.16,18.07,17.45,26.8,26.48,7.57,7.83,15.31,15.5,23,23.25,9.62,9.76,19.26,19.53,29.12,29,4.72,4.55,8.56,10.15,14.4,13.53,0,.83,0,1.67,0,2.5q0,255.83.05,511.65a47.53,47.53,0,0,1-1,9.38c-5.16,25.78-20.17,42.73-45.27,50.72C912.2,1021.67,910.14,1021.6,909.93,1023.9Z"/><path class="cls-2" d="M192,864.09q-46.49-.08-93-.15c-21.62,0-35-13.24-35-34.77q0-157.71,0-315.43c0-17.45,10.51-30.4,27-33.26a62.79,62.79,0,0,1,10.46-.47q45.24-.12,90.47-.17,58,.09,116,.16,244.9,0,489.81,0c20.55,0,34.13,13.52,34.13,34.09q0,156.95,0,313.88c0,2.83-.13,5.66-.2,8.49-1.62,5.4-3.24,10.76-7,15.25-7.5,9.06-17.3,12.27-28.73,12.26q-242.56-.08-485.14,0Q251.48,863.94,192,864.09Zm191.15-186v36c0,12-.14,24,0,36,.15,10.65,7.83,18.13,18,17.93,9.55-.18,15.74-7.21,15.81-18.06.05-8.49,0-17,0-25.48,0-7.78,0-7.77,8-7.76,10.82,0,21.65.11,32.47,0,36.43-.35,60.74-20.25,64.84-54.66,3-25-3.79-47-25.4-62.31-11.36-8-24.37-11-38.22-11-18.49.11-37,0-55.45,0-13.33,0-20.1,6.87-20.11,20.4Q383.15,643.61,383.17,678.08ZM211,678.25c0,23.66,0,47.31,0,71,0,5,1.16,9.55,4.69,13.27a17.46,17.46,0,0,0,18.83,4.34c7.39-2.87,10-9,10.21-16.25.26-9.82.22-19.66,0-29.48-.07-3.47.91-4.57,4.45-4.52,12.33.2,24.66.19,37,0,37-.48,61.68-22.3,64.19-58.66,3-43.6-26.39-68.57-60.56-69.08-20-.3-40-.13-60-.11-11.86,0-18.79,7-18.8,19Q211,643,211,678.25Zm426,11.9c0-20.64.17-41.29-.12-61.94-.07-4.6,1.33-5.46,5.57-5.36,12.31.28,24.64.15,37,.06,8.33-.06,14.27-4.25,16.4-11.3,3.38-11.21-4-21.17-16.12-21.44-10.81-.25-21.64-.06-32.46-.06q-43.71,0-87.42,0c-6.77,0-12.51,2-15.89,8.33-6.09,11.4,1.37,24.23,14.41,24.45,13.65.24,27.3.15,41,0,3,0,4,.88,3.94,3.94-.16,10.82,0,21.64,0,32.47q0,45.45,0,90.91c0,6.84,1.6,12.94,8.14,16.52,12.07,6.62,25.59-1.3,25.66-15.13C637.15,731.11,637.07,710.63,637.07,690.15Z"/><path class="cls-3" d="M705,1q53.21,53.13,106.42,106.25,72.08,72,144.11,144.15c1.17,1.18,2.25,2.44,3.38,3.67-1.68,1.63-3.79,1-5.71,1-17.82.06-35.64,0-53.46,0l-129.88.14c-18.36.14-34.28-6.14-47.19-19.08A62,62,0,0,1,704,191.84q0-92.34,0-184.67C704,5.09,703.24,2.81,705,1Z"/><path class="cls-4" d="M192,864.09q59.46-.08,118.9-.15,242.58,0,485.14,0c11.43,0,21.23-3.2,28.73-12.26,3.71-4.49,5.33-9.85,7-15.25.07,10.49,1.17,21.11-.06,31.45-1.74,14.72-13.86,27.85-30.31,27.9-78.63.26-157.27.12-235.9.12H196.64c-1.5,0-3,0-4.5,0Z"/><path class="cls-4" d="M769.87,256.19l129.88-.14c17.82,0,35.64,0,53.46,0,1.92,0,4,.67,5.71-1,1.48,1.31,1,3.09,1,4.69q0,93.61,0,187.22c-5.84-3.38-9.68-9-14.4-13.53-9.86-9.5-19.5-19.27-29.12-29-7.64-7.75-15.38-15.42-23-23.25-8.73-9-18.22-17.32-26.8-26.48-7.33-7.84-15.15-15.18-22.61-22.89-8.85-9.14-18.15-17.85-27.16-26.84-7.59-7.57-15-15.31-22.57-22.92-5.59-5.63-11.28-11.19-16.94-16.75C774.51,262.5,771.57,259.85,769.87,256.19Z"/><path class="cls-5" d="M383.16,678.08q0-34.47,0-68.94c0-13.53,6.78-20.39,20.11-20.4,18.48,0,37,.08,55.45,0,13.85-.08,26.86,2.91,38.22,11C518.55,615,525.32,637,522.34,662c-4.1,34.41-28.41,54.31-64.84,54.66-10.82.11-21.65,0-32.47,0-8,0-8,0-8,7.76,0,8.49.06,17,0,25.48-.07,10.85-6.26,17.88-15.81,18.06-10.17.2-17.85-7.28-18-17.93-.18-12,0-24,0-36S383.17,690.06,383.16,678.08ZM417,652.33c0,9.49,0,19,0,28.47,0,1.72-.61,3.9,2.4,3.84,15.3-.35,30.69,1.3,45.89-.82s26-17.33,24.84-33.64C489,634.31,476,621.26,460.7,621c-13.32-.25-26.64,0-40-.16-3.26-.05-3.84,1.14-3.79,4C417.11,634,417,643.17,417,652.33Z"/><path class="cls-5" d="M211,678.25q0-35.22,0-70.46c0-12,6.94-19,18.8-19,20,0,40-.19,60,.11,34.17.51,63.57,25.48,60.56,69.08-2.51,36.36-27.16,58.18-64.19,58.66-12.32.15-24.65.16-37,0-3.54-.05-4.52,1-4.45,4.52.21,9.82.25,19.66,0,29.48-.18,7.28-2.82,13.38-10.21,16.25a17.46,17.46,0,0,1-18.83-4.34c-3.53-3.72-4.71-8.22-4.69-13.27C211.08,725.56,211,701.91,211,678.25Zm33.79-25.56q0,14,0,28c0,2.06-.22,4.05,2.9,4,14.65-.32,29.36,1,44-.63,15.63-1.7,27.18-16.57,26.35-33S304,621.25,288.28,621c-13.16-.22-26.33.06-39.49-.16-3.54-.06-4.07,1.35-4,4.37C244.93,634.37,244.83,643.53,244.83,652.69Z"/><path class="cls-5" d="M637.07,690.15c0,20.48.08,41,0,61.44-.07,13.83-13.59,21.75-25.66,15.13-6.54-3.58-8.14-9.68-8.14-16.52q0-45.47,0-90.91c0-10.83-.11-21.65,0-32.47,0-3.06-.89-4-3.94-3.94-13.66.14-27.31.23-41,0-13-.22-20.5-13-14.41-24.45,3.38-6.33,9.12-8.33,15.89-8.33q43.71,0,87.42,0c10.82,0,21.65-.19,32.46.06,12.16.27,19.5,10.23,16.12,21.44-2.13,7-8.07,11.24-16.4,11.3-12.32.09-24.65.22-37-.06-4.24-.1-5.64.76-5.57,5.36C637.24,648.86,637.07,669.51,637.07,690.15Z"/><path class="cls-2" d="M417,652.33c0-9.16.1-18.32-.06-27.47-.05-2.9.53-4.09,3.79-4,13.32.2,26.64-.09,40,.16,15.33.28,28.3,13.33,29.46,29.2,1.2,16.31-9.55,31.51-24.84,33.64s-30.59.47-45.89.82c-3,.06-2.39-2.12-2.4-3.84C417,671.31,417,661.82,417,652.33Z"/><path class="cls-2" d="M244.83,652.69c0-9.16.1-18.32-.06-27.49-.05-3,.48-4.43,4-4.37,13.16.22,26.33-.06,39.49.16,15.73.26,28.92,13.74,29.74,30.07s-10.72,31.27-26.35,33c-14.59,1.59-29.3.31-44,.63-3.12.07-2.9-1.92-2.9-4Q244.85,666.69,244.83,652.69Z"/></svg>