<svg id="Слой_1" data-name="Слой 1" xmlns="http://www.w3.org/2000/svg" viewBox="0 0 1024 1024"><defs><style>.cls-1{fill:#e0e3e5;}.cls-2{fill:#f5b64d;}.cls-3{fill:#afb6bb;}.cls-4{fill:#c8cfd6;}.cls-5{fill:#fdfcfb;}</style></defs><path class="cls-1" d="M909.93,1023.9H242.05c-.13-1.81-1.59-1.76-2.85-2.16a71.06,71.06,0,0,1-20.08-9.76c-16.23-11.65-25.89-27.5-26.8-47.26-1-22.9-.2-45.9-.18-68.85,1.5,0,3,0,4.5,0H545.41c85.28,0,170.56.11,255.84-.1,16.45,0,28.93-13.45,30.47-28.29,1.07-10.21.1-20.63,0-30.95.06-2.5.17-5,.17-7.49q0-158,0-315.93c0-19.26-13.87-33.16-33-33.16Q558.44,480,318,480q-63,0-126-.14,0-204.69,0-409.37c0-5.81-.23-11.61,1-17.39q8.5-39.81,47.59-51c1.23-.36,2.23-.59,2.4-2H705A6.49,6.49,0,0,1,705,1c-1.77,1.83-1,4.11-1,6.19q-.07,92.32,0,184.67a62,62,0,0,0,18.71,45.27c12.91,12.94,28.83,19.22,47.19,19.08,1.7,3.66,4.64,6.31,7.45,9.08,5.66,5.56,11.35,11.12,16.94,16.75,7.56,7.61,15,15.35,22.57,22.92,9,9,18.31,17.7,27.16,26.84,7.46,7.71,15.28,15.05,22.61,22.89,8.58,9.16,18.07,17.45,26.8,26.48,7.57,7.83,15.31,15.5,23,23.25,9.62,9.76,19.26,19.53,29.12,29,4.72,4.55,8.56,10.15,14.4,13.53,0,.83,0,1.67,0,2.5q0,255.83.05,511.65a47.53,47.53,0,0,1-1,9.38c-5.16,25.78-20.17,42.73-45.27,50.72C912.2,1021.67,910.14,1021.6,909.93,1023.9Z"/><path class="cls-2" d="M192,864.09q-46.49-.08-93-.15c-21.6,0-35-13.26-35-34.77q0-157.71,0-315.42c0-14.63,6.46-25.17,19.85-31.26A32.38,32.38,0,0,1,97.57,480q43.25.06,86.48,0c2.66,0,5.33-.1,8-.15q63,.07,126,.14,240.45,0,480.89,0c19.17,0,33,13.9,33,33.16q0,158,0,315.93c0,2.49-.11,5-.17,7.49-1.73,5.37-3.31,10.75-7.07,15.23-7.43,8.85-17,12.15-28.3,12.15q-256.95-.08-513.9,0Q237.26,863.94,192,864.09ZM299.28,678q0,33,0,66a58.31,58.31,0,0,0,.3,8.47c1.45,9.87,9.13,16.07,18.84,15.41,8.77-.59,14.61-7.54,14.68-17.6.06-9.67.2-19.34-.06-29-.1-3.85,1.24-4.79,4.88-4.73,12.16.2,24.33.17,36.49.06,17.59-.17,33.6-4.92,46.55-17.39,14.92-14.39,19.16-32.55,18-52.55-1.9-32.44-26.49-56.56-58.95-57.87-20.16-.81-40.32-.31-60.47-.35-13.23,0-20.24,7.29-20.26,20.57Q299.24,643.55,299.28,678ZM531,773.19a93.53,93.53,0,0,0,36.67-6.32c24.56-9.76,37.37-29.79,35.16-56-1.61-19.12-13.83-30.25-30.24-37.73-13.09-6-27.09-9.17-40.81-13.2-7.67-2.25-15.38-4.49-22.12-9-13.09-8.72-12.4-25.69,1.32-33.51a35.61,35.61,0,0,1,16.74-4.4,72.65,72.65,0,0,1,41,10.53c5.38,3.29,10.77,3.37,15.94-.2s7.14-8.68,6.25-14.81c-.74-5.13-4-8.63-8-11.57-24.52-17.83-66.68-18.55-92.49-2.55-29.69,18.4-32.63,67.3,4.2,84,10.67,4.84,21.73,8.32,32.93,11.55,10.22,2.94,20.63,5.42,30,10.65,6.55,3.64,12.19,8.6,12,16.53-.19,8.38-4.37,15.27-11.94,19.61-7,4-14.73,5.18-22.64,4.79-17-.81-32.65-5.52-46.85-15.21-7.88-5.38-18.95-1-22,8.09-2.87,8.6-.43,16.35,7.31,22C490.67,768.84,510.3,772.91,531,773.19Z"/><path class="cls-3" d="M705,1q53.21,53.13,106.42,106.25,72.08,72,144.11,144.15c1.17,1.18,2.25,2.44,3.38,3.67-1.68,1.63-3.79,1-5.71,1-17.82.06-35.64,0-53.46,0l-129.88.14c-18.36.14-34.28-6.14-47.19-19.08A62,62,0,0,1,704,191.84q0-92.34,0-184.67C704,5.09,703.24,2.81,705,1Z"/><path class="cls-4" d="M192,864.09q45.24-.08,90.48-.15,257,0,513.9,0c11.27,0,20.87-3.3,28.3-12.15,3.76-4.48,5.34-9.86,7.07-15.23.05,10.32,1,20.74,0,30.95-1.54,14.84-14,28.26-30.47,28.29-85.28.21-170.56.1-255.84.1H196.64c-1.5,0-3,0-4.5,0Z"/><path class="cls-4" d="M769.87,256.19l129.88-.14c17.82,0,35.64,0,53.46,0,1.92,0,4,.67,5.71-1,1.48,1.31,1,3.09,1,4.69q0,93.61,0,187.22c-5.84-3.38-9.68-9-14.4-13.53-9.86-9.5-19.5-19.27-29.12-29-7.64-7.75-15.38-15.42-23-23.25-8.73-9-18.22-17.32-26.8-26.48-7.33-7.84-15.15-15.18-22.61-22.89-8.85-9.14-18.15-17.85-27.16-26.84-7.59-7.57-15-15.31-22.57-22.92-5.59-5.63-11.28-11.19-16.94-16.75C774.51,262.5,771.57,259.85,769.87,256.19Z"/><path class="cls-5" d="M299.27,678q0-34.5,0-69c0-13.28,7-20.6,20.26-20.57,20.15,0,40.31-.46,60.47.35,32.46,1.31,57.05,25.43,58.95,57.87,1.17,20-3.07,38.16-18,52.55-13,12.47-29,17.22-46.55,17.39-12.16.11-24.33.14-36.49-.06-3.64-.06-5,.88-4.88,4.73.26,9.66.12,19.33.06,29-.07,10.06-5.91,17-14.68,17.6-9.71.66-17.39-5.54-18.84-15.41a58.31,58.31,0,0,1-.3-8.47Q299.26,711,299.27,678Zm33.85-25.13h0c0,9.32,0,18.64,0,28,0,2.17.05,4,3.05,3.87,14.63-.43,29.31.88,43.9-.72,14.88-1.63,27.45-16.67,26.66-31.39C405.79,635,393,621.19,376.91,621c-13.15-.18-26.31.06-39.45-.14-3.64-.06-4.47,1.26-4.4,4.61C333.25,634.6,333.12,643.75,333.12,652.91Z"/><path class="cls-5" d="M531,773.19c-20.72-.28-40.35-4.35-57.5-16.79-7.74-5.61-10.18-13.36-7.31-22,3-9.06,14.09-13.47,22-8.09,14.2,9.69,29.88,14.4,46.85,15.21,7.91.39,15.62-.76,22.64-4.79,7.57-4.34,11.75-11.23,11.94-19.61.18-7.93-5.46-12.89-12-16.53-9.41-5.23-19.82-7.71-30-10.65-11.2-3.23-22.26-6.71-32.93-11.55-36.83-16.73-33.89-65.63-4.2-84,25.81-16,68-15.28,92.49,2.55,4,2.94,7.27,6.44,8,11.57.89,6.13-1.11,11.26-6.25,14.81s-10.56,3.49-15.94.2a72.65,72.65,0,0,0-41-10.53A35.61,35.61,0,0,0,511,617.4c-13.72,7.82-14.41,24.79-1.32,33.51,6.74,4.49,14.45,6.73,22.12,9,13.72,4,27.72,7.24,40.81,13.2,16.41,7.48,28.63,18.61,30.24,37.73,2.21,26.26-10.6,46.29-35.16,56A93.53,93.53,0,0,1,531,773.19Z"/><path class="cls-2" d="M333.12,652.91c0-9.16.13-18.31-.06-27.47-.07-3.35.76-4.67,4.4-4.61,13.14.2,26.3,0,39.45.14,16,.22,28.88,14,29.82,31.67.79,14.72-11.78,29.76-26.66,31.39-14.59,1.6-29.27.29-43.9.72-3,.08-3.06-1.7-3.05-3.87.05-9.33,0-18.65,0-28Z"/></svg>