<svg id="Слой_1" data-name="Слой 1" xmlns="http://www.w3.org/2000/svg" viewBox="0 0 1024 1024"><defs><style>.cls-1{fill:#e0e3e5;}.cls-2{fill:#ef5542;}.cls-3{fill:#afb6bb;}.cls-4{fill:#c8cfd6;}.cls-5{fill:#fdfcfc;}</style></defs><path class="cls-1" d="M243.05.1H705A6.49,6.49,0,0,1,705,1c-1.77,1.83-1,4.11-1,6.19q-.07,92.32,0,184.67a62,62,0,0,0,18.71,45.27c12.91,12.94,28.83,19.22,47.19,19.08,1.7,3.66,4.64,6.31,7.45,9.08,5.66,5.56,11.35,11.12,16.94,16.75,7.56,7.61,15,15.35,22.57,22.92,9,9,18.31,17.7,27.16,26.84,7.46,7.71,15.27,15.05,22.61,22.89,8.58,9.16,18.07,17.45,26.8,26.48,7.57,7.83,15.31,15.5,23,23.25,9.62,9.76,19.26,19.53,29.12,29,4.72,4.55,8.56,10.15,14.4,13.53,0,.83,0,1.67,0,2.5q0,255.83.05,511.65a47.53,47.53,0,0,1-1,9.38c-5.16,25.78-20.17,42.73-45.27,50.72-1.45.46-3.51.39-3.72,2.69H242.05c-.13-1.81-1.59-1.76-2.85-2.16a70.87,70.87,0,0,1-20.07-9.76c-16.24-11.65-25.9-27.5-26.81-47.26-1-22.9-.2-45.9-.18-68.85l330.28.06q138.92,0,277.81,0c14.15,0,31.16-15.38,31.62-29.08.35-10.15-.06-20.31-.13-30.47.07-3,.22-6,.22-9q0-156.4,0-312.79c0-19.8-14.93-34.6-34.8-34.6Q552,480,307,480q-57.45,0-114.91-.16,0-204.67,0-409.36c0-5.81-.23-11.61,1-17.39q8.5-39.81,47.59-51C241.88,1.76,242.88,1.53,243.05.1Z"/><path class="cls-2" d="M192,864.09q-46.46-.08-92.91-.15c-20.17,0-35-14.76-35-34.86,0-104.41.27-208.82-.28-313.23-.1-19,16.81-36.7,36.33-36.11,30.6.92,61.26.16,91.9.1q57.45.09,114.91.16,245.1,0,490.18,0c19.87,0,34.8,14.8,34.8,34.6q0,156.39,0,312.79c0,3-.15,6-.22,9-5.89,19.5-20.81,27.83-39.72,27.78q-247-.57-494.08-.21Q245,863.94,192,864.09ZM566.3,679.68c0,23.49,0,47,0,70.47,0,9.72,4.12,15.52,12.19,17.79,12.55,3.53,23-4.13,23.14-17.18.14-14,.19-28-.06-42-.08-4,1.2-5,5-4.9q16,.38,32,0c3.45-.08,5.38,1.15,7.21,3.94,11.43,17.4,23,34.68,34.6,52,4.27,6.39,10.12,10.19,18,9.54A16.08,16.08,0,0,0,712.6,759c2.79-6.7.94-12.8-3.52-18.12C699.14,729,689.17,717.09,679,705.41c-2.81-3.23-4-5.08,1-7.27a35.11,35.11,0,0,0,12.5-9.8c16.1-19.16,18.43-40.66,8.89-63.1-9.34-22-27.1-32.72-50.76-33.15-21.82-.4-43.65-.09-65.48-.11-13.42,0-18.87,5.38-18.87,18.72Zm-377.35,0q0,36,0,72c0,5.71,1.77,10.54,6.61,13.77,6.34,4.23,13.12,4.57,19.9,1.15,6.36-3.2,8.65-8.81,8.63-15.67,0-14.16.1-28.32-.09-42.47,0-3.42.75-4.57,4.35-4.49,11,.24,22,.22,33,0,3.23-.06,5.06,1,6.82,3.65,11.42,17.4,23,34.67,34.57,52,4.25,6.37,10,10.41,17.87,9.85a16,16,0,0,0,14.5-10.58c2.57-6.48,1-12.49-3.34-17.7q-15.37-18.41-31-36.6c-2.34-2.7-3.18-4,.9-5.86a41.07,41.07,0,0,0,16.25-13.73c13.85-19.63,15-40.64,4.94-61.92-9.87-20.83-27.47-30.6-50.21-30.92-22-.3-44-.07-66,0-12.17,0-17.69,5.51-17.7,17.68Q188.92,644.66,189,679.63ZM451,736c14.66,0,29.32.09,44-.07,3.12,0,4.79.84,5.94,3.82q3.58,9.3,7.83,18.35c3.49,7.43,10.21,10.41,17.7,8.2,11.23-3.3,16.12-13.94,10.78-24.44q-36.32-71.4-72.86-142.69c-3.42-6.69-8.82-10.22-16.4-10.23s-13,3.59-16.36,10.27l-10,19.56q-30.9,60.43-61.74,120.9c-3.75,7.38-4.26,15.17.31,22.41,3.92,6.19,10.41,7.51,17.16,6.86,7.92-.77,13.55-5.27,16.94-12.35,2.59-5.39,4.92-10.92,7.06-16.51,1.16-3,2.68-4.25,6.16-4.19C422,736.1,436.51,736,451,736Z"/><path class="cls-3" d="M705,1q53.21,53.13,106.42,106.25,72.08,72,144.11,144.15c1.17,1.18,2.25,2.44,3.38,3.67-1.68,1.63-3.79,1-5.71,1-17.82.06-35.64,0-53.46,0l-129.88.14c-18.36.14-34.28-6.14-47.19-19.08A62,62,0,0,1,704,191.84q0-92.34,0-184.67C704,5.09,703.24,2.81,705,1Z"/><path class="cls-4" d="M192,864.09q52.95-.08,105.9-.15,247.05,0,494.08.21c18.91.05,33.83-8.28,39.72-27.78.07,10.16.48,20.32.13,30.47-.46,13.7-17.47,29.08-31.62,29.08q-138.9,0-277.81,0l-330.28-.06Z"/><path class="cls-4" d="M769.87,256.19l129.88-.14c17.82,0,35.64,0,53.46,0,1.92,0,4,.67,5.71-1,1.48,1.31,1,3.09,1,4.69q0,93.61,0,187.22c-5.84-3.38-9.68-9-14.4-13.53-9.86-9.5-19.5-19.27-29.12-29-7.64-7.75-15.38-15.42-23-23.25-8.73-9-18.22-17.32-26.8-26.48-7.34-7.84-15.15-15.18-22.61-22.89-8.85-9.14-18.15-17.85-27.16-26.84-7.59-7.57-15-15.31-22.57-22.92-5.59-5.63-11.28-11.19-16.94-16.75C774.51,262.5,771.57,259.85,769.87,256.19Z"/><path class="cls-5" d="M566.3,679.68v-69c0-13.34,5.45-18.73,18.87-18.72,21.83,0,43.66-.29,65.48.11,23.66.43,41.42,11.2,50.76,33.15,9.54,22.44,7.21,43.94-8.89,63.1a35.11,35.11,0,0,1-12.5,9.8c-5,2.19-3.83,4-1,7.27,10.17,11.68,20.14,23.54,30.08,35.43,4.46,5.32,6.31,11.42,3.52,18.12a16.08,16.08,0,0,1-14.17,10.37c-7.89.65-13.74-3.15-18-9.54-11.58-17.3-23.17-34.58-34.6-52-1.83-2.79-3.76-4-7.21-3.94q-16,.36-32,0c-3.84-.09-5.12.85-5,4.9.25,14,.2,28,.06,42-.14,13-10.59,20.71-23.14,17.18-8.07-2.27-12.16-8.07-12.19-17.79C566.25,726.66,566.3,703.17,566.3,679.68ZM629,620.86c-7.66,0-15.31.18-23-.07-3.54-.12-4.48,1-4.44,4.49q.25,22.69,0,45.4c0,3.44.89,4.55,4.43,4.5,14.14-.2,28.27,0,42.41-.11,12.75-.08,21.29-6.66,25-18.84,4.9-16.22-3.34-36.67-26-35.42C641.32,621.15,635.15,620.86,629,620.86Z"/><path class="cls-5" d="M189,679.63q0-35,0-70c0-12.17,5.53-17.67,17.7-17.68,22,0,44-.25,66,0,22.74.32,40.34,10.09,50.21,30.92,10.08,21.28,8.91,42.29-4.94,61.92a41.07,41.07,0,0,1-16.25,13.73c-4.08,1.89-3.24,3.16-.9,5.86q15.66,18.15,31,36.6c4.35,5.21,5.91,11.22,3.34,17.7a16,16,0,0,1-14.5,10.58c-7.91.56-13.62-3.48-17.87-9.85-11.54-17.31-23.15-34.58-34.57-52-1.76-2.68-3.59-3.71-6.82-3.65-11,.22-22,.24-33,0-3.6-.08-4.39,1.07-4.35,4.49.19,14.15.05,28.31.09,42.47,0,6.86-2.27,12.47-8.63,15.67-6.78,3.42-13.56,3.08-19.9-1.15-4.84-3.23-6.62-8.06-6.61-13.77Q189,715.61,189,679.63Zm61.62-4.55c6.49,0,13,0,19.48,0,14.55-.08,23.93-7.58,26.56-21.93,3.22-17.61-6.83-33-25.95-32.37-14.15.44-28.32.18-42.48,0-3.24,0-4.23.85-4.19,4.16q.24,23,0,46c0,3.15.68,4.37,4.09,4.25C235.57,674.91,243.07,675.09,250.57,675.08Z"/><path class="cls-5" d="M451,736c-14.5,0-29,.14-43.48-.11-3.48-.06-5,1.15-6.16,4.19-2.14,5.59-4.47,11.12-7.06,16.51-3.39,7.08-9,11.58-16.94,12.35-6.75.65-13.24-.67-17.16-6.86-4.57-7.24-4.06-15-.31-22.41q30.75-60.51,61.74-120.9l10-19.56c3.41-6.68,8.77-10.27,16.36-10.27s13,3.54,16.4,10.23q36.45,71.34,72.86,142.69c5.34,10.5.45,21.14-10.78,24.44-7.49,2.21-14.21-.77-17.7-8.2q-4.25-9-7.83-18.35c-1.15-3-2.82-3.86-5.94-3.82C480.33,736.05,465.67,736,451,736Zm.46-95.39a15.94,15.94,0,0,0-1.51,2c-9.69,19.32-19.31,38.68-29.08,58-1.66,3.27-.35,3.5,2.44,3.49,17.82-.06,35.64,0,53.45,0,.87,0,2,.5,2.79-1Z"/><path class="cls-2" d="M629,620.86c6.15,0,12.32.29,18.45-.05,22.63-1.25,30.87,19.2,26,35.42-3.68,12.18-12.22,18.76-25,18.84-14.14.08-28.27-.09-42.41.11-3.54.05-4.47-1.06-4.43-4.5q.25-22.7,0-45.4c0-3.46.9-4.61,4.44-4.49C613.69,621,621.34,620.86,629,620.86Z"/><path class="cls-2" d="M250.57,675.08c-7.5,0-15-.17-22.49.09-3.41.12-4.12-1.1-4.09-4.25q.22-23,0-46c0-3.31.95-4.19,4.19-4.16,14.16.17,28.33.43,42.48,0,19.12-.59,29.17,14.76,25.95,32.37-2.63,14.35-12,21.85-26.56,21.93C263.56,675.11,257.06,675.08,250.57,675.08Z"/><path class="cls-2" d="M451.47,640.57,479.56,703c-.79,1.47-1.92,1-2.79,1-17.81,0-35.63,0-53.45,0-2.79,0-4.1-.22-2.44-3.49,9.77-19.27,19.39-38.63,29.08-58A15.94,15.94,0,0,1,451.47,640.57Z"/></svg>