<svg id="Слой_1" data-name="Слой 1" xmlns="http://www.w3.org/2000/svg" viewBox="0 0 1024 1024"><defs><style>.cls-1{fill:#e0e3e5;}.cls-2{fill:#576c7d;}.cls-3{fill:#afb6bb;}.cls-4{fill:#c8cfd6;}.cls-5{fill:#fbfcfc;}</style></defs><path class="cls-1" d="M909.93,1023.9H242.05c-.13-1.81-1.59-1.76-2.85-2.16a71.73,71.73,0,0,1-20.08-9.76c-16.3-11.61-25.81-27.58-26.78-47.26-1.13-22.9-.22-45.9-.2-68.85,1.83,0,3.67,0,5.5,0q300.57,0,601.14.21c16.85,0,34.4-15.42,33.22-33.59-.37-5.64,0-11.33-.07-17,0-1.61.43-3.39-1.11-4.65.39-4,1.17-7.88,1.17-11.91q-.07-157.95-.07-315.89c0-19.22-13.92-33.1-33.11-33.1H316.47q-62.22,0-124.45-.15c0-1.33,0-2.67,0-4q0-203.43,0-406.87c0-5.31-.11-10.61,1-15.88q8.5-39.83,47.59-51c1.23-.36,2.23-.59,2.4-2H705A6.49,6.49,0,0,1,705,1c-1.77,1.83-1,4.11-1,6.19q-.07,92.32,0,184.67a62,62,0,0,0,18.71,45.27c12.91,12.94,28.83,19.22,47.19,19.08,1.7,3.66,4.64,6.31,7.45,9.08,5.66,5.56,11.35,11.12,16.94,16.75,7.56,7.61,15,15.35,22.57,22.92,9,9,18.31,17.7,27.16,26.84,7.46,7.71,15.27,15.05,22.61,22.89,8.58,9.16,18.07,17.45,26.8,26.48,7.57,7.83,15.31,15.5,23,23.25,9.62,9.76,19.26,19.53,29.12,29,4.72,4.55,8.56,10.15,14.4,13.53,0,.83,0,1.67,0,2.5q0,255.83.05,511.65a47.53,47.53,0,0,1-1,9.38c-5.16,25.78-20.17,42.73-45.27,50.72C912.2,1021.67,910.14,1021.6,909.93,1023.9Z"/><path class="cls-2" d="M192,864.08q-46.49-.08-93-.14c-21.6,0-34.94-13.24-34.94-34.79q0-157.7,0-315.41c0-17.44,10.56-30.46,27-33.29a60.06,60.06,0,0,1,10-.44q45.48-.12,91-.16,62.23.07,124.45.15H798.81c19.19,0,33.11,13.88,33.11,33.1Q832,671,832,829c0,4-.78,7.94-1.17,11.91C824.59,856.3,813.31,864,796.56,864q-232.59-.08-465.17,0Q261.69,863.94,192,864.08ZM682.55,706.54c-1.21-2.67-2.13-4.57-3-6.51q-20.79-48.62-41.54-97.26c-2.95-6.93-6.7-13.27-15.07-13.33s-12.24,6.17-15.21,13.11q-20.88,48.86-41.95,97.64c-.74,1.7-1.09,3.73-3.16,5.44-1-2.75-1.89-5-2.72-7.33q-17.31-48.12-34.63-96.22c-3-8.31-8.54-12.23-16.39-12-13,.35-19.34,11.17-14.52,24.75Q518.29,682,542.24,749.23c1.56,4.38,3.12,8.78,5.73,12.71,6.64,10,18.75,10.3,25.83.59,2.76-3.79,4.53-8.12,6.36-12.4Q598.56,707,617,663.86c1.39-3.25,2.86-6.48,4.55-10.31,1,1.88,1.6,3,2.13,4.22q20.21,45.88,40.39,91.79c2.28,5.19,4.66,10.36,8.46,14.64a14.21,14.21,0,0,0,22.75-1.54,43,43,0,0,0,4.37-8.93q20-54,39.79-108.15c4-10.77,8-21.49,11.84-32.31,3.49-9.91.3-18.09-8.17-21.77-9.44-4.1-18.84.12-22.74,10.6C714.43,618,708.77,634,703,649.93,696.28,668.53,689.57,687.13,682.55,706.54ZM155.92,679v8c0,21.66-.08,43.32,0,65,.06,9.94,6.53,16.14,16.4,16.2,10.55.07,17.45-6.69,17.55-17.5q.18-20.74,0-41.49c0-3.16.74-4.33,4.12-4.27,10.83.21,21.66.18,32.49,0a6,6,0,0,1,5.69,3.06c5.8,8.54,11.78,17,17.69,25.42s11.93,17.27,18,25.79c5.49,7.66,13.21,10.7,20.75,8.49,12.4-3.65,16.07-17.36,7.36-28.16q-14.75-18.28-29.83-36.28c-2.16-2.6-2.67-3.83,1.05-5.52a46.33,46.33,0,0,0,20.21-17.35c12.25-19.21,12.9-39.29,2.81-59.36-10-19.82-27-29.44-48.88-29.94-22.48-.5-45-.16-67.48-.15-12.31,0-18,5.67-18,18.06Q155.87,644,155.92,679ZM315,751.61c-.09,6.83,5.25,14.79,11,16.39,8.37,2.34,17.63-.86,21.38-7.82,3.54-6.58,6.7-13.38,9.9-20.14,1-2.17,2.22-3.29,4.86-3.28q44,.16,87.92,0a4.69,4.69,0,0,1,4.92,3.12c3.22,6.75,6.61,13.43,10,20.08,3.06,5.91,7.94,8.77,14.67,8.24,13.21-1.05,20.3-13.3,14.3-25.32q-35.57-71.17-71.36-142.24c-3.31-6.6-8.08-11-15.83-11-8.08,0-13.34,4.3-16.87,11.2q-36.09,70.64-72.2,141.25A20.89,20.89,0,0,0,315,751.61Z"/><path class="cls-3" d="M705,1q53.21,53.13,106.42,106.25,72.08,72,144.11,144.15c1.17,1.18,2.25,2.44,3.38,3.67-1.68,1.63-3.79,1-5.71,1-17.82.06-35.64,0-53.46,0l-129.88.14c-18.36.14-34.28-6.14-47.19-19.08A62,62,0,0,1,704,191.84q0-92.34,0-184.67C704,5.09,703.24,2.81,705,1Z"/><path class="cls-4" d="M192,864.08q69.7-.08,139.4-.14,232.58,0,465.17,0c16.75,0,28-7.67,34.26-23.07,1.54,1.26,1.1,3,1.11,4.65,0,5.66-.3,11.35.07,17,1.18,18.17-16.37,33.62-33.22,33.59q-300.57-.48-601.14-.21c-1.83,0-3.67,0-5.5,0Z"/><path class="cls-4" d="M769.87,256.19l129.88-.14c17.82,0,35.64,0,53.46,0,1.92,0,4,.67,5.71-1,1.48,1.31,1,3.09,1,4.69q0,93.61,0,187.22c-5.84-3.38-9.68-9-14.4-13.53-9.86-9.5-19.5-19.27-29.12-29-7.64-7.75-15.38-15.42-23-23.25-8.73-9-18.22-17.32-26.8-26.48-7.34-7.84-15.15-15.18-22.61-22.89-8.85-9.14-18.15-17.85-27.16-26.84-7.59-7.57-15-15.31-22.57-22.92-5.59-5.63-11.28-11.19-16.94-16.75C774.51,262.5,771.57,259.85,769.87,256.19Z"/><path class="cls-5" d="M682.55,706.54c7-19.41,13.73-38,20.45-56.61C708.77,634,714.43,618,720.35,602.1c3.9-10.48,13.3-14.7,22.74-10.6,8.47,3.68,11.66,11.86,8.17,21.77-3.8,10.82-7.88,21.54-11.84,32.31q-19.87,54.09-39.79,108.15a43,43,0,0,1-4.37,8.93,14.21,14.21,0,0,1-22.75,1.54c-3.8-4.28-6.18-9.45-8.46-14.64q-20.2-45.9-40.39-91.79c-.53-1.2-1.18-2.34-2.13-4.22-1.69,3.83-3.16,7.06-4.55,10.31Q598.56,707,580.16,750.13c-1.83,4.28-3.6,8.61-6.36,12.4-7.08,9.71-19.19,9.41-25.83-.59-2.61-3.93-4.17-8.33-5.73-12.71q-24-67.2-47.84-134.41c-4.82-13.58,1.55-24.4,14.52-24.75,7.85-.22,13.39,3.7,16.39,12q17.38,48.09,34.63,96.22c.83,2.29,1.7,4.58,2.72,7.33,2.07-1.71,2.42-3.74,3.16-5.44q21-48.8,41.95-97.64c3-6.94,6.84-13.18,15.21-13.11s12.12,6.4,15.07,13.33q20.7,48.66,41.54,97.26C680.42,702,681.34,703.87,682.55,706.54Z"/><path class="cls-5" d="M155.92,679q0-35,0-70c0-12.39,5.66-18,18-18.06,22.49,0,45-.35,67.48.15,21.86.5,38.92,10.12,48.88,29.94,10.09,20.07,9.44,40.15-2.81,59.36a46.33,46.33,0,0,1-20.21,17.35c-3.72,1.69-3.21,2.92-1.05,5.52q15.06,18,29.83,36.28c8.71,10.8,5,24.51-7.36,28.16-7.54,2.21-15.26-.83-20.75-8.49-6.11-8.52-12-17.19-18-25.79S238,716.55,232.18,708a6,6,0,0,0-5.69-3.06c-10.83.14-21.66.17-32.49,0-3.38-.06-4.15,1.11-4.12,4.27q.23,20.75,0,41.49c-.1,10.81-7,17.57-17.55,17.5-9.87-.06-16.34-6.26-16.4-16.2-.12-21.66,0-43.32,0-65Zm61.61-57v0c-8,0-16,.05-24,0-2.3,0-3.68.22-3.66,3.14.11,15.81.06,31.62,0,47.43,0,1.86.2,3.24,2.62,3.21,16.8-.24,33.65.93,50.39-.55,13.64-1.2,22.75-13.72,22-28.59-.72-14.25-10.49-24.17-24.46-24.55C232.84,621.77,225.18,621.94,217.53,621.94Z"/><path class="cls-5" d="M315,751.6a21,21,0,0,1,2.75-9.49q36.11-70.62,72.2-141.25c3.53-6.9,8.79-11.24,16.87-11.2,7.75,0,12.52,4.41,15.83,11Q458.34,671.8,494,742.91c6,12-1.09,24.27-14.3,25.32-6.73.53-11.61-2.33-14.67-8.24-3.43-6.65-6.82-13.33-10-20.08a4.69,4.69,0,0,0-4.92-3.12q-44,.12-87.92,0c-2.64,0-3.83,1.11-4.86,3.28-3.2,6.76-6.36,13.56-9.9,20.14-3.75,7-13,10.16-21.38,7.82C320.29,766.4,315,758.44,315,751.6ZM406.4,639.83l-31.26,62.78h60Z"/><path class="cls-2" d="M217.53,621.94c7.65,0,15.31-.17,23,0,14,.38,23.74,10.3,24.46,24.55.75,14.87-8.36,27.39-22,28.59-16.74,1.48-33.59.31-50.39.55-2.42,0-2.63-1.35-2.62-3.21,0-15.81.08-31.62,0-47.43,0-2.92,1.36-3.16,3.66-3.14,8,.08,16,0,24,0Z"/><path class="cls-2" d="M406.4,639.83l28.71,62.78h-60Z"/></svg>