<svg id="Слой_1" data-name="Слой 1" xmlns="http://www.w3.org/2000/svg" viewBox="0 0 1024 1024"><defs><style>.cls-1{fill:#e0e3e5;}.cls-2{fill:#ef5542;}.cls-3{fill:#afb6bb;}.cls-4{fill:#c8cfd6;}.cls-5{fill:#fdfbfb;}</style></defs><path class="cls-1" d="M909.93,1023.9H242.05c-.13-1.81-1.59-1.76-2.85-2.16a70.87,70.87,0,0,1-20.07-9.76c-16.24-11.65-25.9-27.5-26.81-47.26-1-22.9-.2-45.9-.18-68.85,1.5,0,3,0,4.5,0H565.47c78.63,0,157.27.14,235.9-.12,16.45,0,28.56-13.18,30.31-27.9,1.23-10.34.13-21,.06-31.45.07-2.83.2-5.66.2-8.49q0-156.94,0-313.88c0-20.56-13.59-34.09-34.13-34.09Q552.9,480,308,480q-58,0-116-.16,0-204.67,0-409.36c0-5.81-.23-11.61,1-17.39q8.5-39.81,47.59-51c1.23-.36,2.23-.59,2.4-2H705A6.49,6.49,0,0,1,705,1c-1.77,1.83-1,4.11-1,6.19q-.07,92.32,0,184.67a62,62,0,0,0,18.71,45.27c12.91,12.94,28.83,19.22,47.19,19.08,1.7,3.66,4.64,6.31,7.45,9.08,5.66,5.56,11.35,11.12,16.94,16.75,7.56,7.61,15,15.35,22.57,22.92,9,9,18.31,17.7,27.16,26.84,7.46,7.71,15.28,15.05,22.61,22.89,8.58,9.16,18.07,17.45,26.8,26.48,7.57,7.83,15.31,15.5,23,23.25,9.62,9.76,19.26,19.53,29.12,29,4.72,4.55,8.56,10.15,14.4,13.53,0,.83,0,1.67,0,2.5q0,255.83.05,511.65a47.53,47.53,0,0,1-1,9.38c-5.16,25.78-20.17,42.73-45.27,50.72C912.2,1021.67,910.14,1021.6,909.93,1023.9Z"/><path class="cls-2" d="M192,864.09q-46.49-.08-93-.15c-21.62,0-35-13.24-35-34.77q0-157.71,0-315.43c0-17.44,10.56-30.46,27-33.29a60,60,0,0,1,10-.44q45.48-.12,91-.17,58,.09,116,.16,244.9,0,489.81,0c20.54,0,34.13,13.53,34.13,34.09q0,156.95,0,313.88c0,2.83-.13,5.66-.2,8.49-1.62,5.4-3.24,10.76-7,15.25-7.5,9.06-17.3,12.27-28.73,12.26q-242.56-.08-485.14,0Q251.48,863.94,192,864.09Zm262.73-278.2c-64,.06-108.25,54.82-94.39,117.11,14.28,64.09,87.51,85.48,134.13,63.2,8.54-4.08,13.1-3.15,19.5,2.52,9.59,8.51,22.9,4.08,26.43-8.14,2-6.88-.7-12.27-5.41-17.14-2-2.07-4.76-3.77-2-7.82,16-23.8,19-50.26,13.26-77.56C537,613.67,501.08,585.86,454.75,585.89ZM254.39,773.2c22.79.09,39.32-3.58,54.54-13.14,26.46-16.61,35.47-67.29-5.6-85.75-3.63-1.64-7.3-3.22-11-4.62-10.45-3.92-21.29-6.52-32-9.71-7.65-2.28-15.36-4.46-22.16-8.86-13.05-8.44-12.89-24.94.3-33.25,5.38-3.39,11.4-4.61,17.6-4.83a72.08,72.08,0,0,1,41,10.54c5.38,3.28,10.76,3.33,15.91-.31s7.25-9,6.06-15.33c-1.07-5.63-5-9.25-9.6-12.2-17.75-11.41-37.34-14.42-57.92-12.23-13.45,1.43-26,5.64-36.87,14-19,14.59-24.74,42.82-12.58,62.84,7.24,11.91,18.92,17.89,31.38,22.63,12.76,4.85,26.15,7.7,39.08,12,6.8,2.27,13.51,4.81,19,9.67,6.33,5.62,7.87,11.84,4.84,19.75-4,10.54-12.49,15.29-23,16.55-20,2.37-38.31-2.61-55.05-13.48-5.7-3.71-11.15-4.84-17.18-1.05-10.27,6.44-10.58,21.45-.28,29.27C218.14,768.83,238.3,772.87,254.39,773.2Zm331.87-94.27c0,23.81,0,47.62,0,71.43,0,11.5,6.16,17.57,17.63,17.59q41,0,81.92,0a28.3,28.3,0,0,0,8.39-1.06c7.14-2.2,11.62-7.87,11.8-15a16.19,16.19,0,0,0-11-16.13c-3.5-1.31-7.16-1.42-10.82-1.43-20.32,0-40.64-.16-60.95.11-4.75.06-5.7-1.51-5.68-5.92.17-33.13.09-66.27.09-99.41,0-7.32.16-14.65,0-22-.31-10.68-7.9-17.51-17.75-16.23-8,1-13.58,8-13.59,17.06Q586.22,643.46,586.26,678.93Z"/><path class="cls-3" d="M705,1q53.21,53.13,106.42,106.25,72.08,72,144.11,144.15c1.17,1.18,2.25,2.44,3.38,3.67-1.68,1.63-3.79,1-5.71,1-17.82.06-35.64,0-53.46,0l-129.88.14c-18.36.14-34.28-6.14-47.19-19.08A62,62,0,0,1,704,191.84q0-92.34,0-184.67C704,5.09,703.24,2.81,705,1Z"/><path class="cls-4" d="M192,864.09q59.46-.08,118.9-.15,242.58,0,485.14,0c11.43,0,21.23-3.2,28.73-12.26,3.71-4.49,5.33-9.85,7-15.25.07,10.49,1.17,21.11-.06,31.45-1.75,14.72-13.86,27.85-30.31,27.9-78.63.26-157.27.12-235.9.12H196.64c-1.5,0-3,0-4.5,0Z"/><path class="cls-4" d="M769.87,256.19l129.88-.14c17.82,0,35.64,0,53.46,0,1.92,0,4,.67,5.71-1,1.48,1.31,1,3.09,1,4.69q0,93.61,0,187.22c-5.84-3.38-9.68-9-14.4-13.53-9.86-9.5-19.5-19.27-29.12-29-7.64-7.75-15.38-15.42-23-23.25-8.73-9-18.22-17.32-26.8-26.48-7.33-7.84-15.15-15.18-22.61-22.89-8.85-9.14-18.15-17.85-27.16-26.84-7.59-7.57-15-15.31-22.57-22.92-5.59-5.63-11.28-11.19-16.94-16.75C774.51,262.5,771.57,259.85,769.87,256.19Z"/><path class="cls-5" d="M454.75,585.89c46.33,0,82.21,27.78,91.49,72.17,5.7,27.3,2.79,53.76-13.26,77.56-2.73,4,0,5.75,2,7.82,4.71,4.87,7.39,10.26,5.41,17.14-3.53,12.22-16.84,16.65-26.43,8.14-6.4-5.67-11-6.6-19.5-2.52-46.62,22.28-119.85.89-134.13-63.2C346.5,640.71,390.74,586,454.75,585.89Zm25.87,150.67c-.19-.58-.21-1-.42-1.17Q467.59,723.66,454.94,712c-8.43-7.78-9.13-18.06-1.76-26s17.34-7.76,25.88.67c7.82,7.72,15.55,15.52,23.33,23.28,4.32,4.31,4.4,4.35,7.21-1.3,6.34-12.72,7.33-26.28,4.89-39.94-5.72-32.09-33.14-51.81-67.19-48.83-27.88,2.45-49.72,21.73-54.16,47.83-4.86,28.6,8.88,55.46,34.19,67.37C444.84,743.27,462.49,742.09,480.62,736.56Z"/><path class="cls-5" d="M254.39,773.2c-16.09-.33-36.25-4.37-53.6-17.52-10.3-7.82-10-22.83.28-29.27,6-3.79,11.48-2.66,17.18,1.05,16.74,10.87,35.09,15.85,55.05,13.48,10.55-1.26,19-6,23-16.55,3-7.91,1.49-14.13-4.84-19.75-5.48-4.86-12.19-7.4-19-9.67-12.93-4.32-26.32-7.17-39.08-12-12.46-4.74-24.14-10.72-31.38-22.63-12.16-20-6.47-48.25,12.58-62.84,10.87-8.33,23.42-12.54,36.87-14,20.58-2.19,40.17.82,57.92,12.23,4.6,3,8.53,6.57,9.6,12.2,1.19,6.28-.79,11.6-6.06,15.33s-10.53,3.59-15.91.31a72.08,72.08,0,0,0-41-10.54c-6.2.22-12.22,1.44-17.6,4.83-13.19,8.31-13.35,24.81-.3,33.25,6.8,4.4,14.51,6.58,22.16,8.86,10.67,3.19,21.51,5.79,32,9.71,3.73,1.4,7.4,3,11,4.62,41.07,18.46,32.06,69.14,5.6,85.75C293.71,769.62,277.18,773.29,254.39,773.2Z"/><path class="cls-5" d="M586.25,678.93q0-35.48,0-70.94c0-9.1,5.58-16,13.59-17.06,9.85-1.28,17.44,5.55,17.75,16.23.2,7.33,0,14.66,0,22,0,33.14.08,66.28-.09,99.41,0,4.41.93,6,5.68,5.92,20.31-.27,40.63-.13,60.95-.11,3.66,0,7.32.12,10.82,1.43a16.19,16.19,0,0,1,11,16.13c-.18,7.12-4.66,12.79-11.8,15a28.3,28.3,0,0,1-8.39,1.06q-41,0-81.92,0c-11.47,0-17.6-6.09-17.63-17.59C586.21,726.55,586.26,702.74,586.25,678.93Z"/><path class="cls-2" d="M480.62,736.56c-18.13,5.53-35.78,6.71-53.29-1.53-25.31-11.91-39.05-38.77-34.19-67.37,4.44-26.1,26.28-45.38,54.16-47.83,34.05-3,61.47,16.74,67.19,48.83,2.44,13.66,1.45,27.22-4.89,39.94-2.81,5.65-2.89,5.61-7.21,1.3-7.78-7.76-15.51-15.56-23.33-23.28-8.54-8.43-18.49-8.65-25.88-.67s-6.67,18.24,1.76,26,16.85,15.6,25.26,23.42C480.41,735.59,480.43,736,480.62,736.56Z"/></svg>