<svg id="Слой_1" data-name="Слой 1" xmlns="http://www.w3.org/2000/svg" viewBox="0 0 1024 1024"><defs><style>.cls-1{fill:#e0e3e5;}.cls-2{fill:#9f65a9;}.cls-3{fill:#afb6bb;}.cls-4{fill:#c8cfd6;}.cls-5{fill:#fcfcfc;}</style></defs><path class="cls-1" d="M909.93,1023.9H242.05c-.13-1.81-1.59-1.76-2.85-2.16a70.87,70.87,0,0,1-20.07-9.76c-16.24-11.65-25.9-27.5-26.81-47.26-1-22.9-.2-45.9-.18-68.85,1.83,0,3.67,0,5.5,0q300.56,0,601.11.21c16.9,0,34.42-15.43,33.25-33.57-.37-5.64,0-11.32-.07-17,0-1.62.43-3.39-1.07-4.68.36-3.8,1-7.6,1-11.41q.09-158.44,0-316.9c0-18.55-14-32.58-32.6-32.58q-240.93,0-481.85,0-62.73,0-125.45-.14c0-1.5,0-3,0-4.5q0-203.43,0-406.87c0-5.14-.08-10.27,1-15.38q8.5-39.83,47.59-51c1.23-.36,2.23-.59,2.4-2H705A6.49,6.49,0,0,1,705,1c-1.77,1.83-1,4.11-1,6.19q-.07,92.32,0,184.67a62,62,0,0,0,18.71,45.27c12.91,12.94,28.83,19.22,47.19,19.08,1.7,3.66,4.64,6.31,7.45,9.08,5.66,5.56,11.35,11.12,16.94,16.75,7.56,7.61,15,15.35,22.57,22.92,9,9,18.31,17.7,27.16,26.84,7.46,7.71,15.28,15.05,22.61,22.89,8.58,9.16,18.07,17.45,26.8,26.48,7.57,7.82,15.31,15.5,23,23.25,9.62,9.76,19.26,19.53,29.12,29,4.72,4.55,8.56,10.15,14.4,13.53,0,.83,0,1.67,0,2.5q0,255.83.05,511.65a47.53,47.53,0,0,1-1,9.38c-5.16,25.78-20.17,42.73-45.27,50.72C912.2,1021.67,910.14,1021.6,909.93,1023.9Z"/><path class="cls-2" d="M192,864.08q-46.72-.08-93.46-.14c-20.88,0-34.43-13.45-34.43-34.3q0-157.93,0-315.88c0-17.34,10.22-30.14,26.52-33.2a57.7,57.7,0,0,1,10.45-.55q45.48-.12,91-.16,62.73.07,125.45.14,240.93,0,481.85,0c18.55,0,32.6,14,32.6,32.58q.06,158.46,0,316.9c0,3.81-.68,7.61-1,11.41C824.5,856.15,813.33,864,796.53,864q-232.83-.11-465.66,0Q261.43,863.94,192,864.08ZM514,679.47c0,23.81,0,47.63,0,71.45,0,5.37,1.49,10,5.83,13.13,5.77,4.22,12.28,5.33,18.89,2.37,6.32-2.83,8.66-8.29,8.63-15,0-15.83.2-31.65-.09-47.47-.09-4.77,1.5-6,6-5.76,7.31.33,14.65.1,22,.08,13,0,26,.14,39-.17,7.83-.18,15-5.82,16.63-12.22,1.48-5.89-2.22-13.55-8.58-17.86a19.28,19.28,0,0,0-11.35-3.11c-19.66.07-39.31,0-59,.1-3.46,0-4.67-1-4.6-4.51.18-10.32.27-20.66-.05-31-.14-4.47,1.3-5.58,5.65-5.54,23.15.21,46.3.17,69.45.06a17.54,17.54,0,0,0,17.57-17.43c0-9-7-15.55-17.2-15.58q-45.72-.16-91.43,0c-11.15.05-17.21,6.4-17.24,17.5C513.93,632.17,514,655.82,514,679.47Zm-202.13,11c0,20.66-.08,41.31,0,62,.06,9.53,6.61,16.17,15.8,16.48,9.66.32,16.59-5.8,17.6-15.26.78-7.33,0-14.64.08-22q.2-25.46.25-50.92c0-17.8.1-35.61,0-53.41,0-3.49,1.07-4.54,4.54-4.49,12.49.19,25,.13,37.47,0,8.2,0,14-3.89,16.43-10.64,4.17-11.56-3.88-22.13-17.19-22.16q-59.46-.14-118.93,0c-10.62,0-17.64,6.57-17.67,16.26,0,10,6.95,16.51,17.86,16.55,12.83,0,25.66.17,38.48-.07,4-.08,5.46.82,5.41,5.15C311.71,648.84,311.84,669.66,311.83,690.48ZM435,679.39q0,35.21,0,70.41c0,12,5.81,18.38,16.71,18.4s17.1-6.41,17.16-18.07c0-7.33,0-14.65,0-22q0-60.42,0-120.85c0-8.31-3.75-13.81-10.81-16.14-12-4-23,3.7-23,16.31C435,631.44,435.05,655.42,435,679.39Z"/><path class="cls-3" d="M705,1q53.21,53.13,106.42,106.25,72.08,72,144.11,144.15c1.17,1.18,2.25,2.44,3.38,3.67-1.68,1.63-3.79,1-5.71,1-17.82.06-35.64,0-53.46,0l-129.88.14c-18.36.14-34.28-6.14-47.19-19.08A62,62,0,0,1,704,191.84q0-92.34,0-184.67C704,5.09,703.24,2.81,705,1Z"/><path class="cls-4" d="M192,864.08q69.45-.08,138.89-.14,232.83,0,465.66,0c16.8,0,28-7.83,34.33-23.08,1.5,1.29,1.06,3.06,1.07,4.68,0,5.66-.3,11.34.07,17,1.17,18.14-16.35,33.6-33.25,33.57q-300.55-.48-601.11-.21c-1.83,0-3.67,0-5.5,0Q192.07,880,192,864.08Z"/><path class="cls-4" d="M769.87,256.19l129.88-.14c17.82,0,35.64,0,53.46,0,1.92,0,4,.67,5.71-1,1.48,1.31,1,3.09,1,4.69q0,93.61,0,187.22c-5.84-3.38-9.68-9-14.4-13.53-9.86-9.5-19.5-19.27-29.12-29-7.64-7.75-15.38-15.43-23-23.25-8.73-9-18.22-17.32-26.8-26.48-7.33-7.84-15.15-15.18-22.61-22.89-8.85-9.14-18.15-17.85-27.16-26.84-7.59-7.57-15-15.31-22.57-22.92-5.59-5.63-11.28-11.19-16.94-16.75C774.51,262.5,771.57,259.85,769.87,256.19Z"/><path class="cls-5" d="M514,679.47c0-23.65,0-47.3,0-71,0-11.1,6.09-17.45,17.24-17.5q45.71-.22,91.43,0c10.24,0,17.18,6.54,17.2,15.58A17.54,17.54,0,0,1,622.28,624c-23.15.11-46.3.15-69.45-.06-4.35,0-5.79,1.07-5.65,5.54.32,10.31.23,20.65.05,31-.07,3.53,1.14,4.54,4.6,4.51,19.65-.14,39.3,0,59-.1A19.28,19.28,0,0,1,622.14,668c6.36,4.31,10.06,12,8.58,17.86-1.62,6.4-8.8,12-16.63,12.22-13,.31-26,.15-39,.17-7.33,0-14.67.25-22-.08-4.46-.2-6,1-6,5.76.29,15.82,0,31.64.09,47.47,0,6.75-2.31,12.21-8.63,15-6.61,3-13.12,1.85-18.89-2.37-4.34-3.17-5.86-7.76-5.83-13.13C514,727.1,514,703.28,514,679.47Z"/><path class="cls-5" d="M311.83,690.48c0-20.82-.12-41.64.11-62.46.05-4.33-1.41-5.23-5.41-5.15-12.82.24-25.65.12-38.48.07-10.91,0-17.88-6.54-17.86-16.55,0-9.69,7.05-16.25,17.67-16.26q59.46-.07,118.93,0c13.31,0,21.36,10.6,17.19,22.16-2.44,6.75-8.23,10.59-16.43,10.64-12.49.08-25,.14-37.47,0-3.47,0-4.56,1-4.54,4.49.15,17.8.09,35.61,0,53.41q-.06,25.46-.25,50.92c-.06,7.32.7,14.63-.08,22-1,9.46-7.94,15.58-17.6,15.26-9.19-.31-15.74-6.95-15.8-16.48C311.75,731.79,311.83,711.14,311.83,690.48Z"/><path class="cls-5" d="M435.05,679.39c0-24-.06-47.95,0-71.92.05-12.61,11-20.27,23-16.31,7.06,2.33,10.81,7.83,10.81,16.14q0,60.42,0,120.85c0,7.33,0,14.65,0,22-.06,11.66-6.19,18.1-17.16,18.07S435,761.77,435,749.8Q435.06,714.6,435.05,679.39Z"/></svg>