<svg id="Слой_1" data-name="Слой 1" xmlns="http://www.w3.org/2000/svg" viewBox="0 0 1024 1024"><defs><style>.cls-1{fill:#e0e3e5;}.cls-2{fill:#576c7d;}.cls-3{fill:#afb6bb;}.cls-4{fill:#c8cfd6;}.cls-5{fill:#fcfcfc;}</style></defs><path class="cls-1" d="M909.93,1023.9H242.05c-.13-1.81-1.59-1.76-2.85-2.16a71.73,71.73,0,0,1-20.08-9.76c-16.3-11.61-25.81-27.58-26.78-47.26-1.13-22.9-.22-45.9-.2-68.85,1.83,0,3.67,0,5.5,0q300.57,0,601.14.21c16.85,0,34.4-15.42,33.22-33.59-.37-5.64,0-11.33-.07-17,0-1.61.43-3.39-1.11-4.65.39-4,1.17-7.88,1.17-11.91q-.07-157.95-.07-315.89c0-19.22-13.92-33.1-33.11-33.1H316.47q-62.22,0-124.45-.15c0-1.33,0-2.67,0-4q0-203.43,0-406.87c0-5.31-.11-10.61,1-15.88q8.5-39.83,47.59-51c1.23-.36,2.23-.59,2.4-2H705A6.49,6.49,0,0,1,705,1c-1.77,1.83-1,4.11-1,6.19q-.07,92.32,0,184.67a62,62,0,0,0,18.71,45.27c12.91,12.94,28.83,19.22,47.19,19.08,1.7,3.66,4.64,6.31,7.45,9.08,5.66,5.56,11.35,11.12,16.94,16.75,7.56,7.61,15,15.35,22.57,22.92,9,9,18.31,17.7,27.16,26.84,7.46,7.71,15.27,15.05,22.61,22.89,8.58,9.16,18.07,17.45,26.8,26.48,7.57,7.83,15.31,15.5,23,23.25,9.62,9.76,19.26,19.53,29.12,29,4.72,4.55,8.56,10.15,14.4,13.53,0,.83,0,1.67,0,2.5q0,255.83.05,511.65a47.53,47.53,0,0,1-1,9.38c-5.16,25.78-20.17,42.73-45.27,50.72C912.2,1021.67,910.14,1021.6,909.93,1023.9Z"/><path class="cls-2" d="M192,864.08q-46.49-.08-93-.14c-21.61,0-34.94-13.24-34.94-34.79q0-157.7,0-315.41c0-17.44,10.56-30.46,27-33.29a60.06,60.06,0,0,1,10-.44q45.48-.12,91-.16,62.23.07,124.45.15H798.81c19.19,0,33.11,13.88,33.11,33.1Q832,671,832,829c0,4-.78,7.94-1.17,11.91C824.59,856.3,813.31,864,796.56,864q-232.59-.08-465.17,0Q261.69,863.94,192,864.08ZM522.15,607.64a17.84,17.84,0,0,0-11.58-16.36c-6.63-2.43-12.33-.78-17.23,5.33q-20.62,25.73-41.08,51.59c-2.46,3.13-3.67,4.06-6.67.23C431.92,631,417.85,613.9,404,596.61c-4-5-8.85-7.52-15.25-6.21-14.05,2.88-18.93,16.68-9.84,27.8Q398,641.61,417.19,665c2.93,3.6,8,7.45,7.86,11-.14,3.93-5.06,7.75-8,11.52-14.08,18-28.26,35.83-42.28,53.83-6.53,8.37-4.87,17.73,3.89,23.69,8.13,5.53,17.47,3.85,23.68-4.38,14.43-19.15,28.89-38.29,43.15-57.56,2.35-3.18,3.35-3.32,5.84-.08q22.05,28.74,44.52,57.14c7,8.86,17.53,10,25.52,3.35,7.44-6.21,7.61-15.41.46-24.33-15.95-19.87-31.83-39.8-47.91-59.56-2.24-2.75-2.25-4.36-.08-7.14,13.83-17.74,27.92-35.25,42.47-52.4C519.45,616.37,522.41,612.56,522.15,607.64ZM299.28,690.21c0-20.82.12-41.63-.1-62.44,0-4.06,1.22-5,5-4.91,12.49.23,25,.16,37.47.06,10.21-.08,17.14-6.67,17.26-16.16s-6.69-16.27-16.85-16.61c-5-.17-10,0-15,0q-52.2,0-104.4,0c-7.53,0-13.84,2.09-17.08,9.59-4.9,11.33,2.43,23,14.89,23.2,13.48.26,27,.15,40.46,0,3.27,0,4.65.58,4.63,4.29-.13,30.3-.08,60.59,0,90.89,0,12,0,24,.29,36,.16,6.88,4,11.52,10.38,13.85,11.56,4.22,22.86-3.39,23-15.71C299.4,731.5,299.27,710.85,299.28,690.21Zm330.94.28h0c0-21,.09-42-.09-62.94,0-3.78,1.06-4.77,4.78-4.7,12.48.23,25,.14,37.46.07,6.55,0,12.14-2.18,15.39-8.33,6.25-11.82-1.65-24.37-15.54-24.44-26.64-.12-53.28,0-79.93,0-13.32,0-26.64-.09-40,0-8.39.08-14,4-16.27,10.75-3.79,11.42,3.58,21.87,15.74,22,13.49.15,27,.16,40.47,0,3.54-.06,4.44,1,4.41,4.49-.15,19.48-.06,39-.06,58.44,0,21.82-.06,43.63,0,65.44,0,8.83,3.71,14.36,10.76,16.71,11.81,3.93,22.67-3.56,22.76-16C630.33,731.45,630.22,711,630.22,690.49Z"/><path class="cls-3" d="M705,1q53.21,53.13,106.42,106.25,72.08,72,144.11,144.15c1.17,1.18,2.25,2.44,3.38,3.67-1.68,1.63-3.79,1-5.71,1-17.82.06-35.64,0-53.46,0l-129.88.14c-18.36.14-34.28-6.14-47.19-19.08A62,62,0,0,1,704,191.84q0-92.34,0-184.67C704,5.09,703.24,2.81,705,1Z"/><path class="cls-4" d="M192,864.08q69.7-.08,139.4-.14,232.58,0,465.17,0c16.75,0,28-7.67,34.26-23.07,1.54,1.26,1.1,3,1.11,4.65,0,5.66-.3,11.35.07,17,1.18,18.17-16.37,33.62-33.22,33.59q-300.57-.48-601.14-.21c-1.83,0-3.67,0-5.5,0Z"/><path class="cls-4" d="M769.87,256.19l129.88-.14c17.82,0,35.64,0,53.46,0,1.92,0,4,.67,5.71-1,1.48,1.31,1,3.09,1,4.69q0,93.61,0,187.22c-5.84-3.38-9.68-9-14.4-13.53-9.86-9.5-19.5-19.27-29.12-29-7.64-7.75-15.38-15.42-23-23.25-8.73-9-18.22-17.32-26.8-26.48-7.34-7.84-15.15-15.18-22.61-22.89-8.85-9.14-18.15-17.85-27.16-26.84-7.59-7.57-15-15.31-22.57-22.92-5.59-5.63-11.28-11.19-16.94-16.75C774.51,262.5,771.57,259.85,769.87,256.19Z"/><path class="cls-5" d="M522.15,607.64c.26,4.92-2.7,8.73-5.86,12.46-14.55,17.15-28.64,34.66-42.47,52.4-2.17,2.78-2.16,4.39.08,7.14,16.08,19.76,32,39.69,47.91,59.56,7.15,8.92,7,18.12-.46,24.33-8,6.67-18.5,5.51-25.52-3.35Q473.33,731.8,451.31,703c-2.49-3.24-3.49-3.1-5.84.08-14.26,19.27-28.72,38.41-43.15,57.56-6.21,8.23-15.55,9.91-23.68,4.38-8.76-6-10.42-15.32-3.89-23.69,14-18,28.2-35.87,42.28-53.83,3-3.77,7.88-7.59,8-11.52.12-3.58-4.93-7.43-7.86-11q-19.1-23.43-38.27-46.79c-9.09-11.12-4.21-24.92,9.84-27.8,6.4-1.31,11.26,1.22,15.25,6.21,13.84,17.29,27.91,34.4,41.58,51.82,3,3.83,4.21,2.9,6.67-.23q20.39-25.92,41.08-51.59c4.9-6.11,10.6-7.76,17.23-5.33A17.84,17.84,0,0,1,522.15,607.64Z"/><path class="cls-5" d="M299.27,690.21c0,20.64.13,41.29,0,61.94-.12,12.32-11.42,19.93-23,15.71-6.39-2.33-10.22-7-10.38-13.85-.29-12-.27-24-.29-36,0-30.3-.09-60.59,0-90.89,0-3.71-1.36-4.32-4.63-4.29-13.49.15-27,.26-40.46,0-12.46-.24-19.79-11.87-14.89-23.2,3.24-7.5,9.55-9.6,17.08-9.59q52.2,0,104.4,0c5,0,10-.13,15,0,10.16.34,17,7.13,16.85,16.61s-7.05,16.08-17.26,16.16c-12.49.1-25,.17-37.47-.06-3.82-.06-5.08.85-5,4.91C299.4,648.58,299.28,669.39,299.27,690.21Z"/><path class="cls-5" d="M630.22,690.49c0,20.48.11,41,0,61.44-.09,12.46-10.95,20-22.76,16-7-2.35-10.73-7.88-10.76-16.71-.07-21.81,0-43.62,0-65.44,0-19.48-.09-39,.06-58.44,0-3.46-.87-4.55-4.41-4.49-13.49.2-27,.19-40.47,0-12.16-.14-19.53-10.59-15.74-22,2.25-6.8,7.88-10.67,16.27-10.75,13.32-.13,26.64,0,40,0,26.65,0,53.29-.08,79.93,0,13.89.07,21.79,12.62,15.54,24.44-3.25,6.15-8.84,8.3-15.39,8.33-12.49.07-25,.16-37.46-.07-3.72-.07-4.81.92-4.78,4.7.18,21,.09,42,.09,62.94Z"/></svg>