<svg id="Слой_1" data-name="Слой 1" xmlns="http://www.w3.org/2000/svg" viewBox="0 0 1024 1024"><defs><style>.cls-1{fill:#e0e3e5;}.cls-2{fill:#83bb59;}.cls-3{fill:#afb6bb;}.cls-4{fill:#c8cfd6;}.cls-5{fill:#fcfcfb;}</style></defs><path class="cls-1" d="M909.93,1023.9H242.05c-.13-1.81-1.59-1.76-2.85-2.16a70.87,70.87,0,0,1-20.07-9.76c-16.24-11.65-25.9-27.5-26.81-47.26-1-22.9-.2-45.9-.18-68.85q104.21,0,208.4,0,200.41,0,400.82-.1c16.45,0,28.55-13.18,30.33-27.9,1.2-10,.07-20.29,0-30.44.09-2.83.26-5.66.26-8.49q0-157.95,0-315.89c0-19.2-13.94-33.1-33.12-33.1H315.48q-61.74,0-123.46-.15c0-1.33,0-2.67,0-4q0-203.43,0-406.87c0-5.31-.11-10.61,1-15.88q8.5-39.83,47.59-51c1.23-.36,2.23-.59,2.4-2H705A6.49,6.49,0,0,1,705,1c-1.77,1.83-1,4.11-1,6.19q-.07,92.32,0,184.67a62,62,0,0,0,18.71,45.27c12.91,12.94,28.83,19.22,47.19,19.08,1.7,3.66,4.64,6.31,7.45,9.08,5.66,5.56,11.35,11.12,16.94,16.75,7.56,7.61,15,15.35,22.57,22.92,9,9,18.31,17.7,27.16,26.84,7.46,7.71,15.28,15.05,22.61,22.89,8.58,9.16,18.07,17.45,26.8,26.48,7.57,7.83,15.31,15.5,23,23.25,9.62,9.76,19.26,19.53,29.12,29,4.72,4.55,8.56,10.15,14.4,13.53,0,.83,0,1.67,0,2.5q0,255.83.05,511.65a47.53,47.53,0,0,1-1,9.38c-5.16,25.78-20.17,42.73-45.27,50.72C912.2,1021.67,910.14,1021.6,909.93,1023.9Z"/><path class="cls-2" d="M192,864.08q-46.47-.08-93-.14c-21.59,0-34.94-13.25-34.94-34.79q0-157.7,0-315.4c0-17.47,10.55-30.48,27-33.31a60.06,60.06,0,0,1,10-.43q45.48-.12,91-.16,61.72.07,123.46.15H798.81c19.18,0,33.11,13.9,33.12,33.1q0,157.95,0,315.89c0,2.83-.17,5.66-.26,8.49-6.12,20.77-20.74,26.61-38.15,26.59q-232.57-.35-465.15-.14Q260.19,863.95,192,864.08Zm415-91.16c3.5,0,7,.28,10.48,0,16.19-1.55,31.16-6.15,44.13-16.62,20.68-16.71,29.34-62.5-8.92-81.2-10.83-5.29-22.28-8.69-33.79-12-9.74-2.81-19.68-5.08-28.83-9.59-5.91-2.92-11.33-6.55-13.19-13.46-3.2-11.84,5.39-23.48,19.25-26,17.32-3.08,33.41.6,48.4,9.42,5.44,3.21,10.74,3.44,16,0s7.25-8.6,6.44-14.72c-.76-5.75-4.61-9.4-9.1-12.52-24.49-17.06-65.86-17.62-91.19-1.83-28.79,17.94-28.21,56.51-11.63,72.9,6.65,6.57,14.55,11,23.08,14.51,13.59,5.54,28,8.52,41.87,13.14,7.13,2.37,14.17,5,19.77,10.25,3.75,3.53,6.58,7.78,5.85,13.17-1.28,9.43-6.22,16.37-15.18,20.1a45.39,45.39,0,0,1-21,3.15c-16.22-1.21-31.28-5.71-44.88-15-8.6-5.86-19.82-1.2-22.57,8.88-2.33,8.53,0,15.46,7.61,21C566.69,768.85,586.31,772.93,607,772.92Zm-245-165.53c.05-6.78-4.79-13.53-11.51-16s-12.47-.85-17.59,5.55q-20.59,25.74-41,51.6c-2.36,3-3.52,3.68-6.29.15-13.79-17.54-27.91-34.82-41.89-52.21a16,16,0,0,0-7.47-5.59c-6.78-2.25-15.29.91-19.67,7.36-4.08,6-3.39,13.17,2,19.79,14.72,18.08,29.39,36.19,44.26,54.14,2.49,3,2.51,4.9,0,8q-24.18,30.21-48,60.76c-7.15,9.12-5.18,19.19,4.67,24.93,8,4.66,16.62,2.8,22.46-4.95q21-27.95,42-55.92c4.12-5.48,4.15-5.51,8.52,0,5.15,6.54,10.25,13.12,15.36,19.69q13.51,17.33,27,34.66c4.21,5.41,9.37,9.14,16.6,8.27,6.55-.8,11.63-4.12,14.27-10.32,2.74-6.41.61-12.08-3.46-17.18-16-20-32-40.09-48.24-59.93-2.74-3.34-2.32-5.26.12-8.38q20.58-26.4,42.14-52C359.44,616.18,362.18,612.45,362.05,607.39Zm32.84,72.08h0q0,35.47,0,70.95c0,11.57,5.9,17.49,17.52,17.51q39,0,77.94,0c2.5,0,5,.11,7.49-.07,9.57-.7,16.49-7.38,16.74-16,.26-8.84-5.94-15.68-15.58-17.05a50.66,50.66,0,0,0-7-.48c-20,0-40-.23-60,.12-5.24.1-6.2-1.49-6.17-6.38.2-39.8.09-79.6.14-119.41,0-3.93-.52-7.6-2.74-10.93a15,15,0,0,0-17-6.42A15.36,15.36,0,0,0,394.93,606C394.84,630.51,394.89,655,394.89,679.47Z"/><path class="cls-3" d="M705,1q53.21,53.13,106.42,106.25,72.08,72,144.11,144.15c1.17,1.18,2.25,2.44,3.38,3.67-1.68,1.63-3.79,1-5.71,1-17.82.06-35.64,0-53.46,0l-129.88.14c-18.36.14-34.28-6.14-47.19-19.08A62,62,0,0,1,704,191.84q0-92.34,0-184.67C704,5.09,703.24,2.81,705,1Z"/><path class="cls-4" d="M192,864.08q68.2-.08,136.39-.15,232.58,0,465.15.14c17.41,0,32-5.82,38.15-26.59.08,10.15,1.21,20.44,0,30.44-1.78,14.72-13.88,27.87-30.33,27.9q-200.42.28-400.82.1-104.19,0-208.4,0Z"/><path class="cls-4" d="M769.87,256.19l129.88-.14c17.82,0,35.64,0,53.46,0,1.92,0,4,.67,5.71-1,1.48,1.31,1,3.09,1,4.69q0,93.61,0,187.22c-5.84-3.38-9.68-9-14.4-13.53-9.86-9.5-19.5-19.27-29.12-29-7.64-7.75-15.38-15.42-23-23.25-8.73-9-18.22-17.32-26.8-26.48-7.33-7.84-15.15-15.18-22.61-22.89-8.85-9.14-18.15-17.85-27.16-26.84-7.59-7.57-15-15.31-22.57-22.92-5.59-5.63-11.28-11.19-16.94-16.75C774.51,262.5,771.57,259.85,769.87,256.19Z"/><path class="cls-5" d="M607,772.92c-20.72,0-40.34-4.07-57.48-16.48-7.59-5.51-9.94-12.44-7.61-21,2.75-10.08,14-14.74,22.57-8.88,13.6,9.27,28.66,13.77,44.88,15a45.39,45.39,0,0,0,21-3.15c9-3.73,13.9-10.67,15.18-20.1.73-5.39-2.1-9.64-5.85-13.17-5.6-5.27-12.64-7.88-19.77-10.25-13.88-4.62-28.28-7.6-41.87-13.14-8.53-3.48-16.43-7.94-23.08-14.51-16.58-16.39-17.16-55,11.63-72.9,25.33-15.79,66.7-15.23,91.19,1.83,4.49,3.12,8.34,6.77,9.1,12.52.81,6.12-1.25,11.25-6.44,14.72s-10.51,3.25-16,0c-15-8.82-31.08-12.5-48.4-9.42-13.86,2.47-22.45,14.11-19.25,26,1.86,6.91,7.28,10.54,13.19,13.46,9.15,4.51,19.09,6.78,28.83,9.59,11.51,3.32,23,6.72,33.79,12,38.26,18.7,29.6,64.49,8.92,81.2-13,10.47-27.94,15.07-44.13,16.62C614.05,773.2,610.53,772.92,607,772.92Z"/><path class="cls-5" d="M362.05,607.39c.13,5.06-2.61,8.79-5.66,12.4q-21.63,25.56-42.14,52c-2.44,3.12-2.86,5-.12,8.38,16.25,19.84,32.22,39.91,48.24,59.93,4.07,5.1,6.2,10.77,3.46,17.18-2.64,6.2-7.72,9.52-14.27,10.32-7.23.87-12.39-2.86-16.6-8.27q-13.53-17.33-27-34.66c-5.11-6.57-10.21-13.15-15.36-19.69-4.37-5.56-4.4-5.53-8.52,0q-21,28-42,55.92c-5.84,7.75-14.46,9.61-22.46,4.95-9.85-5.74-11.82-15.81-4.67-24.93q23.86-30.48,48-60.76c2.47-3.08,2.45-5,0-8C248,654.19,233.31,636.08,218.59,618c-5.39-6.62-6.08-13.78-2-19.79,4.38-6.45,12.89-9.61,19.67-7.36a16,16,0,0,1,7.47,5.59c14,17.39,28.1,34.67,41.89,52.21,2.77,3.53,3.93,2.84,6.29-.15q20.38-25.9,41-51.6c5.12-6.4,10.78-8.1,17.59-5.55S362.1,600.61,362.05,607.39Z"/><path class="cls-5" d="M394.89,679.47c0-24.48-.05-49,0-73.44a15.36,15.36,0,0,1,11.36-14.74,15,15,0,0,1,17,6.42c2.22,3.33,2.75,7,2.74,10.93,0,39.81.06,79.61-.14,119.41,0,4.89.93,6.48,6.17,6.38,20-.35,40-.15,60-.12a50.66,50.66,0,0,1,7,.48c9.64,1.37,15.84,8.21,15.58,17.05-.25,8.65-7.17,15.33-16.74,16-2.48.18-5,.07-7.49.07q-39,0-77.94,0c-11.62,0-17.51-5.94-17.52-17.51q0-35.48,0-70.95Z"/></svg>