<svg id="Слой_1" data-name="Слой 1" xmlns="http://www.w3.org/2000/svg" viewBox="0 0 1024 1024"><defs><style>.cls-1{fill:#e0e3e5;}.cls-2{fill:#83bb59;}.cls-3{fill:#afb6bb;}.cls-4{fill:#c8cfd6;}.cls-5{fill:#fcfcfb;}</style></defs><path class="cls-1" d="M909.93,1023.9H242.05c-.13-1.81-1.59-1.76-2.85-2.16a70.87,70.87,0,0,1-20.07-9.76c-16.24-11.65-25.9-27.5-26.81-47.26-1-22.9-.2-45.9-.18-68.85q104.21,0,208.4,0,200.41,0,400.82-.1c16.45,0,28.55-13.18,30.33-27.9,1.2-10,.07-20.29,0-30.44.09-2.83.26-5.66.26-8.49q0-157.95,0-315.89c0-19.2-13.94-33.1-33.12-33.1H315.48q-61.74,0-123.46-.15c0-1.33,0-2.67,0-4q0-203.43,0-406.87c0-5.31-.11-10.61,1-15.88q8.5-39.83,47.59-51c1.23-.36,2.23-.59,2.4-2H705A6.49,6.49,0,0,1,705,1c-1.77,1.83-1,4.11-1,6.19q-.07,92.32,0,184.67a62,62,0,0,0,18.71,45.27c12.91,12.94,28.83,19.22,47.19,19.08,1.7,3.66,4.64,6.31,7.45,9.08,5.66,5.56,11.35,11.12,16.94,16.75,7.56,7.61,15,15.35,22.57,22.92,9,9,18.31,17.7,27.16,26.84,7.46,7.71,15.28,15.05,22.61,22.89,8.58,9.16,18.07,17.45,26.8,26.48,7.57,7.83,15.31,15.5,23,23.25,9.62,9.76,19.26,19.53,29.12,29,4.72,4.55,8.56,10.15,14.4,13.53,0,.83,0,1.67,0,2.5q0,255.83.05,511.65a47.53,47.53,0,0,1-1,9.38c-5.16,25.78-20.17,42.73-45.27,50.72C912.2,1021.67,910.14,1021.6,909.93,1023.9Z"/><path class="cls-2" d="M192,864.08q-46.47-.08-93-.14c-21.59,0-34.94-13.25-34.94-34.79q0-157.7,0-315.4c0-17.47,10.55-30.48,27-33.31a60.06,60.06,0,0,1,10-.43q45.48-.12,91-.16,61.72.07,123.46.15H798.81c19.18,0,33.11,13.9,33.12,33.1q0,157.95,0,315.89c0,2.83-.17,5.66-.26,8.49-6.13,20.77-20.74,26.61-38.15,26.59q-232.57-.35-465.15-.14Q260.19,863.95,192,864.08ZM503.13,678.47c0,23.83-.1,47.65.05,71.48.06,10.66,7.81,18.17,18,18,9.55-.17,15.78-7.21,15.83-18.05.06-9.5.17-19-.08-28.49-.09-3.66.88-4.9,4.7-4.83,12,.25,24,.2,36,.09,20-.18,37.85-5.93,51.16-21.7,16.6-19.66,19.17-52.29,6-75.72-11-19.49-28.39-29.3-50.32-30.2-20.3-.82-40.65-.27-61-.29-13.43,0-20.29,6.81-20.3,20.22Q503.1,643.73,503.13,678.47ZM320.46,768c18.66,0,37.32.1,56,0,13.84-.1,21.61-12.32,15.48-24.08-3.56-6.84-9.72-8.5-16.81-8.49q-37,.09-74,0c-1.59,0-3.79.81-4.64-.71-.95-1.69,1.19-2.87,2.13-4.1q42.18-54.87,84.43-109.7a37.16,37.16,0,0,0,4.51-7.16c5.71-12.57-1.26-24.42-15.05-24.55-35.32-.31-70.65-.21-106-.08-8.11,0-14,6.17-14.68,14.21-.83,10.53,5,16.89,16.09,17,23,.13,46,0,69,.06,1.59,0,3.79-.84,4.65.66s-1.14,2.87-2.07,4.11q-43.38,57.74-86.83,115.41c-2.12,2.81-4.11,5.66-4.61,9.27C246.66,760,253.71,767.8,265,767.9,283.46,768.06,302,768,320.46,768ZM458,679.43q0-36,0-71.93c0-8.28-3.11-13.17-9.73-15.83-12.42-5-24.11,2.75-24.14,16.11-.05,20.31,0,40.63,0,60.94,0,27.47,0,54.94,0,82.41,0,9.07,4.27,14.82,12.05,16.71,12.09,2.93,21.78-4.55,21.81-17C458,727.05,458,703.24,458,679.43Z"/><path class="cls-3" d="M705,1q53.21,53.13,106.42,106.25,72.08,72,144.11,144.15c1.17,1.18,2.25,2.44,3.38,3.67-1.68,1.63-3.79,1-5.71,1-17.82.06-35.64,0-53.46,0l-129.88.14c-18.36.14-34.28-6.14-47.19-19.08A62,62,0,0,1,704,191.84q0-92.34,0-184.67C704,5.09,703.24,2.81,705,1Z"/><path class="cls-4" d="M192,864.08q68.2-.08,136.39-.15,232.58,0,465.15.14c17.41,0,32-5.82,38.15-26.59.08,10.15,1.21,20.44,0,30.44-1.78,14.72-13.88,27.87-30.33,27.9q-200.42.28-400.82.1-104.19,0-208.4,0Z"/><path class="cls-4" d="M769.87,256.19l129.88-.14c17.82,0,35.64,0,53.46,0,1.92,0,4,.67,5.71-1,1.48,1.31,1,3.09,1,4.69q0,93.61,0,187.22c-5.84-3.38-9.68-9-14.4-13.53-9.86-9.5-19.5-19.27-29.12-29-7.64-7.75-15.38-15.42-23-23.25-8.73-9-18.22-17.32-26.8-26.48-7.33-7.84-15.15-15.18-22.61-22.89-8.85-9.14-18.15-17.85-27.16-26.84-7.59-7.57-15-15.31-22.57-22.92-5.59-5.63-11.28-11.19-16.94-16.75C774.51,262.5,771.57,259.85,769.87,256.19Z"/><path class="cls-5" d="M503.13,678.47q0-34.74,0-69.49c0-13.41,6.87-20.24,20.3-20.22,20.33,0,40.68-.53,61,.29,21.93.9,39.34,10.71,50.32,30.2,13.2,23.43,10.63,56.06-6,75.72-13.31,15.77-31.14,21.52-51.16,21.7-12,.11-24,.16-36-.09-3.82-.07-4.79,1.17-4.7,4.83.25,9.49.14,19,.08,28.49,0,10.84-6.28,17.88-15.83,18.05-10.17.17-17.92-7.34-18-18C503,726.12,503.13,702.3,503.13,678.47Zm33.86-26v28.46c0,1.81-.38,3.83,2.54,3.76,15.13-.35,30.34,1.24,45.38-.79,15.55-2.09,26.41-17.19,25.22-33.79C609,634.31,595.92,621.24,580.59,621c-13.15-.23-26.3,0-39.45-.14-3.22,0-4.3.84-4.23,4.16C537.13,634.14,537,643.3,537,652.45Z"/><path class="cls-5" d="M320.46,768c-18.5,0-37,.11-55.49-.05-11.26-.1-18.31-7.9-16.9-18.17.5-3.61,2.49-6.46,4.61-9.27q43.44-57.69,86.83-115.41c.93-1.24,3-2.47,2.07-4.11s-3.06-.66-4.65-.66c-23,0-46,.07-69-.06-11.08-.07-16.92-6.43-16.09-17,.63-8,6.57-14.18,14.68-14.21,35.33-.13,70.66-.23,106,.08,13.79.13,20.76,12,15.05,24.55a37.16,37.16,0,0,1-4.51,7.16q-42.18,54.87-84.43,109.7c-.94,1.23-3.08,2.41-2.13,4.1.85,1.52,3.05.71,4.64.71q37,.06,74,0c7.09,0,13.25,1.65,16.81,8.49,6.13,11.76-1.64,24-15.48,24.08C357.78,768.05,339.12,768,320.46,768Z"/><path class="cls-5" d="M458,679.43c0,23.81,0,47.62,0,71.42,0,12.44-9.72,19.92-21.81,17-7.78-1.89-12-7.64-12.05-16.71-.06-27.47,0-54.94,0-82.41,0-20.31,0-40.63,0-60.94,0-13.36,11.72-21.12,24.14-16.11,6.62,2.66,9.72,7.55,9.73,15.83Q458,643.47,458,679.43Z"/><path class="cls-2" d="M537,652.45c0-9.15.14-18.31-.08-27.46-.07-3.32,1-4.2,4.23-4.16,13.15.17,26.3-.09,39.45.14,15.33.27,28.41,13.34,29.54,29.12,1.19,16.6-9.67,31.7-25.22,33.79-15,2-30.25.44-45.38.79-2.92.07-2.53-1.95-2.54-3.76Z"/></svg>