<svg id="Слой_1" data-name="Слой 1" xmlns="http://www.w3.org/2000/svg" viewBox="0 0 1024 1024"><defs><style>.cls-1{fill:#e0e3e5;}.cls-2{fill:#50bce6;}.cls-3{fill:#afb6bb;}.cls-4{fill:#c8cfd6;}.cls-5{fill:#fbfcfc;}</style></defs><path class="cls-1" d="M909.93,1023.9H242.05c-.13-1.81-1.59-1.76-2.85-2.16a70.87,70.87,0,0,1-20.07-9.76c-16.24-11.65-25.9-27.5-26.81-47.26-1-22.9-.2-45.9-.18-68.85q84.21,0,168.4,0,220.38,0,440.75-.1c16.48,0,28.57-13.13,30.39-27.83,1.24-10,.09-20.28,0-30.44.09-2.83.25-5.66.25-8.49q0-158,0-315.92c0-19.26-13.87-33.14-33.06-33.14H317q-62.48,0-125-.15,0-204.69,0-409.37c0-5.81-.23-11.61,1-17.38q8.5-39.83,47.59-51c1.23-.36,2.23-.59,2.4-2H705A6.49,6.49,0,0,1,705,1c-1.77,1.83-1,4.11-1,6.19q-.07,92.32,0,184.67a62,62,0,0,0,18.71,45.27c12.91,12.94,28.83,19.22,47.19,19.08,1.7,3.66,4.64,6.31,7.45,9.08,5.66,5.56,11.35,11.12,16.94,16.75,7.56,7.61,15,15.35,22.57,22.92,9,9,18.31,17.7,27.16,26.84,7.46,7.71,15.28,15.05,22.61,22.89,8.58,9.16,18.07,17.45,26.8,26.48,7.57,7.83,15.31,15.5,23,23.25,9.62,9.76,19.26,19.53,29.12,29,4.72,4.55,8.56,10.15,14.4,13.53,0,.83,0,1.67,0,2.5q0,255.83.05,511.65a47.53,47.53,0,0,1-1,9.38c-5.16,25.78-20.17,42.73-45.27,50.72C912.2,1021.67,910.14,1021.6,909.93,1023.9Z"/><path class="cls-2" d="M192,864.08q-46.74-.08-93.47-.14c-20.87,0-34.44-13.46-34.44-34.29q0-158.21,0-316.41c0-16.88,10.35-29.63,26.51-32.69a54.07,54.07,0,0,1,10-.54q45.74-.12,91.47-.16,62.47.07,125,.15H798.87c19.19,0,33,13.88,33.06,33.14q0,158,0,315.92c0,2.83-.16,5.66-.24,8.49C825.44,858.29,811,864.11,793,864.08q-232.54-.37-465.1-.14Q259.93,863.94,192,864.08ZM359.43,678.39c1,55.86,39.93,93.28,96,92.3,54.54-1,93.3-40.33,92.23-93.77-1.25-62-49.81-91.66-92.73-92.12C406.45,584.27,359.59,616.84,359.43,678.39Zm-192,1c0,23.48-.07,47,0,70.44,0,11.63,6,18,17.32,18,22.14.15,44.32.7,66.43-.2,29.33-1.19,52.27-14.34,67.07-40.16,10.5-18.31,13.89-38.1,11.93-59.14C326,623.77,292,591.67,247.24,591c-20.31-.28-40.63-.12-60.94-.06-11.86,0-18.9,7.2-18.9,19Q167.39,644.69,167.4,679.4Zm410.41-1.19a98.36,98.36,0,0,0,2.3,24.34c5.69,25.74,18.77,46.21,43.12,57.9,22.66,10.88,46.56,11.43,70.8,6.75a68,68,0,0,0,33.47-16.87c7.94-7.26,9-18.35,2.7-25.48s-16.57-7.33-25-.35a67.79,67.79,0,0,1-11.58,7.78c-24.77,13-56.13,7-72.1-14.46-10.54-14.14-13.72-30.44-11.67-47.78,2.56-21.59,12.27-38.75,33.37-46.41s42.11-7.87,60.05,9.28c7.53,7.19,18.63,6.83,24.51-.15,6.31-7.48,4.92-18-3-24.86-20.8-18.1-45-24.4-72-20.68-19,2.62-35.87,9.83-49.49,23.72C584.92,629.64,578,652.67,577.81,678.21Z"/><path class="cls-3" d="M705,1q53.21,53.13,106.42,106.25,72.08,72,144.11,144.15c1.17,1.18,2.25,2.44,3.38,3.67-1.68,1.63-3.79,1-5.71,1-17.82.06-35.64,0-53.46,0l-129.88.14c-18.36.14-34.28-6.14-47.19-19.08A62,62,0,0,1,704,191.84q0-92.34,0-184.67C704,5.09,703.24,2.81,705,1Z"/><path class="cls-4" d="M192,864.08q67.94-.08,135.87-.14,232.54,0,465.1.14c18,0,32.47-5.79,38.73-26.53.07,10.16,1.22,20.45,0,30.44-1.82,14.7-13.91,27.81-30.39,27.83q-220.38.27-440.75.1-84.19,0-168.4,0Q192.07,880,192,864.08Z"/><path class="cls-4" d="M769.87,256.19l129.88-.14c17.82,0,35.64,0,53.46,0,1.92,0,4,.67,5.71-1,1.48,1.31,1,3.09,1,4.69q0,93.61,0,187.22c-5.84-3.38-9.68-9-14.4-13.53-9.86-9.5-19.5-19.27-29.12-29-7.64-7.75-15.38-15.42-23-23.25-8.73-9-18.22-17.32-26.8-26.48-7.33-7.84-15.15-15.18-22.61-22.89-8.85-9.14-18.15-17.85-27.16-26.84-7.59-7.57-15-15.31-22.57-22.92-5.59-5.63-11.28-11.19-16.94-16.75C774.51,262.5,771.57,259.85,769.87,256.19Z"/><path class="cls-5" d="M359.43,678.39c.16-61.55,47-94.12,95.54-93.59,42.92.46,91.48,30.11,92.73,92.12,1.07,53.44-37.69,92.82-92.23,93.77C399.36,771.67,360.42,734.25,359.43,678.39Zm154.58.17c0-35.24-25.57-60.65-61-60.64-34.25,0-59.68,25.67-59.79,60.33s25.68,60.81,60,60.74C488.33,738.92,514,713.38,514,678.56Z"/><path class="cls-5" d="M167.4,679.4q0-34.71,0-69.43c0-11.79,7-19,18.9-19,20.31-.06,40.63-.22,60.94.06,44.76.63,78.79,32.73,82.94,77.35,2,21-1.43,40.83-11.93,59.14-14.8,25.82-37.74,39-67.07,40.16-22.11.9-44.29.35-66.43.2-11.29-.07-17.27-6.42-17.32-18C167.33,726.36,167.4,702.88,167.4,679.4Zm33.83-.45c0,17.81,0,35.63,0,53.45,0,2.9.29,4.59,4,4.53,13.31-.21,26.64.15,40-.19,11.58-.3,22.49-3.4,31.25-11.37,19.33-17.59,24.12-39.69,17.86-64.19-5.64-22.1-19.93-35.79-43.15-38.45-15.57-1.78-31.27-.32-46.91-.69-3.58-.09-2.91,2.4-2.91,4.45Q201.2,652.73,201.23,679Z"/><path class="cls-5" d="M577.81,678.21c.19-25.54,7.11-48.57,25.44-67.27,13.62-13.89,30.5-21.1,49.49-23.72,27-3.72,51.18,2.58,72,20.68,7.94,6.91,9.33,17.38,3,24.86-5.88,7-17,7.34-24.51.15-17.94-17.15-38.81-17-60.05-9.28S612.37,648.45,609.81,670c-2,17.34,1.13,33.64,11.67,47.78,16,21.42,47.33,27.5,72.1,14.46a67.79,67.79,0,0,0,11.58-7.78c8.47-7,18.69-6.81,25,.35s5.24,18.22-2.7,25.48A68,68,0,0,1,694,767.2c-24.24,4.68-48.14,4.13-70.8-6.75-24.35-11.69-37.43-32.16-43.12-57.9A98.36,98.36,0,0,1,577.81,678.21Z"/><path class="cls-2" d="M514,678.56c0,34.82-25.68,60.36-60.79,60.43-34.3.07-60.1-26-60-60.74s25.54-60.31,59.79-60.33C488.44,617.91,514,643.32,514,678.56Z"/><path class="cls-2" d="M201.23,679q0-26.24,0-52.46c0-2-.67-4.54,2.91-4.45,15.64.37,31.34-1.09,46.91.69,23.22,2.66,37.51,16.35,43.15,38.45,6.26,24.5,1.47,46.6-17.86,64.19-8.76,8-19.67,11.07-31.25,11.37-13.32.34-26.65,0-40,.19-3.67.06-4-1.63-4-4.53C201.27,714.58,201.23,696.76,201.23,679Z"/></svg>