<svg id="Слой_1" data-name="Слой 1" xmlns="http://www.w3.org/2000/svg" viewBox="0 0 1024 1024"><defs><style>.cls-1{fill:#e0e3e5;}.cls-2{fill:#83bb59;}.cls-3{fill:#afb6bb;}.cls-4{fill:#c8cfd6;}.cls-5{fill:#fff;}</style></defs><path class="cls-1" d="M909.93,1023.9H242.05c-.13-1.81-1.59-1.76-2.85-2.16a70.87,70.87,0,0,1-20.07-9.76c-16.24-11.65-25.9-27.5-26.81-47.26-1-22.9-.2-45.9-.18-68.85q104.21,0,208.4,0,200.41,0,400.82-.1c16.45,0,28.55-13.18,30.33-27.9,1.2-10,.07-20.29,0-30.44.09-2.83.26-5.66.26-8.49q0-157.95,0-315.89c0-19.2-13.94-33.1-33.12-33.1H315.48q-61.74,0-123.46-.15c0-1.33,0-2.67,0-4q0-203.43,0-406.87c0-5.31-.11-10.61,1-15.88q8.5-39.83,47.59-51c1.23-.36,2.23-.59,2.4-2H705A6.49,6.49,0,0,1,705,1c-1.77,1.83-1,4.11-1,6.19q-.07,92.32,0,184.67a62,62,0,0,0,18.71,45.27c12.91,12.94,28.83,19.22,47.19,19.08,1.7,3.66,4.64,6.31,7.45,9.08,5.66,5.56,11.35,11.12,16.94,16.75,7.56,7.61,15,15.35,22.57,22.92,9,9,18.31,17.7,27.16,26.84,7.46,7.71,15.28,15.05,22.61,22.89,8.58,9.16,18.07,17.45,26.8,26.48,7.57,7.83,15.31,15.5,23,23.25,9.62,9.76,19.26,19.53,29.12,29,4.72,4.55,8.56,10.15,14.4,13.53,0,.83,0,1.67,0,2.5q0,255.83.05,511.65a47.53,47.53,0,0,1-1,9.38c-5.16,25.78-20.17,42.73-45.27,50.72C912.2,1021.67,910.14,1021.6,909.93,1023.9Z"/><path class="cls-2" d="M831.94,829c0,2.83-.17,5.66-.26,8.49-6.13,20.77-20.74,26.61-38.15,26.59q-232.57-.35-465.15-.14-68.19,0-136.39.15-46.47-.08-93-.14c-21.59,0-34.94-13.25-34.94-34.79q0-157.7,0-315.4c0-17.47,10.55-30.48,27-33.31a60.06,60.06,0,0,1,10-.43q45.48-.12,91-.16,61.72.07,123.46.15H798.81c19.18,0,33.11,13.9,33.12,33.1Q832,671.05,831.94,829Z"/><path class="cls-3" d="M705,1q53.21,53.13,106.42,106.25,72.08,72,144.11,144.15c1.17,1.18,2.25,2.44,3.38,3.67-1.68,1.63-3.79,1-5.71,1-17.82.06-35.64,0-53.46,0l-129.88.14c-18.36.14-34.28-6.14-47.19-19.08A62,62,0,0,1,704,191.84q0-92.34,0-184.67C704,5.09,703.24,2.81,705,1Z"/><path class="cls-4" d="M192,864.08q68.2-.08,136.39-.15,232.58,0,465.15.14c17.41,0,32-5.82,38.15-26.59.08,10.15,1.21,20.44,0,30.44-1.78,14.72-13.88,27.87-30.33,27.9q-200.42.28-400.82.1-104.19,0-208.4,0Z"/><path class="cls-4" d="M769.87,256.19l129.88-.14c17.82,0,35.64,0,53.46,0,1.92,0,4,.67,5.71-1,1.48,1.31,1,3.09,1,4.69q0,93.61,0,187.22c-5.84-3.38-9.68-9-14.4-13.53-9.86-9.5-19.5-19.27-29.12-29-7.64-7.75-15.38-15.42-23-23.25-8.73-9-18.22-17.32-26.8-26.48-7.33-7.84-15.15-15.18-22.61-22.89-8.85-9.14-18.15-17.85-27.16-26.84-7.59-7.57-15-15.31-22.57-22.92-5.59-5.63-11.28-11.19-16.94-16.75C774.51,262.5,771.57,259.85,769.87,256.19Z"/><path class="cls-2" d="M537,652.45c0-9.15.14-18.31-.08-27.46-.07-3.32,1-4.2,4.23-4.16,13.15.17,26.3-.09,39.45.14,15.33.27,28.41,13.34,29.54,29.12,1.19,16.6-9.67,31.7-25.22,33.79-15,2-30.25.44-45.38.79-2.92.07-2.53-1.95-2.54-3.76Z"/><path class="cls-5" d="M198,750.33V598.81a14.5,14.5,0,0,1,14.5-14.5h94.54a14.5,14.5,0,0,1,14.5,14.5v2.33a14.51,14.51,0,0,1-14.5,14.51h-66.3a7,7,0,0,0-7,7V656a7,7,0,0,0,7,7H292.3a14.51,14.51,0,0,1,14.51,14.51h0a14.51,14.51,0,0,1-14.51,14.5H240.77a7,7,0,0,0-7,7v51.28A17.87,17.87,0,0,1,215.9,768.2h0A17.87,17.87,0,0,1,198,750.33Z"/><path class="cls-5" d="M346.69,750.33V602.18a17.87,17.87,0,0,1,17.87-17.87h0a17.87,17.87,0,0,1,17.87,17.87V750.33a17.87,17.87,0,0,1-17.87,17.87h0A17.87,17.87,0,0,1,346.69,750.33Z"/><path class="cls-5" d="M420.76,752.53V600a15.67,15.67,0,0,1,15.67-15.67h4.41A15.66,15.66,0,0,1,456.5,600V729.86a7,7,0,0,0,7,7h71.09a15.66,15.66,0,0,1,15.67,15.67h0a15.67,15.67,0,0,1-15.67,15.67H436.43A15.68,15.68,0,0,1,420.76,752.53Z"/><path class="cls-5" d="M699.71,751.36v2.33A14.51,14.51,0,0,1,685.2,768.2H586.52A14.51,14.51,0,0,1,572,753.69V598.81a14.5,14.5,0,0,1,14.5-14.5h96.35a14.51,14.51,0,0,1,14.51,14.5v2.33a14.51,14.51,0,0,1-14.51,14.51H614.76a7,7,0,0,0-7,7v30.28a7,7,0,0,0,7,7H670.7a14.51,14.51,0,0,1,14.5,14.51h0a14.5,14.5,0,0,1-14.5,14.5H614.76a7,7,0,0,0-7,7v33.92a7,7,0,0,0,7,7H685.2A14.51,14.51,0,0,1,699.71,751.36Z"/></svg>