<svg id="Слой_1" data-name="Слой 1" xmlns="http://www.w3.org/2000/svg" viewBox="0 0 1024 1024"><defs><style>.cls-1{fill:#f6cd46;}.cls-2{fill:#feb101;}</style></defs><path class="cls-1" d="M.1,841.94V306c3.68-2.64,3.51-7.16,5-10.8,8.69-22.08,33.39-39.19,57.19-39.19H955.33c5,0,9.9-.07,14.88.88,24.61,4.68,41.15,18.67,50,42.1.89,2.37.5,5.74,3.7,7v533.9c-.91.7-.81,1.75-1,2.72-4.77,29.21-30.67,53.19-62,53.22q-177.39.18-354.77,0-270.84,0-541.67-.06c-26.59,0-45.54-13.14-58-36.29C3.4,854,2.8,847.6.1,841.94Z"/><path class="cls-2" d="M.1,182.06C3.28,171.25,7,160.69,14.42,151.91,25.14,139.29,38.26,130.72,55,129.12c25.55-2.43,51.2-.91,76.79-1,82.29-.22,164.58,0,246.86-.13a16.47,16.47,0,0,1,9.73,2.9c28.89,19.38,57.89,38.61,86.77,58a18,18,0,0,0,10.64,3.21q236.61-.13,473.22,0c29,0,51.39,16.31,61.43,43.17,1.56,4.16,1,8.84,3.42,12.73v58c-3.2-1.26-2.81-4.63-3.7-7-8.84-23.43-25.38-37.42-50-42.1-5-.95-9.92-.88-14.88-.88H62.24c-23.8,0-48.5,17.11-57.19,39.19C3.61,298.88,3.78,303.4.1,306Z"/></svg>