<svg id="Слой_1" data-name="Слой 1" xmlns="http://www.w3.org/2000/svg" viewBox="0 0 1024 1024"><defs><style>.cls-1{fill:#e0e3e5;}.cls-2{fill:#9f65a9;}.cls-3{fill:#afb6bb;}.cls-4{fill:#c8cfd6;}.cls-5{fill:#fcfcfc;}</style></defs><path class="cls-1" d="M909.93,1023.9H242.05c-.13-1.81-1.59-1.76-2.85-2.16a70.87,70.87,0,0,1-20.07-9.76c-16.24-11.65-25.9-27.5-26.81-47.26-1-22.9-.2-45.9-.18-68.85,1.83,0,3.67,0,5.5,0q300.56,0,601.11.21c16.9,0,34.42-15.43,33.25-33.57-.37-5.64,0-11.32-.07-17,0-1.62.43-3.39-1.07-4.68.36-3.8,1-7.6,1-11.41q.09-158.44,0-316.9c0-18.55-14-32.58-32.6-32.59q-240.93,0-481.85,0-62.73,0-125.45-.14c0-1.5,0-3,0-4.5q0-203.43,0-406.87c0-5.14-.08-10.27,1-15.38q8.5-39.83,47.59-51c1.23-.36,2.23-.59,2.4-2H705A6.49,6.49,0,0,1,705,1c-1.77,1.83-1,4.11-1,6.19q-.07,92.32,0,184.67a62,62,0,0,0,18.71,45.27c12.91,12.94,28.83,19.22,47.19,19.08,1.7,3.66,4.64,6.31,7.45,9.08,5.66,5.56,11.35,11.12,16.94,16.75,7.56,7.61,15,15.35,22.57,22.92,9,9,18.31,17.7,27.16,26.84,7.46,7.71,15.28,15.05,22.61,22.89,8.58,9.16,18.07,17.45,26.8,26.48,7.57,7.82,15.31,15.5,23,23.25,9.62,9.76,19.26,19.53,29.12,29,4.72,4.55,8.56,10.15,14.4,13.53,0,.83,0,1.67,0,2.5q0,255.83.05,511.65a47.53,47.53,0,0,1-1,9.38c-5.16,25.78-20.17,42.73-45.27,50.72C912.2,1021.67,910.14,1021.6,909.93,1023.9Z"/><path class="cls-2" d="M192,864.08q-46.72-.08-93.46-.14c-20.88,0-34.43-13.45-34.43-34.3q0-157.93,0-315.88c0-17.34,10.22-30.14,26.52-33.2a57.7,57.7,0,0,1,10.45-.55q45.48-.12,91-.16,62.73.07,125.45.14,240.93,0,481.85,0c18.55,0,32.6,14,32.6,32.59q.06,158.46,0,316.9c0,3.81-.68,7.61-1,11.41C824.5,856.15,813.33,864,796.53,864q-232.83-.11-465.66,0Q261.43,863.94,192,864.08ZM406,707.84h0q0-12.24,0-24.48c0-11.29-6.79-18.3-18.28-18.41-16.82-.15-33.65-.12-50.48,0-10.17.07-16.8,6.77-16.73,16.5.06,8.86,6.51,14.53,16.72,14.58,11.16.05,22.33.1,33.49,0,3.06,0,4.48.57,4.38,4.06-.23,8.16-.13,16.33,0,24.49a5.14,5.14,0,0,1-2.69,4.83c-19.4,13-50.9,12.83-70.12-.48-26.18-18.14-32.52-59.72-12.66-86.09,13.95-18.52,32.73-27.43,56.09-24.71,11.27,1.32,20.51,7.35,28.85,14.87,7.28,6.56,16.46,6,23.15-1s6.51-16.08-.48-23.14a53.51,53.51,0,0,0-5.22-4.65c-18.6-14.34-39.75-19.71-62.89-17.24-35,3.73-60.94,20.82-76.13,52.95-8.93,18.87-9.82,38.9-6.47,59.15s11.82,38.07,28.23,51.31c15.07,12.15,32.68,17.52,51.66,19,25.42,2,49-3.09,69.86-18.44,6.4-4.71,10.09-10.78,9.77-19.11C405.8,723.85,406,715.84,406,707.84Zm122.84-28.59c0,24,0,48,0,72,0,5,1.27,9.31,5.23,12.4,5.8,4.53,12.39,5.88,19.23,2.85,6.51-2.89,8.9-8.51,8.87-15.45-.07-15.82.11-31.65-.11-47.48-.06-4.08,1-5.48,5.25-5.39,12.82.26,25.65.1,38.48.08,7.83,0,15.68.28,23.48-.18,12.43-.74,19.8-11.65,14.86-21.7-3.6-7.3-9.45-11.45-17.85-11.45-19.82,0-39.65-.1-59.47.09-3.77,0-4.85-1.07-4.76-4.78.23-10.32.29-20.66,0-31-.12-4.2,1.16-5.29,5.29-5.26,23.16.19,46.32.13,69.47,0,10,0,17.82-7.69,17.85-17.13S647.75,591,637.22,591q-45.74-.12-91.47,0c-10.81,0-16.89,6.44-16.89,17.27Q528.85,643.75,528.87,679.25Zm-78.9-.2q0,36.45,0,72.91c0,8.85,4.94,14.72,13.25,16.08,12,2,20.55-5.22,20.56-17.54q.1-71.43,0-142.85c0-10.85-6.49-17.39-16.93-17.46C456.71,590.12,450,597,450,607.62Q450,643.33,450,679.05Z"/><path class="cls-3" d="M705,1q53.21,53.13,106.42,106.25,72.08,72,144.11,144.15c1.17,1.18,2.25,2.44,3.38,3.67-1.68,1.63-3.79,1-5.71,1-17.82.06-35.64,0-53.46,0l-129.88.14c-18.36.14-34.28-6.14-47.19-19.08A62,62,0,0,1,704,191.84q0-92.34,0-184.67C704,5.09,703.24,2.81,705,1Z"/><path class="cls-4" d="M192,864.08q69.45-.08,138.89-.14,232.83,0,465.66,0c16.8,0,28-7.83,34.33-23.08,1.5,1.29,1.06,3.06,1.07,4.68,0,5.66-.3,11.34.07,17,1.17,18.14-16.35,33.6-33.25,33.57q-300.55-.48-601.11-.21c-1.83,0-3.67,0-5.5,0Q192.07,880,192,864.08Z"/><path class="cls-4" d="M769.87,256.19l129.88-.14c17.82,0,35.64,0,53.46,0,1.92,0,4,.67,5.71-1,1.48,1.31,1,3.09,1,4.69q0,93.61,0,187.22c-5.84-3.38-9.68-9-14.4-13.53-9.86-9.5-19.5-19.27-29.12-29-7.64-7.75-15.38-15.43-23-23.25-8.73-9-18.22-17.32-26.8-26.48-7.33-7.84-15.15-15.18-22.61-22.89-8.85-9.14-18.15-17.85-27.16-26.84-7.59-7.57-15-15.31-22.57-22.92-5.59-5.63-11.28-11.19-16.94-16.75C774.51,262.5,771.57,259.85,769.87,256.19Z"/><path class="cls-5" d="M406,707.84c0,8-.23,16,.06,24,.32,8.33-3.37,14.4-9.77,19.11-20.85,15.35-44.44,20.47-69.86,18.44-19-1.51-36.59-6.88-51.66-19-16.41-13.24-24.88-31-28.23-51.31s-2.46-40.28,6.47-59.15c15.19-32.13,41.16-49.22,76.13-52.95,23.14-2.47,44.29,2.9,62.89,17.24a53.51,53.51,0,0,1,5.22,4.65c7,7.06,7.15,16.12.48,23.14s-15.87,7.55-23.15,1c-8.34-7.52-17.58-13.55-28.85-14.87-23.36-2.72-42.14,6.19-56.09,24.71-19.86,26.37-13.52,68,12.66,86.09,19.22,13.31,50.72,13.49,70.12.48a5.14,5.14,0,0,0,2.69-4.83c-.13-8.16-.23-16.33,0-24.49.1-3.49-1.32-4.1-4.38-4.06-11.16.14-22.33.09-33.49,0-10.21,0-16.66-5.72-16.72-14.58-.07-9.73,6.56-16.43,16.73-16.5,16.83-.12,33.66-.15,50.48,0,11.49.11,18.27,7.12,18.28,18.41q0,12.24,0,24.48Z"/><path class="cls-5" d="M528.86,679.25q0-35.49,0-71c0-10.83,6.08-17.23,16.89-17.27q45.74-.16,91.47,0c10.53,0,17.46,6.52,17.43,15.88S646.8,624,636.8,624c-23.15.1-46.31.16-69.47,0-4.13,0-5.41,1.06-5.29,5.26.29,10.32.23,20.66,0,31-.09,3.71,1,4.81,4.76,4.78,19.82-.19,39.65-.09,59.47-.09,8.4,0,14.25,4.15,17.85,11.45,4.94,10-2.43,21-14.86,21.7-7.8.46-15.65.17-23.48.18-12.83,0-25.66.18-38.48-.08-4.26-.09-5.31,1.31-5.25,5.39.22,15.83,0,31.66.11,47.48,0,6.94-2.36,12.56-8.87,15.45-6.84,3-13.43,1.68-19.23-2.85-4-3.09-5.25-7.42-5.23-12.4C528.91,727.23,528.87,703.24,528.86,679.25Z"/><path class="cls-5" d="M450,679.05q0-35.71,0-71.43c0-10.59,6.74-17.5,16.9-17.43,10.44.07,16.92,6.61,16.93,17.46q.07,71.43,0,142.85c0,12.32-8.59,19.5-20.56,17.54C454.92,766.68,450,760.81,450,752Q449.92,715.51,450,679.05Z"/></svg>