<svg id="Слой_1" data-name="Слой 1" xmlns="http://www.w3.org/2000/svg" viewBox="0 0 1024 1024"><defs><style>.cls-1{fill:#e0e3e5;}.cls-2{fill:#83bb5a;}.cls-3{fill:#afb6bb;}.cls-4{fill:#c8cfd6;}.cls-5{fill:#fcfcfc;}</style></defs><path class="cls-1" d="M909.93,1023.9H242.05c-.13-1.81-1.59-1.76-2.85-2.16a71.73,71.73,0,0,1-20.08-9.76c-16.3-11.61-25.81-27.58-26.78-47.26-1.13-22.9-.22-45.9-.2-68.85q104.21,0,208.4,0,200.41,0,400.82-.1c16.45,0,28.55-13.18,30.33-27.9,1.2-10,.07-20.29,0-30.44.09-2.83.26-5.66.26-8.49q0-157.95,0-315.9c0-19.21-13.93-33.09-33.11-33.09H315q-61.49,0-123-.15c0-1.33,0-2.67,0-4q0-203.43,0-406.87c0-5.31-.11-10.61,1-15.88q8.5-39.83,47.59-51c1.23-.36,2.23-.59,2.4-2H705A6.49,6.49,0,0,1,705,1c-1.77,1.83-1,4.11-1,6.19q-.07,92.32,0,184.67a62,62,0,0,0,18.71,45.27c12.91,12.94,28.83,19.22,47.19,19.08,1.7,3.66,4.64,6.31,7.45,9.08,5.66,5.56,11.35,11.12,16.94,16.75,7.56,7.61,15,15.35,22.57,22.92,9,9,18.31,17.7,27.16,26.84,7.46,7.71,15.28,15.05,22.61,22.89,8.58,9.16,18.07,17.45,26.8,26.48,7.57,7.83,15.31,15.5,23,23.25,9.62,9.76,19.26,19.53,29.12,29,4.72,4.55,8.56,10.15,14.4,13.53,0,.83,0,1.67,0,2.5q0,255.83.05,511.65a47.53,47.53,0,0,1-1,9.38c-5.16,25.78-20.17,42.73-45.27,50.72C912.2,1021.67,910.14,1021.6,909.93,1023.9Z"/><path class="cls-2" d="M192,864.08q-46.47-.08-93-.14c-21.59,0-34.94-13.24-34.94-34.79q0-157.7,0-315.4c0-17.47,10.55-30.48,27-33.31a60,60,0,0,1,10-.43q45.48-.12,91-.16,61.48.07,123,.15H798.82c19.18,0,33.1,13.88,33.11,33.09q0,157.95,0,315.9c0,2.83-.17,5.66-.26,8.49-6.12,20.77-20.73,26.61-38.15,26.59q-232.57-.33-465.15-.14Q260.19,863.95,192,864.08ZM497.24,657.33c2.35.56,2.83,2.12,3.65,3.26q16.67,23.4,33.26,46.83c9.66,13.59,20.9,14,31.23,1,12.55-15.76,25-31.6,37.52-47.39,1.06-1.34,1.9-3,4.16-4v18q0,37.23,0,74.45c0,7.71,2.39,14.23,10.12,17.34,11.47,4.62,21.69-3.49,21.7-17.31q.11-70.71,0-141.41c0-9.54-3.92-15.59-11.4-17.93-7.78-2.44-14.22,0-19.83,7.57q-26.45,35.73-52.87,71.48c-3.44,4.64-3.43,4.63-7-.14l-51.46-69.42a33.37,33.37,0,0,0-7.69-7.77A15.64,15.64,0,0,0,464,602.63a54.94,54.94,0,0,0-.28,7.49q0,63.21,0,126.42c0,5.66-.25,11.35.23,17,.9,10.53,9.7,16.4,19.92,13.69,8.8-2.33,13.3-8.28,13.32-18q.06-42.23,0-84.45ZM261.93,679.62c0-23.83.05-47.65,0-71.47,0-10.8-6.86-17.59-17-17.16-9.7.41-16.36,7.51-16.4,17.73-.07,16.49-.12,33,0,49.48,0,3.48-1.08,4.56-4.55,4.54q-37.25-.18-74.47,0c-3.61,0-4.45-1.29-4.42-4.64.13-16.83.11-33.66.05-50.48,0-11-6.92-17.31-17.82-16.6-10.1.65-15.93,6.88-15.94,17.36q-.08,71,0,142c0,11,6.84,17.68,17.88,17.6,9.83-.07,15.88-6.76,15.91-17.72,0-16.33.15-32.66-.09-49,0-4.08.92-5.34,5.18-5.3q36.48.31,73,0c4.11,0,5.41,1,5.35,5.25-.23,16.16-.07,32.32-.07,48.48,0,5.18,1,10,5.2,13.49,5.7,4.75,12.08,6.49,19,3.26,6.59-3.07,9.26-8.69,9.25-15.82Q261.89,715.1,261.93,679.62Zm83.72,10.75h-.11c0,10.32,0,20.64,0,31,0,10.49-.09,21,.25,31.47.38,11.69,10.23,18.56,21.5,15.34,8.05-2.29,11.92-7.79,11.93-17.34q.06-61.47-.07-122.94c0-3.94,1-5.09,5-5,12.49.25,25,.14,37.48.07,8,0,13.67-3.8,16.13-10.33,4.23-11.23-3.3-22.18-15.73-22.44-11.66-.25-23.33-.06-35-.06h-85c-7.39,0-13.44,2.41-16.53,9.69-4.82,11.37,2.55,22.85,15.09,23.09,12.83.26,25.67.37,38.48-.09,5.44-.2,6.63,1.76,6.59,6.65C345.54,649.75,345.65,670.06,345.65,690.37ZM674.43,679c0,23.81,0,47.62,0,71.43,0,11.47,6.19,17.52,17.65,17.55q25,.06,49.95,0c11.65,0,23.31.17,35-.1,9.74-.23,16.76-6.83,17.12-15.44.4-9.45-5.44-16.22-15.34-17.63a53.1,53.1,0,0,0-7.46-.47c-20,0-40-.14-59.94.07-4.16,0-5.81-.71-5.68-5.38.35-12.64.11-25.3.11-38q0-41.44,0-82.91c0-11.28-7.53-18.45-17.81-17.18-8.17,1-13.51,7.76-13.55,17.57C674.38,632,674.44,655.48,674.43,679Z"/><path class="cls-3" d="M705,1q53.21,53.13,106.42,106.25,72.08,72,144.11,144.15c1.17,1.18,2.25,2.44,3.38,3.67-1.68,1.63-3.79,1-5.71,1-17.82.06-35.64,0-53.46,0l-129.88.14c-18.36.14-34.28-6.14-47.19-19.08A62,62,0,0,1,704,191.84q0-92.34,0-184.67C704,5.09,703.24,2.81,705,1Z"/><path class="cls-4" d="M192,864.08q68.2-.08,136.39-.15,232.58,0,465.15.14c17.42,0,32-5.82,38.15-26.59.08,10.15,1.21,20.44,0,30.44-1.78,14.72-13.88,27.87-30.33,27.9q-200.42.28-400.82.1-104.19,0-208.4,0Z"/><path class="cls-4" d="M769.87,256.19l129.88-.14c17.82,0,35.64,0,53.46,0,1.92,0,4,.67,5.71-1,1.48,1.31,1,3.09,1,4.69q0,93.61,0,187.22c-5.84-3.38-9.68-9-14.4-13.53-9.86-9.5-19.5-19.27-29.12-29-7.64-7.75-15.38-15.42-23-23.25-8.73-9-18.22-17.32-26.8-26.48-7.33-7.84-15.15-15.18-22.61-22.89-8.85-9.14-18.15-17.85-27.16-26.84-7.59-7.57-15-15.31-22.57-22.92-5.59-5.63-11.28-11.19-16.94-16.75C774.51,262.5,771.57,259.85,769.87,256.19Z"/><path class="cls-5" d="M497.24,657.33v7.43q0,42.22,0,84.45c0,9.71-4.52,15.66-13.32,18-10.22,2.71-19-3.16-19.92-13.69-.48-5.62-.23-11.31-.23-17q0-63.21,0-126.42a54.94,54.94,0,0,1,.28-7.49,15.64,15.64,0,0,1,24.67-10.78,33.37,33.37,0,0,1,7.69,7.77L547.85,669c3.53,4.77,3.52,4.78,7,.14q26.43-35.74,52.87-71.48c5.61-7.58,12.05-10,19.83-7.57,7.48,2.34,11.39,8.39,11.4,17.93q0,70.71,0,141.41c0,13.82-10.23,21.93-21.7,17.31-7.73-3.11-10.11-9.63-10.12-17.34q0-37.22,0-74.45V657c-2.26,1-3.1,2.65-4.16,4-12.52,15.79-25,31.63-37.52,47.39-10.33,13-21.57,12.59-31.23-1Q517.5,684,500.89,660.59C500.07,659.45,499.59,657.89,497.24,657.33Z"/><path class="cls-5" d="M261.93,679.62q0,35.48,0,71c0,7.13-2.66,12.75-9.25,15.82-6.95,3.23-13.33,1.49-19-3.26-4.22-3.51-5.21-8.31-5.2-13.49,0-16.16-.16-32.32.07-48.48.06-4.22-1.24-5.28-5.35-5.25q-36.48.29-73,0c-4.26,0-5.23,1.22-5.18,5.3.24,16.32.13,32.65.09,49,0,11-6.08,17.65-15.91,17.72-11,.08-17.87-6.56-17.88-17.6q0-71,0-142c0-10.48,5.84-16.71,15.94-17.36,10.9-.71,17.78,5.62,17.82,16.6.06,16.82.08,33.65-.05,50.48,0,3.35.81,4.66,4.42,4.64q37.23-.21,74.47,0c3.47,0,4.58-1.06,4.55-4.54-.15-16.5-.1-33,0-49.48,0-10.22,6.7-17.32,16.4-17.73,10.17-.43,17,6.36,17,17.16C262,632,261.93,655.79,261.93,679.62Z"/><path class="cls-5" d="M345.65,690.37c0-20.31-.11-40.62.07-60.93,0-4.89-1.15-6.85-6.59-6.65-12.81.46-25.65.35-38.48.09-12.54-.24-19.91-11.72-15.09-23.09,3.09-7.28,9.14-9.69,16.53-9.69h85c11.66,0,23.33-.19,35,.06,12.43.26,20,11.21,15.73,22.44-2.46,6.53-8.17,10.28-16.13,10.33-12.49.07-25,.18-37.48-.07-4-.08-5,1.07-5,5q.21,61.47.07,122.94c0,9.55-3.88,15.05-11.93,17.34-11.27,3.22-21.12-3.65-21.5-15.34-.34-10.48-.22-21-.25-31.47,0-10.32,0-20.64,0-31Z"/><path class="cls-5" d="M674.43,679c0-23.47,0-47,0-70.42,0-9.81,5.38-16.55,13.55-17.57,10.28-1.27,17.79,5.9,17.81,17.18q.06,41.46,0,82.91c0,12.66.24,25.32-.11,38-.13,4.67,1.52,5.42,5.68,5.38,20-.21,40-.11,59.94-.07a53.1,53.1,0,0,1,7.46.47c9.9,1.41,15.74,8.18,15.34,17.63-.36,8.61-7.38,15.21-17.12,15.44-11.65.27-23.31.09-35,.1q-25,0-49.95,0c-11.46,0-17.61-6.08-17.65-17.55C674.38,726.57,674.43,702.76,674.43,679Z"/></svg>