<svg id="Слой_1" data-name="Слой 1" xmlns="http://www.w3.org/2000/svg" viewBox="0 0 1024 1024"><defs><style>.cls-1{fill:#e0e3e5;}.cls-2{fill:#566c7d;}.cls-3{fill:#afb6bb;}.cls-4{fill:#c8cfd6;}.cls-5{fill:#fbfcfc;}</style></defs><path class="cls-1" d="M909.93,1023.9H242.05c-.13-1.81-1.59-1.76-2.85-2.16a71.73,71.73,0,0,1-20.08-9.76c-16.3-11.61-25.81-27.58-26.78-47.26-1.13-22.9-.22-45.9-.2-68.85,1.83,0,3.67,0,5.5,0q300.57,0,601.14.21c16.85,0,34.4-15.42,33.22-33.6-.37-5.63,0-11.32-.07-17,0-1.61.43-3.39-1.11-4.65.39-4,1.17-7.88,1.17-11.91q-.07-157.95-.07-315.89c0-19.22-13.92-33.1-33.11-33.1H317q-62.48,0-125-.15c0-1.33,0-2.67,0-4q0-203.43,0-406.87c0-5.31-.11-10.61,1-15.88q8.5-39.83,47.59-51c1.23-.36,2.23-.59,2.4-2H705A6.49,6.49,0,0,1,705,1c-1.77,1.83-1,4.11-1,6.19q-.07,92.32,0,184.67a62,62,0,0,0,18.71,45.27c12.91,12.94,28.83,19.22,47.19,19.08,1.7,3.66,4.64,6.31,7.45,9.08,5.66,5.56,11.35,11.12,16.94,16.75,7.56,7.61,15,15.35,22.57,22.92,9,9,18.31,17.7,27.16,26.84,7.46,7.71,15.27,15.05,22.61,22.89,8.58,9.16,18.07,17.45,26.8,26.48,7.57,7.83,15.31,15.5,23,23.25,9.62,9.76,19.26,19.53,29.12,29,4.72,4.55,8.56,10.15,14.4,13.53,0,.83,0,1.67,0,2.5q0,255.83.05,511.65a47.53,47.53,0,0,1-1,9.38c-5.16,25.78-20.17,42.73-45.27,50.72C912.2,1021.67,910.14,1021.6,909.93,1023.9Z"/><path class="cls-2" d="M192,864.08q-46.49-.08-93-.14c-21.6,0-34.94-13.24-34.94-34.79q0-157.7,0-315.4c0-17.45,10.56-30.47,27-33.3a60.06,60.06,0,0,1,10-.44q45.48-.12,91-.16,62.47.07,125,.15H798.81c19.19,0,33.11,13.88,33.11,33.1Q832,671,832,829c0,4-.78,7.94-1.17,11.91C824.57,856.27,813.3,864,796.55,864q-232.59-.08-465.17,0Q261.69,863.94,192,864.08ZM523.9,773.23c16.62.09,32.5-2.91,46.84-11.7,17.52-10.73,25.27-27,24.86-47.07-.42-19.92-11.73-32.46-29-40.63-11.35-5.37-23.44-8.45-35.4-12-10.35-3-21-5.38-30.06-11.7-5.4-3.75-8.56-8.65-8.31-15.52.38-10.3,7.89-18.47,19.71-20.61,17.29-3.13,33.37.53,48.42,9.31,7.23,4.23,14.19,3.19,19.24-2.88,4.88-5.87,4.69-13.51-.47-19.64a28.68,28.68,0,0,0-8.62-6.72c-27.61-14.7-55.82-15.69-83.82-1.89-21.53,10.61-31.21,32.47-26,55.7,3.55,15.89,14.59,25.27,28.62,31.78,11.82,5.49,24.47,8.52,36.91,12.18,9.41,2.77,19,5.24,27.06,11.17,5.68,4.18,9.46,9.55,8,17.05A23.73,23.73,0,0,1,548,737.94a43.12,43.12,0,0,1-20.94,3.65c-16.6-.92-32-5.48-45.91-14.91-8.93-6-20.68-.95-23,9.53-2,8.79,1,15.68,9.82,21.61C484.87,769.16,503.9,773,523.9,773.23ZM421.09,661.16h.12c0-18.15.06-36.31,0-54.47,0-8.23-4-13.56-11.31-15.68-12.26-3.56-22.31,3.78-22.37,16.52-.08,20.82,0,41.64,0,62.47-.05,14.65.23,29.33-.53,44-.82,15.52-9.06,23.68-24.3,25.35-14.43,1.58-25.95-3.85-35.16-14.89-6.44-7.71-14.44-8.52-21.9-2.55-7.87,6.3-9.39,15.79-3.65,23.36,10.27,13.53,23.47,22.49,40.42,25.37a95.4,95.4,0,0,0,29.36.3c22.29-3.12,38.52-14,45.71-36.17a72.7,72.7,0,0,0,3.64-22.08C421.14,695.48,421.09,678.32,421.09,661.16Z"/><path class="cls-3" d="M705,1q53.21,53.13,106.42,106.25,72.08,72,144.11,144.15c1.17,1.18,2.25,2.44,3.38,3.67-1.68,1.63-3.79,1-5.71,1-17.82.06-35.64,0-53.46,0l-129.88.14c-18.36.14-34.28-6.14-47.19-19.08A62,62,0,0,1,704,191.84q0-92.34,0-184.67C704,5.09,703.24,2.81,705,1Z"/><path class="cls-4" d="M192,864.08q69.69-.08,139.39-.14,232.59,0,465.17,0c16.75,0,28-7.7,34.27-23.07,1.54,1.26,1.1,3,1.11,4.65,0,5.66-.3,11.35.07,17,1.18,18.18-16.37,33.63-33.22,33.6q-300.57-.48-601.14-.21c-1.83,0-3.67,0-5.5,0Z"/><path class="cls-4" d="M769.87,256.19l129.88-.14c17.82,0,35.64,0,53.46,0,1.92,0,4,.67,5.71-1,1.48,1.31,1,3.09,1,4.69q0,93.61,0,187.22c-5.84-3.38-9.68-9-14.4-13.53-9.86-9.5-19.5-19.27-29.12-29-7.64-7.75-15.38-15.42-23-23.25-8.73-9-18.22-17.32-26.8-26.48-7.34-7.84-15.15-15.18-22.61-22.89-8.85-9.14-18.15-17.85-27.16-26.84-7.59-7.57-15-15.31-22.57-22.92-5.59-5.63-11.28-11.19-16.94-16.75C774.51,262.5,771.57,259.85,769.87,256.19Z"/><path class="cls-5" d="M523.9,773.23c-20-.23-39-4.07-55.94-15.41-8.84-5.93-11.79-12.82-9.82-21.61,2.35-10.48,14.1-15.57,23-9.53,13.93,9.43,29.31,14,45.91,14.91A43.12,43.12,0,0,0,548,737.94a23.73,23.73,0,0,0,13.82-17.83c1.47-7.5-2.31-12.87-8-17.05-8.08-5.93-17.65-8.4-27.06-11.17-12.44-3.66-25.09-6.69-36.91-12.18-14-6.51-25.07-15.89-28.62-31.78-5.19-23.23,4.49-45.09,26-55.7,28-13.8,56.21-12.81,83.82,1.89a28.68,28.68,0,0,1,8.62,6.72c5.16,6.13,5.35,13.77.47,19.64-5.05,6.07-12,7.11-19.24,2.88-15.05-8.78-31.13-12.44-48.42-9.31-11.82,2.14-19.33,10.31-19.71,20.61-.25,6.87,2.91,11.77,8.31,15.52,9.07,6.32,19.71,8.66,30.06,11.7,12,3.5,24,6.58,35.4,12,17.28,8.17,28.59,20.71,29,40.63.41,20.11-7.34,36.34-24.86,47.07C556.4,770.32,540.52,773.32,523.9,773.23Z"/><path class="cls-5" d="M421.09,661.16c0,17.16.05,34.32,0,51.48a72.7,72.7,0,0,1-3.64,22.08c-7.19,22.19-23.42,33-45.71,36.17a95.4,95.4,0,0,1-29.36-.3c-16.95-2.88-30.15-11.84-40.42-25.37-5.74-7.57-4.22-17.06,3.65-23.36,7.46-6,15.46-5.16,21.9,2.55,9.21,11,20.73,16.47,35.16,14.89,15.24-1.67,23.48-9.83,24.3-25.35.76-14.62.48-29.3.53-44,.06-20.83-.06-41.65,0-62.47.06-12.74,10.11-20.08,22.37-16.52,7.29,2.12,11.27,7.45,11.31,15.68.09,18.16,0,36.32,0,54.47Z"/></svg>