<svg id="Слой_1" data-name="Слой 1" xmlns="http://www.w3.org/2000/svg" viewBox="0 0 1024 1024"><defs><style>.cls-1{fill:#e0e3e5;}.cls-2{fill:#f5b74e;}.cls-3{fill:#afb6bb;}.cls-4{fill:#c8cfd6;}.cls-5{fill:#fdfcfb;}</style></defs><path class="cls-1" d="M909.93,1023.9H242.05c-.13-1.81-1.59-1.76-2.85-2.16a71.06,71.06,0,0,1-20.08-9.76c-16.23-11.65-25.89-27.5-26.8-47.26-1-22.9-.2-45.9-.18-68.85,1.5,0,3,0,4.5,0H545.41c85.28,0,170.56.11,255.84-.1,16.45,0,28.93-13.45,30.47-28.29,1.07-10.21.1-20.63,0-30.95.06-2.5.17-5,.17-7.49q0-158,0-315.93c0-19.26-13.87-33.16-33-33.16Q558.46,480,318,480q-63,0-126-.14,0-204.69,0-409.37c0-5.81-.23-11.61,1-17.39q8.5-39.81,47.59-51c1.23-.36,2.23-.59,2.4-2H705A6.49,6.49,0,0,1,705,1c-1.77,1.83-1,4.11-1,6.19q-.07,92.32,0,184.67a62,62,0,0,0,18.71,45.27c12.91,12.94,28.83,19.22,47.19,19.08,1.7,3.66,4.64,6.31,7.45,9.08,5.66,5.56,11.35,11.12,16.94,16.75,7.56,7.61,15,15.35,22.57,22.92,9,9,18.31,17.7,27.16,26.84,7.46,7.71,15.28,15.05,22.61,22.89,8.58,9.16,18.07,17.45,26.8,26.48,7.57,7.83,15.31,15.5,23,23.25,9.62,9.76,19.26,19.53,29.12,29,4.72,4.55,8.56,10.15,14.4,13.53,0,.83,0,1.67,0,2.5q0,255.83.05,511.65a47.53,47.53,0,0,1-1,9.38c-5.16,25.78-20.17,42.73-45.27,50.72C912.2,1021.67,910.14,1021.6,909.93,1023.9Z"/><path class="cls-2" d="M192,864.09q-46.49-.08-93-.15c-21.6,0-35-13.24-35-34.76q0-157.73,0-315.44c0-17.31,10.22-30.13,26.53-33.19a57.66,57.66,0,0,1,10.45-.54q45.48-.12,91-.16,63,.07,126,.14,240.45,0,480.89,0c19.17,0,33,13.9,33,33.16q0,158,0,315.93c0,2.49-.11,5-.17,7.49-1.73,5.37-3.31,10.75-7.07,15.23-7.43,8.85-17,12.15-28.3,12.15q-256.95-.08-513.9,0Q237.26,863.94,192,864.09ZM315.79,656.77c1.56,5.5.59,10,.6,14.45.05,21.47,0,42.94.05,64.41a173.12,173.12,0,0,0,.67,18.93c.92,8.15,7.74,13.5,16.06,13.37,7.78-.13,14-6,14.84-14.13a74.77,74.77,0,0,0,.21-7.49q0-29,0-58c0-27.16,0-54.32,0-81.48,0-10-5.63-16.61-14.81-17.51-7.43-.72-12.49,3.11-16.73,8.89-17.32,23.65-34.8,47.19-52.23,70.76-3.52,4.76-3.54,4.76-7,.15q-25.29-34.11-50.6-68.23a69.53,69.53,0,0,0-5.21-6c-4.82-5.12-10.55-7.66-17.53-5.21s-11,8.63-11,16.82q-.1,48.74,0,97.47c0,15.67-.1,31.33,0,47,.07,7,2.72,12.83,9.45,15.75s12.82,1.08,18.24-3.17c4.83-3.8,6.16-9.23,6.15-15.17q-.06-42.74,0-85.47v-6.5c1.65,2.07,2.49,3,3.22,4,8.6,12.08,17.12,24.21,25.8,36.23,4,5.52,7.35,11.54,12.33,16.31,6.24,6,13.41,6.58,20.37,1.49a34.8,34.8,0,0,0,6.36-6.3c5.47-6.72,10.74-13.59,16.11-20.38C299.2,677.62,307.27,667.49,315.79,656.77Zm406.09,50.68v-23c0-12.46-6.88-19.49-19.32-19.54q-24.73-.12-49.47,0c-9.86,0-16.8,6.67-16.91,15.92S642.54,696,652.89,696c11.33.06,22.66.09,34,0,2.92,0,4.17.68,4.09,3.88-.2,8.16-.13,16.32,0,24.49a4.84,4.84,0,0,1-2.6,4.87c-21.36,12.07-43.48,14-65.34,2.51-26.66-14.08-37-50.69-23.37-79.35,11-23.24,36.45-37.66,61.16-34.45,11.48,1.49,20.91,7.28,29.39,14.87,6,5.38,12.3,6.2,18.82,2.65a17,17,0,0,0,9-17.5c-.76-5.57-4.55-9.16-8.58-12.43-19-15.4-40.81-21.07-64.9-18.59-30.19,3.1-54.22,16.84-70.3,42.74-16.57,26.7-17.12,55.54-8,84.72,7.15,22.94,22.54,38.86,44.84,48a103.32,103.32,0,0,0,31.53,7.07c25.62,1.92,49.33-3.36,70.17-19.06,6.08-4.58,9.35-10.59,9.18-18.43C721.74,723.78,721.88,715.61,721.88,707.45ZM393,678.21q0,35.24,0,70.47c0,11.25,7,19.06,17.14,19.24s16.59-6.88,16.71-18.75c.1-9,.25-18-.07-27-.15-4.31,1-5.67,5.49-5.66,15,0,30,1,44.93-.59,20-2.11,36.17-11.12,46.73-28.63,8-13.33,9.74-27.94,8.23-43.32-3.06-31.22-27.42-54.48-58.82-55.06-20.31-.38-40.64-.2-61-.16-12.67,0-19.35,6.8-19.37,19.48Q393,643.23,393,678.21Z"/><path class="cls-3" d="M705,1q53.21,53.13,106.42,106.25,72.08,72,144.11,144.15c1.17,1.18,2.25,2.44,3.38,3.67-1.68,1.63-3.79,1-5.71,1-17.82.06-35.64,0-53.46,0l-129.88.14c-18.36.14-34.28-6.14-47.19-19.08A62,62,0,0,1,704,191.84q0-92.34,0-184.67C704,5.09,703.24,2.81,705,1Z"/><path class="cls-4" d="M192,864.09q45.24-.08,90.48-.15,257,0,513.9,0c11.27,0,20.87-3.3,28.3-12.15,3.76-4.48,5.34-9.86,7.07-15.23.05,10.32,1,20.74,0,30.95-1.54,14.84-14,28.26-30.47,28.29-85.28.21-170.56.1-255.84.1H196.64c-1.5,0-3,0-4.5,0Z"/><path class="cls-4" d="M769.87,256.19l129.88-.14c17.82,0,35.64,0,53.46,0,1.92,0,4,.67,5.71-1,1.48,1.31,1,3.09,1,4.69q0,93.61,0,187.22c-5.84-3.38-9.68-9-14.4-13.53-9.86-9.5-19.5-19.27-29.12-29-7.64-7.75-15.38-15.42-23-23.25-8.73-9-18.22-17.32-26.8-26.48-7.33-7.84-15.15-15.18-22.61-22.89-8.85-9.14-18.15-17.85-27.16-26.84-7.59-7.57-15-15.31-22.57-22.92-5.59-5.63-11.28-11.19-16.94-16.75C774.51,262.5,771.57,259.85,769.87,256.19Z"/><path class="cls-5" d="M315.79,656.77c-8.52,10.72-16.59,20.85-24.63,31-5.37,6.79-10.64,13.66-16.11,20.38a34.8,34.8,0,0,1-6.36,6.3c-7,5.09-14.13,4.48-20.37-1.49-5-4.77-8.34-10.79-12.33-16.31-8.68-12-17.2-24.15-25.8-36.23-.73-1-1.57-2-3.22-4v6.5q0,42.74,0,85.47c0,5.94-1.32,11.37-6.15,15.17-5.42,4.25-11.62,6-18.24,3.17s-9.38-8.8-9.45-15.75c-.15-15.66,0-31.32,0-47q0-48.74,0-97.47c0-8.19,4-14.38,11-16.82s12.71.09,17.53,5.21a69.53,69.53,0,0,1,5.21,6q25.33,34.1,50.6,68.23c3.42,4.61,3.44,4.61,7-.15,17.43-23.57,34.91-47.11,52.23-70.76,4.24-5.78,9.3-9.61,16.73-8.89,9.18.9,14.79,7.52,14.81,17.51.08,27.16,0,54.32,0,81.48q0,29,0,58a74.77,74.77,0,0,1-.21,7.49c-.82,8.13-7.06,14-14.84,14.13-8.32.13-15.14-5.22-16.06-13.37a173.12,173.12,0,0,1-.67-18.93c-.07-21.47,0-42.94-.05-64.41C316.38,666.76,317.35,662.27,315.79,656.77Z"/><path class="cls-5" d="M721.88,707.45c0,8.16-.14,16.33,0,24.49.17,7.84-3.1,13.85-9.18,18.43-20.84,15.7-44.55,21-70.17,19.06A103.32,103.32,0,0,1,611,762.36c-22.3-9.11-37.69-25-44.84-48-9.09-29.18-8.54-58,8-84.72,16.08-25.9,40.11-39.64,70.3-42.74,24.09-2.48,45.92,3.19,64.9,18.59,4,3.27,7.82,6.86,8.58,12.43a17,17,0,0,1-9,17.5c-6.52,3.55-12.8,2.73-18.82-2.65-8.48-7.59-17.91-13.38-29.39-14.87-24.71-3.21-50.14,11.21-61.16,34.45C586.05,681,596.34,717.65,623,731.73c21.86,11.54,44,9.56,65.34-2.51a4.84,4.84,0,0,0,2.6-4.87c-.11-8.17-.18-16.33,0-24.49.08-3.2-1.17-3.92-4.09-3.88-11.32.13-22.65.1-34,0-10.35,0-16.81-6-16.71-15.16s7.05-15.87,16.91-15.92q24.74-.11,49.47,0c12.44.05,19.31,7.08,19.32,19.54Z"/><path class="cls-5" d="M393,678.21q0-35,0-70c0-12.68,6.7-19.45,19.37-19.48,20.32,0,40.65-.22,61,.16,31.4.58,55.76,23.84,58.82,55.06,1.51,15.38-.2,30-8.23,43.32-10.56,17.51-26.69,26.52-46.73,28.63-14.93,1.57-30,.63-44.93.59-4.53,0-5.64,1.35-5.49,5.66.32,9,.17,18,.07,27-.12,11.87-6.48,18.93-16.71,18.75s-17.14-8-17.14-19.24Q393,713.45,393,678.21Zm33.88-25.75c0,9.49,0,19,0,28.48,0,2.27.25,3.86,3.16,3.79,14.47-.36,29,.9,43.41-.67,15.89-1.73,27.4-16.42,26.57-33.23-.8-16.21-14.12-29.64-29.89-29.85-13-.18-26,.08-39-.14-3.7-.06-4.4,1.36-4.33,4.65C427,634.48,426.91,643.47,426.91,652.46Z"/><path class="cls-2" d="M426.91,652.46c0-9,.12-18-.06-27-.07-3.29.63-4.71,4.33-4.65,13,.22,26,0,39,.14,15.77.21,29.09,13.64,29.89,29.85.83,16.81-10.68,31.5-26.57,33.23-14.43,1.57-28.94.31-43.41.67-2.91.07-3.18-1.52-3.16-3.79C427,671.45,426.91,662,426.91,652.46Z"/></svg>