<svg id="Слой_1" data-name="Слой 1" xmlns="http://www.w3.org/2000/svg" viewBox="0 0 1024 1024"><defs><style>.cls-1{fill:#e0e3e5;}.cls-2{fill:#ef5642;}.cls-3{fill:#afb6bb;}.cls-4{fill:#c8cfd6;}.cls-5{fill:#fdfbfb;}</style></defs><path class="cls-1" d="M909.93,1023.9H242.05c-.13-1.81-1.59-1.76-2.85-2.16a70.87,70.87,0,0,1-20.07-9.76c-16.24-11.65-25.9-27.5-26.81-47.26-1-22.9-.2-45.9-.18-68.85,1.5,0,3,0,4.5,0H565.47c78.63,0,157.27.14,235.9-.12,16.45,0,28.56-13.18,30.31-27.9,1.23-10.34.13-21,.06-31.45.07-2.83.2-5.66.2-8.49q0-156.94,0-313.88c0-20.56-13.59-34.09-34.13-34.09Q552.9,480,308,480q-58,0-116-.16,0-204.67,0-409.36c0-5.81-.23-11.61,1-17.39q8.5-39.81,47.59-51c1.23-.36,2.23-.59,2.4-2H705A6.49,6.49,0,0,1,705,1c-1.77,1.83-1,4.11-1,6.19q-.07,92.32,0,184.67a62,62,0,0,0,18.71,45.27c12.91,12.94,28.83,19.22,47.19,19.08,1.7,3.66,4.64,6.31,7.45,9.08,5.66,5.56,11.35,11.12,16.94,16.75,7.56,7.61,15,15.35,22.57,22.92,9,9,18.31,17.7,27.16,26.84,7.46,7.71,15.28,15.05,22.61,22.89,8.58,9.16,18.07,17.45,26.8,26.48,7.57,7.83,15.31,15.5,23,23.25,9.62,9.76,19.26,19.53,29.12,29,4.72,4.55,8.56,10.15,14.4,13.53,0,.83,0,1.67,0,2.5q0,255.83.05,511.65a47.53,47.53,0,0,1-1,9.38c-5.16,25.78-20.17,42.73-45.27,50.72C912.2,1021.67,910.14,1021.6,909.93,1023.9Z"/><path class="cls-2" d="M192,864.09q-46.49-.08-93-.15c-21.62,0-35-13.23-35-34.77q0-157.71,0-315.43c0-17.44,10.56-30.46,27-33.29a60.18,60.18,0,0,1,10-.44q45.48-.12,91-.17,58,.09,116,.16,244.9,0,489.81,0c20.54,0,34.13,13.53,34.13,34.09q0,156.95,0,313.88c0,2.83-.13,5.66-.2,8.49-1.62,5.4-3.24,10.76-7,15.25-7.5,9.06-17.3,12.27-28.73,12.26q-242.56-.08-485.14,0Q251.48,863.94,192,864.09Zm183.74-184.5q0,35.24,0,70.48c0,11.58,5.79,17.72,17.37,17.8,22,.17,44,.78,66-.17,31.88-1.38,55.7-16.46,70-45.34,8.73-17.62,11.11-36.33,9-55.88-4.66-43.09-38.47-74.63-81.77-75.41-20.66-.38-41.33-.18-62-.1-11.77,0-18.59,7-18.6,18.63Q375.73,644.59,375.76,679.59Zm-172.28-1.75c0,23.82-.1,47.65,0,71.48.07,11.31,7.39,18.73,17.81,18.62,9.76-.1,15.79-7.06,15.87-18.45.06-9.33.22-18.67-.09-28-.14-4.11,1.34-5.11,5.13-4.93,5.65.28,11.32.12,17,.08,11-.09,22.06.86,32.92-1.2,47.49-9,68.16-66,37.73-104-12.65-15.8-29.65-22.56-49.52-22.69-18.66-.12-37.33,0-56,0-14.42,0-20.89,6.52-20.9,21.11Q203.46,643.84,203.48,677.84ZM574.16,679q0,35.73,0,71.44c0,8.15,3.47,13.54,10.18,16.13,12.75,4.91,23.33-2.28,23.43-16.08.11-15.82.15-31.64,0-47.46,0-3.7.92-4.83,4.72-4.78,15.81.2,31.63.09,47.45.06,5.16,0,10.36.26,15.48-.25,6.89-.69,12.46-4.11,15.06-10.73,2.38-6.08,0-11.43-4.21-16a19.25,19.25,0,0,0-15.1-6.43c-19.65.12-39.3,0-58.95.12-3.51,0-4.51-1-4.44-4.48.21-10.49.24-21,0-31.47-.1-3.91,1-5,5-5,23,.19,46,.15,68.95.06,10.75,0,18.43-7.47,18.39-17.51C700,597,693.1,591,682,591q-44.48-.08-88.93,0c-12.9,0-18.84,6.08-18.86,19Q574.13,644.48,574.16,679Z"/><path class="cls-3" d="M705,1q53.21,53.13,106.42,106.25,72.08,72,144.11,144.15c1.17,1.18,2.25,2.44,3.38,3.67-1.68,1.63-3.79,1-5.71,1-17.82.06-35.64,0-53.46,0l-129.88.14c-18.36.14-34.28-6.14-47.19-19.08A62,62,0,0,1,704,191.84q0-92.34,0-184.67C704,5.09,703.24,2.81,705,1Z"/><path class="cls-4" d="M192,864.09q59.46-.08,118.9-.15,242.58,0,485.14,0c11.43,0,21.23-3.2,28.73-12.26,3.71-4.49,5.33-9.85,7-15.25.07,10.49,1.17,21.11-.06,31.45-1.75,14.72-13.86,27.85-30.31,27.9-78.63.26-157.27.12-235.9.12H196.64c-1.5,0-3,0-4.5,0Z"/><path class="cls-4" d="M769.87,256.19l129.88-.14c17.82,0,35.64,0,53.46,0,1.92,0,4,.67,5.71-1,1.48,1.31,1,3.09,1,4.69q0,93.61,0,187.22c-5.84-3.38-9.68-9-14.4-13.53-9.86-9.5-19.5-19.27-29.12-29-7.64-7.75-15.38-15.42-23-23.25-8.73-9-18.22-17.32-26.8-26.48-7.33-7.84-15.15-15.18-22.61-22.89-8.85-9.14-18.15-17.85-27.16-26.84-7.59-7.57-15-15.31-22.57-22.92-5.59-5.63-11.28-11.19-16.94-16.75C774.51,262.5,771.57,259.85,769.87,256.19Z"/><path class="cls-5" d="M375.76,679.59q0-35,0-70c0-11.65,6.83-18.58,18.6-18.63,20.66-.08,41.33-.28,62,.1,43.3.78,77.11,32.32,81.77,75.41,2.11,19.55-.27,38.26-9,55.88-14.31,28.88-38.13,44-70,45.34-21.95.95-44,.34-66,.17-11.58-.08-17.36-6.22-17.37-17.8Q375.73,714.84,375.76,679.59Zm33.63-.16h0c0,17.65.08,35.3-.07,53,0,3.43.91,4.58,4.47,4.52,13-.2,26,.17,39-.15,20.62-.5,35.85-10,45.19-28.49,6.51-12.86,8.2-26.52,6.06-40.76-3.8-25.32-21.31-42.94-46.71-45-14.89-1.2-29.95-.28-44.93-.44-3.6,0-2.93,2.37-2.94,4.42Q409.37,653,409.39,679.43Z"/><path class="cls-5" d="M203.47,677.84q0-34,0-68c0-14.59,6.48-21.12,20.9-21.11,18.66,0,37.33-.09,56,0,19.87.13,36.87,6.89,49.52,22.69,30.43,38,9.76,95-37.73,104-10.86,2.06-21.93,1.11-32.92,1.2-5.67,0-11.34.2-17-.08-3.79-.18-5.27.82-5.13,4.93.31,9.32.15,18.66.09,28-.08,11.39-6.11,18.35-15.87,18.45-10.42.11-17.74-7.31-17.81-18.62C203.38,725.49,203.48,701.66,203.47,677.84Zm33.74-25.08c0,9.32.06,18.65,0,28,0,2.59.43,4,3.49,4,13.16-.13,26.33.31,39.46-.16,17.45-.62,31.11-15.14,30.64-31.8-.51-18.34-14.1-31.79-32.2-31.83-12.49,0-25,.08-37.47-.07-3.05,0-4,.88-4,3.95C237.32,634.1,237.2,643.43,237.21,652.76Z"/><path class="cls-5" d="M574.16,679q0-34.47,0-68.94c0-13,6-19,18.86-19q44.46-.08,88.93,0c11.14,0,18,6.07,18.08,15.6,0,10-7.64,17.48-18.39,17.51-23,.09-46,.13-68.95-.06-4,0-5.07,1.1-5,5,.26,10.48.23,21,0,31.47-.07,3.48.93,4.51,4.44,4.48,19.65-.16,39.3,0,58.95-.12a19.25,19.25,0,0,1,15.1,6.43c4.18,4.57,6.59,9.92,4.21,16-2.6,6.62-8.17,10-15.06,10.73-5.12.51-10.32.24-15.48.25-15.82,0-31.64.14-47.45-.06-3.8-.05-4.77,1.08-4.72,4.78.19,15.82.15,31.64,0,47.46-.1,13.8-10.68,21-23.43,16.08-6.71-2.59-10.17-8-10.18-16.13Q574.14,714.68,574.16,679Z"/><path class="cls-2" d="M409.39,679.43q0-26.48,0-52.94c0-2-.66-4.45,2.94-4.42,15,.16,30-.76,44.93.44,25.4,2,42.91,19.67,46.71,45,2.14,14.24.45,27.9-6.06,40.76-9.34,18.45-24.57,28-45.19,28.49-13,.32-26,0-39,.15-3.56.06-4.5-1.09-4.47-4.52.15-17.65.07-35.3.07-53Z"/><path class="cls-2" d="M237.2,652.76c0-9.33.12-18.66-.06-28-.06-3.07.9-4,4-3.95,12.49.15,25,0,37.47.07,18.1,0,31.69,13.49,32.2,31.83.47,16.66-13.19,31.18-30.64,31.8-13.13.47-26.3,0-39.46.16-3.06,0-3.52-1.37-3.49-4C237.27,671.41,237.21,662.08,237.2,652.76Z"/></svg>