<svg id="Слой_1" data-name="Слой 1" xmlns="http://www.w3.org/2000/svg" viewBox="0 0 1024 1024"><defs><style>.cls-1{fill:#e0e3e5;}.cls-2{fill:#9f66a9;}.cls-3{fill:#afb6bb;}.cls-4{fill:#c8cfd6;}.cls-5{fill:#fcfcfc;}</style></defs><path class="cls-1" d="M909.93,1023.9H242.05c-.13-1.81-1.59-1.76-2.85-2.16a70.87,70.87,0,0,1-20.07-9.76c-16.24-11.65-25.9-27.5-26.81-47.26-1-22.9-.2-45.9-.18-68.85,1.83,0,3.67,0,5.5,0q300.56,0,601.11.21c16.9,0,34.42-15.43,33.25-33.57-.37-5.64,0-11.32-.07-17,0-1.62.43-3.38-1.07-4.68.36-3.8,1-7.6,1-11.41q.08-158.44,0-316.9c0-18.55-14.06-32.59-32.6-32.59q-240.92,0-481.85,0-62.73,0-125.45-.14c0-1.5,0-3,0-4.5q0-203.43,0-406.87c0-5.14-.08-10.27,1-15.38q8.5-39.83,47.59-51c1.23-.36,2.23-.59,2.4-2H705A6.49,6.49,0,0,1,705,1c-1.77,1.83-1,4.11-1,6.19q-.07,92.32,0,184.67a62,62,0,0,0,18.71,45.27c12.91,12.94,28.83,19.22,47.19,19.08,1.7,3.66,4.64,6.31,7.45,9.08,5.66,5.56,11.35,11.12,16.94,16.75,7.56,7.61,15,15.35,22.57,22.92,9,9,18.31,17.7,27.16,26.84,7.46,7.71,15.28,15.05,22.61,22.89,8.58,9.16,18.07,17.45,26.8,26.48,7.57,7.82,15.31,15.5,23,23.25,9.62,9.76,19.26,19.53,29.12,29,4.72,4.55,8.56,10.15,14.4,13.53,0,.83,0,1.67,0,2.5q0,255.83.05,511.65a47.53,47.53,0,0,1-1,9.38c-5.16,25.78-20.17,42.73-45.27,50.72C912.2,1021.67,910.14,1021.6,909.93,1023.9Z"/><path class="cls-2" d="M192,864.08q-46.72-.08-93.46-.14c-20.89,0-34.43-13.44-34.43-34.29q0-157.95,0-315.9c0-17.33,10.22-30.13,26.52-33.19a57.64,57.64,0,0,1,10.44-.55q45.49-.12,91-.16,62.73.07,125.45.14,240.93,0,481.85,0c18.54,0,32.6,14,32.6,32.59q.06,158.45,0,316.9c0,3.81-.69,7.61-1,11.41-6.3,15.33-17.53,23.08-34.3,23.08q-232.84-.11-465.68,0Q261.43,863.94,192,864.08Zm199.34-210.8c2.81.79,3.41,2.5,4.38,3.73q38.24,48.43,76.38,96.94c3.74,4.77,7.75,9.17,13.32,11.82,7.94,3.77,15.64,2.4,21-3.55,3.22-3.61,3.9-7.92,3.9-12.55q0-71.22,0-142.44a25,25,0,0,0-.14-3c-.82-6.73-7.94-14.06-14.77-15.24-7.11-1.23-13.48,2.25-17.1,9.35A22.79,22.79,0,0,0,476,609q.07,45.48,0,91c0,1.37.46,2.88-.57,4.31a10.84,10.84,0,0,1-1.24-1.08c-21.1-26.42-42.12-52.9-63.34-79.22-7.83-9.71-14.8-20.17-24.07-28.65-6.29-5.75-13.76-5.81-21.08-3.07-6.88,2.57-7.62,9.14-7.69,15.46-.14,12.16-.06,24.33-.06,36.49q0,52.72,0,105.46c0,7.21,2.46,13.07,9.22,16.41,11.94,5.89,23.93-1.36,24-14.85.21-27,.08-53.92.09-80.88C391.33,664.76,391.32,659.19,391.32,653.28Zm317.77,54.51h0q0-11.74,0-23.5c0-12.63-6.54-19.29-19.32-19.37q-24.49-.15-49,0c-10.45.05-16.95,6.36-17,16.2,0,9.27,6.27,14.88,16.78,14.91,11,0,22,.12,33-.06,3.38-.05,4.74.77,4.63,4.4-.24,7.83-.2,15.67,0,23.49a5.85,5.85,0,0,1-3.42,6c-21.21,11.52-43,13.17-64.53,1.85-30.22-15.92-38.76-61.07-17.2-89.24,14-18.25,32.61-27.07,55.77-24.35,11.26,1.32,20.53,7.29,28.86,14.84,7.27,6.57,16.53,6.08,23.2-.89s6.56-16-.47-23.14a49.57,49.57,0,0,0-4.82-4.34c-18.64-14.63-39.91-19.95-63.26-17.64-29.79,3-53.71,16.21-70,41.56-16.76,26.14-17.9,54.54-9.5,83.63,6.45,22.33,20.45,38.58,41.56,48.51,11.6,5.46,23.95,8.07,36.67,8.88,25.44,1.63,49-3.65,69.52-19.54,5.56-4.3,8.69-9.85,8.5-17.18C708.92,724.45,709.09,716.12,709.09,707.79ZM185.82,678.46c0,23.49,0,47,0,70.47,0,11.61,6.79,18.92,17.28,19,10,.09,16.08-6.9,16.15-18.64.06-9.32.16-18.66-.09-28-.1-3.8,1.18-4.85,4.87-4.78,11.49.22,23,.09,34.48.1,17.52,0,33.77-3.92,47.12-15.95C321,686.83,326,668.94,325.2,648.81c-1.3-34.16-25.8-59.08-59.86-59.91-19.81-.48-39.65-.15-59.47-.18-13.57,0-20.06,6.55-20.05,20.27Q185.84,643.73,185.82,678.46Z"/><path class="cls-3" d="M705,1q53.21,53.13,106.42,106.25,72.08,72,144.11,144.15c1.17,1.18,2.25,2.44,3.38,3.67-1.68,1.63-3.79,1-5.71,1-17.82.06-35.64,0-53.46,0l-129.88.14c-18.36.14-34.28-6.14-47.19-19.08A62,62,0,0,1,704,191.84q0-92.34,0-184.67C704,5.09,703.24,2.81,705,1Z"/><path class="cls-4" d="M192,864.08q69.45-.08,138.9-.14,232.85,0,465.68,0c16.77,0,28-7.75,34.3-23.08,1.5,1.3,1.06,3.06,1.07,4.68,0,5.66-.3,11.34.07,17,1.17,18.14-16.35,33.6-33.25,33.57q-300.55-.48-601.11-.21c-1.83,0-3.67,0-5.5,0Q192.07,880,192,864.08Z"/><path class="cls-4" d="M769.87,256.19l129.88-.14c17.82,0,35.64,0,53.46,0,1.92,0,4,.67,5.71-1,1.48,1.31,1,3.09,1,4.69q0,93.61,0,187.22c-5.84-3.38-9.68-9-14.4-13.53-9.86-9.5-19.5-19.27-29.12-29-7.64-7.75-15.38-15.43-23-23.25-8.73-9-18.22-17.32-26.8-26.48-7.33-7.84-15.15-15.18-22.61-22.89-8.85-9.14-18.15-17.85-27.16-26.84-7.59-7.57-15-15.31-22.57-22.92-5.59-5.63-11.28-11.19-16.94-16.75C774.51,262.5,771.57,259.85,769.87,256.19Z"/><path class="cls-5" d="M391.32,653.28c0,5.91,0,11.48,0,17.05,0,27,.12,53.92-.09,80.88-.1,13.49-12.09,20.74-24,14.85-6.76-3.34-9.22-9.2-9.22-16.41q0-52.74,0-105.46c0-12.16-.08-24.33.06-36.49.07-6.32.81-12.89,7.69-15.46,7.32-2.74,14.79-2.68,21.08,3.07,9.27,8.48,16.24,18.94,24.07,28.65,21.22,26.32,42.24,52.8,63.34,79.22a10.84,10.84,0,0,0,1.24,1.08c1-1.43.57-2.94.57-4.31q0-45.5,0-91a22.79,22.79,0,0,1,2.19-10.64c3.62-7.1,10-10.58,17.1-9.35,6.83,1.18,13.95,8.51,14.77,15.24a25,25,0,0,1,.14,3q0,71.22,0,142.44c0,4.63-.68,8.94-3.9,12.55-5.31,5.95-13,7.32-21,3.55-5.57-2.65-9.58-7-13.32-11.82Q434,705.43,395.7,657C394.73,655.78,394.13,654.07,391.32,653.28Z"/><path class="cls-5" d="M709.09,707.79c0,8.33-.17,16.66,0,25,.19,7.33-2.94,12.88-8.5,17.18-20.52,15.89-44.08,21.17-69.52,19.54-12.72-.81-25.07-3.42-36.67-8.88-21.11-9.93-35.11-26.18-41.56-48.51-8.4-29.09-7.26-57.49,9.5-83.63,16.26-25.35,40.18-38.61,70-41.56,23.35-2.31,44.62,3,63.26,17.64a49.57,49.57,0,0,1,4.82,4.34c7,7.13,7.19,16.14.47,23.14s-15.93,7.46-23.2.89c-8.33-7.55-17.6-13.52-28.86-14.84-23.16-2.72-41.81,6.1-55.77,24.35-21.56,28.17-13,73.32,17.2,89.24,21.49,11.32,43.32,9.67,64.53-1.85a5.85,5.85,0,0,0,3.42-6c-.19-7.82-.23-15.66,0-23.49.11-3.63-1.25-4.45-4.63-4.4-11,.18-22,.08-33,.06-10.51,0-16.81-5.64-16.78-14.91,0-9.84,6.52-16.15,17-16.2q24.5-.12,49,0c12.78.08,19.32,6.74,19.32,19.37q0,11.75,0,23.5Z"/><path class="cls-5" d="M185.82,678.46q0-34.74,0-69.47c0-13.72,6.48-20.29,20.05-20.27,19.82,0,39.66-.3,59.47.18,34.06.83,58.56,25.75,59.86,59.91.77,20.13-4.16,38-19.55,51.88-13.35,12-29.6,16-47.12,15.95-11.49,0-23,.12-34.48-.1-3.69-.07-5,1-4.87,4.78.25,9.32.15,18.66.09,28-.07,11.74-6.18,18.73-16.15,18.64-10.49-.09-17.24-7.4-17.28-19C185.77,725.44,185.82,702,185.82,678.46Zm33.47-25.56h0c0,9.16.06,18.32,0,27.47,0,2.71.38,4.4,3.73,4.37,13.15-.14,26.32.35,39.45-.21,17.5-.75,30.93-15.21,30.47-31.95-.5-18.24-14.06-31.57-32.32-31.67-12.16-.07-24.31.12-36.46-.07-3.53-.05-5,.61-4.91,4.6C219.5,634.58,219.29,643.75,219.29,652.9Z"/><path class="cls-2" d="M219.29,652.9c0-9.15.21-18.32-.1-27.46-.13-4,1.38-4.65,4.91-4.6,12.15.19,24.3,0,36.46.07,18.26.1,31.82,13.43,32.32,31.67.46,16.74-13,31.2-30.47,31.95-13.13.56-26.3.07-39.45.21-3.35,0-3.76-1.66-3.73-4.37.09-9.15,0-18.31,0-27.47Z"/></svg>