<svg id="Слой_1" data-name="Слой 1" xmlns="http://www.w3.org/2000/svg" viewBox="0 0 1024 1024"><defs><style>.cls-1{fill:#e0e3e5;}.cls-2{fill:#50bce6;}.cls-3{fill:#afb6bb;}.cls-4{fill:#c8cfd6;}.cls-5{fill:#fbfcfd;}</style></defs><path class="cls-1" d="M909.93,1023.9H242.05c-.13-1.81-1.59-1.76-2.85-2.16a70.87,70.87,0,0,1-20.07-9.76c-16.24-11.65-25.9-27.5-26.81-47.26-1-22.9-.2-45.9-.18-68.85q84.21,0,168.4,0,220.38,0,440.75-.1c16.48,0,28.57-13.13,30.39-27.83,1.24-10,.09-20.28,0-30.44.09-2.83.25-5.66.25-8.49q0-158,0-315.92c0-19.26-13.87-33.14-33.06-33.14H317q-62.48,0-125-.15,0-204.69,0-409.37c0-5.81-.23-11.61,1-17.38q8.5-39.83,47.59-51c1.23-.36,2.23-.59,2.4-2H705A6.49,6.49,0,0,1,705,1c-1.77,1.83-1,4.11-1,6.19q-.07,92.32,0,184.67a62,62,0,0,0,18.71,45.27c12.91,12.94,28.83,19.22,47.19,19.08,1.7,3.66,4.64,6.31,7.45,9.08,5.66,5.56,11.35,11.12,16.94,16.75,7.56,7.61,15,15.35,22.57,22.92,9,9,18.31,17.7,27.16,26.84,7.46,7.71,15.28,15.05,22.61,22.89,8.58,9.16,18.07,17.45,26.8,26.48,7.57,7.83,15.31,15.5,23,23.25,9.62,9.76,19.26,19.53,29.12,29,4.72,4.55,8.56,10.15,14.4,13.53,0,.83,0,1.67,0,2.5q0,255.83.05,511.65a47.53,47.53,0,0,1-1,9.38c-5.16,25.78-20.17,42.73-45.27,50.72C912.2,1021.67,910.14,1021.6,909.93,1023.9Z"/><path class="cls-2" d="M192,864.08q-46.74-.08-93.47-.14c-20.88,0-34.44-13.46-34.44-34.29q0-158.19,0-316.4c0-16.88,10.36-29.64,26.52-32.7a53.91,53.91,0,0,1,9.94-.54q45.74-.12,91.47-.16,62.47.07,125,.15H798.87c19.19,0,33,13.88,33.06,33.14q0,158,0,315.92c0,2.83-.16,5.66-.24,8.49C825.44,858.3,811,864.11,793,864.08q-232.54-.37-465.1-.14Q259.93,863.94,192,864.08ZM538.89,679.51q0,35.24,0,70.48c0,11.81,5.85,17.85,17.81,17.92,21.82.12,43.67.54,65.48-.16,23.73-.77,44.14-9.77,59.27-28.58,19.37-24.08,24.2-51.74,18.26-81.49-7.23-36.2-34.55-61.66-71.24-65.67-24.54-2.68-49.27-1-73.91-.8-9.47.07-15.66,7.75-15.67,17.31Q538.86,644,538.89,679.51ZM200.05,678q0,35.47,0,71c0,11.22,7.08,18.91,17.38,19,10.13.12,16.43-7.12,16.47-19,0-9,.2-18-.07-27-.13-4.07,1-5.4,5.23-5.4,15,0,30,.91,44.94-.59,19.69-2,35.57-10.72,46.31-27.62,9-14.13,10.65-29.76,8.72-46.11-3.42-29-26.64-51.87-55.43-53.11-21.44-.92-42.93-.74-64.4-.59-12.53.08-19.15,7.39-19.16,20Q200,643.21,200.05,678Zm231.56,95.23c20.89.07,37.59-4.8,51.12-14.16,25.4-17.56,33-65.87-5.9-84.21-12-5.66-24.6-9.17-37.21-12.86-10.37-3-21.05-5.32-30.14-11.61-11.3-7.82-11.42-23-.36-31.26,5.71-4.26,12.32-5.83,19.23-6.05a72.56,72.56,0,0,1,40.57,10.24c6.7,4,12.88,3.51,17.95-1.16,7.38-6.8,6.58-17.74-2.15-24.2-18.3-13.55-39.21-16.73-61.21-14.36-14.14,1.52-27.07,6.34-38.42,15.36-21.65,17.2-25.38,59.29,5.23,76.77,11.86,6.77,24.77,10.51,37.72,14.25,10.23,3,20.66,5.41,30,10.63,6.45,3.59,12.12,8.31,12,16.51-.12,8.59-4.26,15.33-11.74,19.66-7.13,4.14-15,5.29-23.13,4.85-16.79-.93-32.28-5.66-46.39-15.15-8.27-5.57-19-1.14-22.1,8.43-2.93,9,.09,16.82,9.4,23C392.92,769,411.74,773.06,431.61,773.18Z"/><path class="cls-3" d="M705,1q53.21,53.13,106.42,106.25,72.08,72,144.11,144.15c1.17,1.18,2.25,2.44,3.38,3.67-1.68,1.63-3.79,1-5.71,1-17.82.06-35.64,0-53.46,0l-129.88.14c-18.36.14-34.28-6.14-47.19-19.08A62,62,0,0,1,704,191.84q0-92.34,0-184.67C704,5.09,703.24,2.81,705,1Z"/><path class="cls-4" d="M192,864.08q67.94-.08,135.87-.14,232.54,0,465.1.14c18,0,32.47-5.78,38.73-26.53.07,10.16,1.22,20.45,0,30.44-1.82,14.7-13.91,27.81-30.39,27.83q-220.38.27-440.75.1-84.19,0-168.4,0Q192.07,880,192,864.08Z"/><path class="cls-4" d="M769.87,256.19l129.88-.14c17.82,0,35.64,0,53.46,0,1.92,0,4,.67,5.71-1,1.48,1.31,1,3.09,1,4.69q0,93.61,0,187.22c-5.84-3.38-9.68-9-14.4-13.53-9.86-9.5-19.5-19.27-29.12-29-7.64-7.75-15.38-15.42-23-23.25-8.73-9-18.22-17.32-26.8-26.48-7.33-7.84-15.15-15.18-22.61-22.89-8.85-9.14-18.15-17.85-27.16-26.84-7.59-7.57-15-15.31-22.57-22.92-5.59-5.63-11.28-11.19-16.94-16.75C774.51,262.5,771.57,259.85,769.87,256.19Z"/><path class="cls-5" d="M538.89,679.51q0-35.49,0-71c0-9.56,6.2-17.24,15.67-17.31,24.64-.2,49.37-1.88,73.91.8,36.69,4,64,29.47,71.24,65.67,5.94,29.75,1.11,57.41-18.26,81.49C666.33,758,645.92,767,622.19,767.75c-21.81.7-43.66.28-65.48.16-12-.07-17.8-6.11-17.81-17.92Q538.87,714.76,538.89,679.51Zm33.84,0h0c0,17.65,0,35.29,0,52.93,0,3.06.61,4.49,4.1,4.44,13.31-.19,26.64.22,39.94-.2,16.81-.54,30.65-7.42,40.19-21.52,10.4-15.38,13.19-32.43,9.56-50.55-4.43-22.09-20.3-40-45-42.09-14.45-1.24-29,0-43.41-.62-4.62-.19-5.49,1.48-5.44,5.68C572.86,644.92,572.73,662.23,572.73,679.54Z"/><path class="cls-5" d="M200.05,678q0-34.74,0-69.46c0-12.57,6.63-19.88,19.16-20,21.47-.15,43-.33,64.4.59,28.79,1.24,52,24.14,55.43,53.11,1.93,16.35.26,32-8.72,46.11C319.58,705.24,303.7,714,284,716c-14.94,1.5-30,.57-44.94.59-4.24,0-5.36,1.33-5.23,5.4.27,9,.1,18,.07,27,0,11.89-6.34,19.13-16.47,19-10.3-.12-17.37-7.81-17.38-19Q200,713.44,200.05,678Zm33.86-25.35h0q0,14,0,28c0,2-.46,4.23,2.74,4.15,15-.39,30,1.11,44.9-.81,15.22-2,26.43-17,25.48-33.21-.94-16-14.16-29.5-29.53-29.73-13.16-.19-26.31,0-39.47-.13-3.3-.05-4.27,1.06-4.21,4.28C234,634.28,233.91,643.44,233.91,652.6Z"/><path class="cls-5" d="M431.61,773.18c-19.87-.12-38.69-4.16-55.49-15.31-9.31-6.19-12.33-14-9.4-23,3.1-9.57,13.83-14,22.1-8.43,14.11,9.49,29.6,14.22,46.39,15.15,8.09.44,16-.71,23.13-4.85,7.48-4.33,11.62-11.07,11.74-19.66.13-8.2-5.54-12.92-12-16.51-9.39-5.22-19.82-7.67-30-10.63-13-3.74-25.86-7.48-37.72-14.25-30.61-17.48-26.88-59.57-5.23-76.77,11.35-9,24.28-13.84,38.42-15.36,22-2.37,42.91.81,61.21,14.36,8.73,6.46,9.53,17.4,2.15,24.2-5.07,4.67-11.25,5.17-17.95,1.16A72.56,72.56,0,0,0,428.35,613c-6.91.22-13.52,1.79-19.23,6.05-11.06,8.25-10.94,23.44.36,31.26,9.09,6.29,19.77,8.59,30.14,11.61,12.61,3.69,25.23,7.2,37.21,12.86,38.89,18.34,31.3,66.65,5.9,84.21C469.2,768.38,452.5,773.25,431.61,773.18Z"/><path class="cls-2" d="M572.73,679.54c0-17.31.13-34.62-.09-51.93,0-4.2.82-5.87,5.44-5.68,14.46.59,29-.62,43.41.62,24.71,2.11,40.58,20,45,42.09,3.63,18.12.84,35.17-9.56,50.55-9.54,14.1-23.38,21-40.19,21.52-13.3.42-26.63,0-39.94.2-3.49.05-4.12-1.38-4.1-4.44.1-17.64,0-35.28,0-52.93Z"/><path class="cls-2" d="M233.91,652.6c0-9.16.11-18.32-.06-27.48-.06-3.22.91-4.33,4.21-4.28,13.16.17,26.31-.06,39.47.13,15.37.23,28.59,13.69,29.53,29.73.95,16.24-10.26,31.25-25.48,33.21-14.9,1.92-29.94.42-44.9.81-3.2.08-2.74-2.19-2.74-4.15q0-14,0-28Z"/></svg>