<svg id="Слой_1" data-name="Слой 1" xmlns="http://www.w3.org/2000/svg" viewBox="0 0 1024 1024"><defs><style>.cls-1{fill:#e0e3e5;}.cls-2{fill:#f5b74e;}.cls-3{fill:#afb6bb;}.cls-4{fill:#c8cfd6;}.cls-5{fill:#fdfcfb;}</style></defs><path class="cls-1" d="M909.93,1023.9H242.05c-.13-1.81-1.59-1.76-2.85-2.16a71.06,71.06,0,0,1-20.08-9.76c-16.23-11.65-25.89-27.5-26.8-47.26-1-22.9-.2-45.9-.18-68.85,1.5,0,3,0,4.5,0H545.41c85.28,0,170.56.11,255.84-.1,16.45,0,28.93-13.45,30.47-28.29,1.07-10.21.1-20.63,0-30.95.06-2.5.17-5,.17-7.49q0-158,0-315.93c0-19.26-13.87-33.16-33-33.16Q558.46,480,318,480q-63,0-126-.14,0-204.69,0-409.37c0-5.81-.23-11.61,1-17.39q8.5-39.81,47.59-51c1.23-.36,2.23-.59,2.4-2H705A6.49,6.49,0,0,1,705,1c-1.77,1.83-1,4.11-1,6.19q-.07,92.32,0,184.67a62,62,0,0,0,18.71,45.27c12.91,12.94,28.83,19.22,47.19,19.08,1.7,3.66,4.64,6.31,7.45,9.08,5.66,5.56,11.35,11.12,16.94,16.75,7.56,7.61,15,15.35,22.57,22.92,9,9,18.31,17.7,27.16,26.84,7.46,7.71,15.28,15.05,22.61,22.89,8.58,9.16,18.07,17.45,26.8,26.48,7.57,7.83,15.31,15.5,23,23.25,9.62,9.76,19.26,19.53,29.12,29,4.72,4.55,8.56,10.15,14.4,13.53,0,.83,0,1.67,0,2.5q0,255.83.05,511.65a47.53,47.53,0,0,1-1,9.38c-5.16,25.78-20.17,42.73-45.27,50.72C912.2,1021.67,910.14,1021.6,909.93,1023.9Z"/><path class="cls-2" d="M192,864.09q-46.49-.08-93-.15c-21.59,0-35-13.25-35-34.77q0-157.71,0-315.43c0-17.31,10.22-30.13,26.53-33.19a57.7,57.7,0,0,1,10.45-.54q45.48-.12,91-.16,63,.07,126,.14,240.45,0,480.89,0c19.17,0,33,13.9,33,33.16q0,158,0,315.93c0,2.49-.11,5-.17,7.49-1.73,5.37-3.31,10.75-7.07,15.23-7.43,8.85-17,12.15-28.3,12.15q-256.95-.08-513.9,0Q237.26,863.94,192,864.09Zm505.9-156.6h0c0-7.83,0-15.66,0-23.49,0-12.13-6.93-19-19.21-19.08q-24.48-.1-49,0c-10.48,0-17.53,6.7-17.47,16.39,0,9,6.55,14.67,17.15,14.72,11,.06,22,.12,33-.06,3.3-.05,4.77.61,4.65,4.32-.27,8-.17,16,0,24a5.15,5.15,0,0,1-2.94,5.19c-21.26,11.85-43.1,13.48-64.94,2.37-27.57-14-34.06-49.07-25.9-73.38C582.09,632,610,614.28,637.27,618c11.46,1.56,20.83,7.48,29.31,15.06,6,5.34,12.25,5.94,18.83,2.14A16.87,16.87,0,0,0,694,617.51c-1-5.49-4.8-9-8.84-12.28-19.08-15.26-40.94-20.81-65-18.28-25.49,2.68-46.92,13.33-63.21,33.31-19.24,23.6-23.35,50.89-18.26,80.08,4.78,27.33,18.69,48.24,44.31,60.14,20.06,9.31,41.26,11.21,63,7.92a92.83,92.83,0,0,0,41.63-17.07c6.89-5,10.79-11.45,10.4-20.35C697.65,723.16,697.92,715.32,697.92,707.49ZM256.83,773.21c18,.1,34.95-3.56,50.25-13.69,26.16-17.32,33.86-66.41-5.28-84.74-12-5.62-24.59-9.17-37.2-12.85-10.36-3-21-5.34-30.12-11.61-9.44-6.5-11.34-17.18-4.81-26.61,4-5.69,9.73-8.55,16.3-9.71,17.31-3,33.33.77,48.39,9.5,6.95,4,13.68,3,18.54-2.44,5-5.66,5.26-12.92.74-19.27a26.09,26.09,0,0,0-7.91-6.77c-17.61-10.91-36.92-13.67-57.13-11.51A74.89,74.89,0,0,0,218,593.43c-17.56,10.44-25.64,26.09-24.68,46.3.93,19.69,12.38,31.95,29.46,39.86,15,7,31.32,10.09,46.91,15.31,6.81,2.28,13.51,4.78,19.08,9.54,6,5.16,7.84,11.3,5.38,18.82-3.74,11.46-12.61,16.4-23.74,17.68-20,2.31-38.25-2.77-55-13.68-5.1-3.32-10.2-4.63-15.9-1.45s-8.44,8.06-8.63,14.66c-.23,8,4,13.16,10.06,17.24C217.83,769,236.8,773,256.83,773.21ZM434.43,718c-1.05-2.24-1.84-3.84-2.55-5.47Q414,671.6,396,630.66c-4.47-10.21-8.81-20.49-13.63-30.54-5.48-11.44-18-14-27.47-6.1-6.67,5.57-7.88,13.33-3.44,22.65q26.33,55.22,52.69,110.41c5.17,10.81,10.2,21.7,15.81,32.28,3.32,6.27,8.47,11,16.27,10.52s12.17-5.5,15.16-12.07q32.55-71.32,65-142.65c1.67-3.68,2.95-7.43,2.16-11.58A16.69,16.69,0,0,0,504.48,590c-8.52-1.17-15.39,2.54-19,10.55-6.89,15.33-13.74,30.68-20.43,46.1C454.88,670.14,444.85,693.71,434.43,718Z"/><path class="cls-3" d="M705,1q53.21,53.13,106.42,106.25,72.08,72,144.11,144.15c1.17,1.18,2.25,2.44,3.38,3.67-1.68,1.63-3.79,1-5.71,1-17.82.06-35.64,0-53.46,0l-129.88.14c-18.36.14-34.28-6.14-47.19-19.08A62,62,0,0,1,704,191.84q0-92.34,0-184.67C704,5.09,703.24,2.81,705,1Z"/><path class="cls-4" d="M192,864.09q45.24-.08,90.48-.15,257,0,513.9,0c11.27,0,20.87-3.3,28.3-12.15,3.76-4.48,5.34-9.86,7.07-15.23.05,10.32,1,20.74,0,30.95-1.54,14.84-14,28.26-30.47,28.29-85.28.21-170.56.1-255.84.1H196.64c-1.5,0-3,0-4.5,0Z"/><path class="cls-4" d="M769.87,256.19l129.88-.14c17.82,0,35.64,0,53.46,0,1.92,0,4,.67,5.71-1,1.48,1.31,1,3.09,1,4.69q0,93.61,0,187.22c-5.84-3.38-9.68-9-14.4-13.53-9.86-9.5-19.5-19.27-29.12-29-7.64-7.75-15.38-15.42-23-23.25-8.73-9-18.22-17.32-26.8-26.48-7.33-7.84-15.15-15.18-22.61-22.89-8.85-9.14-18.15-17.85-27.16-26.84-7.59-7.57-15-15.31-22.57-22.92-5.59-5.63-11.28-11.19-16.94-16.75C774.51,262.5,771.57,259.85,769.87,256.19Z"/><path class="cls-5" d="M697.92,707.49c0,7.83-.27,15.67.07,23.49.39,8.9-3.51,15.31-10.4,20.35A92.83,92.83,0,0,1,646,768.4c-21.72,3.29-42.92,1.39-63-7.92-25.62-11.9-39.53-32.81-44.31-60.14-5.09-29.19-1-56.48,18.26-80.08,16.29-20,37.72-30.63,63.21-33.31,24.08-2.53,45.94,3,65,18.28,4,3.24,7.89,6.79,8.84,12.28a16.87,16.87,0,0,1-8.59,17.69c-6.58,3.8-12.85,3.2-18.83-2.14-8.48-7.58-17.85-13.5-29.31-15.06-27.26-3.72-55.18,14-64.06,40.45-8.16,24.31-1.67,59.35,25.9,73.38,21.84,11.11,43.68,9.48,64.94-2.37a5.15,5.15,0,0,0,2.94-5.19c-.14-8-.24-16,0-24,.12-3.71-1.35-4.37-4.65-4.32-11,.18-22,.12-33,.06-10.6,0-17.1-5.68-17.15-14.72-.06-9.69,7-16.36,17.47-16.39q24.49-.06,49,0c12.28.05,19.17,7,19.21,19.08,0,7.83,0,15.66,0,23.49Z"/><path class="cls-5" d="M256.83,773.21c-20-.17-39-4.19-55.92-15.5-6.11-4.08-10.29-9.28-10.06-17.24.19-6.6,2.82-11.42,8.63-14.66s10.8-1.87,15.9,1.45c16.74,10.91,35,16,55,13.68,11.13-1.28,20-6.22,23.74-17.68,2.46-7.52.66-13.66-5.38-18.82-5.57-4.76-12.27-7.26-19.08-9.54-15.59-5.22-31.88-8.35-46.91-15.31-17.08-7.91-28.53-20.17-29.46-39.86-1-20.21,7.12-35.86,24.68-46.3a74.89,74.89,0,0,1,30.64-9.92c20.21-2.16,39.52.6,57.13,11.51a26.09,26.09,0,0,1,7.91,6.77c4.52,6.35,4.26,13.61-.74,19.27-4.86,5.49-11.59,6.47-18.54,2.44C279.3,614.77,263.28,611,246,614c-6.57,1.16-12.35,4-16.3,9.71-6.53,9.43-4.63,20.11,4.81,26.61,9.1,6.27,19.76,8.59,30.12,11.61,12.61,3.68,25.21,7.23,37.2,12.85,39.14,18.33,31.44,67.42,5.28,84.74C291.78,769.65,274.86,773.31,256.83,773.21Z"/><path class="cls-5" d="M434.43,718c10.42-24.29,20.45-47.86,30.63-71.37,6.69-15.42,13.54-30.77,20.43-46.1,3.6-8,10.47-11.72,19-10.55a16.69,16.69,0,0,1,14.15,13.6c.79,4.15-.49,7.9-2.16,11.58q-32.5,71.33-65,142.65c-3,6.57-7.42,11.64-15.16,12.07s-12.95-4.25-16.27-10.52c-5.61-10.58-10.64-21.47-15.81-32.28Q377.81,671.9,351.5,616.67c-4.44-9.32-3.23-17.08,3.44-22.65,9.52-7.95,22-5.34,27.47,6.1,4.82,10,9.16,20.33,13.63,30.54q18,40.92,35.84,81.87C432.59,714.16,433.38,715.76,434.43,718Z"/></svg>