<svg xmlns="http://www.w3.org/2000/svg">
  <symbol fill="none" viewBox="0 0 24 24" id="lock">
    <path
      d="M6.45492 21.7553L6.68668 21.042L6.45492 21.7553ZM3.24472 18.5451L3.95801 18.3133L3.24472 18.5451ZM20.7553 18.5451L20.042 18.3133L20.7553 18.5451ZM17.5451 21.7553L17.3133 21.042L17.5451 21.7553ZM17.5451 8.24472L17.3133 8.95801L17.5451 8.24472ZM20.7553 11.4549L20.042 11.6867L20.7553 11.4549ZM6.45492 8.24472L6.68668 8.95801L6.45492 8.24472ZM3.24472 11.4549L3.95801 11.6867L3.24472 11.4549ZM12.75 13C12.75 12.5858 12.4142 12.25 12 12.25C11.5858 12.25 11.25 12.5858 11.25 13H12.75ZM11.25 17C11.25 17.4142 11.5858 17.75 12 17.75C12.4142 17.75 12.75 17.4142 12.75 17H11.25ZM10 8.75H14V7.25H10V8.75ZM14 21.25H10V22.75H14V21.25ZM10 21.25C8.08034 21.25 7.29839 21.2407 6.68668 21.042L6.22315 22.4686C7.11777 22.7593 8.19709 22.75 10 22.75V21.25ZM2.25 15C2.25 16.8029 2.24075 17.8822 2.53142 18.7768L3.95801 18.3133C3.75925 17.7016 3.75 16.9197 3.75 15H2.25ZM6.68668 21.042C5.39282 20.6216 4.37841 19.6072 3.95801 18.3133L2.53142 18.7768C3.1002 20.5274 4.47263 21.8998 6.22315 22.4686L6.68668 21.042ZM20.25 15C20.25 16.9197 20.2407 17.7016 20.042 18.3133L21.4686 18.7768C21.7593 17.8822 21.75 16.8029 21.75 15H20.25ZM14 22.75C15.8029 22.75 16.8822 22.7593 17.7768 22.4686L17.3133 21.042C16.7016 21.2407 15.9197 21.25 14 21.25V22.75ZM20.042 18.3133C19.6216 19.6072 18.6072 20.6216 17.3133 21.042L17.7768 22.4686C19.5274 21.8998 20.8998 20.5274 21.4686 18.7768L20.042 18.3133ZM21.75 15C21.75 13.1971 21.7593 12.1178 21.4686 11.2232L20.042 11.6867C20.2407 12.2984 20.25 13.0803 20.25 15H21.75ZM17.3133 8.95801C18.6072 9.37841 19.6216 10.3928 20.042 11.6867L21.4686 11.2232C20.8998 9.47263 19.5274 8.1002 17.7768 7.53142L17.3133 8.95801ZM3.75 15C3.75 13.0803 3.75925 12.2984 3.95801 11.6867L2.53142 11.2232C2.24075 12.1178 2.25 13.1971 2.25 15H3.75ZM6.22315 7.53142C4.47263 8.1002 3.1002 9.47263 2.53142 11.2232L3.95801 11.6867C4.37841 10.3928 5.39282 9.37841 6.68668 8.95801L6.22315 7.53142ZM16.25 7V8H17.75V7H16.25ZM7.75 8V7H6.25V8H7.75ZM12 2.75C14.3472 2.75 16.25 4.65279 16.25 7H17.75C17.75 3.82436 15.1756 1.25 12 1.25V2.75ZM12 1.25C8.82436 1.25 6.25 3.82436 6.25 7H7.75C7.75 4.65279 9.65279 2.75 12 2.75V1.25ZM11.25 13V17H12.75V13H11.25ZM10 7.25C8.58853 7.25 7.6278 7.24738 6.8754 7.37414L7.1246 8.85329C7.7222 8.75262 8.52815 8.75 10 8.75V7.25ZM6.8754 7.37414C6.64772 7.4125 6.43257 7.46338 6.22315 7.53142L6.68668 8.95801C6.81685 8.91571 6.95935 8.88113 7.1246 8.85329L6.8754 7.37414ZM6.25 8V8.11372H7.75V8H6.25ZM14 8.75C15.4719 8.75 16.2778 8.75262 16.8754 8.85329L17.1246 7.37414C16.3722 7.24738 15.4115 7.25 14 7.25V8.75ZM16.8754 8.85329C17.0407 8.88113 17.1831 8.91571 17.3133 8.95801L17.7768 7.53142C17.5674 7.46338 17.3523 7.4125 17.1246 7.37414L16.8754 8.85329ZM16.25 8V8.11372H17.75V8H16.25Z"
      fill="currentColor"></path>
  </symbol>
  <symbol fill="none" viewBox="0 0 24 24" id="unlock">
    <path
      d="M6.45492 21.7553L6.68668 21.042L6.45492 21.7553ZM3.24472 18.5451L3.95801 18.3133L3.24472 18.5451ZM20.7553 18.5451L20.042 18.3133L20.7553 18.5451ZM17.5451 21.7553L17.3133 21.042L17.5451 21.7553ZM17.5451 8.24472L17.3133 8.95801L17.5451 8.24472ZM20.7553 11.4549L20.042 11.6867L20.7553 11.4549ZM6.45492 8.24472L6.68668 8.95801L6.45492 8.24472ZM3.24472 11.4549L3.95801 11.6867L3.24472 11.4549ZM14.55 3.59962C14.8811 3.84843 15.3513 3.78167 15.6001 3.45051C15.8489 3.11935 15.7822 2.64919 15.451 2.40038L14.55 3.59962ZM12.75 13C12.75 12.5858 12.4142 12.25 12 12.25C11.5858 12.25 11.25 12.5858 11.25 13H12.75ZM11.25 17C11.25 17.4142 11.5858 17.75 12 17.75C12.4142 17.75 12.75 17.4142 12.75 17H11.25ZM10 8.75H14V7.25H10V8.75ZM14 21.25H10V22.75H14V21.25ZM10 21.25C8.08034 21.25 7.29839 21.2407 6.68668 21.042L6.22315 22.4686C7.11777 22.7593 8.19709 22.75 10 22.75V21.25ZM2.25 15C2.25 16.8029 2.24075 17.8822 2.53142 18.7768L3.95801 18.3133C3.75925 17.7016 3.75 16.9197 3.75 15H2.25ZM6.68668 21.042C5.39282 20.6216 4.37841 19.6072 3.95801 18.3133L2.53142 18.7768C3.1002 20.5274 4.47263 21.8998 6.22315 22.4686L6.68668 21.042ZM20.25 15C20.25 16.9197 20.2407 17.7016 20.042 18.3133L21.4686 18.7768C21.7593 17.8822 21.75 16.8029 21.75 15H20.25ZM14 22.75C15.8029 22.75 16.8822 22.7593 17.7768 22.4686L17.3133 21.042C16.7016 21.2407 15.9197 21.25 14 21.25V22.75ZM20.042 18.3133C19.6216 19.6072 18.6072 20.6216 17.3133 21.042L17.7768 22.4686C19.5274 21.8998 20.8998 20.5274 21.4686 18.7768L20.042 18.3133ZM14 8.75C15.9197 8.75 16.7016 8.75925 17.3133 8.95801L17.7768 7.53142C16.8822 7.24075 15.8029 7.25 14 7.25V8.75ZM21.75 15C21.75 13.1971 21.7593 12.1178 21.4686 11.2232L20.042 11.6867C20.2407 12.2984 20.25 13.0803 20.25 15H21.75ZM17.3133 8.95801C18.6072 9.37841 19.6216 10.3928 20.042 11.6867L21.4686 11.2232C20.8998 9.47263 19.5274 8.1002 17.7768 7.53142L17.3133 8.95801ZM3.75 15C3.75 13.0803 3.75925 12.2984 3.95801 11.6867L2.53142 11.2232C2.24075 12.1178 2.25 13.1971 2.25 15H3.75ZM6.22315 7.53142C4.47263 8.1002 3.1002 9.47263 2.53142 11.2232L3.95801 11.6867C4.37841 10.3928 5.39282 9.37841 6.68668 8.95801L6.22315 7.53142ZM7.75 8V7H6.25V8H7.75ZM12 1.25C8.82436 1.25 6.25 3.82436 6.25 7H7.75C7.75 4.65279 9.65279 2.75 12 2.75V1.25ZM12 2.75C12.9578 2.75 13.8397 3.06595 14.55 3.59962L15.451 2.40038C14.4898 1.67823 13.2938 1.25 12 1.25V2.75ZM11.25 13V17H12.75V13H11.25ZM10 7.25C8.58853 7.25 7.6278 7.24738 6.8754 7.37414L7.1246 8.85329C7.7222 8.75262 8.52815 8.75 10 8.75V7.25ZM6.8754 7.37414C6.64772 7.4125 6.43257 7.46338 6.22315 7.53142L6.68668 8.95801C6.81685 8.91571 6.95935 8.88113 7.1246 8.85329L6.8754 7.37414ZM6.25 8V8.11372H7.75V8H6.25Z"
      fill="currentColor"></path>
  </symbol>
  <symbol fill="none" viewBox="0 0 24 24" id="down_angle">
    <path
      d="M17 10L15.2527 11.763C13.8592 13.1689 13.1625 13.8719 12.3133 13.9801C12.1053 14.0066 11.8947 14.0066 11.6867 13.9801C10.8375 13.8719 10.1408 13.1689 8.74731 11.763L7 10"
      stroke="currentColor" stroke-width="1.5" stroke-linecap="round"></path>
  </symbol>
  <symbol fill="none" viewBox="0 0 24 24" id="success">
    <path
      d="M20 7L14.6093 13.4688C12.4732 16.0322 11.4051 17.3139 10 17.3139C8.59488 17.3139 7.52681 16.0322 5.39067 13.4688L4 11.8"
      stroke="currentColor" stroke-width="1.5" stroke-linecap="round"></path>
  </symbol>
  <symbol fill="none" viewBox="0 0 24 24" id="unlink">
    <path
      d="M8 17.75C8.41421 17.75 8.75 17.4142 8.75 17C8.75 16.5858 8.41421 16.25 8 16.25V17.75ZM16 16.25C15.5858 16.25 15.25 16.5858 15.25 17C15.25 17.4142 15.5858 17.75 16 17.75V16.25ZM16 6.25C15.5858 6.25 15.25 6.58579 15.25 7C15.25 7.41421 15.5858 7.75 16 7.75V6.25ZM8 7.75C8.41421 7.75 8.75 7.41421 8.75 7C8.75 6.58579 8.41421 6.25 8 6.25V7.75ZM8 11.25C7.58579 11.25 7.25 11.5858 7.25 12C7.25 12.4142 7.58579 12.75 8 12.75V11.25ZM16 12.75C16.4142 12.75 16.75 12.4142 16.75 12C16.75 11.5858 16.4142 11.25 16 11.25V12.75ZM8 16.25C5.65279 16.25 3.75 14.3472 3.75 12H2.25C2.25 15.1756 4.82436 17.75 8 17.75V16.25ZM20.25 12C20.25 14.3472 18.3472 16.25 16 16.25V17.75C19.1756 17.75 21.75 15.1756 21.75 12H20.25ZM16 7.75C18.3472 7.75 20.25 9.65279 20.25 12H21.75C21.75 8.82436 19.1756 6.25 16 6.25V7.75ZM8 6.25C4.82436 6.25 2.25 8.82436 2.25 12H3.75C3.75 9.65279 5.65279 7.75 8 7.75V6.25ZM8 12.75H16V11.25H8V12.75Z"
      fill="currentColor"></path>
  </symbol>
  <symbol fill="none" viewBox="0 0 24 24" id="close">
    <path d="M5 5L19 19M5.00003 19L12 12L19 5" stroke="currentColor" stroke-width="1.5" stroke-linecap="round"></path>
  </symbol>
  <symbol fill="none" viewBox="0 0 24 24" id="delete">
    <path
      d="M18.5172 12.7795L19.26 12.8829L18.5172 12.7795ZM18.2549 14.6645L18.9977 14.7679L18.2549 14.6645ZM5.74514 14.6645L6.48798 14.5611L5.74514 14.6645ZM5.4828 12.7795L4.73996 12.8829L5.4828 12.7795ZM9.18365 21.7368L8.89206 22.4278L9.18365 21.7368ZM6.47508 18.5603L7.17907 18.3017L6.47508 18.5603ZM17.5249 18.5603L18.2289 18.819V18.819L17.5249 18.5603ZM14.8164 21.7368L14.5248 21.0458H14.5248L14.8164 21.7368ZM5.74664 8.92906C5.70746 8.5167 5.34142 8.21418 4.92906 8.25336C4.5167 8.29254 4.21418 8.65858 4.25336 9.07094L5.74664 8.92906ZM19.7466 9.07094C19.7858 8.65858 19.4833 8.29254 19.0709 8.25336C18.6586 8.21418 18.2925 8.5167 18.2534 8.92906L19.7466 9.07094ZM20 7.75C20.4142 7.75 20.75 7.41421 20.75 7C20.75 6.58579 20.4142 6.25 20 6.25V7.75ZM4 6.25C3.58579 6.25 3.25 6.58579 3.25 7C3.25 7.41421 3.58579 7.75 4 7.75V6.25ZM16 7V7.75H16.75V7H16ZM8 7H7.25V7.75H8V7ZM17.7744 12.6761L17.512 14.5611L18.9977 14.7679L19.26 12.8829L17.7744 12.6761ZM6.48798 14.5611L6.22564 12.6761L4.73996 12.8829L5.0023 14.7679L6.48798 14.5611ZM12 21.25C10.4708 21.25 9.92544 21.2358 9.47524 21.0458L8.89206 22.4278C9.68914 22.7642 10.6056 22.75 12 22.75V21.25ZM5.0023 14.7679C5.282 16.7777 5.43406 17.9017 5.77109 18.819L7.17907 18.3017C6.91156 17.5736 6.77851 16.6488 6.48798 14.5611L5.0023 14.7679ZM9.47524 21.0458C8.55279 20.6566 7.69496 19.7058 7.17907 18.3017L5.77109 18.819C6.3857 20.4918 7.48205 21.8328 8.89206 22.4278L9.47524 21.0458ZM17.512 14.5611C17.2215 16.6488 17.0884 17.5736 16.8209 18.3017L18.2289 18.819C18.5659 17.9017 18.718 16.7777 18.9977 14.7679L17.512 14.5611ZM12 22.75C13.3944 22.75 14.3109 22.7642 15.1079 22.4278L14.5248 21.0458C14.0746 21.2358 13.5292 21.25 12 21.25V22.75ZM16.8209 18.3017C16.305 19.7058 15.4472 20.6566 14.5248 21.0458L15.1079 22.4278C16.5179 21.8328 17.6143 20.4918 18.2289 18.819L16.8209 18.3017ZM6.22564 12.6761C6.00352 11.08 5.83766 9.88703 5.74664 8.92906L4.25336 9.07094C4.34819 10.069 4.51961 11.2995 4.73996 12.8829L6.22564 12.6761ZM19.26 12.8829C19.4804 11.2995 19.6518 10.069 19.7466 9.07094L18.2534 8.92906C18.1623 9.88702 17.9965 11.08 17.7744 12.6761L19.26 12.8829ZM20 6.25H4V7.75H20V6.25ZM15.25 6V7H16.75V6H15.25ZM16 6.25H8V7.75H16V6.25ZM8.75 7V6H7.25V7H8.75ZM12 2.75C13.7949 2.75 15.25 4.20507 15.25 6H16.75C16.75 3.37665 14.6234 1.25 12 1.25V2.75ZM12 1.25C9.37665 1.25 7.25 3.37665 7.25 6H8.75C8.75 4.20507 10.2051 2.75 12 2.75V1.25Z"
      fill="currentColor"></path>
  </symbol>
  <symbol fill="none" viewBox="0 0 24 24" id="edit">
    <path
      d="M9.53118 19.0199L9.25825 18.3213L9.53118 19.0199ZM5.47478 19.7988L5.09978 20.4483L5.09978 20.4483L5.47478 19.7988ZM4.12116 15.8964L3.37971 16.0093L4.12116 15.8964ZM4.61146 13.2941L5.26098 13.6691L4.61146 13.2941ZM4.02731 14.5314L3.29028 14.3925H3.29028L4.02731 14.5314ZM11.5397 17.2941L12.1892 17.6691L11.5397 17.2941ZM10.7602 18.4186L11.249 18.9875H11.249L10.7602 18.4186ZM8.4099 6.71503L7.76038 6.34003L8.4099 6.71503ZM14.6886 10.34L10.8901 16.9191L12.1892 17.6691L15.9876 11.09L14.6886 10.34ZM5.26098 13.6691L9.05942 7.09003L7.76038 6.34003L3.96194 12.9191L5.26098 13.6691ZM9.25825 18.3213C8.16178 18.7497 7.41502 19.0394 6.83854 19.1741C6.28167 19.3042 6.02898 19.2527 5.84978 19.1493L5.09978 20.4483C5.75305 20.8255 6.45392 20.8044 7.17981 20.6348C7.88609 20.4698 8.75129 20.1298 9.80411 19.7184L9.25825 18.3213ZM3.37971 16.0093C3.5499 17.1267 3.68805 18.046 3.89829 18.7402C4.11436 19.4536 4.44651 20.0712 5.09978 20.4483L5.84978 19.1493C5.67059 19.0458 5.49965 18.8527 5.33389 18.3054C5.16229 17.7388 5.03986 16.9472 4.86261 15.7835L3.37971 16.0093ZM3.96194 12.9191C3.64012 13.4765 3.38246 13.9033 3.29028 14.3925L4.76434 14.6702C4.7983 14.49 4.88802 14.3151 5.26098 13.6691L3.96194 12.9191ZM4.86261 15.7835C4.7503 15.046 4.73039 14.8505 4.76434 14.6702L3.29028 14.3925C3.1981 14.8817 3.2828 15.373 3.37971 16.0093L4.86261 15.7835ZM10.8901 16.9191C10.5172 17.5651 10.4105 17.7303 10.2715 17.8498L11.249 18.9875C11.6266 18.6631 11.8674 18.2265 12.1892 17.6691L10.8901 16.9191ZM9.80411 19.7184C10.4036 19.4842 10.8714 19.3119 11.249 18.9875L10.2715 17.8498C10.1324 17.9693 9.95303 18.0498 9.25825 18.3213L9.80411 19.7184ZM13.499 5.90045C14.3339 6.38245 14.8939 6.70761 15.2797 7.00537C15.6483 7.28983 15.7658 7.48144 15.8135 7.65945L17.2623 7.27123C17.0956 6.64904 16.6976 6.20485 16.1961 5.81785C15.7119 5.44416 15.0471 5.06221 14.249 4.60141L13.499 5.90045ZM15.9876 11.09C16.4484 10.2919 16.8331 9.62875 17.0657 9.06299C17.3065 8.47711 17.4291 7.89341 17.2623 7.27123L15.8135 7.65945C15.8612 7.83747 15.8553 8.06212 15.6783 8.49278C15.493 8.94357 15.1706 9.50517 14.6886 10.34L15.9876 11.09ZM14.249 4.60141C13.4509 4.1406 12.7877 3.7559 12.222 3.52337C11.6361 3.28257 11.0524 3.15997 10.4302 3.32668L10.8184 4.77557C10.9964 4.72787 11.2211 4.73376 11.6518 4.91076C12.1025 5.09604 12.6641 5.41844 13.499 5.90045L14.249 4.60141ZM9.05942 7.09003C9.54142 6.25517 9.86658 5.69516 10.1643 5.30931C10.4488 4.9407 10.6404 4.82327 10.8184 4.77557L10.4302 3.32668C9.80801 3.49339 9.36382 3.89142 8.97683 4.39291C8.60313 4.87716 8.22118 5.54189 7.76038 6.34003L9.05942 7.09003ZM15.7131 10.0655L8.7849 6.06551L8.0349 7.36455L14.9631 11.3645L15.7131 10.0655Z"
      fill="currentColor"></path>
    <path
      d="M20 20.75C20.4142 20.75 20.75 20.4142 20.75 20C20.75 19.5858 20.4142 19.25 20 19.25V20.75ZM14 19.25C13.5858 19.25 13.25 19.5858 13.25 20C13.25 20.4142 13.5858 20.75 14 20.75V19.25ZM20 19.25H14V20.75H20V19.25Z"
      fill="currentColor"></path>
  </symbol>
  <symbol fill="none" viewBox="0 0 24 24" id="upload">
    <path
      d="M7.21783 20.9384L7.1005 21.6792H7.1005L7.21783 20.9384ZM3.06156 16.7822L3.80232 16.6648L3.06156 16.7822ZM20.9384 16.7822L21.6792 16.8995V16.8995L20.9384 16.7822ZM16.7822 20.9384L16.8995 21.6792H16.8995L16.7822 20.9384ZM20.6 10.5496C20.3513 10.2184 19.8811 10.1516 19.5499 10.4003C19.2187 10.6491 19.1519 11.1192 19.4007 11.4504L20.6 10.5496ZM4.59931 11.4504C4.84808 11.1192 4.78126 10.6491 4.45007 10.4003C4.11888 10.1516 3.64873 10.2184 3.39996 10.5496L4.59931 11.4504ZM11.25 17C11.25 17.4142 11.5858 17.75 12 17.75C12.4142 17.75 12.75 17.4142 12.75 17H11.25ZM7.41232 6.53403C7.15497 6.8586 7.20946 7.33034 7.53403 7.58768C7.8586 7.84503 8.33034 7.79054 8.58768 7.46597L7.41232 6.53403ZM9.39785 5.23703L8.81016 4.77106L9.39785 5.23703ZM14.6022 5.23703L15.1898 4.77106L14.6022 5.23703ZM15.4123 7.46597C15.6697 7.79054 16.1414 7.84503 16.466 7.58768C16.7905 7.33034 16.845 6.8586 16.5877 6.53403L15.4123 7.46597ZM11.7493 3.01989L11.6313 2.27923L11.6313 2.27923L11.7493 3.01989ZM12.2507 3.01989L12.3687 2.27923L12.3687 2.27923L12.2507 3.01989ZM20.25 14V15H21.75V14H20.25ZM15 20.25H9V21.75H15V20.25ZM3.75 15V14H2.25V15H3.75ZM9 20.25C8.04233 20.25 7.65082 20.2477 7.33515 20.1977L7.1005 21.6792C7.56216 21.7523 8.09965 21.75 9 21.75V20.25ZM2.25 15C2.25 15.9003 2.24767 16.4378 2.32079 16.8995L3.80232 16.6648C3.75233 16.3492 3.75 15.9577 3.75 15H2.25ZM7.33515 20.1977C5.51661 19.9096 4.09035 18.4834 3.80232 16.6648L2.32079 16.8995C2.71048 19.3599 4.64012 21.2895 7.1005 21.6792L7.33515 20.1977ZM20.25 15C20.25 15.9577 20.2477 16.3492 20.1977 16.6648L21.6792 16.8995C21.7523 16.4378 21.75 15.9003 21.75 15H20.25ZM15 21.75C15.9003 21.75 16.4378 21.7523 16.8995 21.6792L16.6648 20.1977C16.3492 20.2477 15.9577 20.25 15 20.25V21.75ZM20.1977 16.6648C19.9096 18.4834 18.4834 19.9096 16.6648 20.1977L16.8995 21.6792C19.3599 21.2895 21.2895 19.3599 21.6792 16.8995L20.1977 16.6648ZM21.75 14C21.75 12.7064 21.3219 11.5106 20.6 10.5496L19.4007 11.4504C19.9342 12.1607 20.25 13.0424 20.25 14H21.75ZM3.75 14C3.75 13.0424 4.06583 12.1607 4.59931 11.4504L3.39996 10.5496C2.67806 11.5106 2.25 12.7064 2.25 14H3.75ZM12.75 17V4H11.25V17H12.75ZM8.58768 7.46597L9.98553 5.703L8.81016 4.77106L7.41232 6.53403L8.58768 7.46597ZM14.0145 5.703L15.4123 7.46597L16.5877 6.53403L15.1898 4.77106L14.0145 5.703ZM9.98553 5.703C10.5543 4.98568 10.9418 4.49884 11.2682 4.17113C11.5913 3.84678 11.7612 3.77747 11.8673 3.76055L11.6313 2.27923C11.0582 2.37055 10.6096 2.70685 10.2055 3.11252C9.80475 3.51484 9.35616 4.08245 8.81016 4.77106L9.98553 5.703ZM15.1898 4.77106C14.6438 4.08245 14.1953 3.51484 13.7945 3.11252C13.3904 2.70685 12.9418 2.37055 12.3687 2.27923L12.1327 3.76055C12.2388 3.77747 12.4087 3.84678 12.7318 4.17113C13.0582 4.49884 13.4457 4.98568 14.0145 5.703L15.1898 4.77106ZM11.8673 3.76055C11.9117 3.75348 11.9559 3.75 12 3.75V2.25C11.8766 2.25 11.7534 2.25978 11.6313 2.27923L11.8673 3.76055ZM12 3.75C12.0441 3.75 12.0883 3.75348 12.1327 3.76055L12.3687 2.27923C12.2466 2.25978 12.1234 2.25 12 2.25V3.75ZM12.75 4V3H11.25V4H12.75Z"
      fill="currentColor"></path>
  </symbol>
  <symbol fill="none" viewBox="0 0 24 24" id="download">
    <path
      d="M7.21783 20.9384L7.1005 21.6792H7.1005L7.21783 20.9384ZM3.06156 16.7822L3.80232 16.6648L3.06156 16.7822ZM20.9384 16.7822L21.6792 16.8995V16.8995L20.9384 16.7822ZM16.7822 20.9384L16.8995 21.6792H16.8995L16.7822 20.9384ZM20.6 10.5496C20.3513 10.2184 19.8811 10.1516 19.5499 10.4003C19.2187 10.6491 19.1519 11.1192 19.4007 11.4504L20.6 10.5496ZM4.59931 11.4504C4.84808 11.1192 4.78126 10.6491 4.45007 10.4003C4.11888 10.1516 3.64873 10.2184 3.39996 10.5496L4.59931 11.4504ZM12.75 3C12.75 2.58579 12.4142 2.25 12 2.25C11.5858 2.25 11.25 2.58579 11.25 3H12.75ZM8.58768 12.534C8.33033 12.2095 7.8586 12.155 7.53403 12.4123C7.20946 12.6697 7.15497 13.1414 7.41232 13.466L8.58768 12.534ZM9.39785 14.763L8.81016 15.2289L9.39785 14.763ZM14.6022 14.763L14.0145 14.297L14.6022 14.763ZM16.5877 13.466C16.845 13.1414 16.7905 12.6697 16.466 12.4123C16.1414 12.155 15.6697 12.2095 15.4123 12.534L16.5877 13.466ZM11.7493 16.9801L11.6313 17.7208L11.6313 17.7208L11.7493 16.9801ZM12.2507 16.9801L12.3687 17.7208L12.3687 17.7208L12.2507 16.9801ZM20.25 14V15H21.75V14H20.25ZM15 20.25H9V21.75H15V20.25ZM3.75 15V14H2.25V15H3.75ZM9 20.25C8.04233 20.25 7.65082 20.2477 7.33515 20.1977L7.1005 21.6792C7.56216 21.7523 8.09965 21.75 9 21.75V20.25ZM2.25 15C2.25 15.9003 2.24767 16.4378 2.32079 16.8995L3.80232 16.6648C3.75233 16.3492 3.75 15.9577 3.75 15H2.25ZM7.33515 20.1977C5.51661 19.9096 4.09035 18.4834 3.80232 16.6648L2.32079 16.8995C2.71048 19.3599 4.64012 21.2895 7.1005 21.6792L7.33515 20.1977ZM20.25 15C20.25 15.9577 20.2477 16.3492 20.1977 16.6648L21.6792 16.8995C21.7523 16.4378 21.75 15.9003 21.75 15H20.25ZM15 21.75C15.9003 21.75 16.4378 21.7523 16.8995 21.6792L16.6648 20.1977C16.3492 20.2477 15.9577 20.25 15 20.25V21.75ZM20.1977 16.6648C19.9096 18.4834 18.4834 19.9096 16.6648 20.1977L16.8995 21.6792C19.3599 21.2895 21.2895 19.3599 21.6792 16.8995L20.1977 16.6648ZM21.75 14C21.75 12.7064 21.3219 11.5106 20.6 10.5496L19.4007 11.4504C19.9342 12.1607 20.25 13.0424 20.25 14H21.75ZM3.75 14C3.75 13.0424 4.06583 12.1607 4.59931 11.4504L3.39996 10.5496C2.67806 11.5106 2.25 12.7064 2.25 14H3.75ZM11.25 3V16H12.75V3H11.25ZM7.41232 13.466L8.81016 15.2289L9.98553 14.297L8.58768 12.534L7.41232 13.466ZM15.1898 15.2289L16.5877 13.466L15.4123 12.534L14.0145 14.297L15.1898 15.2289ZM8.81016 15.2289C9.35616 15.9176 9.80475 16.4852 10.2055 16.8875C10.6096 17.2932 11.0582 17.6294 11.6313 17.7208L11.8673 16.2395C11.7612 16.2225 11.5913 16.1532 11.2682 15.8289C10.9418 15.5012 10.5543 15.0143 9.98553 14.297L8.81016 15.2289ZM14.0145 14.297C13.4457 15.0143 13.0582 15.5012 12.7318 15.8289C12.4087 16.1532 12.2388 16.2225 12.1327 16.2395L12.3687 17.7208C12.9418 17.6294 13.3904 17.2932 13.7945 16.8875C14.1953 16.4852 14.6438 15.9175 15.1898 15.2289L14.0145 14.297ZM11.6313 17.7208C11.7534 17.7402 11.8766 17.75 12 17.75V16.25C11.9559 16.25 11.9117 16.2465 11.8673 16.2395L11.6313 17.7208ZM12 17.75C12.1234 17.75 12.2466 17.7402 12.3687 17.7208L12.1327 16.2395C12.0883 16.2465 12.0441 16.25 12 16.25V17.75ZM11.25 16V17H12.75V16H11.25Z"
      fill="currentColor"></path>
  </symbol>
  <symbol fill="none" viewBox="0 0 24 24" id="link">
    <path
      d="M13.6328 14.5219L14.5818 10.9802C15.1059 9.02413 13.9451 7.01356 11.9891 6.48944C10.033 5.96532 8.02248 7.12612 7.49836 9.08216L5.12585 17.9365C4.60173 19.8925 5.76253 21.9031 7.71857 22.4272C8.6168 22.6679 9.52652 22.5533 10.2985 22.1695C10.7723 21.934 11.1942 21.5971 11.5298 21.1788M11.0401 10.0312L10.0911 13.5729C9.56696 15.5289 10.7278 17.5395 12.6838 18.0636C14.6398 18.5877 16.6504 17.4269 17.1745 15.4709L19.547 6.61658C20.0712 4.66054 18.9104 2.64997 16.9543 2.12585C16.0561 1.88517 15.1464 1.99979 14.3744 2.38356C13.9006 2.61907 13.4787 2.95595 13.1431 3.37429"
      stroke="currentColor" stroke-width="1.5" stroke-linecap="round"></path>
  </symbol>
  <symbol fill="none" viewBox="0 0 24 24" id="list_big">
    <path
      d="M5 5.25C4.58579 5.25 4.25 5.58579 4.25 6C4.25 6.41421 4.58579 6.75 5 6.75H19C19.4142 6.75 19.75 6.41421 19.75 6C19.75 5.58579 19.4142 5.25 19 5.25H5Z"
      fill="currentColor"></path>
    <path
      d="M5 9.25C4.58579 9.25 4.25 9.58579 4.25 10C4.25 10.4142 4.58579 10.75 5 10.75H19C19.4142 10.75 19.75 10.4142 19.75 10C19.75 9.58579 19.4142 9.25 19 9.25H5Z"
      fill="currentColor"></path>
    <path
      d="M5 13.25C4.58579 13.25 4.25 13.5858 4.25 14C4.25 14.4142 4.58579 14.75 5 14.75H19C19.4142 14.75 19.75 14.4142 19.75 14C19.75 13.5858 19.4142 13.25 19 13.25H5Z"
      fill="currentColor"></path>
    <path
      d="M5 17.25C4.58579 17.25 4.25 17.5858 4.25 18C4.25 18.4142 4.58579 18.75 5 18.75H19C19.4142 18.75 19.75 18.4142 19.75 18C19.75 17.5858 19.4142 17.25 19 17.25H5Z"
      fill="currentColor"></path>
  </symbol>
  <symbol fill="none" viewBox="0 0 24 24" id="list">
    <path
      d="M5 5.25C4.58579 5.25 4.25 5.58579 4.25 6C4.25 6.41421 4.58579 6.75 5 6.75H19C19.4142 6.75 19.75 6.41421 19.75 6C19.75 5.58579 19.4142 5.25 19 5.25H5Z"
      fill="currentColor"></path>
    <path
      d="M5 11.25C4.58579 11.25 4.25 11.5858 4.25 12C4.25 12.4142 4.58579 12.75 5 12.75H19C19.4142 12.75 19.75 12.4142 19.75 12C19.75 11.5858 19.4142 11.25 19 11.25H5Z"
      fill="currentColor"></path>
    <path
      d="M5 17.25C4.58579 17.25 4.25 17.5858 4.25 18C4.25 18.4142 4.58579 18.75 5 18.75H19C19.4142 18.75 19.75 18.4142 19.75 18C19.75 17.5858 19.4142 17.25 19 17.25H5Z"
      fill="currentColor"></path>
  </symbol>
  <symbol fill="none" viewBox="0 0 24 24" id="grid">
    <path
      d="M6 12C6 13.1046 5.10457 14 4 14C2.89543 14 2 13.1046 2 12C2 10.8954 2.89543 10 4 10C5.10457 10 6 10.8954 6 12Z"
      fill="currentColor"></path>
    <path
      d="M14 12C14 13.1046 13.1046 14 12 14C10.8954 14 10 13.1046 10 12C10 10.8954 10.8954 10 12 10C13.1046 10 14 10.8954 14 12Z"
      fill="currentColor"></path>
    <path
      d="M22 12C22 13.1046 21.1046 14 20 14C18.8954 14 18 13.1046 18 12C18 10.8954 18.8954 10 20 10C21.1046 10 22 10.8954 22 12Z"
      fill="currentColor"></path>
    <path d="M6 4C6 5.10457 5.10457 6 4 6C2.89543 6 2 5.10457 2 4C2 2.89543 2.89543 2 4 2C5.10457 2 6 2.89543 6 4Z"
          fill="currentColor"></path>
    <path
      d="M14 4C14 5.10457 13.1046 6 12 6C10.8954 6 10 5.10457 10 4C10 2.89543 10.8954 2 12 2C13.1046 2 14 2.89543 14 4Z"
      fill="currentColor"></path>
    <path
      d="M22 4C22 5.10457 21.1046 6 20 6C18.8954 6 18 5.10457 18 4C18 2.89543 18.8954 2 20 2C21.1046 2 22 2.89543 22 4Z"
      fill="currentColor"></path>
    <path
      d="M6 20C6 21.1046 5.10457 22 4 22C2.89543 22 2 21.1046 2 20C2 18.8954 2.89543 18 4 18C5.10457 18 6 18.8954 6 20Z"
      fill="currentColor"></path>
    <path
      d="M14 20C14 21.1046 13.1046 22 12 22C10.8954 22 10 21.1046 10 20C10 18.8954 10.8954 18 12 18C13.1046 18 14 18.8954 14 20Z"
      fill="currentColor"></path>
    <path
      d="M22 20C22 21.1046 21.1046 22 20 22C18.8954 22 18 21.1046 18 20C18 18.8954 18.8954 18 20 18C21.1046 18 22 18.8954 22 20Z"
      fill="currentColor"></path>
  </symbol>
  <symbol fill="none" viewBox="0 0 24 24" id="down_arrow">
    <path
      d="M17 10L15.2527 11.763C13.8592 13.1689 13.1625 13.8719 12.3133 13.9801C12.1053 14.0066 11.8947 14.0066 11.6867 13.9801C10.8375 13.8719 10.1408 13.1689 8.74731 11.763L7 10"
      stroke="currentColor" stroke-width="1.5" stroke-linecap="round"></path>
  </symbol>
  <symbol fill="none" viewBox="0 0 24 24" id="right_arrow">
    <path
      d="M10 7L11.763 8.74731C13.1689 10.1408 13.8719 10.8375 13.9801 11.6867C14.0066 11.8947 14.0066 12.1053 13.9801 12.3133C13.8719 13.1625 13.1689 13.8592 11.763 15.2527L10 17"
      stroke="currentColor" stroke-width="1.5" stroke-linecap="round"></path>
  </symbol>
  <symbol
    fill="none"
    viewBox="0 0 24 24"
    id="down_angle"
  >
    <path
      d="M17 10L15.2527 11.763C13.8592 13.1689 13.1625 13.8719 12.3133 13.9801C12.1053 14.0066 11.8947 14.0066 11.6867 13.9801C10.8375 13.8719 10.1408 13.1689 8.74731 11.763L7 10"
      stroke="currentColor"
      stroke-width="1.5"
      stroke-linecap="round"
    ></path>
  </symbol>
  <symbol
    fill="none"
    viewBox="0 0 24 24"
    id="success"
  >
    <path
      d="M20 7L14.6093 13.4688C12.4732 16.0322 11.4051 17.3139 10 17.3139C8.59488 17.3139 7.52681 16.0322 5.39067 13.4688L4 11.8"
      stroke="currentColor"
      stroke-width="1.5"
      stroke-linecap="round"
    ></path>
  </symbol>
  <symbol
    fill="none"
    viewBox="0 0 24 24"
    id="unlink"
  >
    <path
      d="M8 17.75C8.41421 17.75 8.75 17.4142 8.75 17C8.75 16.5858 8.41421 16.25 8 16.25V17.75ZM16 16.25C15.5858 16.25 15.25 16.5858 15.25 17C15.25 17.4142 15.5858 17.75 16 17.75V16.25ZM16 6.25C15.5858 6.25 15.25 6.58579 15.25 7C15.25 7.41421 15.5858 7.75 16 7.75V6.25ZM8 7.75C8.41421 7.75 8.75 7.41421 8.75 7C8.75 6.58579 8.41421 6.25 8 6.25V7.75ZM8 11.25C7.58579 11.25 7.25 11.5858 7.25 12C7.25 12.4142 7.58579 12.75 8 12.75V11.25ZM16 12.75C16.4142 12.75 16.75 12.4142 16.75 12C16.75 11.5858 16.4142 11.25 16 11.25V12.75ZM8 16.25C5.65279 16.25 3.75 14.3472 3.75 12H2.25C2.25 15.1756 4.82436 17.75 8 17.75V16.25ZM20.25 12C20.25 14.3472 18.3472 16.25 16 16.25V17.75C19.1756 17.75 21.75 15.1756 21.75 12H20.25ZM16 7.75C18.3472 7.75 20.25 9.65279 20.25 12H21.75C21.75 8.82436 19.1756 6.25 16 6.25V7.75ZM8 6.25C4.82436 6.25 2.25 8.82436 2.25 12H3.75C3.75 9.65279 5.65279 7.75 8 7.75V6.25ZM8 12.75H16V11.25H8V12.75Z"
      fill="currentColor"
    ></path>
  </symbol>
  <symbol
    fill="none"
    viewBox="0 0 24 24"
    id="close"
  >
    <path
      d="M5 5L19 19M5.00003 19L12 12L19 5"
      stroke="currentColor"
      stroke-width="1.5"
      stroke-linecap="round"
    ></path>
  </symbol>
  <symbol
    fill="none"
    viewBox="0 0 24 24"
    id="delete"
  >
    <path
      d="M18.5172 12.7795L19.26 12.8829L18.5172 12.7795ZM18.2549 14.6645L18.9977 14.7679L18.2549 14.6645ZM5.74514 14.6645L6.48798 14.5611L5.74514 14.6645ZM5.4828 12.7795L4.73996 12.8829L5.4828 12.7795ZM9.18365 21.7368L8.89206 22.4278L9.18365 21.7368ZM6.47508 18.5603L7.17907 18.3017L6.47508 18.5603ZM17.5249 18.5603L18.2289 18.819V18.819L17.5249 18.5603ZM14.8164 21.7368L14.5248 21.0458H14.5248L14.8164 21.7368ZM5.74664 8.92906C5.70746 8.5167 5.34142 8.21418 4.92906 8.25336C4.5167 8.29254 4.21418 8.65858 4.25336 9.07094L5.74664 8.92906ZM19.7466 9.07094C19.7858 8.65858 19.4833 8.29254 19.0709 8.25336C18.6586 8.21418 18.2925 8.5167 18.2534 8.92906L19.7466 9.07094ZM20 7.75C20.4142 7.75 20.75 7.41421 20.75 7C20.75 6.58579 20.4142 6.25 20 6.25V7.75ZM4 6.25C3.58579 6.25 3.25 6.58579 3.25 7C3.25 7.41421 3.58579 7.75 4 7.75V6.25ZM16 7V7.75H16.75V7H16ZM8 7H7.25V7.75H8V7ZM17.7744 12.6761L17.512 14.5611L18.9977 14.7679L19.26 12.8829L17.7744 12.6761ZM6.48798 14.5611L6.22564 12.6761L4.73996 12.8829L5.0023 14.7679L6.48798 14.5611ZM12 21.25C10.4708 21.25 9.92544 21.2358 9.47524 21.0458L8.89206 22.4278C9.68914 22.7642 10.6056 22.75 12 22.75V21.25ZM5.0023 14.7679C5.282 16.7777 5.43406 17.9017 5.77109 18.819L7.17907 18.3017C6.91156 17.5736 6.77851 16.6488 6.48798 14.5611L5.0023 14.7679ZM9.47524 21.0458C8.55279 20.6566 7.69496 19.7058 7.17907 18.3017L5.77109 18.819C6.3857 20.4918 7.48205 21.8328 8.89206 22.4278L9.47524 21.0458ZM17.512 14.5611C17.2215 16.6488 17.0884 17.5736 16.8209 18.3017L18.2289 18.819C18.5659 17.9017 18.718 16.7777 18.9977 14.7679L17.512 14.5611ZM12 22.75C13.3944 22.75 14.3109 22.7642 15.1079 22.4278L14.5248 21.0458C14.0746 21.2358 13.5292 21.25 12 21.25V22.75ZM16.8209 18.3017C16.305 19.7058 15.4472 20.6566 14.5248 21.0458L15.1079 22.4278C16.5179 21.8328 17.6143 20.4918 18.2289 18.819L16.8209 18.3017ZM6.22564 12.6761C6.00352 11.08 5.83766 9.88703 5.74664 8.92906L4.25336 9.07094C4.34819 10.069 4.51961 11.2995 4.73996 12.8829L6.22564 12.6761ZM19.26 12.8829C19.4804 11.2995 19.6518 10.069 19.7466 9.07094L18.2534 8.92906C18.1623 9.88702 17.9965 11.08 17.7744 12.6761L19.26 12.8829ZM20 6.25H4V7.75H20V6.25ZM15.25 6V7H16.75V6H15.25ZM16 6.25H8V7.75H16V6.25ZM8.75 7V6H7.25V7H8.75ZM12 2.75C13.7949 2.75 15.25 4.20507 15.25 6H16.75C16.75 3.37665 14.6234 1.25 12 1.25V2.75ZM12 1.25C9.37665 1.25 7.25 3.37665 7.25 6H8.75C8.75 4.20507 10.2051 2.75 12 2.75V1.25Z"
      fill="currentColor"
    ></path>
  </symbol>
  <symbol
    fill="none"
    viewBox="0 0 24 24"
    id="edit"
  >
    <path
      d="M9.53118 19.0199L9.25825 18.3213L9.53118 19.0199ZM5.47478 19.7988L5.09978 20.4483L5.09978 20.4483L5.47478 19.7988ZM4.12116 15.8964L3.37971 16.0093L4.12116 15.8964ZM4.61146 13.2941L5.26098 13.6691L4.61146 13.2941ZM4.02731 14.5314L3.29028 14.3925H3.29028L4.02731 14.5314ZM11.5397 17.2941L12.1892 17.6691L11.5397 17.2941ZM10.7602 18.4186L11.249 18.9875H11.249L10.7602 18.4186ZM8.4099 6.71503L7.76038 6.34003L8.4099 6.71503ZM14.6886 10.34L10.8901 16.9191L12.1892 17.6691L15.9876 11.09L14.6886 10.34ZM5.26098 13.6691L9.05942 7.09003L7.76038 6.34003L3.96194 12.9191L5.26098 13.6691ZM9.25825 18.3213C8.16178 18.7497 7.41502 19.0394 6.83854 19.1741C6.28167 19.3042 6.02898 19.2527 5.84978 19.1493L5.09978 20.4483C5.75305 20.8255 6.45392 20.8044 7.17981 20.6348C7.88609 20.4698 8.75129 20.1298 9.80411 19.7184L9.25825 18.3213ZM3.37971 16.0093C3.5499 17.1267 3.68805 18.046 3.89829 18.7402C4.11436 19.4536 4.44651 20.0712 5.09978 20.4483L5.84978 19.1493C5.67059 19.0458 5.49965 18.8527 5.33389 18.3054C5.16229 17.7388 5.03986 16.9472 4.86261 15.7835L3.37971 16.0093ZM3.96194 12.9191C3.64012 13.4765 3.38246 13.9033 3.29028 14.3925L4.76434 14.6702C4.7983 14.49 4.88802 14.3151 5.26098 13.6691L3.96194 12.9191ZM4.86261 15.7835C4.7503 15.046 4.73039 14.8505 4.76434 14.6702L3.29028 14.3925C3.1981 14.8817 3.2828 15.373 3.37971 16.0093L4.86261 15.7835ZM10.8901 16.9191C10.5172 17.5651 10.4105 17.7303 10.2715 17.8498L11.249 18.9875C11.6266 18.6631 11.8674 18.2265 12.1892 17.6691L10.8901 16.9191ZM9.80411 19.7184C10.4036 19.4842 10.8714 19.3119 11.249 18.9875L10.2715 17.8498C10.1324 17.9693 9.95303 18.0498 9.25825 18.3213L9.80411 19.7184ZM13.499 5.90045C14.3339 6.38245 14.8939 6.70761 15.2797 7.00537C15.6483 7.28983 15.7658 7.48144 15.8135 7.65945L17.2623 7.27123C17.0956 6.64904 16.6976 6.20485 16.1961 5.81785C15.7119 5.44416 15.0471 5.06221 14.249 4.60141L13.499 5.90045ZM15.9876 11.09C16.4484 10.2919 16.8331 9.62875 17.0657 9.06299C17.3065 8.47711 17.4291 7.89341 17.2623 7.27123L15.8135 7.65945C15.8612 7.83747 15.8553 8.06212 15.6783 8.49278C15.493 8.94357 15.1706 9.50517 14.6886 10.34L15.9876 11.09ZM14.249 4.60141C13.4509 4.1406 12.7877 3.7559 12.222 3.52337C11.6361 3.28257 11.0524 3.15997 10.4302 3.32668L10.8184 4.77557C10.9964 4.72787 11.2211 4.73376 11.6518 4.91076C12.1025 5.09604 12.6641 5.41844 13.499 5.90045L14.249 4.60141ZM9.05942 7.09003C9.54142 6.25517 9.86658 5.69516 10.1643 5.30931C10.4488 4.9407 10.6404 4.82327 10.8184 4.77557L10.4302 3.32668C9.80801 3.49339 9.36382 3.89142 8.97683 4.39291C8.60313 4.87716 8.22118 5.54189 7.76038 6.34003L9.05942 7.09003ZM15.7131 10.0655L8.7849 6.06551L8.0349 7.36455L14.9631 11.3645L15.7131 10.0655Z"
      fill="currentColor"
    ></path>
    <path
      d="M20 20.75C20.4142 20.75 20.75 20.4142 20.75 20C20.75 19.5858 20.4142 19.25 20 19.25V20.75ZM14 19.25C13.5858 19.25 13.25 19.5858 13.25 20C13.25 20.4142 13.5858 20.75 14 20.75V19.25ZM20 19.25H14V20.75H20V19.25Z"
      fill="currentColor"
    ></path>
  </symbol>
  <symbol
    fill="none"
    viewBox="0 0 24 24"
    id="upload"
  >
    <path
      d="M7.21783 20.9384L7.1005 21.6792H7.1005L7.21783 20.9384ZM3.06156 16.7822L3.80232 16.6648L3.06156 16.7822ZM20.9384 16.7822L21.6792 16.8995V16.8995L20.9384 16.7822ZM16.7822 20.9384L16.8995 21.6792H16.8995L16.7822 20.9384ZM20.6 10.5496C20.3513 10.2184 19.8811 10.1516 19.5499 10.4003C19.2187 10.6491 19.1519 11.1192 19.4007 11.4504L20.6 10.5496ZM4.59931 11.4504C4.84808 11.1192 4.78126 10.6491 4.45007 10.4003C4.11888 10.1516 3.64873 10.2184 3.39996 10.5496L4.59931 11.4504ZM11.25 17C11.25 17.4142 11.5858 17.75 12 17.75C12.4142 17.75 12.75 17.4142 12.75 17H11.25ZM7.41232 6.53403C7.15497 6.8586 7.20946 7.33034 7.53403 7.58768C7.8586 7.84503 8.33034 7.79054 8.58768 7.46597L7.41232 6.53403ZM9.39785 5.23703L8.81016 4.77106L9.39785 5.23703ZM14.6022 5.23703L15.1898 4.77106L14.6022 5.23703ZM15.4123 7.46597C15.6697 7.79054 16.1414 7.84503 16.466 7.58768C16.7905 7.33034 16.845 6.8586 16.5877 6.53403L15.4123 7.46597ZM11.7493 3.01989L11.6313 2.27923L11.6313 2.27923L11.7493 3.01989ZM12.2507 3.01989L12.3687 2.27923L12.3687 2.27923L12.2507 3.01989ZM20.25 14V15H21.75V14H20.25ZM15 20.25H9V21.75H15V20.25ZM3.75 15V14H2.25V15H3.75ZM9 20.25C8.04233 20.25 7.65082 20.2477 7.33515 20.1977L7.1005 21.6792C7.56216 21.7523 8.09965 21.75 9 21.75V20.25ZM2.25 15C2.25 15.9003 2.24767 16.4378 2.32079 16.8995L3.80232 16.6648C3.75233 16.3492 3.75 15.9577 3.75 15H2.25ZM7.33515 20.1977C5.51661 19.9096 4.09035 18.4834 3.80232 16.6648L2.32079 16.8995C2.71048 19.3599 4.64012 21.2895 7.1005 21.6792L7.33515 20.1977ZM20.25 15C20.25 15.9577 20.2477 16.3492 20.1977 16.6648L21.6792 16.8995C21.7523 16.4378 21.75 15.9003 21.75 15H20.25ZM15 21.75C15.9003 21.75 16.4378 21.7523 16.8995 21.6792L16.6648 20.1977C16.3492 20.2477 15.9577 20.25 15 20.25V21.75ZM20.1977 16.6648C19.9096 18.4834 18.4834 19.9096 16.6648 20.1977L16.8995 21.6792C19.3599 21.2895 21.2895 19.3599 21.6792 16.8995L20.1977 16.6648ZM21.75 14C21.75 12.7064 21.3219 11.5106 20.6 10.5496L19.4007 11.4504C19.9342 12.1607 20.25 13.0424 20.25 14H21.75ZM3.75 14C3.75 13.0424 4.06583 12.1607 4.59931 11.4504L3.39996 10.5496C2.67806 11.5106 2.25 12.7064 2.25 14H3.75ZM12.75 17V4H11.25V17H12.75ZM8.58768 7.46597L9.98553 5.703L8.81016 4.77106L7.41232 6.53403L8.58768 7.46597ZM14.0145 5.703L15.4123 7.46597L16.5877 6.53403L15.1898 4.77106L14.0145 5.703ZM9.98553 5.703C10.5543 4.98568 10.9418 4.49884 11.2682 4.17113C11.5913 3.84678 11.7612 3.77747 11.8673 3.76055L11.6313 2.27923C11.0582 2.37055 10.6096 2.70685 10.2055 3.11252C9.80475 3.51484 9.35616 4.08245 8.81016 4.77106L9.98553 5.703ZM15.1898 4.77106C14.6438 4.08245 14.1953 3.51484 13.7945 3.11252C13.3904 2.70685 12.9418 2.37055 12.3687 2.27923L12.1327 3.76055C12.2388 3.77747 12.4087 3.84678 12.7318 4.17113C13.0582 4.49884 13.4457 4.98568 14.0145 5.703L15.1898 4.77106ZM11.8673 3.76055C11.9117 3.75348 11.9559 3.75 12 3.75V2.25C11.8766 2.25 11.7534 2.25978 11.6313 2.27923L11.8673 3.76055ZM12 3.75C12.0441 3.75 12.0883 3.75348 12.1327 3.76055L12.3687 2.27923C12.2466 2.25978 12.1234 2.25 12 2.25V3.75ZM12.75 4V3H11.25V4H12.75Z"
      fill="currentColor"
    ></path>
  </symbol>
  <symbol
    fill="none"
    viewBox="0 0 24 24"
    id="download"
  >
    <path
      d="M7.21783 20.9384L7.1005 21.6792H7.1005L7.21783 20.9384ZM3.06156 16.7822L3.80232 16.6648L3.06156 16.7822ZM20.9384 16.7822L21.6792 16.8995V16.8995L20.9384 16.7822ZM16.7822 20.9384L16.8995 21.6792H16.8995L16.7822 20.9384ZM20.6 10.5496C20.3513 10.2184 19.8811 10.1516 19.5499 10.4003C19.2187 10.6491 19.1519 11.1192 19.4007 11.4504L20.6 10.5496ZM4.59931 11.4504C4.84808 11.1192 4.78126 10.6491 4.45007 10.4003C4.11888 10.1516 3.64873 10.2184 3.39996 10.5496L4.59931 11.4504ZM12.75 3C12.75 2.58579 12.4142 2.25 12 2.25C11.5858 2.25 11.25 2.58579 11.25 3H12.75ZM8.58768 12.534C8.33033 12.2095 7.8586 12.155 7.53403 12.4123C7.20946 12.6697 7.15497 13.1414 7.41232 13.466L8.58768 12.534ZM9.39785 14.763L8.81016 15.2289L9.39785 14.763ZM14.6022 14.763L14.0145 14.297L14.6022 14.763ZM16.5877 13.466C16.845 13.1414 16.7905 12.6697 16.466 12.4123C16.1414 12.155 15.6697 12.2095 15.4123 12.534L16.5877 13.466ZM11.7493 16.9801L11.6313 17.7208L11.6313 17.7208L11.7493 16.9801ZM12.2507 16.9801L12.3687 17.7208L12.3687 17.7208L12.2507 16.9801ZM20.25 14V15H21.75V14H20.25ZM15 20.25H9V21.75H15V20.25ZM3.75 15V14H2.25V15H3.75ZM9 20.25C8.04233 20.25 7.65082 20.2477 7.33515 20.1977L7.1005 21.6792C7.56216 21.7523 8.09965 21.75 9 21.75V20.25ZM2.25 15C2.25 15.9003 2.24767 16.4378 2.32079 16.8995L3.80232 16.6648C3.75233 16.3492 3.75 15.9577 3.75 15H2.25ZM7.33515 20.1977C5.51661 19.9096 4.09035 18.4834 3.80232 16.6648L2.32079 16.8995C2.71048 19.3599 4.64012 21.2895 7.1005 21.6792L7.33515 20.1977ZM20.25 15C20.25 15.9577 20.2477 16.3492 20.1977 16.6648L21.6792 16.8995C21.7523 16.4378 21.75 15.9003 21.75 15H20.25ZM15 21.75C15.9003 21.75 16.4378 21.7523 16.8995 21.6792L16.6648 20.1977C16.3492 20.2477 15.9577 20.25 15 20.25V21.75ZM20.1977 16.6648C19.9096 18.4834 18.4834 19.9096 16.6648 20.1977L16.8995 21.6792C19.3599 21.2895 21.2895 19.3599 21.6792 16.8995L20.1977 16.6648ZM21.75 14C21.75 12.7064 21.3219 11.5106 20.6 10.5496L19.4007 11.4504C19.9342 12.1607 20.25 13.0424 20.25 14H21.75ZM3.75 14C3.75 13.0424 4.06583 12.1607 4.59931 11.4504L3.39996 10.5496C2.67806 11.5106 2.25 12.7064 2.25 14H3.75ZM11.25 3V16H12.75V3H11.25ZM7.41232 13.466L8.81016 15.2289L9.98553 14.297L8.58768 12.534L7.41232 13.466ZM15.1898 15.2289L16.5877 13.466L15.4123 12.534L14.0145 14.297L15.1898 15.2289ZM8.81016 15.2289C9.35616 15.9176 9.80475 16.4852 10.2055 16.8875C10.6096 17.2932 11.0582 17.6294 11.6313 17.7208L11.8673 16.2395C11.7612 16.2225 11.5913 16.1532 11.2682 15.8289C10.9418 15.5012 10.5543 15.0143 9.98553 14.297L8.81016 15.2289ZM14.0145 14.297C13.4457 15.0143 13.0582 15.5012 12.7318 15.8289C12.4087 16.1532 12.2388 16.2225 12.1327 16.2395L12.3687 17.7208C12.9418 17.6294 13.3904 17.2932 13.7945 16.8875C14.1953 16.4852 14.6438 15.9175 15.1898 15.2289L14.0145 14.297ZM11.6313 17.7208C11.7534 17.7402 11.8766 17.75 12 17.75V16.25C11.9559 16.25 11.9117 16.2465 11.8673 16.2395L11.6313 17.7208ZM12 17.75C12.1234 17.75 12.2466 17.7402 12.3687 17.7208L12.1327 16.2395C12.0883 16.2465 12.0441 16.25 12 16.25V17.75ZM11.25 16V17H12.75V16H11.25Z"
      fill="currentColor"
    ></path>
  </symbol>
  <symbol
    fill="none"
    viewBox="0 0 24 24"
    id="link"
  >
    <path
      d="M13.6328 14.5219L14.5818 10.9802C15.1059 9.02413 13.9451 7.01356 11.9891 6.48944C10.033 5.96532 8.02248 7.12612 7.49836 9.08216L5.12585 17.9365C4.60173 19.8925 5.76253 21.9031 7.71857 22.4272C8.6168 22.6679 9.52652 22.5533 10.2985 22.1695C10.7723 21.934 11.1942 21.5971 11.5298 21.1788M11.0401 10.0312L10.0911 13.5729C9.56696 15.5289 10.7278 17.5395 12.6838 18.0636C14.6398 18.5877 16.6504 17.4269 17.1745 15.4709L19.547 6.61658C20.0712 4.66054 18.9104 2.64997 16.9543 2.12585C16.0561 1.88517 15.1464 1.99979 14.3744 2.38356C13.9006 2.61907 13.4787 2.95595 13.1431 3.37429"
      stroke="currentColor"
      stroke-width="1.5"
      stroke-linecap="round"
    ></path>
  </symbol>
  <symbol
    fill="none"
    viewBox="0 0 24 24"
    id="list_big"
  >
    <path
      d="M5 5.25C4.58579 5.25 4.25 5.58579 4.25 6C4.25 6.41421 4.58579 6.75 5 6.75H19C19.4142 6.75 19.75 6.41421 19.75 6C19.75 5.58579 19.4142 5.25 19 5.25H5Z"
      fill="currentColor"
    ></path>
    <path
      d="M5 9.25C4.58579 9.25 4.25 9.58579 4.25 10C4.25 10.4142 4.58579 10.75 5 10.75H19C19.4142 10.75 19.75 10.4142 19.75 10C19.75 9.58579 19.4142 9.25 19 9.25H5Z"
      fill="currentColor"
    ></path>
    <path
      d="M5 13.25C4.58579 13.25 4.25 13.5858 4.25 14C4.25 14.4142 4.58579 14.75 5 14.75H19C19.4142 14.75 19.75 14.4142 19.75 14C19.75 13.5858 19.4142 13.25 19 13.25H5Z"
      fill="currentColor"
    ></path>
    <path
      d="M5 17.25C4.58579 17.25 4.25 17.5858 4.25 18C4.25 18.4142 4.58579 18.75 5 18.75H19C19.4142 18.75 19.75 18.4142 19.75 18C19.75 17.5858 19.4142 17.25 19 17.25H5Z"
      fill="currentColor"
    ></path>
  </symbol>
  <symbol
    fill="none"
    viewBox="0 0 24 24"
    id="list"
  >
    <path
      d="M5 5.25C4.58579 5.25 4.25 5.58579 4.25 6C4.25 6.41421 4.58579 6.75 5 6.75H19C19.4142 6.75 19.75 6.41421 19.75 6C19.75 5.58579 19.4142 5.25 19 5.25H5Z"
      fill="currentColor"
    ></path>
    <path
      d="M5 11.25C4.58579 11.25 4.25 11.5858 4.25 12C4.25 12.4142 4.58579 12.75 5 12.75H19C19.4142 12.75 19.75 12.4142 19.75 12C19.75 11.5858 19.4142 11.25 19 11.25H5Z"
      fill="currentColor"
    ></path>
    <path
      d="M5 17.25C4.58579 17.25 4.25 17.5858 4.25 18C4.25 18.4142 4.58579 18.75 5 18.75H19C19.4142 18.75 19.75 18.4142 19.75 18C19.75 17.5858 19.4142 17.25 19 17.25H5Z"
      fill="currentColor"
    ></path>
  </symbol>
  <symbol
    fill="none"
    viewBox="0 0 24 24"
    id="grid"
  >
    <path
      d="M6 12C6 13.1046 5.10457 14 4 14C2.89543 14 2 13.1046 2 12C2 10.8954 2.89543 10 4 10C5.10457 10 6 10.8954 6 12Z"
      fill="currentColor"
    ></path>
    <path
      d="M14 12C14 13.1046 13.1046 14 12 14C10.8954 14 10 13.1046 10 12C10 10.8954 10.8954 10 12 10C13.1046 10 14 10.8954 14 12Z"
      fill="currentColor"
    ></path>
    <path
      d="M22 12C22 13.1046 21.1046 14 20 14C18.8954 14 18 13.1046 18 12C18 10.8954 18.8954 10 20 10C21.1046 10 22 10.8954 22 12Z"
      fill="currentColor"
    ></path>
    <path
      d="M6 4C6 5.10457 5.10457 6 4 6C2.89543 6 2 5.10457 2 4C2 2.89543 2.89543 2 4 2C5.10457 2 6 2.89543 6 4Z"
      fill="currentColor"
    ></path>
    <path
      d="M14 4C14 5.10457 13.1046 6 12 6C10.8954 6 10 5.10457 10 4C10 2.89543 10.8954 2 12 2C13.1046 2 14 2.89543 14 4Z"
      fill="currentColor"
    ></path>
    <path
      d="M22 4C22 5.10457 21.1046 6 20 6C18.8954 6 18 5.10457 18 4C18 2.89543 18.8954 2 20 2C21.1046 2 22 2.89543 22 4Z"
      fill="currentColor"
    ></path>
    <path
      d="M6 20C6 21.1046 5.10457 22 4 22C2.89543 22 2 21.1046 2 20C2 18.8954 2.89543 18 4 18C5.10457 18 6 18.8954 6 20Z"
      fill="currentColor"
    ></path>
    <path
      d="M14 20C14 21.1046 13.1046 22 12 22C10.8954 22 10 21.1046 10 20C10 18.8954 10.8954 18 12 18C13.1046 18 14 18.8954 14 20Z"
      fill="currentColor"
    ></path>
    <path
      d="M22 20C22 21.1046 21.1046 22 20 22C18.8954 22 18 21.1046 18 20C18 18.8954 18.8954 18 20 18C21.1046 18 22 18.8954 22 20Z"
      fill="currentColor"
    ></path>
  </symbol>
  <symbol
    fill="none"
    viewBox="0 0 24 24"
    id="down_arrow"
  >
    <path
      d="M17 10L15.2527 11.763C13.8592 13.1689 13.1625 13.8719 12.3133 13.9801C12.1053 14.0066 11.8947 14.0066 11.6867 13.9801C10.8375 13.8719 10.1408 13.1689 8.74731 11.763L7 10"
      stroke="currentColor"
      stroke-width="1.5"
      stroke-linecap="round"
    ></path>
  </symbol>
  <symbol
    fill="none"
    viewBox="0 0 24 24"
    id="right_arrow"
  >
    <path
      d="M10 7L11.763 8.74731C13.1689 10.1408 13.8719 10.8375 13.9801 11.6867C14.0066 11.8947 14.0066 12.1053 13.9801 12.3133C13.8719 13.1625 13.1689 13.8592 11.763 15.2527L10 17"
      stroke="currentColor"
      stroke-width="1.5"
      stroke-linecap="round"
    ></path>
  </symbol>
  <symbol
    fill="none"
    viewBox="0 0 24 24"
    id="left_arrow"
  >
    <path d="M14 17L12.237 15.2527C10.8311 13.8592 10.1281 13.1625 10.0199 12.3133C9.99337 12.1053 9.99337 11.8947 10.0199 11.6867C10.1281 10.8375 10.8311 10.1408 12.237 8.74731L14 7" stroke="currentColor" stroke-width="1.5" stroke-linecap="round"/>
  </symbol>
  <symbol
    fill="none"
    viewBox="0 0 24 24"
    id="upload"
  >
    <path
      d="M7.21783 20.9384L7.1005 21.6792H7.1005L7.21783 20.9384ZM3.06156 16.7822L3.80232 16.6648L3.06156 16.7822ZM20.9384 16.7822L21.6792 16.8995V16.8995L20.9384 16.7822ZM16.7822 20.9384L16.8995 21.6792H16.8995L16.7822 20.9384ZM20.6 10.5496C20.3513 10.2184 19.8811 10.1516 19.5499 10.4003C19.2187 10.6491 19.1519 11.1192 19.4007 11.4504L20.6 10.5496ZM4.59931 11.4504C4.84808 11.1192 4.78126 10.6491 4.45007 10.4003C4.11888 10.1516 3.64873 10.2184 3.39996 10.5496L4.59931 11.4504ZM11.25 17C11.25 17.4142 11.5858 17.75 12 17.75C12.4142 17.75 12.75 17.4142 12.75 17H11.25ZM7.41232 6.53403C7.15497 6.8586 7.20946 7.33034 7.53403 7.58768C7.8586 7.84503 8.33034 7.79054 8.58768 7.46597L7.41232 6.53403ZM9.39785 5.23703L8.81016 4.77106L9.39785 5.23703ZM14.6022 5.23703L15.1898 4.77106L14.6022 5.23703ZM15.4123 7.46597C15.6697 7.79054 16.1414 7.84503 16.466 7.58768C16.7905 7.33034 16.845 6.8586 16.5877 6.53403L15.4123 7.46597ZM11.7493 3.01989L11.6313 2.27923L11.6313 2.27923L11.7493 3.01989ZM12.2507 3.01989L12.3687 2.27923L12.3687 2.27923L12.2507 3.01989ZM20.25 14V15H21.75V14H20.25ZM15 20.25H9V21.75H15V20.25ZM3.75 15V14H2.25V15H3.75ZM9 20.25C8.04233 20.25 7.65082 20.2477 7.33515 20.1977L7.1005 21.6792C7.56216 21.7523 8.09965 21.75 9 21.75V20.25ZM2.25 15C2.25 15.9003 2.24767 16.4378 2.32079 16.8995L3.80232 16.6648C3.75233 16.3492 3.75 15.9577 3.75 15H2.25ZM7.33515 20.1977C5.51661 19.9096 4.09035 18.4834 3.80232 16.6648L2.32079 16.8995C2.71048 19.3599 4.64012 21.2895 7.1005 21.6792L7.33515 20.1977ZM20.25 15C20.25 15.9577 20.2477 16.3492 20.1977 16.6648L21.6792 16.8995C21.7523 16.4378 21.75 15.9003 21.75 15H20.25ZM15 21.75C15.9003 21.75 16.4378 21.7523 16.8995 21.6792L16.6648 20.1977C16.3492 20.2477 15.9577 20.25 15 20.25V21.75ZM20.1977 16.6648C19.9096 18.4834 18.4834 19.9096 16.6648 20.1977L16.8995 21.6792C19.3599 21.2895 21.2895 19.3599 21.6792 16.8995L20.1977 16.6648ZM21.75 14C21.75 12.7064 21.3219 11.5106 20.6 10.5496L19.4007 11.4504C19.9342 12.1607 20.25 13.0424 20.25 14H21.75ZM3.75 14C3.75 13.0424 4.06583 12.1607 4.59931 11.4504L3.39996 10.5496C2.67806 11.5106 2.25 12.7064 2.25 14H3.75ZM12.75 17V4H11.25V17H12.75ZM8.58768 7.46597L9.98553 5.703L8.81016 4.77106L7.41232 6.53403L8.58768 7.46597ZM14.0145 5.703L15.4123 7.46597L16.5877 6.53403L15.1898 4.77106L14.0145 5.703ZM9.98553 5.703C10.5543 4.98568 10.9418 4.49884 11.2682 4.17113C11.5913 3.84678 11.7612 3.77747 11.8673 3.76055L11.6313 2.27923C11.0582 2.37055 10.6096 2.70685 10.2055 3.11252C9.80475 3.51484 9.35616 4.08245 8.81016 4.77106L9.98553 5.703ZM15.1898 4.77106C14.6438 4.08245 14.1953 3.51484 13.7945 3.11252C13.3904 2.70685 12.9418 2.37055 12.3687 2.27923L12.1327 3.76055C12.2388 3.77747 12.4087 3.84678 12.7318 4.17113C13.0582 4.49884 13.4457 4.98568 14.0145 5.703L15.1898 4.77106ZM11.8673 3.76055C11.9117 3.75348 11.9559 3.75 12 3.75V2.25C11.8766 2.25 11.7534 2.25978 11.6313 2.27923L11.8673 3.76055ZM12 3.75C12.0441 3.75 12.0883 3.75348 12.1327 3.76055L12.3687 2.27923C12.2466 2.25978 12.1234 2.25 12 2.25V3.75ZM12.75 4V3H11.25V4H12.75Z"
      fill="currentColor"
    ></path>
  </symbol>
  <symbol
    fill="none"
    viewBox="0 0 24 24"
    id="menu_dotes"
  >
    <path
      d="M14 12C14 13.1046 13.1046 14 12 14C10.8954 14 10 13.1046 10 12C10 10.8954 10.8954 10 12 10C13.1046 10 14 10.8954 14 12Z"
      fill="currentColor"
    ></path>
    <path
      d="M14 4C14 5.10457 13.1046 6 12 6C10.8954 6 10 5.10457 10 4C10 2.89543 10.8954 2 12 2C13.1046 2 14 2.89543 14 4Z"
      fill="currentColor"
    ></path>
    <path
      d="M14 20C14 21.1046 13.1046 22 12 22C10.8954 22 10 21.1046 10 20C10 18.8954 10.8954 18 12 18C13.1046 18 14 18.8954 14 20Z"
      fill="currentColor"
    ></path>
  </symbol>
  <symbol
    fill="none"
    viewBox="0 0 24 24"
    id="add_folder"
  >
    <path
      d="M9 13.25C8.58579 13.25 8.25 13.5858 8.25 14C8.25 14.4142 8.58579 14.75 9 14.75V13.25ZM15 14.75C15.4142 14.75 15.75 14.4142 15.75 14C15.75 13.5858 15.4142 13.25 15 13.25V14.75ZM11.25 17C11.25 17.4142 11.5858 17.75 12 17.75C12.4142 17.75 12.75 17.4142 12.75 17H11.25ZM12.75 11C12.75 10.5858 12.4142 10.25 12 10.25C11.5858 10.25 11.25 10.5858 11.25 11H12.75ZM6.45492 20.7553L6.22315 21.4686H6.22315L6.45492 20.7553ZM3.24472 17.5451L3.95801 17.3133H3.95801L3.24472 17.5451ZM20.7553 17.5451L21.4686 17.7768L20.7553 17.5451ZM17.5451 20.7553L17.7768 21.4686H17.7768L17.5451 20.7553ZM12.6002 7.00325L12.5961 7.75324H12.5961L12.6002 7.00325ZM17.5451 7.24472L17.7768 6.53143L17.5451 7.24472ZM20.7553 10.4549L21.4686 10.2232V10.2232L20.7553 10.4549ZM8.9414 3.42442L8.57119 4.07668V4.07668L8.9414 3.42442ZM10.6399 5.42621L9.94561 5.7099L9.94564 5.70997L10.6399 5.42621ZM3.82344 3.16977L3.45324 2.5175L3.45324 2.5175L3.82344 3.16977ZM3.14405 3.97048L2.44977 3.6868L3.14405 3.97048ZM10.6493 5.44925L9.95505 5.73301L9.95506 5.73303L10.6493 5.44925ZM9 14.75H15V13.25H9V14.75ZM12.75 17V11H11.25V17H12.75ZM14 20.25H10V21.75H14V20.25ZM10 20.25C8.08034 20.25 7.29839 20.2407 6.68668 20.042L6.22315 21.4686C7.11777 21.7593 8.19709 21.75 10 21.75V20.25ZM2.25 12C2.25 12.9285 2.24994 14.1375 2.2809 15.2097C2.29637 15.7455 2.31981 16.256 2.35587 16.6854C2.39001 17.0919 2.44027 17.4963 2.53143 17.7768L3.95801 17.3133C3.9268 17.2173 3.8853 16.9729 3.85061 16.5599C3.81785 16.1698 3.7954 15.6901 3.78028 15.1664C3.75006 14.1197 3.75 12.9328 3.75 12H2.25ZM6.68668 20.042C5.39282 19.6216 4.37841 18.6072 3.95801 17.3133L2.53142 17.7768C3.1002 19.5274 4.47263 20.8998 6.22315 21.4686L6.68668 20.042ZM20.25 14C20.25 15.9197 20.2407 16.7016 20.042 17.3133L21.4686 17.7768C21.7593 16.8822 21.75 15.8029 21.75 14H20.25ZM14 21.75C15.8029 21.75 16.8822 21.7593 17.7768 21.4686L17.3133 20.042C16.7016 20.2407 15.9197 20.25 14 20.25V21.75ZM20.042 17.3133C19.6216 18.6072 18.6072 19.6216 17.3133 20.042L17.7768 21.4686C19.5274 20.8998 20.8998 19.5274 21.4686 17.7768L20.042 17.3133ZM12.5961 7.75324C13.566 7.75846 14.6485 7.77209 15.557 7.8073C16.0119 7.82493 16.4155 7.84769 16.7359 7.87662C17.0808 7.90776 17.2605 7.94084 17.3133 7.95801L17.7768 6.53143C17.5423 6.4552 17.2032 6.41271 16.8707 6.3827C16.5138 6.35047 16.0816 6.32651 15.6151 6.30843C14.681 6.27222 13.5784 6.2585 12.6042 6.25326L12.5961 7.75324ZM21.75 14C21.75 12.1971 21.7593 11.1178 21.4686 10.2232L20.042 10.6867C20.2407 11.2984 20.25 12.0803 20.25 14H21.75ZM17.3133 7.95801C18.6072 8.37841 19.6216 9.39282 20.042 10.6867L21.4686 10.2232C20.8998 8.47263 19.5274 7.1002 17.7768 6.53143L17.3133 7.95801ZM3.75 12V5.69388H2.25V12H3.75ZM5.28571 3.75C6.26886 3.75 6.95564 3.75073 7.49157 3.79991C8.01543 3.84799 8.32655 3.93784 8.57119 4.07668L9.3116 2.77216C8.80845 2.48658 8.26103 2.36422 7.62865 2.30619C7.00833 2.24927 6.24117 2.25 5.28571 2.25V3.75ZM8.57119 4.07668C9.15129 4.40593 9.64458 4.97318 9.94561 5.7099L11.3342 5.14252C10.9203 4.12975 10.2159 3.28542 9.3116 2.77216L8.57119 4.07668ZM5.28571 2.25C4.91184 2.25 4.58086 2.24927 4.30742 2.27436C4.02191 2.30056 3.73205 2.35926 3.45324 2.5175L4.19365 3.82203C4.21395 3.81051 4.26751 3.78432 4.44449 3.76808C4.63355 3.75073 4.88415 3.75 5.28571 3.75V2.25ZM3.75 5.69388C3.75 5.22692 3.75038 4.91317 3.76637 4.6711C3.78201 4.4345 3.81005 4.32337 3.83832 4.25417L2.44977 3.6868C2.334 3.97012 2.29002 4.26374 2.26964 4.57222C2.24962 4.87524 2.25 5.24692 2.25 5.69388H3.75ZM3.45324 2.5175C2.99425 2.77801 2.64914 3.19887 2.44977 3.6868L3.83832 4.25417C3.9249 4.0423 4.05887 3.89853 4.19365 3.82203L3.45324 2.5175ZM11.3436 5.16549L11.3341 5.14246L9.94564 5.70997L9.95505 5.73301L11.3436 5.16549ZM12.6042 6.25326C12.1339 6.25073 11.6232 5.84961 11.3435 5.16547L9.95506 5.73303C10.3539 6.70874 11.2733 7.74611 12.5961 7.75324L12.6042 6.25326Z"
      fill="currentColor"
    ></path>
  </symbol>
  <symbol
    fill="none"
    viewBox="0 0 24 24"
    id="search"
  >
    <path
      d="M19.5304 17.4698C19.2375 17.1769 18.7626 17.1769 18.4697 17.4698C18.1768 17.7626 18.1768 18.2375 18.4697 18.5304L19.5304 17.4698ZM22.4696 22.5304C22.7625 22.8233 23.2374 22.8233 23.5303 22.5304C23.8232 22.2375 23.8232 21.7626 23.5303 21.4697L22.4696 22.5304ZM18.4697 18.5304L22.4696 22.5304L23.5303 21.4697L19.5304 17.4698L18.4697 18.5304ZM11 18.25C6.44365 18.25 2.75 14.5563 2.75 10H1.25C1.25 15.3848 5.61522 19.75 11 19.75V18.25ZM19.25 10C19.25 14.5563 15.5563 18.25 11 18.25V19.75C16.3848 19.75 20.75 15.3848 20.75 10H19.25ZM11 1.75C15.5563 1.75 19.25 5.44365 19.25 10H20.75C20.75 4.61522 16.3848 0.25 11 0.25V1.75ZM11 0.25C5.61522 0.25 1.25 4.61522 1.25 10H2.75C2.75 5.44365 6.44365 1.75 11 1.75V0.25Z"
      fill="currentColor"
    ></path>
  </symbol>
  <symbol
    fill="none"
    viewBox="0 0 24 24"
    id="album"
  >
    <path
      d="M6.45492 20.7553L6.22315 21.4686H6.22315L6.45492 20.7553ZM3.24472 17.5451L3.95801 17.3133H3.95801L3.24472 17.5451ZM20.7553 17.5451L21.4686 17.7768L20.7553 17.5451ZM17.5451 20.7553L17.7768 21.4686H17.7768L17.5451 20.7553ZM12.6002 7.00325L12.5961 7.75324H12.5961L12.6002 7.00325ZM17.5451 7.24472L17.7768 6.53143L17.5451 7.24472ZM20.7553 10.4549L21.4686 10.2232V10.2232L20.7553 10.4549ZM8.9414 3.42442L8.57119 4.07668V4.07668L8.9414 3.42442ZM10.6399 5.42621L9.94561 5.7099L9.94564 5.70997L10.6399 5.42621ZM3.82344 3.16977L3.45324 2.5175L3.45324 2.5175L3.82344 3.16977ZM3.14405 3.97048L2.44977 3.6868L3.14405 3.97048ZM10.6493 5.44925L9.95505 5.73301L9.95506 5.73303L10.6493 5.44925ZM8 15.25C7.58579 15.25 7.25 15.5858 7.25 16C7.25 16.4142 7.58579 16.75 8 16.75V15.25ZM16 16.75C16.4142 16.75 16.75 16.4142 16.75 16C16.75 15.5858 16.4142 15.25 16 15.25V16.75ZM14 20.25H10V21.75H14V20.25ZM10 20.25C8.08034 20.25 7.29839 20.2407 6.68668 20.042L6.22315 21.4686C7.11777 21.7593 8.19709 21.75 10 21.75V20.25ZM2.25 12C2.25 12.9285 2.24994 14.1375 2.2809 15.2097C2.29637 15.7455 2.31981 16.256 2.35587 16.6854C2.39001 17.0919 2.44027 17.4963 2.53143 17.7768L3.95801 17.3133C3.9268 17.2173 3.8853 16.9729 3.85061 16.5599C3.81785 16.1698 3.7954 15.6901 3.78028 15.1664C3.75006 14.1197 3.75 12.9328 3.75 12H2.25ZM6.68668 20.042C5.39282 19.6216 4.37841 18.6072 3.95801 17.3133L2.53142 17.7768C3.1002 19.5274 4.47263 20.8998 6.22315 21.4686L6.68668 20.042ZM20.25 14C20.25 15.9197 20.2407 16.7016 20.042 17.3133L21.4686 17.7768C21.7593 16.8822 21.75 15.8029 21.75 14H20.25ZM14 21.75C15.8029 21.75 16.8822 21.7593 17.7768 21.4686L17.3133 20.042C16.7016 20.2407 15.9197 20.25 14 20.25V21.75ZM20.042 17.3133C19.6216 18.6072 18.6072 19.6216 17.3133 20.042L17.7768 21.4686C19.5274 20.8998 20.8998 19.5274 21.4686 17.7768L20.042 17.3133ZM12.5961 7.75324C13.566 7.75846 14.6485 7.77209 15.557 7.8073C16.0119 7.82493 16.4155 7.84769 16.7359 7.87662C17.0808 7.90776 17.2605 7.94084 17.3133 7.95801L17.7768 6.53143C17.5423 6.4552 17.2032 6.41271 16.8707 6.3827C16.5138 6.35047 16.0816 6.32651 15.6151 6.30843C14.681 6.27222 13.5784 6.2585 12.6042 6.25326L12.5961 7.75324ZM21.75 14C21.75 12.1971 21.7593 11.1178 21.4686 10.2232L20.042 10.6867C20.2407 11.2984 20.25 12.0803 20.25 14H21.75ZM17.3133 7.95801C18.6072 8.37841 19.6216 9.39282 20.042 10.6867L21.4686 10.2232C20.8998 8.47263 19.5274 7.1002 17.7768 6.53143L17.3133 7.95801ZM3.75 12V5.69388H2.25V12H3.75ZM5.28571 3.75C6.26886 3.75 6.95564 3.75073 7.49157 3.79991C8.01543 3.84799 8.32655 3.93784 8.57119 4.07668L9.3116 2.77216C8.80845 2.48658 8.26103 2.36422 7.62865 2.30619C7.00833 2.24927 6.24117 2.25 5.28571 2.25V3.75ZM8.57119 4.07668C9.15129 4.40593 9.64458 4.97318 9.94561 5.7099L11.3342 5.14252C10.9203 4.12975 10.2159 3.28542 9.3116 2.77216L8.57119 4.07668ZM5.28571 2.25C4.91184 2.25 4.58086 2.24927 4.30742 2.27436C4.02191 2.30056 3.73205 2.35926 3.45324 2.5175L4.19365 3.82203C4.21395 3.81051 4.26751 3.78432 4.44449 3.76808C4.63355 3.75073 4.88415 3.75 5.28571 3.75V2.25ZM3.75 5.69388C3.75 5.22692 3.75038 4.91317 3.76637 4.6711C3.78201 4.4345 3.81005 4.32337 3.83832 4.25417L2.44977 3.6868C2.334 3.97012 2.29002 4.26374 2.26964 4.57222C2.24962 4.87524 2.25 5.24692 2.25 5.69388H3.75ZM3.45324 2.5175C2.99425 2.77801 2.64914 3.19887 2.44977 3.6868L3.83832 4.25417C3.9249 4.0423 4.05887 3.89853 4.19365 3.82203L3.45324 2.5175ZM11.3436 5.16549L11.3341 5.14246L9.94564 5.70997L9.95505 5.73301L11.3436 5.16549ZM12.6042 6.25326C12.1339 6.25073 11.6232 5.84961 11.3435 5.16547L9.95506 5.73303C10.3539 6.70874 11.2733 7.74611 12.5961 7.75324L12.6042 6.25326ZM8 16.75H16V15.25H8V16.75Z"
      fill="currentColor"
    ></path>
  </symbol>
  <symbol
    fill="none"
    viewBox="0 0 24 24"
    id="delete"
  >
    <path
      d="M18.5172 12.7795L19.26 12.8829L18.5172 12.7795ZM18.2549 14.6645L18.9977 14.7679L18.2549 14.6645ZM5.74514 14.6645L6.48798 14.5611L5.74514 14.6645ZM5.4828 12.7795L4.73996 12.8829L5.4828 12.7795ZM9.18365 21.7368L8.89206 22.4278L9.18365 21.7368ZM6.47508 18.5603L7.17907 18.3017L6.47508 18.5603ZM17.5249 18.5603L18.2289 18.819V18.819L17.5249 18.5603ZM14.8164 21.7368L14.5248 21.0458H14.5248L14.8164 21.7368ZM5.74664 8.92906C5.70746 8.5167 5.34142 8.21418 4.92906 8.25336C4.5167 8.29254 4.21418 8.65858 4.25336 9.07094L5.74664 8.92906ZM19.7466 9.07094C19.7858 8.65858 19.4833 8.29254 19.0709 8.25336C18.6586 8.21418 18.2925 8.5167 18.2534 8.92906L19.7466 9.07094ZM20 7.75C20.4142 7.75 20.75 7.41421 20.75 7C20.75 6.58579 20.4142 6.25 20 6.25V7.75ZM4 6.25C3.58579 6.25 3.25 6.58579 3.25 7C3.25 7.41421 3.58579 7.75 4 7.75V6.25ZM16 7V7.75H16.75V7H16ZM8 7H7.25V7.75H8V7ZM17.7744 12.6761L17.512 14.5611L18.9977 14.7679L19.26 12.8829L17.7744 12.6761ZM6.48798 14.5611L6.22564 12.6761L4.73996 12.8829L5.0023 14.7679L6.48798 14.5611ZM12 21.25C10.4708 21.25 9.92544 21.2358 9.47524 21.0458L8.89206 22.4278C9.68914 22.7642 10.6056 22.75 12 22.75V21.25ZM5.0023 14.7679C5.282 16.7777 5.43406 17.9017 5.77109 18.819L7.17907 18.3017C6.91156 17.5736 6.77851 16.6488 6.48798 14.5611L5.0023 14.7679ZM9.47524 21.0458C8.55279 20.6566 7.69496 19.7058 7.17907 18.3017L5.77109 18.819C6.3857 20.4918 7.48205 21.8328 8.89206 22.4278L9.47524 21.0458ZM17.512 14.5611C17.2215 16.6488 17.0884 17.5736 16.8209 18.3017L18.2289 18.819C18.5659 17.9017 18.718 16.7777 18.9977 14.7679L17.512 14.5611ZM12 22.75C13.3944 22.75 14.3109 22.7642 15.1079 22.4278L14.5248 21.0458C14.0746 21.2358 13.5292 21.25 12 21.25V22.75ZM16.8209 18.3017C16.305 19.7058 15.4472 20.6566 14.5248 21.0458L15.1079 22.4278C16.5179 21.8328 17.6143 20.4918 18.2289 18.819L16.8209 18.3017ZM6.22564 12.6761C6.00352 11.08 5.83766 9.88703 5.74664 8.92906L4.25336 9.07094C4.34819 10.069 4.51961 11.2995 4.73996 12.8829L6.22564 12.6761ZM19.26 12.8829C19.4804 11.2995 19.6518 10.069 19.7466 9.07094L18.2534 8.92906C18.1623 9.88702 17.9965 11.08 17.7744 12.6761L19.26 12.8829ZM20 6.25H4V7.75H20V6.25ZM15.25 6V7H16.75V6H15.25ZM16 6.25H8V7.75H16V6.25ZM8.75 7V6H7.25V7H8.75ZM12 2.75C13.7949 2.75 15.25 4.20507 15.25 6H16.75C16.75 3.37665 14.6234 1.25 12 1.25V2.75ZM12 1.25C9.37665 1.25 7.25 3.37665 7.25 6H8.75C8.75 4.20507 10.2051 2.75 12 2.75V1.25Z"
      fill="currentColor"
    ></path>
  </symbol>
  <symbol
    fill="none"
    viewBox="0 0 24 24"
    id="shared"
  >
    <path
      d="M7 7.75C7 8.99264 8.00736 10 9.25 10V11.5C7.17893 11.5 5.5 9.82107 5.5 7.75H7ZM9.25 10C10.4926 10 11.5 8.99264 11.5 7.75H13C13 9.82107 11.3211 11.5 9.25 11.5V10ZM11.5 7.75C11.5 6.50736 10.4926 5.5 9.25 5.5V4C11.3211 4 13 5.67893 13 7.75H11.5ZM9.25 5.5C8.00736 5.5 7 6.50736 7 7.75H5.5C5.5 5.67893 7.17893 4 9.25 4V5.5ZM12.25 14.5H6.25V13H12.25V14.5ZM6.25 19H12.25V20.5H6.25V19ZM12.25 19C13.4926 19 14.5 17.9926 14.5 16.75H16C16 18.8211 14.3211 20.5 12.25 20.5V19ZM4 16.75C4 17.9926 5.00736 19 6.25 19V20.5C4.17893 20.5 2.5 18.8211 2.5 16.75H4ZM6.25 14.5C5.00736 14.5 4 15.5074 4 16.75H2.5C2.5 14.6789 4.17893 13 6.25 13V14.5ZM12.25 13C14.3211 13 16 14.6789 16 16.75H14.5C14.5 15.5074 13.4926 14.5 12.25 14.5V13Z"
      fill="currentColor"
    ></path>
    <path
      d="M13.4979 10.3887C13.6556 10.1353 13.9515 10 14.25 10C15.4926 10 16.5 8.99264 16.5 7.75C16.5 6.50736 15.4926 5.5 14.25 5.5C13.9515 5.5 13.6556 5.36473 13.4979 5.11135C13.4909 5.10014 13.4839 5.08896 13.4768 5.07782C13.2142 4.66331 13.3473 4.0764 13.835 4.0227C13.9713 4.0077 14.1097 4 14.25 4C16.3211 4 18 5.67893 18 7.75C18 9.82107 16.3211 11.5 14.25 11.5C14.1097 11.5 13.9713 11.4923 13.835 11.4773C13.3473 11.4236 13.2142 10.8367 13.4768 10.4222C13.4839 10.411 13.4909 10.3999 13.4979 10.3887Z"
      fill="currentColor"
    ></path>
    <path
      d="M16.5417 18.3169C16.6552 18.1275 16.8556 18 17.0764 18H17.25C18.4926 18 19.5 16.9926 19.5 15.75C19.5 14.5074 18.4926 13.5 17.25 13.5H17.0764C16.8556 13.5 16.6552 13.3725 16.5417 13.1831C16.2646 12.7208 16.5653 12 17.1043 12H17.25C19.3211 12 21 13.6789 21 15.75C21 17.8211 19.3211 19.5 17.25 19.5H17.1043C16.5653 19.5 16.2646 18.7792 16.5417 18.3169Z"
      fill="currentColor"
    ></path>
  </symbol>
  <symbol
    fill="none"
    viewBox="0 0 24 24"
    id="archive"
  >
    <path
      d="M5.06107 21.0451L5.50191 20.4383L5.06107 21.0451ZM3.95491 19.9389L4.56168 19.4981L3.95491 19.9389ZM20.0451 19.9389L19.4383 19.4981L20.0451 19.9389ZM18.9389 21.0451L18.4981 20.4383L18.9389 21.0451ZM18.9389 4.95491L18.4981 5.56168L18.9389 4.95491ZM20.0451 6.06107L19.4383 6.50191L20.0451 6.06107ZM5.06107 4.95491L5.50191 5.56168H5.50191L5.06107 4.95491ZM3.95491 6.06107L4.56168 6.50191L3.95491 6.06107ZM15.5451 1.24472L15.3134 1.95801L15.5451 1.24472ZM18.7553 4.45492L18.042 4.68668V4.68668L18.7553 4.45492ZM8.45497 1.24472L8.68673 1.95801L8.45497 1.24472ZM5.24477 4.45492L5.95806 4.68668L5.24477 4.45492ZM8 15.25C7.58579 15.25 7.25 15.5858 7.25 16C7.25 16.4142 7.58579 16.75 8 16.75V15.25ZM16 16.75C16.4142 16.75 16.75 16.4142 16.75 16C16.75 15.5858 16.4142 15.25 16 15.25V16.75ZM12 21.25C10.1084 21.25 8.74999 21.249 7.69804 21.135C6.66013 21.0225 6.00992 20.8074 5.50191 20.4383L4.62023 21.6518C5.42656 22.2377 6.37094 22.5 7.53648 22.6263C8.68798 22.751 10.1418 22.75 12 22.75V21.25ZM2.25 13C2.25 14.8582 2.24897 16.312 2.37373 17.4635C2.50001 18.6291 2.76232 19.5734 3.34815 20.3798L4.56168 19.4981C4.19259 18.9901 3.97745 18.3399 3.865 17.302C3.75103 16.25 3.75 14.8916 3.75 13H2.25ZM5.50191 20.4383C5.14111 20.1762 4.82382 19.8589 4.56168 19.4981L3.34815 20.3798C3.70281 20.8679 4.13209 21.2972 4.62023 21.6518L5.50191 20.4383ZM20.25 13C20.25 14.8916 20.249 16.25 20.135 17.302C20.0225 18.3399 19.8074 18.9901 19.4383 19.4981L20.6518 20.3798C21.2377 19.5734 21.5 18.6291 21.6263 17.4635C21.751 16.312 21.75 14.8582 21.75 13H20.25ZM12 22.75C13.8582 22.75 15.312 22.751 16.4635 22.6263C17.6291 22.5 18.5734 22.2377 19.3798 21.6518L18.4981 20.4383C17.9901 20.8074 17.3399 21.0225 16.302 21.135C15.25 21.249 13.8916 21.25 12 21.25V22.75ZM19.4383 19.4981C19.1762 19.8589 18.8589 20.1762 18.4981 20.4383L19.3798 21.6518C19.8679 21.2972 20.2972 20.8679 20.6518 20.3798L19.4383 19.4981ZM21.75 13C21.75 11.1418 21.751 9.68798 21.6263 8.53648C21.5 7.37094 21.2377 6.42656 20.6518 5.62023L19.4383 6.50191C19.8074 7.00992 20.0225 7.66013 20.135 8.69804C20.249 9.74999 20.25 11.1084 20.25 13H21.75ZM18.4981 5.56168C18.8589 5.82382 19.1762 6.14111 19.4383 6.50191L20.6518 5.62023C20.2972 5.13209 19.8679 4.70281 19.3798 4.34815L18.4981 5.56168ZM3.75 13C3.75 11.1084 3.75103 9.74999 3.865 8.69804C3.97745 7.66013 4.19259 7.00992 4.56168 6.50191L3.34815 5.62023C2.76232 6.42656 2.50001 7.37094 2.37373 8.53648C2.24897 9.68798 2.25 11.1418 2.25 13H3.75ZM4.62023 4.34815C4.13209 4.70281 3.70281 5.13209 3.34815 5.62023L4.56168 6.50191C4.82382 6.14111 5.14111 5.82382 5.50191 5.56168L4.62023 4.34815ZM12.0001 1.75C13.9197 1.75 14.7017 1.75925 15.3134 1.95801L15.7769 0.531425C14.8823 0.240747 13.803 0.25 12.0001 0.25V1.75ZM15.3134 1.95801C16.6072 2.37841 17.6216 3.39282 18.042 4.68668L19.4686 4.22315C18.8998 2.47263 17.5274 1.1002 15.7769 0.531425L15.3134 1.95801ZM12.0001 0.25C10.1971 0.25 9.11782 0.240747 8.22321 0.531425L8.68673 1.95801C9.29844 1.75925 10.0804 1.75 12.0001 1.75V0.25ZM8.22321 0.531425C6.47269 1.1002 5.10026 2.47263 4.53148 4.22315L5.95806 4.68668C6.37846 3.39282 7.39287 2.37841 8.68673 1.95801L8.22321 0.531425ZM5.86748 5.04567C5.89261 4.91348 5.9226 4.79583 5.95806 4.68668L4.53148 4.22315C4.47453 4.39842 4.42955 4.57785 4.39387 4.76553L5.86748 5.04567ZM12 3.25C10.1738 3.25 8.73872 3.24906 7.59818 3.36719C6.44603 3.48652 5.50714 3.73401 4.70441 4.28851L5.55694 5.52269C6.0652 5.17159 6.71896 4.96628 7.75271 4.85921C8.79808 4.75094 10.1422 4.75 12 4.75V3.25ZM4.70441 4.28851C4.67613 4.30805 4.64807 4.32793 4.62023 4.34815L5.50191 5.56168C5.52013 5.54844 5.53847 5.53545 5.55694 5.52269L4.70441 4.28851ZM19.6063 4.76563C19.5706 4.57791 19.5256 4.39845 19.4686 4.22315L18.042 4.68668C18.0775 4.79585 18.1075 4.91352 18.1326 5.04574L19.6063 4.76563ZM12 4.75C13.8579 4.75 15.202 4.75094 16.2474 4.85922C17.2811 4.9663 17.9349 5.17163 18.4432 5.52275L19.2957 4.28862C18.493 3.73405 17.5541 3.48655 16.4019 3.3672C15.2614 3.24906 13.8263 3.25 12 3.25V4.75ZM18.4432 5.52275C18.4616 5.53549 18.4799 5.54846 18.4981 5.56168L19.3798 4.34815C19.352 4.32797 19.324 4.30812 19.2957 4.28862L18.4432 5.52275ZM8 16.75H16V15.25H8V16.75Z"
      fill="currentColor"
    ></path>
  </symbol>
  <symbol
    fill="none"
    viewBox="0 0 24 24"
    id="photo"
  >
    <path
      d="M9 20.5L11.6727 15.7714C11.8024 15.5419 11.9163 15.3404 12.0182 15.1622M12.0182 15.1622C12.3341 14.6097 12.535 14.2806 12.7358 14.0336C14.3978 11.9885 17.3618 11.5845 19.5106 13.1101C19.8516 13.3522 20.2309 13.7309 20.985 14.485M12.0182 15.1622L11.5 15C10.3045 14.7609 9.70672 14.6413 9.15808 14.653C7.68985 14.6842 6.30956 15.3593 5.38354 16.4991C5.03751 16.925 4.76489 17.4702 4.21965 18.5607L4.10982 18.7804L3.98875 18.9849M20.985 14.485C21 13.7605 21 12.939 21 12C21 8.25027 21 6.3754 20.0451 5.06107C19.7367 4.6366 19.3634 4.26331 18.9389 3.95491C17.6246 3 15.7497 3 12 3C8.25027 3 6.3754 3 5.06107 3.95491C4.6366 4.26331 4.26331 4.6366 3.95491 5.06107C3 6.3754 3 8.25027 3 12C3 15.7497 3 17.6246 3.95491 18.9389C3.96611 18.9543 3.97738 18.9697 3.98875 18.9849M20.985 14.485C20.9401 16.6536 20.7609 17.9537 20.0451 18.9389C19.7367 19.3634 19.3634 19.7367 18.9389 20.0451C17.6246 21 15.7497 21 12 21C8.25027 21 6.3754 21 5.06107 20.0451C4.652 19.7479 4.29047 19.3904 3.98875 18.9849M9 9C9 10.1046 9.89543 11 11 11C12.1046 11 13 10.1046 13 9C13 7.89543 12.1046 7 11 7C9.89543 7 9 7.89543 9 9Z"
      stroke="currentColor"
      stroke-width="1.5"
      stroke-linecap="round"
    ></path>
  </symbol>
  <symbol
    fill="none"
    viewBox="0 0 24 24"
    id="files"
  >
    <path
      d="M5.06107 21.0451L5.50191 20.4383L5.06107 21.0451ZM3.95491 19.9389L4.56168 19.4981L3.95491 19.9389ZM20.0451 19.9389L19.4383 19.4981L20.0451 19.9389ZM18.9389 21.0451L18.4981 20.4383L18.9389 21.0451ZM18.9389 2.95491L19.3798 2.34815L18.9389 2.95491ZM20.0451 4.06107L19.4383 4.50191L20.0451 4.06107ZM5.06107 2.95491L5.50191 3.56168L5.06107 2.95491ZM3.95491 4.06107L4.56168 4.50191L3.95491 4.06107ZM13.1461 6.59531L13.2635 7.33608L13.1461 6.59531ZM11.5818 6.59531L11.4645 7.33608L11.5818 6.59531ZM8 17.25C7.58579 17.25 7.25 17.5858 7.25 18C7.25 18.4142 7.58579 18.75 8 18.75V17.25ZM16 18.75C16.4142 18.75 16.75 18.4142 16.75 18C16.75 17.5858 16.4142 17.25 16 17.25V18.75ZM8 13.25C7.58579 13.25 7.25 13.5858 7.25 14C7.25 14.4142 7.58579 14.75 8 14.75V13.25ZM16 14.75C16.4142 14.75 16.75 14.4142 16.75 14C16.75 13.5858 16.4142 13.25 16 13.25V14.75ZM8 9.25C7.58579 9.25 7.25 9.58579 7.25 10C7.25 10.4142 7.58579 10.75 8 10.75V9.25ZM16 10.75C16.4142 10.75 16.75 10.4142 16.75 10C16.75 9.58579 16.4142 9.25 16 9.25V10.75ZM20.25 11V13H21.75V11H20.25ZM3.75 13V11H2.25V13H3.75ZM12 21.25C10.1084 21.25 8.74999 21.249 7.69804 21.135C6.66013 21.0225 6.00992 20.8074 5.50191 20.4383L4.62023 21.6518C5.42656 22.2377 6.37094 22.5 7.53648 22.6263C8.68798 22.751 10.1418 22.75 12 22.75V21.25ZM2.25 13C2.25 14.8582 2.24897 16.312 2.37373 17.4635C2.50001 18.6291 2.76232 19.5734 3.34815 20.3798L4.56168 19.4981C4.19259 18.9901 3.97745 18.3399 3.865 17.302C3.75103 16.25 3.75 14.8916 3.75 13H2.25ZM5.50191 20.4383C5.14111 20.1762 4.82382 19.8589 4.56168 19.4981L3.34815 20.3798C3.70281 20.8679 4.13209 21.2972 4.62023 21.6518L5.50191 20.4383ZM20.25 13C20.25 14.8916 20.249 16.25 20.135 17.302C20.0225 18.3399 19.8074 18.9901 19.4383 19.4981L20.6518 20.3798C21.2377 19.5734 21.5 18.6291 21.6263 17.4635C21.751 16.312 21.75 14.8582 21.75 13H20.25ZM12 22.75C13.8582 22.75 15.312 22.751 16.4635 22.6263C17.6291 22.5 18.5734 22.2377 19.3798 21.6518L18.4981 20.4383C17.9901 20.8074 17.3399 21.0225 16.302 21.135C15.25 21.249 13.8916 21.25 12 21.25V22.75ZM19.4383 19.4981C19.1762 19.8589 18.8589 20.1762 18.4981 20.4383L19.3798 21.6518C19.8679 21.2972 20.2972 20.8679 20.6518 20.3798L19.4383 19.4981ZM21.75 11C21.75 9.14184 21.751 7.68798 21.6263 6.53648C21.5 5.37094 21.2377 4.42656 20.6518 3.62023L19.4383 4.50191C19.8074 5.00992 20.0225 5.66013 20.135 6.69804C20.249 7.74999 20.25 9.10843 20.25 11H21.75ZM18.4981 3.56168C18.8589 3.82382 19.1762 4.14111 19.4383 4.50191L20.6518 3.62023C20.2972 3.13209 19.8679 2.70281 19.3798 2.34815L18.4981 3.56168ZM3.75 11C3.75 9.10843 3.75103 7.74999 3.865 6.69804C3.97745 5.66013 4.19259 5.00992 4.56168 4.50191L3.34815 3.62023C2.76232 4.42656 2.50001 5.37094 2.37373 6.53648C2.24897 7.68798 2.25 9.14184 2.25 11H3.75ZM4.62023 2.34815C4.13209 2.70281 3.70281 3.13209 3.34815 3.62023L4.56168 4.50191C4.82382 4.14111 5.14111 3.82382 5.50191 3.56168L4.62023 2.34815ZM13.0288 5.85454C12.5883 5.92431 12.1396 5.92431 11.6991 5.85454L11.4645 7.33608C12.0604 7.43047 12.6675 7.43047 13.2635 7.33608L13.0288 5.85454ZM17.9103 2.12083C16.6701 3.36015 15.7663 4.25006 14.9856 4.8649C14.2161 5.47095 13.6262 5.75993 13.0288 5.85454L13.2635 7.33608C14.2116 7.1859 15.0379 6.73301 15.9137 6.04333C16.7783 5.36245 17.7488 4.40277 18.9706 3.18187L17.9103 2.12083ZM12 2.75C13.6617 2.75 14.9149 2.75053 15.9149 2.82911C16.9124 2.9075 17.5844 3.05963 18.1028 3.32103L18.7782 1.98168C18.0049 1.59173 17.107 1.41817 16.0324 1.33372C14.9603 1.24947 13.6391 1.25 12 1.25V2.75ZM18.1028 3.32103C18.2431 3.3918 18.374 3.4715 18.4981 3.56168L19.3798 2.34815C19.1892 2.20967 18.9892 2.08809 18.7782 1.98168L18.1028 3.32103ZM5.5419 2.96653C6.83246 4.25703 7.84545 5.26842 8.73841 5.98311C9.64243 6.70666 10.489 7.18158 11.4645 7.33608L11.6991 5.85454C11.0846 5.75721 10.4781 5.45425 9.67572 4.81202C8.86225 4.16095 7.91543 3.21868 6.60254 1.90585L5.5419 2.96653ZM12 1.25C10.5637 1.25 9.37369 1.24973 8.38484 1.30572C7.39671 1.36167 6.55633 1.47576 5.82759 1.7272L6.31685 3.14517C6.85227 2.96043 7.53187 2.85642 8.46964 2.80332C9.40668 2.75027 10.5485 2.75 12 2.75V1.25ZM5.82759 1.7272C5.38699 1.87923 4.98789 2.08103 4.62023 2.34815L5.50191 3.56168C5.73848 3.3898 6.00284 3.25352 6.31685 3.14517L5.82759 1.7272ZM8 18.75H16V17.25H8V18.75ZM8 14.75H16V13.25H8V14.75ZM8 10.75H16V9.25H8V10.75Z"
      fill="currentColor"
    ></path>
  </symbol>
  <symbol
    fill="none"
    viewBox="0 0 24 24"
    id="menu"
  >
    <path
      d="M5 18H19M5 6H19M5 12H19"
      stroke="currentColor"
      stroke-width="1.5"
      stroke-linecap="round"
    ></path>
  </symbol>
  <symbol
    fill="none"
    viewBox="0 0 24 24"
    id="double_left_arrow"
  >
    <path d="M10 17L8.23703 15.2527C6.8311 13.8592 6.12813 13.1625 6.01989 12.3133C5.99337 12.1053 5.99337 11.8947 6.01989 11.6867C6.12813 10.8375 6.8311 10.1408 8.23703 8.74731L10 7" stroke="currentColor" stroke-width="1.5" stroke-linecap="round"/>
    <path d="M18 17L16.237 15.2527C14.8311 13.8592 14.1281 13.1625 14.0199 12.3133C13.9934 12.1053 13.9934 11.8947 14.0199 11.6867C14.1281 10.8375 14.8311 10.1408 16.237 8.74731L18 7" stroke="currentColor" stroke-width="1.5" stroke-linecap="round"/>
  </symbol>
  <symbol
    fill="none"
    viewBox="0 0 24 24"
    id="double_right_arrow"
  >
    <path d="M14 7L15.763 8.74731C17.1689 10.1408 17.8719 10.8375 17.9801 11.6867C18.0066 11.8947 18.0066 12.1053 17.9801 12.3133C17.8719 13.1625 17.1689 13.8592 15.763 15.2527L14 17" stroke="currentColor" stroke-width="1.5" stroke-linecap="round"/>
    <path d="M6 7L7.76297 8.74731C9.1689 10.1408 9.87187 10.8375 9.98011 11.6867C10.0066 11.8947 10.0066 12.1053 9.98011 12.3133C9.87187 13.1625 9.1689 13.8592 7.76297 15.2527L6 17" stroke="currentColor" stroke-width="1.5" stroke-linecap="round"/>
  </symbol>
  <symbol
    fill="none"
    viewBox="0 0 24 24"
    id="right_arrow"
  >
    <path d="M14 17L12.237 15.2527C10.8311 13.8592 10.1281 13.1625 10.0199 12.3133C9.99337 12.1053 9.99337 11.8947 10.0199 11.6867C10.1281 10.8375 10.8311 10.1408 12.237 8.74731L14 7" stroke="currentColor" stroke-width="1.5" stroke-linecap="round"/>
  </symbol>
</svg>