<?xml version="1.0" standalone="no"?>
<!DOCTYPE svg PUBLIC "-//W3C//DTD SVG 20010904//EN"
 "http://www.w3.org/TR/2001/REC-SVG-20010904/DTD/svg10.dtd">
<svg version="1.0" xmlns="http://www.w3.org/2000/svg"
 width="700.000000pt" height="700.000000pt" viewBox="0 0 700.000000 700.000000"
 preserveAspectRatio="xMidYMid meet">
<metadata>
Created by potrace 1.14, written by Peter Selinger 2001-2017
</metadata>
<g transform="translate(0.000000,700.000000) scale(0.100000,-0.100000)"
fill="#000000" stroke="none">
<path d="M3265 5628 c-162 -16 -244 -30 -380 -64 -442 -111 -852 -378 -1155
-749 -128 -157 -220 -305 -331 -532 -205 -419 -350 -639 -597 -904 -113 -122
-268 -336 -344 -479 -80 -147 -150 -335 -179 -475 -7 -35 -12 -144 -13 -260 0
-168 2 -208 18 -250 29 -83 73 -150 135 -208 108 -99 424 -237 646 -281 122
-24 123 -24 255 -41 195 -25 578 -25 810 1 25 2 92 11 150 19 176 24 185 25
260 40 14 3 41 8 60 11 19 3 55 10 80 16 25 5 56 12 70 14 76 14 406 99 540
139 269 80 566 190 800 295 127 57 433 214 545 280 50 29 106 62 125 72 120
69 624 422 650 457 3 4 27 25 55 46 27 22 61 50 75 62 14 12 36 31 50 43 151
130 420 393 545 534 252 283 438 586 533 868 86 253 89 421 11 567 -49 90
-222 252 -251 235 -7 -4 -10 -3 -5 1 14 16 -234 149 -333 180 -143 44 -313 83
-435 100 -165 23 -246 27 -605 30 -190 1 -367 5 -395 9 -102 16 -284 58 -420
97 -266 78 -395 106 -565 125 -89 9 -320 11 -405 2z m1690 -1913 c161 -17 264
-72 301 -161 18 -43 18 -121 0 -172 -41 -116 -257 -377 -427 -517 -65 -54
-281 -210 -331 -240 -9 -5 -77 -46 -150 -91 -382 -232 -876 -427 -1293 -510
-177 -35 -285 -48 -410 -49 -63 0 -83 3 -203 29 -160 35 -234 106 -235 228 -1
103 101 279 255 439 86 90 188 181 278 248 41 31 77 59 80 62 11 13 211 139
310 196 58 33 178 95 265 137 88 43 168 82 177 87 40 21 264 111 378 152 107
39 305 97 383 113 118 24 252 45 320 50 45 3 83 7 85 8 4 5 154 -2 217 -9z"/>
</g>
</svg>
